G04 EAGLE Gerber RS-274X export*
G75*
%MOMM*%
%FSLAX34Y34*%
%LPD*%
%INSilkscreen Top*%
%IPPOS*%
%AMOC8*
5,1,8,0,0,1.08239X$1,22.5*%
G01*
%ADD10C,0.228600*%
%ADD11C,0.152400*%
%ADD12C,0.304800*%
%ADD13C,0.355600*%
%ADD14R,0.375000X0.125000*%
%ADD15R,0.875000X0.125000*%
%ADD16R,1.000000X0.125000*%
%ADD17R,0.625000X0.125000*%
%ADD18R,0.500000X0.125000*%
%ADD19R,1.500000X0.125000*%
%ADD20R,0.250000X0.125000*%
%ADD21R,0.750000X0.125000*%
%ADD22R,1.375000X0.125000*%
%ADD23R,1.875000X0.125000*%
%ADD24R,0.125000X0.125000*%
%ADD25R,1.125000X0.125000*%
%ADD26R,1.625000X0.125000*%
%ADD27R,2.125000X0.125000*%
%ADD28R,1.750000X0.125000*%
%ADD29R,2.000000X0.125000*%
%ADD30R,2.375000X0.125000*%
%ADD31R,2.250000X0.125000*%
%ADD32R,1.250000X0.125000*%
%ADD33R,2.500000X0.125000*%
%ADD34R,3.250000X0.125000*%
%ADD35R,3.125000X0.125000*%
%ADD36R,2.875000X0.125000*%
%ADD37R,3.500000X0.125000*%
%ADD38R,3.625000X0.125000*%
%ADD39R,4.625000X0.125000*%
%ADD40R,3.375000X0.125000*%
%ADD41R,3.000000X0.125000*%
%ADD42R,2.750000X0.125000*%
%ADD43R,6.125000X0.125000*%
%ADD44R,5.375000X0.125000*%
%ADD45R,3.750000X0.125000*%
%ADD46R,2.625000X0.125000*%


D10*
X21143Y651143D02*
X21143Y674257D01*
X21143Y663984D02*
X33984Y663984D01*
X33984Y674257D02*
X33984Y651143D01*
X42718Y657564D02*
X42718Y667836D01*
X42717Y667836D02*
X42719Y667995D01*
X42725Y668154D01*
X42735Y668312D01*
X42748Y668470D01*
X42766Y668628D01*
X42788Y668786D01*
X42813Y668942D01*
X42842Y669098D01*
X42875Y669254D01*
X42912Y669408D01*
X42953Y669562D01*
X42998Y669714D01*
X43046Y669865D01*
X43098Y670016D01*
X43154Y670164D01*
X43213Y670312D01*
X43276Y670457D01*
X43343Y670602D01*
X43413Y670744D01*
X43487Y670885D01*
X43564Y671024D01*
X43645Y671160D01*
X43729Y671295D01*
X43816Y671428D01*
X43906Y671559D01*
X44000Y671687D01*
X44097Y671813D01*
X44197Y671936D01*
X44300Y672057D01*
X44405Y672176D01*
X44514Y672291D01*
X44626Y672404D01*
X44740Y672515D01*
X44857Y672622D01*
X44977Y672726D01*
X45099Y672828D01*
X45224Y672926D01*
X45351Y673021D01*
X45480Y673113D01*
X45612Y673202D01*
X45746Y673288D01*
X45882Y673370D01*
X46020Y673449D01*
X46159Y673524D01*
X46301Y673596D01*
X46444Y673665D01*
X46589Y673730D01*
X46736Y673791D01*
X46884Y673848D01*
X47033Y673902D01*
X47184Y673952D01*
X47336Y673999D01*
X47489Y674042D01*
X47643Y674081D01*
X47798Y674116D01*
X47954Y674147D01*
X48110Y674174D01*
X48267Y674198D01*
X48425Y674217D01*
X48583Y674233D01*
X48741Y674245D01*
X48900Y674253D01*
X49059Y674257D01*
X49217Y674257D01*
X49376Y674253D01*
X49535Y674245D01*
X49693Y674233D01*
X49851Y674217D01*
X50009Y674198D01*
X50166Y674174D01*
X50322Y674147D01*
X50478Y674116D01*
X50633Y674081D01*
X50787Y674042D01*
X50940Y673999D01*
X51092Y673952D01*
X51243Y673902D01*
X51392Y673848D01*
X51540Y673791D01*
X51687Y673730D01*
X51832Y673665D01*
X51975Y673596D01*
X52117Y673524D01*
X52256Y673449D01*
X52394Y673370D01*
X52530Y673288D01*
X52664Y673202D01*
X52796Y673113D01*
X52925Y673021D01*
X53052Y672926D01*
X53177Y672828D01*
X53299Y672726D01*
X53419Y672622D01*
X53536Y672515D01*
X53650Y672404D01*
X53762Y672291D01*
X53871Y672176D01*
X53976Y672057D01*
X54079Y671936D01*
X54179Y671813D01*
X54276Y671687D01*
X54370Y671559D01*
X54460Y671428D01*
X54547Y671295D01*
X54631Y671160D01*
X54712Y671024D01*
X54789Y670885D01*
X54863Y670744D01*
X54933Y670602D01*
X55000Y670457D01*
X55063Y670312D01*
X55122Y670164D01*
X55178Y670016D01*
X55230Y669865D01*
X55278Y669714D01*
X55323Y669562D01*
X55364Y669408D01*
X55401Y669254D01*
X55434Y669098D01*
X55463Y668942D01*
X55488Y668786D01*
X55510Y668628D01*
X55528Y668470D01*
X55541Y668312D01*
X55551Y668154D01*
X55557Y667995D01*
X55559Y667836D01*
X55559Y657564D01*
X55557Y657405D01*
X55551Y657246D01*
X55541Y657088D01*
X55528Y656930D01*
X55510Y656772D01*
X55488Y656614D01*
X55463Y656458D01*
X55434Y656302D01*
X55401Y656146D01*
X55364Y655992D01*
X55323Y655838D01*
X55278Y655686D01*
X55230Y655535D01*
X55178Y655384D01*
X55122Y655236D01*
X55063Y655088D01*
X55000Y654943D01*
X54933Y654798D01*
X54863Y654656D01*
X54789Y654515D01*
X54712Y654376D01*
X54631Y654240D01*
X54547Y654105D01*
X54460Y653972D01*
X54370Y653841D01*
X54276Y653713D01*
X54179Y653587D01*
X54079Y653464D01*
X53976Y653343D01*
X53871Y653224D01*
X53762Y653109D01*
X53650Y652996D01*
X53536Y652885D01*
X53419Y652778D01*
X53299Y652674D01*
X53177Y652572D01*
X53052Y652474D01*
X52925Y652379D01*
X52796Y652287D01*
X52664Y652198D01*
X52530Y652112D01*
X52394Y652030D01*
X52256Y651951D01*
X52117Y651876D01*
X51975Y651804D01*
X51832Y651735D01*
X51687Y651670D01*
X51540Y651609D01*
X51392Y651552D01*
X51243Y651498D01*
X51092Y651448D01*
X50940Y651401D01*
X50787Y651358D01*
X50633Y651319D01*
X50478Y651284D01*
X50322Y651253D01*
X50166Y651226D01*
X50009Y651202D01*
X49851Y651183D01*
X49693Y651167D01*
X49535Y651155D01*
X49376Y651147D01*
X49217Y651143D01*
X49059Y651143D01*
X48900Y651147D01*
X48741Y651155D01*
X48583Y651167D01*
X48425Y651183D01*
X48267Y651202D01*
X48110Y651226D01*
X47954Y651253D01*
X47798Y651284D01*
X47643Y651319D01*
X47489Y651358D01*
X47336Y651401D01*
X47184Y651448D01*
X47033Y651498D01*
X46884Y651552D01*
X46736Y651609D01*
X46589Y651670D01*
X46444Y651735D01*
X46301Y651804D01*
X46159Y651876D01*
X46020Y651951D01*
X45882Y652030D01*
X45746Y652112D01*
X45612Y652198D01*
X45480Y652287D01*
X45351Y652379D01*
X45224Y652474D01*
X45099Y652572D01*
X44977Y652674D01*
X44857Y652778D01*
X44740Y652885D01*
X44626Y652996D01*
X44514Y653109D01*
X44405Y653224D01*
X44300Y653343D01*
X44197Y653464D01*
X44097Y653587D01*
X44000Y653713D01*
X43906Y653841D01*
X43816Y653972D01*
X43729Y654105D01*
X43645Y654240D01*
X43564Y654376D01*
X43487Y654515D01*
X43413Y654656D01*
X43343Y654798D01*
X43276Y654943D01*
X43213Y655088D01*
X43154Y655236D01*
X43098Y655384D01*
X43046Y655535D01*
X42998Y655686D01*
X42953Y655838D01*
X42912Y655992D01*
X42875Y656146D01*
X42842Y656302D01*
X42813Y656458D01*
X42788Y656614D01*
X42766Y656772D01*
X42748Y656930D01*
X42735Y657088D01*
X42725Y657246D01*
X42719Y657405D01*
X42717Y657564D01*
X64320Y651143D02*
X64320Y674257D01*
X64320Y651143D02*
X74593Y651143D01*
X82387Y651143D02*
X82387Y674257D01*
X88808Y674257D01*
X88966Y674255D01*
X89123Y674249D01*
X89280Y674240D01*
X89437Y674226D01*
X89594Y674209D01*
X89750Y674188D01*
X89906Y674162D01*
X90061Y674134D01*
X90215Y674101D01*
X90368Y674065D01*
X90521Y674024D01*
X90672Y673981D01*
X90822Y673933D01*
X90971Y673882D01*
X91119Y673827D01*
X91265Y673768D01*
X91410Y673706D01*
X91553Y673641D01*
X91695Y673571D01*
X91835Y673499D01*
X91973Y673423D01*
X92109Y673343D01*
X92243Y673261D01*
X92375Y673175D01*
X92505Y673086D01*
X92633Y672993D01*
X92758Y672898D01*
X92881Y672800D01*
X93002Y672698D01*
X93120Y672594D01*
X93236Y672486D01*
X93348Y672376D01*
X93458Y672264D01*
X93566Y672148D01*
X93670Y672030D01*
X93772Y671909D01*
X93870Y671786D01*
X93965Y671661D01*
X94058Y671533D01*
X94147Y671403D01*
X94233Y671271D01*
X94315Y671137D01*
X94395Y671001D01*
X94471Y670863D01*
X94543Y670723D01*
X94613Y670581D01*
X94678Y670438D01*
X94740Y670293D01*
X94799Y670147D01*
X94854Y669999D01*
X94905Y669850D01*
X94953Y669700D01*
X94996Y669549D01*
X95037Y669396D01*
X95073Y669243D01*
X95106Y669089D01*
X95134Y668934D01*
X95160Y668778D01*
X95181Y668622D01*
X95198Y668465D01*
X95212Y668308D01*
X95221Y668151D01*
X95227Y667994D01*
X95229Y667836D01*
X95228Y667836D02*
X95228Y657564D01*
X95229Y657564D02*
X95227Y657406D01*
X95221Y657249D01*
X95212Y657092D01*
X95198Y656935D01*
X95181Y656778D01*
X95160Y656622D01*
X95134Y656466D01*
X95106Y656311D01*
X95073Y656157D01*
X95037Y656004D01*
X94996Y655851D01*
X94953Y655700D01*
X94905Y655550D01*
X94854Y655401D01*
X94799Y655253D01*
X94740Y655107D01*
X94678Y654962D01*
X94613Y654819D01*
X94543Y654677D01*
X94471Y654537D01*
X94395Y654399D01*
X94315Y654263D01*
X94233Y654129D01*
X94147Y653997D01*
X94058Y653867D01*
X93965Y653739D01*
X93870Y653614D01*
X93771Y653491D01*
X93670Y653370D01*
X93566Y653252D01*
X93458Y653136D01*
X93348Y653024D01*
X93236Y652914D01*
X93120Y652806D01*
X93002Y652702D01*
X92881Y652600D01*
X92758Y652502D01*
X92633Y652407D01*
X92505Y652314D01*
X92375Y652225D01*
X92243Y652139D01*
X92109Y652057D01*
X91973Y651977D01*
X91835Y651901D01*
X91695Y651829D01*
X91553Y651759D01*
X91410Y651694D01*
X91265Y651632D01*
X91119Y651573D01*
X90971Y651518D01*
X90822Y651467D01*
X90672Y651419D01*
X90521Y651376D01*
X90368Y651335D01*
X90215Y651299D01*
X90061Y651266D01*
X89906Y651238D01*
X89750Y651212D01*
X89594Y651191D01*
X89437Y651174D01*
X89280Y651160D01*
X89123Y651151D01*
X88966Y651145D01*
X88808Y651143D01*
X82387Y651143D01*
X21143Y791143D02*
X21143Y814257D01*
X31416Y814257D01*
X31416Y803984D02*
X21143Y803984D01*
X37230Y791143D02*
X44935Y814257D01*
X52639Y791143D01*
X50713Y796922D02*
X39156Y796922D01*
X60117Y791143D02*
X60117Y814257D01*
X60117Y791143D02*
X70390Y791143D01*
X78212Y791143D02*
X78212Y814257D01*
X78212Y791143D02*
X88484Y791143D01*
X21143Y931143D02*
X21143Y954257D01*
X27564Y954257D01*
X27723Y954255D01*
X27882Y954249D01*
X28040Y954239D01*
X28198Y954226D01*
X28356Y954208D01*
X28514Y954186D01*
X28670Y954161D01*
X28826Y954132D01*
X28982Y954099D01*
X29136Y954062D01*
X29290Y954021D01*
X29442Y953976D01*
X29593Y953928D01*
X29744Y953876D01*
X29892Y953820D01*
X30040Y953761D01*
X30185Y953698D01*
X30330Y953631D01*
X30472Y953561D01*
X30613Y953487D01*
X30752Y953410D01*
X30888Y953329D01*
X31023Y953245D01*
X31156Y953158D01*
X31287Y953068D01*
X31415Y952974D01*
X31541Y952877D01*
X31664Y952777D01*
X31785Y952674D01*
X31904Y952569D01*
X32019Y952460D01*
X32132Y952348D01*
X32243Y952234D01*
X32350Y952117D01*
X32454Y951997D01*
X32556Y951875D01*
X32654Y951750D01*
X32749Y951623D01*
X32841Y951494D01*
X32930Y951362D01*
X33016Y951228D01*
X33098Y951092D01*
X33177Y950954D01*
X33252Y950815D01*
X33324Y950673D01*
X33393Y950530D01*
X33458Y950385D01*
X33519Y950238D01*
X33576Y950090D01*
X33630Y949941D01*
X33680Y949790D01*
X33727Y949638D01*
X33770Y949485D01*
X33809Y949331D01*
X33844Y949176D01*
X33875Y949020D01*
X33902Y948864D01*
X33926Y948707D01*
X33945Y948549D01*
X33961Y948391D01*
X33973Y948233D01*
X33981Y948074D01*
X33985Y947915D01*
X33985Y947757D01*
X33981Y947598D01*
X33973Y947439D01*
X33961Y947281D01*
X33945Y947123D01*
X33926Y946965D01*
X33902Y946808D01*
X33875Y946652D01*
X33844Y946496D01*
X33809Y946341D01*
X33770Y946187D01*
X33727Y946034D01*
X33680Y945882D01*
X33630Y945731D01*
X33576Y945582D01*
X33519Y945434D01*
X33458Y945287D01*
X33393Y945142D01*
X33324Y944999D01*
X33252Y944857D01*
X33177Y944718D01*
X33098Y944580D01*
X33016Y944444D01*
X32930Y944310D01*
X32841Y944178D01*
X32749Y944049D01*
X32654Y943922D01*
X32556Y943797D01*
X32454Y943675D01*
X32350Y943555D01*
X32243Y943438D01*
X32132Y943324D01*
X32019Y943212D01*
X31904Y943103D01*
X31785Y942998D01*
X31664Y942895D01*
X31541Y942795D01*
X31415Y942698D01*
X31287Y942604D01*
X31156Y942514D01*
X31023Y942427D01*
X30888Y942343D01*
X30752Y942262D01*
X30613Y942185D01*
X30472Y942111D01*
X30330Y942041D01*
X30185Y941974D01*
X30040Y941911D01*
X29892Y941852D01*
X29744Y941796D01*
X29593Y941744D01*
X29442Y941696D01*
X29290Y941651D01*
X29136Y941610D01*
X28982Y941573D01*
X28826Y941540D01*
X28670Y941511D01*
X28514Y941486D01*
X28356Y941464D01*
X28198Y941446D01*
X28040Y941433D01*
X27882Y941423D01*
X27723Y941417D01*
X27564Y941415D01*
X27564Y941416D02*
X21143Y941416D01*
X28848Y941416D02*
X33984Y931143D01*
X44193Y931143D02*
X44193Y954257D01*
X41625Y931143D02*
X46761Y931143D01*
X46761Y954257D02*
X41625Y954257D01*
X61484Y931143D02*
X61626Y931145D01*
X61767Y931151D01*
X61908Y931161D01*
X62049Y931174D01*
X62189Y931192D01*
X62329Y931213D01*
X62469Y931238D01*
X62607Y931267D01*
X62745Y931300D01*
X62882Y931337D01*
X63017Y931377D01*
X63152Y931421D01*
X63285Y931469D01*
X63417Y931521D01*
X63547Y931576D01*
X63676Y931634D01*
X63803Y931696D01*
X63928Y931762D01*
X64052Y931831D01*
X64174Y931904D01*
X64293Y931979D01*
X64411Y932058D01*
X64526Y932141D01*
X64639Y932226D01*
X64749Y932314D01*
X64857Y932406D01*
X64963Y932500D01*
X65065Y932598D01*
X65165Y932698D01*
X65263Y932800D01*
X65357Y932906D01*
X65449Y933014D01*
X65537Y933124D01*
X65622Y933237D01*
X65705Y933352D01*
X65784Y933470D01*
X65859Y933589D01*
X65932Y933711D01*
X66001Y933835D01*
X66067Y933960D01*
X66129Y934087D01*
X66187Y934216D01*
X66242Y934346D01*
X66294Y934478D01*
X66342Y934611D01*
X66386Y934746D01*
X66426Y934881D01*
X66463Y935018D01*
X66496Y935156D01*
X66525Y935294D01*
X66550Y935434D01*
X66571Y935574D01*
X66589Y935714D01*
X66602Y935855D01*
X66612Y935996D01*
X66618Y936137D01*
X66620Y936279D01*
X61484Y931143D02*
X61224Y931146D01*
X60965Y931155D01*
X60706Y931171D01*
X60447Y931193D01*
X60189Y931221D01*
X59932Y931255D01*
X59675Y931295D01*
X59420Y931341D01*
X59165Y931394D01*
X58912Y931452D01*
X58661Y931517D01*
X58411Y931587D01*
X58163Y931664D01*
X57917Y931746D01*
X57673Y931834D01*
X57431Y931928D01*
X57191Y932028D01*
X56954Y932134D01*
X56719Y932245D01*
X56487Y932362D01*
X56258Y932484D01*
X56032Y932612D01*
X55809Y932745D01*
X55590Y932883D01*
X55374Y933027D01*
X55161Y933176D01*
X54952Y933330D01*
X54746Y933488D01*
X54545Y933652D01*
X54347Y933820D01*
X54154Y933993D01*
X53964Y934171D01*
X53779Y934353D01*
X54422Y949121D02*
X54424Y949263D01*
X54430Y949404D01*
X54440Y949545D01*
X54453Y949686D01*
X54471Y949826D01*
X54492Y949966D01*
X54517Y950106D01*
X54546Y950244D01*
X54579Y950382D01*
X54616Y950519D01*
X54656Y950654D01*
X54700Y950789D01*
X54748Y950922D01*
X54800Y951054D01*
X54855Y951184D01*
X54913Y951313D01*
X54975Y951440D01*
X55041Y951565D01*
X55110Y951689D01*
X55183Y951811D01*
X55258Y951930D01*
X55337Y952048D01*
X55420Y952163D01*
X55505Y952276D01*
X55593Y952386D01*
X55685Y952494D01*
X55779Y952600D01*
X55877Y952702D01*
X55977Y952802D01*
X56079Y952900D01*
X56185Y952994D01*
X56293Y953086D01*
X56403Y953174D01*
X56516Y953259D01*
X56631Y953342D01*
X56749Y953421D01*
X56868Y953496D01*
X56990Y953569D01*
X57114Y953638D01*
X57239Y953704D01*
X57366Y953766D01*
X57495Y953824D01*
X57625Y953879D01*
X57757Y953931D01*
X57890Y953979D01*
X58025Y954023D01*
X58161Y954063D01*
X58297Y954100D01*
X58435Y954133D01*
X58573Y954162D01*
X58713Y954187D01*
X58853Y954208D01*
X58993Y954226D01*
X59134Y954239D01*
X59275Y954249D01*
X59417Y954255D01*
X59558Y954257D01*
X59788Y954254D01*
X60017Y954246D01*
X60246Y954232D01*
X60475Y954213D01*
X60703Y954189D01*
X60931Y954159D01*
X61157Y954123D01*
X61383Y954082D01*
X61608Y954036D01*
X61832Y953985D01*
X62054Y953928D01*
X62275Y953866D01*
X62495Y953798D01*
X62712Y953726D01*
X62928Y953648D01*
X63142Y953565D01*
X63354Y953477D01*
X63564Y953384D01*
X63772Y953286D01*
X63977Y953183D01*
X64180Y953076D01*
X64380Y952963D01*
X64577Y952846D01*
X64771Y952724D01*
X64963Y952597D01*
X65151Y952466D01*
X65337Y952331D01*
X56989Y944626D02*
X56868Y944700D01*
X56748Y944778D01*
X56630Y944858D01*
X56515Y944942D01*
X56402Y945029D01*
X56291Y945119D01*
X56183Y945212D01*
X56078Y945308D01*
X55975Y945406D01*
X55875Y945508D01*
X55777Y945612D01*
X55683Y945719D01*
X55592Y945828D01*
X55503Y945940D01*
X55418Y946054D01*
X55336Y946170D01*
X55257Y946289D01*
X55181Y946410D01*
X55108Y946533D01*
X55039Y946657D01*
X54974Y946784D01*
X54912Y946912D01*
X54853Y947042D01*
X54798Y947174D01*
X54747Y947307D01*
X54699Y947441D01*
X54655Y947576D01*
X54615Y947713D01*
X54578Y947851D01*
X54545Y947990D01*
X54516Y948129D01*
X54491Y948270D01*
X54470Y948410D01*
X54452Y948552D01*
X54439Y948694D01*
X54429Y948836D01*
X54423Y948978D01*
X54421Y949121D01*
X64053Y940774D02*
X64174Y940700D01*
X64294Y940622D01*
X64412Y940542D01*
X64527Y940458D01*
X64640Y940371D01*
X64751Y940281D01*
X64859Y940188D01*
X64964Y940092D01*
X65067Y939994D01*
X65167Y939892D01*
X65265Y939788D01*
X65359Y939681D01*
X65450Y939572D01*
X65539Y939460D01*
X65624Y939346D01*
X65706Y939230D01*
X65785Y939111D01*
X65861Y938990D01*
X65934Y938867D01*
X66003Y938743D01*
X66068Y938616D01*
X66130Y938488D01*
X66189Y938358D01*
X66244Y938226D01*
X66295Y938093D01*
X66343Y937959D01*
X66387Y937824D01*
X66427Y937687D01*
X66464Y937549D01*
X66497Y937410D01*
X66526Y937271D01*
X66551Y937130D01*
X66572Y936990D01*
X66590Y936848D01*
X66603Y936706D01*
X66613Y936564D01*
X66619Y936422D01*
X66621Y936279D01*
X64053Y940774D02*
X56990Y944626D01*
X74686Y931143D02*
X84959Y931143D01*
X74686Y931143D02*
X74686Y954257D01*
X84959Y954257D01*
X82391Y943984D02*
X74686Y943984D01*
X33984Y1083984D02*
X30132Y1083984D01*
X33984Y1083984D02*
X33984Y1071143D01*
X26279Y1071143D01*
X26137Y1071145D01*
X25996Y1071151D01*
X25855Y1071161D01*
X25714Y1071174D01*
X25574Y1071192D01*
X25434Y1071213D01*
X25294Y1071238D01*
X25156Y1071267D01*
X25018Y1071300D01*
X24881Y1071337D01*
X24746Y1071377D01*
X24611Y1071421D01*
X24478Y1071469D01*
X24346Y1071521D01*
X24216Y1071576D01*
X24087Y1071634D01*
X23960Y1071696D01*
X23835Y1071762D01*
X23711Y1071831D01*
X23589Y1071904D01*
X23470Y1071979D01*
X23352Y1072058D01*
X23237Y1072141D01*
X23124Y1072226D01*
X23014Y1072314D01*
X22906Y1072406D01*
X22800Y1072500D01*
X22698Y1072598D01*
X22598Y1072698D01*
X22500Y1072800D01*
X22406Y1072906D01*
X22314Y1073014D01*
X22226Y1073124D01*
X22141Y1073237D01*
X22058Y1073352D01*
X21979Y1073470D01*
X21904Y1073589D01*
X21831Y1073711D01*
X21762Y1073835D01*
X21696Y1073960D01*
X21634Y1074087D01*
X21576Y1074216D01*
X21521Y1074346D01*
X21469Y1074478D01*
X21421Y1074611D01*
X21377Y1074746D01*
X21337Y1074881D01*
X21300Y1075018D01*
X21267Y1075156D01*
X21238Y1075294D01*
X21213Y1075434D01*
X21192Y1075574D01*
X21174Y1075714D01*
X21161Y1075855D01*
X21151Y1075996D01*
X21145Y1076137D01*
X21143Y1076279D01*
X21143Y1089121D01*
X21145Y1089263D01*
X21151Y1089404D01*
X21161Y1089545D01*
X21174Y1089686D01*
X21192Y1089826D01*
X21213Y1089966D01*
X21238Y1090106D01*
X21267Y1090244D01*
X21300Y1090382D01*
X21337Y1090519D01*
X21377Y1090654D01*
X21421Y1090789D01*
X21469Y1090922D01*
X21521Y1091054D01*
X21576Y1091184D01*
X21634Y1091313D01*
X21696Y1091440D01*
X21762Y1091565D01*
X21831Y1091689D01*
X21904Y1091811D01*
X21979Y1091930D01*
X22058Y1092048D01*
X22141Y1092163D01*
X22226Y1092276D01*
X22314Y1092386D01*
X22406Y1092494D01*
X22500Y1092600D01*
X22598Y1092702D01*
X22698Y1092802D01*
X22800Y1092900D01*
X22906Y1092994D01*
X23014Y1093086D01*
X23124Y1093174D01*
X23237Y1093259D01*
X23352Y1093342D01*
X23470Y1093421D01*
X23589Y1093496D01*
X23711Y1093569D01*
X23835Y1093638D01*
X23960Y1093704D01*
X24087Y1093766D01*
X24216Y1093824D01*
X24346Y1093879D01*
X24478Y1093931D01*
X24611Y1093979D01*
X24746Y1094023D01*
X24881Y1094063D01*
X25018Y1094100D01*
X25156Y1094133D01*
X25294Y1094162D01*
X25434Y1094187D01*
X25574Y1094208D01*
X25714Y1094226D01*
X25855Y1094239D01*
X25996Y1094249D01*
X26137Y1094255D01*
X26279Y1094257D01*
X33984Y1094257D01*
X49138Y1094257D02*
X41434Y1071143D01*
X56843Y1071143D02*
X49138Y1094257D01*
X54917Y1076922D02*
X43360Y1076922D01*
X68625Y1071143D02*
X68625Y1094257D01*
X62205Y1094257D02*
X75046Y1094257D01*
X82415Y1071143D02*
X92688Y1071143D01*
X82415Y1071143D02*
X82415Y1094257D01*
X92688Y1094257D01*
X90120Y1083984D02*
X82415Y1083984D01*
D11*
X360762Y1130762D02*
X360762Y1147018D01*
X360762Y1139793D02*
X369793Y1139793D01*
X369793Y1147018D02*
X369793Y1130762D01*
X378304Y1130762D02*
X378304Y1147018D01*
X376497Y1130762D02*
X380110Y1130762D01*
X380110Y1147018D02*
X376497Y1147018D01*
X395242Y1147018D02*
X395242Y1130762D01*
X395242Y1147018D02*
X399758Y1147018D01*
X399891Y1147016D01*
X400023Y1147010D01*
X400155Y1147000D01*
X400287Y1146987D01*
X400419Y1146969D01*
X400549Y1146948D01*
X400680Y1146923D01*
X400809Y1146894D01*
X400937Y1146861D01*
X401065Y1146825D01*
X401191Y1146785D01*
X401316Y1146741D01*
X401440Y1146693D01*
X401562Y1146642D01*
X401683Y1146587D01*
X401802Y1146529D01*
X401920Y1146467D01*
X402035Y1146402D01*
X402149Y1146333D01*
X402260Y1146262D01*
X402369Y1146186D01*
X402476Y1146108D01*
X402581Y1146027D01*
X402683Y1145942D01*
X402783Y1145855D01*
X402880Y1145765D01*
X402975Y1145672D01*
X403066Y1145576D01*
X403155Y1145478D01*
X403241Y1145377D01*
X403324Y1145273D01*
X403404Y1145167D01*
X403480Y1145059D01*
X403554Y1144949D01*
X403624Y1144836D01*
X403691Y1144722D01*
X403754Y1144605D01*
X403814Y1144487D01*
X403871Y1144367D01*
X403924Y1144245D01*
X403973Y1144122D01*
X404019Y1143998D01*
X404061Y1143872D01*
X404099Y1143745D01*
X404134Y1143617D01*
X404165Y1143488D01*
X404192Y1143359D01*
X404215Y1143228D01*
X404235Y1143097D01*
X404250Y1142965D01*
X404262Y1142833D01*
X404270Y1142701D01*
X404274Y1142568D01*
X404274Y1142436D01*
X404270Y1142303D01*
X404262Y1142171D01*
X404250Y1142039D01*
X404235Y1141907D01*
X404215Y1141776D01*
X404192Y1141645D01*
X404165Y1141516D01*
X404134Y1141387D01*
X404099Y1141259D01*
X404061Y1141132D01*
X404019Y1141006D01*
X403973Y1140882D01*
X403924Y1140759D01*
X403871Y1140637D01*
X403814Y1140517D01*
X403754Y1140399D01*
X403691Y1140282D01*
X403624Y1140168D01*
X403554Y1140055D01*
X403480Y1139945D01*
X403404Y1139837D01*
X403324Y1139731D01*
X403241Y1139627D01*
X403155Y1139526D01*
X403066Y1139428D01*
X402975Y1139332D01*
X402880Y1139239D01*
X402783Y1139149D01*
X402683Y1139062D01*
X402581Y1138977D01*
X402476Y1138896D01*
X402369Y1138818D01*
X402260Y1138742D01*
X402149Y1138671D01*
X402035Y1138602D01*
X401920Y1138537D01*
X401802Y1138475D01*
X401683Y1138417D01*
X401562Y1138362D01*
X401440Y1138311D01*
X401316Y1138263D01*
X401191Y1138219D01*
X401065Y1138179D01*
X400937Y1138143D01*
X400809Y1138110D01*
X400680Y1138081D01*
X400549Y1138056D01*
X400419Y1138035D01*
X400287Y1138017D01*
X400155Y1138004D01*
X400023Y1137994D01*
X399891Y1137988D01*
X399758Y1137986D01*
X399758Y1137987D02*
X395242Y1137987D01*
X400661Y1137987D02*
X404273Y1130762D01*
X412171Y1130762D02*
X412171Y1147018D01*
X410365Y1130762D02*
X413977Y1130762D01*
X413977Y1147018D02*
X410365Y1147018D01*
X425058Y1130762D02*
X425176Y1130764D01*
X425294Y1130770D01*
X425412Y1130779D01*
X425529Y1130793D01*
X425646Y1130810D01*
X425763Y1130831D01*
X425878Y1130856D01*
X425993Y1130885D01*
X426107Y1130918D01*
X426219Y1130954D01*
X426330Y1130994D01*
X426440Y1131037D01*
X426549Y1131084D01*
X426656Y1131134D01*
X426761Y1131189D01*
X426864Y1131246D01*
X426965Y1131307D01*
X427065Y1131371D01*
X427162Y1131438D01*
X427257Y1131508D01*
X427349Y1131582D01*
X427440Y1131658D01*
X427527Y1131738D01*
X427612Y1131820D01*
X427694Y1131905D01*
X427774Y1131992D01*
X427850Y1132083D01*
X427924Y1132175D01*
X427994Y1132270D01*
X428061Y1132367D01*
X428125Y1132467D01*
X428186Y1132568D01*
X428243Y1132671D01*
X428298Y1132776D01*
X428348Y1132883D01*
X428395Y1132992D01*
X428438Y1133102D01*
X428478Y1133213D01*
X428514Y1133325D01*
X428547Y1133439D01*
X428576Y1133554D01*
X428601Y1133669D01*
X428622Y1133786D01*
X428639Y1133903D01*
X428653Y1134020D01*
X428662Y1134138D01*
X428668Y1134256D01*
X428670Y1134374D01*
X425058Y1130762D02*
X424875Y1130764D01*
X424693Y1130771D01*
X424511Y1130782D01*
X424329Y1130797D01*
X424147Y1130817D01*
X423966Y1130840D01*
X423786Y1130869D01*
X423606Y1130901D01*
X423427Y1130938D01*
X423250Y1130979D01*
X423073Y1131025D01*
X422897Y1131074D01*
X422723Y1131128D01*
X422549Y1131186D01*
X422378Y1131248D01*
X422208Y1131314D01*
X422039Y1131385D01*
X421872Y1131459D01*
X421707Y1131537D01*
X421544Y1131619D01*
X421383Y1131705D01*
X421224Y1131795D01*
X421067Y1131889D01*
X420913Y1131986D01*
X420761Y1132087D01*
X420611Y1132192D01*
X420464Y1132300D01*
X420320Y1132411D01*
X420178Y1132526D01*
X420039Y1132645D01*
X419903Y1132767D01*
X419770Y1132892D01*
X419640Y1133020D01*
X420092Y1143406D02*
X420094Y1143524D01*
X420100Y1143642D01*
X420109Y1143760D01*
X420123Y1143877D01*
X420140Y1143994D01*
X420161Y1144111D01*
X420186Y1144226D01*
X420215Y1144341D01*
X420248Y1144455D01*
X420284Y1144567D01*
X420324Y1144678D01*
X420367Y1144788D01*
X420414Y1144897D01*
X420464Y1145004D01*
X420519Y1145109D01*
X420576Y1145212D01*
X420637Y1145313D01*
X420701Y1145413D01*
X420768Y1145510D01*
X420838Y1145605D01*
X420912Y1145697D01*
X420988Y1145788D01*
X421068Y1145875D01*
X421150Y1145960D01*
X421235Y1146042D01*
X421322Y1146122D01*
X421413Y1146198D01*
X421505Y1146272D01*
X421600Y1146342D01*
X421697Y1146409D01*
X421797Y1146473D01*
X421898Y1146534D01*
X422001Y1146592D01*
X422106Y1146646D01*
X422213Y1146696D01*
X422322Y1146743D01*
X422432Y1146787D01*
X422543Y1146826D01*
X422656Y1146862D01*
X422769Y1146895D01*
X422884Y1146924D01*
X422999Y1146949D01*
X423116Y1146970D01*
X423233Y1146987D01*
X423350Y1147001D01*
X423468Y1147010D01*
X423586Y1147016D01*
X423704Y1147018D01*
X423703Y1147018D02*
X423864Y1147016D01*
X424026Y1147010D01*
X424187Y1147001D01*
X424348Y1146987D01*
X424508Y1146970D01*
X424668Y1146949D01*
X424828Y1146924D01*
X424987Y1146895D01*
X425145Y1146863D01*
X425302Y1146827D01*
X425458Y1146787D01*
X425614Y1146743D01*
X425768Y1146695D01*
X425921Y1146644D01*
X426073Y1146590D01*
X426224Y1146531D01*
X426373Y1146470D01*
X426520Y1146404D01*
X426666Y1146335D01*
X426811Y1146263D01*
X426953Y1146187D01*
X427094Y1146108D01*
X427233Y1146026D01*
X427369Y1145940D01*
X427504Y1145851D01*
X427637Y1145759D01*
X427767Y1145663D01*
X421897Y1140245D02*
X421796Y1140307D01*
X421696Y1140372D01*
X421599Y1140441D01*
X421504Y1140513D01*
X421411Y1140587D01*
X421321Y1140665D01*
X421233Y1140746D01*
X421148Y1140829D01*
X421066Y1140915D01*
X420987Y1141004D01*
X420910Y1141095D01*
X420837Y1141189D01*
X420766Y1141285D01*
X420699Y1141383D01*
X420635Y1141483D01*
X420574Y1141586D01*
X420517Y1141690D01*
X420463Y1141796D01*
X420413Y1141904D01*
X420366Y1142013D01*
X420322Y1142124D01*
X420282Y1142236D01*
X420246Y1142350D01*
X420214Y1142464D01*
X420185Y1142580D01*
X420160Y1142696D01*
X420139Y1142813D01*
X420122Y1142931D01*
X420108Y1143049D01*
X420099Y1143168D01*
X420093Y1143287D01*
X420091Y1143406D01*
X426865Y1137535D02*
X426966Y1137473D01*
X427066Y1137408D01*
X427163Y1137339D01*
X427258Y1137267D01*
X427351Y1137193D01*
X427441Y1137115D01*
X427529Y1137034D01*
X427614Y1136951D01*
X427696Y1136865D01*
X427775Y1136776D01*
X427852Y1136685D01*
X427925Y1136591D01*
X427996Y1136495D01*
X428063Y1136397D01*
X428127Y1136297D01*
X428188Y1136194D01*
X428245Y1136090D01*
X428299Y1135984D01*
X428349Y1135876D01*
X428396Y1135767D01*
X428440Y1135656D01*
X428480Y1135544D01*
X428516Y1135430D01*
X428548Y1135316D01*
X428577Y1135200D01*
X428602Y1135084D01*
X428623Y1134967D01*
X428640Y1134849D01*
X428654Y1134731D01*
X428663Y1134612D01*
X428669Y1134493D01*
X428671Y1134374D01*
X426864Y1137535D02*
X421897Y1140245D01*
X435301Y1130762D02*
X442525Y1130762D01*
X435301Y1130762D02*
X435301Y1147018D01*
X442525Y1147018D01*
X440719Y1139793D02*
X435301Y1139793D01*
X360762Y867018D02*
X360762Y850762D01*
X360762Y859793D02*
X369793Y859793D01*
X369793Y867018D02*
X369793Y850762D01*
X378304Y850762D02*
X378304Y867018D01*
X376497Y850762D02*
X380110Y850762D01*
X380110Y867018D02*
X376497Y867018D01*
X395242Y867018D02*
X395242Y850762D01*
X395242Y867018D02*
X399758Y867018D01*
X399891Y867016D01*
X400023Y867010D01*
X400155Y867000D01*
X400287Y866987D01*
X400419Y866969D01*
X400549Y866948D01*
X400680Y866923D01*
X400809Y866894D01*
X400937Y866861D01*
X401065Y866825D01*
X401191Y866785D01*
X401316Y866741D01*
X401440Y866693D01*
X401562Y866642D01*
X401683Y866587D01*
X401802Y866529D01*
X401920Y866467D01*
X402035Y866402D01*
X402149Y866333D01*
X402260Y866262D01*
X402369Y866186D01*
X402476Y866108D01*
X402581Y866027D01*
X402683Y865942D01*
X402783Y865855D01*
X402880Y865765D01*
X402975Y865672D01*
X403066Y865576D01*
X403155Y865478D01*
X403241Y865377D01*
X403324Y865273D01*
X403404Y865167D01*
X403480Y865059D01*
X403554Y864949D01*
X403624Y864836D01*
X403691Y864722D01*
X403754Y864605D01*
X403814Y864487D01*
X403871Y864367D01*
X403924Y864245D01*
X403973Y864122D01*
X404019Y863998D01*
X404061Y863872D01*
X404099Y863745D01*
X404134Y863617D01*
X404165Y863488D01*
X404192Y863359D01*
X404215Y863228D01*
X404235Y863097D01*
X404250Y862965D01*
X404262Y862833D01*
X404270Y862701D01*
X404274Y862568D01*
X404274Y862436D01*
X404270Y862303D01*
X404262Y862171D01*
X404250Y862039D01*
X404235Y861907D01*
X404215Y861776D01*
X404192Y861645D01*
X404165Y861516D01*
X404134Y861387D01*
X404099Y861259D01*
X404061Y861132D01*
X404019Y861006D01*
X403973Y860882D01*
X403924Y860759D01*
X403871Y860637D01*
X403814Y860517D01*
X403754Y860399D01*
X403691Y860282D01*
X403624Y860168D01*
X403554Y860055D01*
X403480Y859945D01*
X403404Y859837D01*
X403324Y859731D01*
X403241Y859627D01*
X403155Y859526D01*
X403066Y859428D01*
X402975Y859332D01*
X402880Y859239D01*
X402783Y859149D01*
X402683Y859062D01*
X402581Y858977D01*
X402476Y858896D01*
X402369Y858818D01*
X402260Y858742D01*
X402149Y858671D01*
X402035Y858602D01*
X401920Y858537D01*
X401802Y858475D01*
X401683Y858417D01*
X401562Y858362D01*
X401440Y858311D01*
X401316Y858263D01*
X401191Y858219D01*
X401065Y858179D01*
X400937Y858143D01*
X400809Y858110D01*
X400680Y858081D01*
X400549Y858056D01*
X400419Y858035D01*
X400287Y858017D01*
X400155Y858004D01*
X400023Y857994D01*
X399891Y857988D01*
X399758Y857986D01*
X399758Y857987D02*
X395242Y857987D01*
X400661Y857987D02*
X404273Y850762D01*
X412171Y850762D02*
X412171Y867018D01*
X410365Y850762D02*
X413977Y850762D01*
X413977Y867018D02*
X410365Y867018D01*
X425058Y850762D02*
X425176Y850764D01*
X425294Y850770D01*
X425412Y850779D01*
X425529Y850793D01*
X425646Y850810D01*
X425763Y850831D01*
X425878Y850856D01*
X425993Y850885D01*
X426107Y850918D01*
X426219Y850954D01*
X426330Y850994D01*
X426440Y851037D01*
X426549Y851084D01*
X426656Y851134D01*
X426761Y851189D01*
X426864Y851246D01*
X426965Y851307D01*
X427065Y851371D01*
X427162Y851438D01*
X427257Y851508D01*
X427349Y851582D01*
X427440Y851658D01*
X427527Y851738D01*
X427612Y851820D01*
X427694Y851905D01*
X427774Y851992D01*
X427850Y852083D01*
X427924Y852175D01*
X427994Y852270D01*
X428061Y852367D01*
X428125Y852467D01*
X428186Y852568D01*
X428243Y852671D01*
X428298Y852776D01*
X428348Y852883D01*
X428395Y852992D01*
X428438Y853102D01*
X428478Y853213D01*
X428514Y853325D01*
X428547Y853439D01*
X428576Y853554D01*
X428601Y853669D01*
X428622Y853786D01*
X428639Y853903D01*
X428653Y854020D01*
X428662Y854138D01*
X428668Y854256D01*
X428670Y854374D01*
X425058Y850762D02*
X424875Y850764D01*
X424693Y850771D01*
X424511Y850782D01*
X424329Y850797D01*
X424147Y850817D01*
X423966Y850840D01*
X423786Y850869D01*
X423606Y850901D01*
X423427Y850938D01*
X423250Y850979D01*
X423073Y851025D01*
X422897Y851074D01*
X422723Y851128D01*
X422549Y851186D01*
X422378Y851248D01*
X422208Y851314D01*
X422039Y851385D01*
X421872Y851459D01*
X421707Y851537D01*
X421544Y851619D01*
X421383Y851705D01*
X421224Y851795D01*
X421067Y851889D01*
X420913Y851986D01*
X420761Y852087D01*
X420611Y852192D01*
X420464Y852300D01*
X420320Y852411D01*
X420178Y852526D01*
X420039Y852645D01*
X419903Y852767D01*
X419770Y852892D01*
X419640Y853020D01*
X420092Y863406D02*
X420094Y863524D01*
X420100Y863642D01*
X420109Y863760D01*
X420123Y863877D01*
X420140Y863994D01*
X420161Y864111D01*
X420186Y864226D01*
X420215Y864341D01*
X420248Y864455D01*
X420284Y864567D01*
X420324Y864678D01*
X420367Y864788D01*
X420414Y864897D01*
X420464Y865004D01*
X420519Y865109D01*
X420576Y865212D01*
X420637Y865313D01*
X420701Y865413D01*
X420768Y865510D01*
X420838Y865605D01*
X420912Y865697D01*
X420988Y865788D01*
X421068Y865875D01*
X421150Y865960D01*
X421235Y866042D01*
X421322Y866122D01*
X421413Y866198D01*
X421505Y866272D01*
X421600Y866342D01*
X421697Y866409D01*
X421797Y866473D01*
X421898Y866534D01*
X422001Y866592D01*
X422106Y866646D01*
X422213Y866696D01*
X422322Y866743D01*
X422432Y866787D01*
X422543Y866826D01*
X422656Y866862D01*
X422769Y866895D01*
X422884Y866924D01*
X422999Y866949D01*
X423116Y866970D01*
X423233Y866987D01*
X423350Y867001D01*
X423468Y867010D01*
X423586Y867016D01*
X423704Y867018D01*
X423703Y867018D02*
X423864Y867016D01*
X424026Y867010D01*
X424187Y867001D01*
X424348Y866987D01*
X424508Y866970D01*
X424668Y866949D01*
X424828Y866924D01*
X424987Y866895D01*
X425145Y866863D01*
X425302Y866827D01*
X425458Y866787D01*
X425614Y866743D01*
X425768Y866695D01*
X425921Y866644D01*
X426073Y866590D01*
X426224Y866531D01*
X426373Y866470D01*
X426520Y866404D01*
X426666Y866335D01*
X426811Y866263D01*
X426953Y866187D01*
X427094Y866108D01*
X427233Y866026D01*
X427369Y865940D01*
X427504Y865851D01*
X427637Y865759D01*
X427767Y865663D01*
X421897Y860245D02*
X421796Y860307D01*
X421696Y860372D01*
X421599Y860441D01*
X421504Y860513D01*
X421411Y860587D01*
X421321Y860665D01*
X421233Y860746D01*
X421148Y860829D01*
X421066Y860915D01*
X420987Y861004D01*
X420910Y861095D01*
X420837Y861189D01*
X420766Y861285D01*
X420699Y861383D01*
X420635Y861483D01*
X420574Y861586D01*
X420517Y861690D01*
X420463Y861796D01*
X420413Y861904D01*
X420366Y862013D01*
X420322Y862124D01*
X420282Y862236D01*
X420246Y862350D01*
X420214Y862464D01*
X420185Y862580D01*
X420160Y862696D01*
X420139Y862813D01*
X420122Y862931D01*
X420108Y863049D01*
X420099Y863168D01*
X420093Y863287D01*
X420091Y863406D01*
X426865Y857535D02*
X426966Y857473D01*
X427066Y857408D01*
X427163Y857339D01*
X427258Y857267D01*
X427351Y857193D01*
X427441Y857115D01*
X427529Y857034D01*
X427614Y856951D01*
X427696Y856865D01*
X427775Y856776D01*
X427852Y856685D01*
X427925Y856591D01*
X427996Y856495D01*
X428063Y856397D01*
X428127Y856297D01*
X428188Y856194D01*
X428245Y856090D01*
X428299Y855984D01*
X428349Y855876D01*
X428396Y855767D01*
X428440Y855656D01*
X428480Y855544D01*
X428516Y855430D01*
X428548Y855316D01*
X428577Y855200D01*
X428602Y855084D01*
X428623Y854967D01*
X428640Y854849D01*
X428654Y854731D01*
X428663Y854612D01*
X428669Y854493D01*
X428671Y854374D01*
X426864Y857535D02*
X421897Y860245D01*
X435301Y850762D02*
X442525Y850762D01*
X435301Y850762D02*
X435301Y867018D01*
X442525Y867018D01*
X440719Y859793D02*
X435301Y859793D01*
X360762Y990762D02*
X360762Y1007018D01*
X360762Y999793D02*
X369793Y999793D01*
X369793Y1007018D02*
X369793Y990762D01*
X378304Y990762D02*
X378304Y1007018D01*
X376497Y990762D02*
X380110Y990762D01*
X380110Y1007018D02*
X376497Y1007018D01*
X395180Y1007018D02*
X395180Y990762D01*
X395180Y1007018D02*
X402405Y1007018D01*
X402405Y999793D02*
X395180Y999793D01*
X407274Y990762D02*
X412692Y1007018D01*
X418111Y990762D01*
X416756Y994826D02*
X408628Y994826D01*
X424359Y990762D02*
X424359Y1007018D01*
X424359Y990762D02*
X431584Y990762D01*
X437906Y990762D02*
X437906Y1007018D01*
X437906Y990762D02*
X445131Y990762D01*
X360762Y727018D02*
X360762Y710762D01*
X360762Y719793D02*
X369793Y719793D01*
X369793Y727018D02*
X369793Y710762D01*
X378304Y710762D02*
X378304Y727018D01*
X376497Y710762D02*
X380110Y710762D01*
X380110Y727018D02*
X376497Y727018D01*
X395180Y727018D02*
X395180Y710762D01*
X395180Y727018D02*
X402405Y727018D01*
X402405Y719793D02*
X395180Y719793D01*
X407274Y710762D02*
X412692Y727018D01*
X418111Y710762D01*
X416756Y714826D02*
X408628Y714826D01*
X424359Y710762D02*
X424359Y727018D01*
X424359Y710762D02*
X431584Y710762D01*
X437906Y710762D02*
X437906Y727018D01*
X437906Y710762D02*
X445131Y710762D01*
D12*
X350000Y625000D02*
X350000Y880000D01*
X350000Y905000D02*
X350000Y1160000D01*
X275000Y620000D02*
X275000Y590000D01*
X150000Y1120000D02*
X150000Y1180000D01*
X405000Y1180000D01*
X405000Y590000D02*
X275000Y590000D01*
X405000Y590000D02*
X405000Y625000D01*
X405000Y1160000D02*
X350000Y1160000D01*
X405000Y1160000D02*
X455000Y1160000D01*
X455000Y905000D01*
X350000Y905000D01*
X350000Y880000D02*
X455000Y880000D01*
X455000Y625000D01*
X350000Y625000D01*
X405000Y1160000D02*
X405000Y1180000D01*
X150000Y1045000D02*
X150000Y980000D01*
X150000Y905000D02*
X150000Y840000D01*
X150000Y765000D02*
X150000Y700000D01*
X275000Y700000D02*
X275000Y765000D01*
X275000Y840000D02*
X275000Y905000D01*
X275000Y980000D02*
X275000Y1045000D01*
D10*
X31416Y419243D02*
X21143Y419243D01*
X21143Y442357D01*
X31416Y442357D01*
X28848Y432084D02*
X21143Y432084D01*
X39210Y442357D02*
X39210Y419243D01*
X52051Y419243D02*
X39210Y442357D01*
X52051Y442357D02*
X52051Y419243D01*
X67205Y419243D02*
X59501Y442357D01*
X74910Y442357D02*
X67205Y419243D01*
X21143Y397836D02*
X21143Y387564D01*
X21143Y397836D02*
X21145Y397995D01*
X21151Y398154D01*
X21161Y398312D01*
X21174Y398470D01*
X21192Y398628D01*
X21214Y398786D01*
X21239Y398942D01*
X21268Y399098D01*
X21301Y399254D01*
X21338Y399408D01*
X21379Y399562D01*
X21424Y399714D01*
X21472Y399865D01*
X21524Y400016D01*
X21580Y400164D01*
X21639Y400312D01*
X21702Y400457D01*
X21769Y400602D01*
X21839Y400744D01*
X21913Y400885D01*
X21990Y401024D01*
X22071Y401160D01*
X22155Y401295D01*
X22242Y401428D01*
X22332Y401559D01*
X22426Y401687D01*
X22523Y401813D01*
X22623Y401936D01*
X22726Y402057D01*
X22831Y402176D01*
X22940Y402291D01*
X23052Y402404D01*
X23166Y402515D01*
X23283Y402622D01*
X23403Y402726D01*
X23525Y402828D01*
X23650Y402926D01*
X23777Y403021D01*
X23906Y403113D01*
X24038Y403202D01*
X24172Y403288D01*
X24308Y403370D01*
X24446Y403449D01*
X24585Y403524D01*
X24727Y403596D01*
X24870Y403665D01*
X25015Y403730D01*
X25162Y403791D01*
X25310Y403848D01*
X25459Y403902D01*
X25610Y403952D01*
X25762Y403999D01*
X25915Y404042D01*
X26069Y404081D01*
X26224Y404116D01*
X26380Y404147D01*
X26536Y404174D01*
X26693Y404198D01*
X26851Y404217D01*
X27009Y404233D01*
X27167Y404245D01*
X27326Y404253D01*
X27485Y404257D01*
X27643Y404257D01*
X27802Y404253D01*
X27961Y404245D01*
X28119Y404233D01*
X28277Y404217D01*
X28435Y404198D01*
X28592Y404174D01*
X28748Y404147D01*
X28904Y404116D01*
X29059Y404081D01*
X29213Y404042D01*
X29366Y403999D01*
X29518Y403952D01*
X29669Y403902D01*
X29818Y403848D01*
X29966Y403791D01*
X30113Y403730D01*
X30258Y403665D01*
X30401Y403596D01*
X30543Y403524D01*
X30682Y403449D01*
X30820Y403370D01*
X30956Y403288D01*
X31090Y403202D01*
X31222Y403113D01*
X31351Y403021D01*
X31478Y402926D01*
X31603Y402828D01*
X31725Y402726D01*
X31845Y402622D01*
X31962Y402515D01*
X32076Y402404D01*
X32188Y402291D01*
X32297Y402176D01*
X32402Y402057D01*
X32505Y401936D01*
X32605Y401813D01*
X32702Y401687D01*
X32796Y401559D01*
X32886Y401428D01*
X32973Y401295D01*
X33057Y401160D01*
X33138Y401024D01*
X33215Y400885D01*
X33289Y400744D01*
X33359Y400602D01*
X33426Y400457D01*
X33489Y400312D01*
X33548Y400164D01*
X33604Y400016D01*
X33656Y399865D01*
X33704Y399714D01*
X33749Y399562D01*
X33790Y399408D01*
X33827Y399254D01*
X33860Y399098D01*
X33889Y398942D01*
X33914Y398786D01*
X33936Y398628D01*
X33954Y398470D01*
X33967Y398312D01*
X33977Y398154D01*
X33983Y397995D01*
X33985Y397836D01*
X33984Y397836D02*
X33984Y387564D01*
X33985Y387564D02*
X33983Y387405D01*
X33977Y387246D01*
X33967Y387088D01*
X33954Y386930D01*
X33936Y386772D01*
X33914Y386614D01*
X33889Y386458D01*
X33860Y386302D01*
X33827Y386146D01*
X33790Y385992D01*
X33749Y385838D01*
X33704Y385686D01*
X33656Y385535D01*
X33604Y385384D01*
X33548Y385236D01*
X33489Y385088D01*
X33426Y384943D01*
X33359Y384798D01*
X33289Y384656D01*
X33215Y384515D01*
X33138Y384376D01*
X33057Y384240D01*
X32973Y384105D01*
X32886Y383972D01*
X32796Y383841D01*
X32702Y383713D01*
X32605Y383587D01*
X32505Y383464D01*
X32402Y383343D01*
X32297Y383224D01*
X32188Y383109D01*
X32076Y382996D01*
X31962Y382885D01*
X31845Y382778D01*
X31725Y382674D01*
X31603Y382572D01*
X31478Y382474D01*
X31351Y382379D01*
X31222Y382287D01*
X31090Y382198D01*
X30956Y382112D01*
X30820Y382030D01*
X30682Y381951D01*
X30543Y381876D01*
X30401Y381804D01*
X30258Y381735D01*
X30113Y381670D01*
X29966Y381609D01*
X29818Y381552D01*
X29669Y381498D01*
X29518Y381448D01*
X29366Y381401D01*
X29213Y381358D01*
X29059Y381319D01*
X28904Y381284D01*
X28748Y381253D01*
X28592Y381226D01*
X28435Y381202D01*
X28277Y381183D01*
X28119Y381167D01*
X27961Y381155D01*
X27802Y381147D01*
X27643Y381143D01*
X27485Y381143D01*
X27326Y381147D01*
X27167Y381155D01*
X27009Y381167D01*
X26851Y381183D01*
X26693Y381202D01*
X26536Y381226D01*
X26380Y381253D01*
X26224Y381284D01*
X26069Y381319D01*
X25915Y381358D01*
X25762Y381401D01*
X25610Y381448D01*
X25459Y381498D01*
X25310Y381552D01*
X25162Y381609D01*
X25015Y381670D01*
X24870Y381735D01*
X24727Y381804D01*
X24585Y381876D01*
X24446Y381951D01*
X24308Y382030D01*
X24172Y382112D01*
X24038Y382198D01*
X23906Y382287D01*
X23777Y382379D01*
X23650Y382474D01*
X23525Y382572D01*
X23403Y382674D01*
X23283Y382778D01*
X23166Y382885D01*
X23052Y382996D01*
X22940Y383109D01*
X22831Y383224D01*
X22726Y383343D01*
X22623Y383464D01*
X22523Y383587D01*
X22426Y383713D01*
X22332Y383841D01*
X22242Y383972D01*
X22155Y384105D01*
X22071Y384240D01*
X21990Y384376D01*
X21913Y384515D01*
X21839Y384656D01*
X21769Y384798D01*
X21702Y384943D01*
X21639Y385088D01*
X21580Y385236D01*
X21524Y385384D01*
X21472Y385535D01*
X21424Y385686D01*
X21379Y385838D01*
X21338Y385992D01*
X21301Y386146D01*
X21268Y386302D01*
X21239Y386458D01*
X21214Y386614D01*
X21192Y386772D01*
X21174Y386930D01*
X21161Y387088D01*
X21151Y387246D01*
X21145Y387405D01*
X21143Y387564D01*
X42718Y387564D02*
X42718Y404257D01*
X42717Y387564D02*
X42719Y387405D01*
X42725Y387246D01*
X42735Y387088D01*
X42748Y386930D01*
X42766Y386772D01*
X42788Y386614D01*
X42813Y386458D01*
X42842Y386302D01*
X42875Y386146D01*
X42912Y385992D01*
X42953Y385838D01*
X42998Y385686D01*
X43046Y385535D01*
X43098Y385384D01*
X43154Y385236D01*
X43213Y385088D01*
X43276Y384943D01*
X43343Y384798D01*
X43413Y384656D01*
X43487Y384515D01*
X43564Y384376D01*
X43645Y384240D01*
X43729Y384105D01*
X43816Y383972D01*
X43906Y383841D01*
X44000Y383713D01*
X44097Y383587D01*
X44197Y383464D01*
X44300Y383343D01*
X44405Y383224D01*
X44514Y383109D01*
X44626Y382996D01*
X44740Y382885D01*
X44857Y382778D01*
X44977Y382674D01*
X45099Y382572D01*
X45224Y382474D01*
X45351Y382379D01*
X45480Y382287D01*
X45612Y382198D01*
X45746Y382112D01*
X45882Y382030D01*
X46020Y381951D01*
X46159Y381876D01*
X46301Y381804D01*
X46444Y381735D01*
X46589Y381670D01*
X46736Y381609D01*
X46884Y381552D01*
X47033Y381498D01*
X47184Y381448D01*
X47336Y381401D01*
X47489Y381358D01*
X47643Y381319D01*
X47798Y381284D01*
X47954Y381253D01*
X48110Y381226D01*
X48267Y381202D01*
X48425Y381183D01*
X48583Y381167D01*
X48741Y381155D01*
X48900Y381147D01*
X49059Y381143D01*
X49217Y381143D01*
X49376Y381147D01*
X49535Y381155D01*
X49693Y381167D01*
X49851Y381183D01*
X50009Y381202D01*
X50166Y381226D01*
X50322Y381253D01*
X50478Y381284D01*
X50633Y381319D01*
X50787Y381358D01*
X50940Y381401D01*
X51092Y381448D01*
X51243Y381498D01*
X51392Y381552D01*
X51540Y381609D01*
X51687Y381670D01*
X51832Y381735D01*
X51975Y381804D01*
X52117Y381876D01*
X52256Y381951D01*
X52394Y382030D01*
X52530Y382112D01*
X52664Y382198D01*
X52796Y382287D01*
X52925Y382379D01*
X53052Y382474D01*
X53177Y382572D01*
X53299Y382674D01*
X53419Y382778D01*
X53536Y382885D01*
X53650Y382996D01*
X53762Y383109D01*
X53871Y383224D01*
X53976Y383343D01*
X54079Y383464D01*
X54179Y383587D01*
X54276Y383713D01*
X54370Y383841D01*
X54460Y383972D01*
X54547Y384105D01*
X54631Y384240D01*
X54712Y384376D01*
X54789Y384515D01*
X54863Y384656D01*
X54933Y384798D01*
X55000Y384943D01*
X55063Y385088D01*
X55122Y385236D01*
X55178Y385384D01*
X55230Y385535D01*
X55278Y385686D01*
X55323Y385838D01*
X55364Y385992D01*
X55401Y386146D01*
X55434Y386302D01*
X55463Y386458D01*
X55488Y386614D01*
X55510Y386772D01*
X55528Y386930D01*
X55541Y387088D01*
X55551Y387246D01*
X55557Y387405D01*
X55559Y387564D01*
X55559Y404257D01*
X69321Y404257D02*
X69321Y381143D01*
X62901Y404257D02*
X75742Y404257D01*
D12*
X150000Y594286D02*
X150000Y620000D01*
X150000Y587383D02*
X150000Y586188D01*
X150000Y579286D02*
X150000Y553571D01*
X150000Y546669D02*
X150000Y545474D01*
X150000Y538571D02*
X150000Y512857D01*
X150000Y505955D02*
X150000Y504760D01*
X150000Y497857D02*
X150000Y472143D01*
X150000Y465240D02*
X150000Y464045D01*
X150000Y457143D02*
X150000Y431429D01*
X150000Y424526D02*
X150000Y423331D01*
X150000Y416429D02*
X150000Y390714D01*
X150000Y383812D02*
X150000Y382617D01*
X150000Y375714D02*
X150000Y350000D01*
X275000Y350000D02*
X275000Y375833D01*
X275000Y382736D02*
X275000Y383931D01*
X275000Y390833D02*
X275000Y416667D01*
X275000Y423569D02*
X275000Y424764D01*
X275000Y431667D02*
X275000Y457500D01*
X275000Y464402D02*
X275000Y465598D01*
X275000Y472500D02*
X275000Y498333D01*
X275000Y505236D02*
X275000Y506431D01*
X275000Y513333D02*
X275000Y539167D01*
X275000Y546069D02*
X275000Y547264D01*
X275000Y554167D02*
X275000Y580000D01*
D13*
X147131Y1221778D02*
X131778Y1221778D01*
X131778Y1256322D01*
X147131Y1256322D01*
X143293Y1240969D02*
X131778Y1240969D01*
X156548Y1256322D02*
X156548Y1221778D01*
X175739Y1221778D02*
X156548Y1256322D01*
X175739Y1256322D02*
X175739Y1221778D01*
X195671Y1221778D02*
X184156Y1256322D01*
X207185Y1256322D02*
X195671Y1221778D01*
X215598Y1221778D02*
X230951Y1221778D01*
X215598Y1221778D02*
X215598Y1256322D01*
X230951Y1256322D01*
X227113Y1240969D02*
X215598Y1240969D01*
X240363Y1256322D02*
X240363Y1221778D01*
X255716Y1221778D01*
X264180Y1231374D02*
X264180Y1246726D01*
X264183Y1246960D01*
X264191Y1247193D01*
X264206Y1247426D01*
X264225Y1247659D01*
X264251Y1247892D01*
X264282Y1248123D01*
X264319Y1248354D01*
X264362Y1248584D01*
X264410Y1248812D01*
X264463Y1249040D01*
X264522Y1249266D01*
X264587Y1249491D01*
X264657Y1249714D01*
X264732Y1249935D01*
X264813Y1250154D01*
X264899Y1250371D01*
X264991Y1250586D01*
X265087Y1250799D01*
X265189Y1251009D01*
X265296Y1251217D01*
X265408Y1251422D01*
X265525Y1251625D01*
X265646Y1251824D01*
X265773Y1252021D01*
X265904Y1252214D01*
X266040Y1252404D01*
X266181Y1252591D01*
X266326Y1252774D01*
X266475Y1252954D01*
X266629Y1253130D01*
X266787Y1253302D01*
X266949Y1253470D01*
X267116Y1253634D01*
X267286Y1253794D01*
X267460Y1253950D01*
X267638Y1254102D01*
X267819Y1254249D01*
X268004Y1254392D01*
X268192Y1254530D01*
X268384Y1254664D01*
X268579Y1254793D01*
X268777Y1254917D01*
X268978Y1255036D01*
X269182Y1255151D01*
X269388Y1255260D01*
X269597Y1255364D01*
X269809Y1255464D01*
X270023Y1255558D01*
X270239Y1255646D01*
X270457Y1255730D01*
X270678Y1255808D01*
X270900Y1255881D01*
X271123Y1255948D01*
X271349Y1256010D01*
X271576Y1256066D01*
X271804Y1256117D01*
X272033Y1256162D01*
X272263Y1256202D01*
X272495Y1256236D01*
X272726Y1256264D01*
X272959Y1256287D01*
X273192Y1256304D01*
X273426Y1256316D01*
X273659Y1256321D01*
X273893Y1256321D01*
X274126Y1256316D01*
X274360Y1256304D01*
X274593Y1256287D01*
X274826Y1256264D01*
X275057Y1256236D01*
X275289Y1256202D01*
X275519Y1256162D01*
X275748Y1256117D01*
X275976Y1256066D01*
X276203Y1256010D01*
X276429Y1255948D01*
X276652Y1255881D01*
X276874Y1255808D01*
X277095Y1255730D01*
X277313Y1255646D01*
X277529Y1255558D01*
X277743Y1255464D01*
X277955Y1255364D01*
X278164Y1255260D01*
X278370Y1255151D01*
X278574Y1255036D01*
X278775Y1254917D01*
X278973Y1254793D01*
X279168Y1254664D01*
X279360Y1254530D01*
X279548Y1254392D01*
X279733Y1254249D01*
X279914Y1254102D01*
X280092Y1253950D01*
X280266Y1253794D01*
X280436Y1253634D01*
X280603Y1253470D01*
X280765Y1253302D01*
X280923Y1253130D01*
X281077Y1252954D01*
X281226Y1252774D01*
X281371Y1252591D01*
X281512Y1252404D01*
X281648Y1252214D01*
X281779Y1252021D01*
X281906Y1251824D01*
X282027Y1251625D01*
X282144Y1251422D01*
X282256Y1251217D01*
X282363Y1251009D01*
X282465Y1250799D01*
X282561Y1250586D01*
X282653Y1250371D01*
X282739Y1250154D01*
X282820Y1249935D01*
X282895Y1249714D01*
X282965Y1249491D01*
X283030Y1249266D01*
X283089Y1249040D01*
X283142Y1248812D01*
X283190Y1248584D01*
X283233Y1248354D01*
X283270Y1248123D01*
X283301Y1247892D01*
X283327Y1247659D01*
X283346Y1247426D01*
X283361Y1247193D01*
X283369Y1246960D01*
X283372Y1246726D01*
X283371Y1246726D02*
X283371Y1231374D01*
X283372Y1231374D02*
X283369Y1231140D01*
X283361Y1230907D01*
X283346Y1230674D01*
X283327Y1230441D01*
X283301Y1230208D01*
X283270Y1229977D01*
X283233Y1229746D01*
X283190Y1229516D01*
X283142Y1229288D01*
X283089Y1229060D01*
X283030Y1228834D01*
X282965Y1228609D01*
X282895Y1228386D01*
X282820Y1228165D01*
X282739Y1227946D01*
X282653Y1227729D01*
X282561Y1227514D01*
X282465Y1227301D01*
X282363Y1227091D01*
X282256Y1226883D01*
X282144Y1226678D01*
X282027Y1226475D01*
X281906Y1226276D01*
X281779Y1226079D01*
X281648Y1225886D01*
X281512Y1225696D01*
X281371Y1225509D01*
X281226Y1225326D01*
X281077Y1225146D01*
X280923Y1224970D01*
X280765Y1224798D01*
X280603Y1224630D01*
X280436Y1224466D01*
X280266Y1224306D01*
X280092Y1224150D01*
X279914Y1223998D01*
X279733Y1223851D01*
X279548Y1223708D01*
X279360Y1223570D01*
X279168Y1223436D01*
X278973Y1223307D01*
X278775Y1223183D01*
X278574Y1223064D01*
X278370Y1222949D01*
X278164Y1222840D01*
X277955Y1222736D01*
X277743Y1222636D01*
X277529Y1222542D01*
X277313Y1222454D01*
X277095Y1222370D01*
X276874Y1222292D01*
X276652Y1222219D01*
X276429Y1222152D01*
X276203Y1222090D01*
X275976Y1222034D01*
X275748Y1221983D01*
X275519Y1221938D01*
X275289Y1221898D01*
X275057Y1221864D01*
X274826Y1221836D01*
X274593Y1221813D01*
X274360Y1221796D01*
X274126Y1221784D01*
X273893Y1221779D01*
X273659Y1221779D01*
X273426Y1221784D01*
X273192Y1221796D01*
X272959Y1221813D01*
X272726Y1221836D01*
X272495Y1221864D01*
X272263Y1221898D01*
X272033Y1221938D01*
X271804Y1221983D01*
X271576Y1222034D01*
X271349Y1222090D01*
X271123Y1222152D01*
X270900Y1222219D01*
X270678Y1222292D01*
X270457Y1222370D01*
X270239Y1222454D01*
X270023Y1222542D01*
X269809Y1222636D01*
X269597Y1222736D01*
X269388Y1222840D01*
X269182Y1222949D01*
X268978Y1223064D01*
X268777Y1223183D01*
X268579Y1223307D01*
X268384Y1223436D01*
X268192Y1223570D01*
X268004Y1223708D01*
X267819Y1223851D01*
X267638Y1223998D01*
X267460Y1224150D01*
X267286Y1224306D01*
X267116Y1224466D01*
X266949Y1224630D01*
X266787Y1224798D01*
X266629Y1224970D01*
X266475Y1225146D01*
X266326Y1225326D01*
X266181Y1225509D01*
X266040Y1225696D01*
X265904Y1225886D01*
X265773Y1226079D01*
X265646Y1226276D01*
X265525Y1226475D01*
X265408Y1226678D01*
X265296Y1226883D01*
X265189Y1227091D01*
X265087Y1227301D01*
X264991Y1227514D01*
X264899Y1227729D01*
X264813Y1227946D01*
X264732Y1228165D01*
X264657Y1228386D01*
X264587Y1228609D01*
X264522Y1228834D01*
X264463Y1229060D01*
X264410Y1229288D01*
X264362Y1229516D01*
X264319Y1229746D01*
X264282Y1229977D01*
X264251Y1230208D01*
X264225Y1230441D01*
X264206Y1230674D01*
X264191Y1230907D01*
X264183Y1231140D01*
X264180Y1231374D01*
X293684Y1221778D02*
X293684Y1256322D01*
X303280Y1256322D01*
X303514Y1256319D01*
X303747Y1256311D01*
X303980Y1256296D01*
X304213Y1256277D01*
X304446Y1256251D01*
X304677Y1256220D01*
X304908Y1256183D01*
X305138Y1256140D01*
X305366Y1256092D01*
X305594Y1256039D01*
X305820Y1255980D01*
X306045Y1255915D01*
X306268Y1255845D01*
X306489Y1255770D01*
X306708Y1255689D01*
X306925Y1255603D01*
X307140Y1255511D01*
X307353Y1255415D01*
X307563Y1255313D01*
X307771Y1255206D01*
X307976Y1255094D01*
X308179Y1254977D01*
X308378Y1254856D01*
X308575Y1254729D01*
X308768Y1254598D01*
X308958Y1254462D01*
X309145Y1254321D01*
X309328Y1254176D01*
X309508Y1254027D01*
X309684Y1253873D01*
X309856Y1253715D01*
X310024Y1253553D01*
X310188Y1253386D01*
X310348Y1253216D01*
X310504Y1253042D01*
X310656Y1252864D01*
X310803Y1252683D01*
X310946Y1252498D01*
X311084Y1252310D01*
X311218Y1252118D01*
X311347Y1251923D01*
X311471Y1251725D01*
X311590Y1251524D01*
X311705Y1251320D01*
X311814Y1251114D01*
X311918Y1250905D01*
X312018Y1250693D01*
X312112Y1250479D01*
X312200Y1250263D01*
X312284Y1250045D01*
X312362Y1249824D01*
X312435Y1249602D01*
X312502Y1249379D01*
X312564Y1249153D01*
X312620Y1248926D01*
X312671Y1248698D01*
X312716Y1248469D01*
X312756Y1248239D01*
X312790Y1248007D01*
X312818Y1247776D01*
X312841Y1247543D01*
X312858Y1247310D01*
X312870Y1247076D01*
X312875Y1246843D01*
X312875Y1246609D01*
X312870Y1246376D01*
X312858Y1246142D01*
X312841Y1245909D01*
X312818Y1245676D01*
X312790Y1245445D01*
X312756Y1245213D01*
X312716Y1244983D01*
X312671Y1244754D01*
X312620Y1244526D01*
X312564Y1244299D01*
X312502Y1244073D01*
X312435Y1243850D01*
X312362Y1243628D01*
X312284Y1243407D01*
X312200Y1243189D01*
X312112Y1242973D01*
X312018Y1242759D01*
X311918Y1242547D01*
X311814Y1242338D01*
X311705Y1242132D01*
X311590Y1241928D01*
X311471Y1241727D01*
X311347Y1241529D01*
X311218Y1241334D01*
X311084Y1241142D01*
X310946Y1240954D01*
X310803Y1240769D01*
X310656Y1240588D01*
X310504Y1240410D01*
X310348Y1240236D01*
X310188Y1240066D01*
X310024Y1239899D01*
X309856Y1239737D01*
X309684Y1239579D01*
X309508Y1239425D01*
X309328Y1239276D01*
X309145Y1239131D01*
X308958Y1238990D01*
X308768Y1238854D01*
X308575Y1238723D01*
X308378Y1238596D01*
X308179Y1238475D01*
X307976Y1238358D01*
X307771Y1238246D01*
X307563Y1238139D01*
X307353Y1238037D01*
X307140Y1237941D01*
X306925Y1237849D01*
X306708Y1237763D01*
X306489Y1237682D01*
X306268Y1237607D01*
X306045Y1237537D01*
X305820Y1237472D01*
X305594Y1237413D01*
X305366Y1237360D01*
X305138Y1237312D01*
X304908Y1237269D01*
X304677Y1237232D01*
X304446Y1237201D01*
X304213Y1237175D01*
X303980Y1237156D01*
X303747Y1237141D01*
X303514Y1237133D01*
X303280Y1237130D01*
X303280Y1237131D02*
X293684Y1237131D01*
X322278Y1221778D02*
X337631Y1221778D01*
X322278Y1221778D02*
X322278Y1256322D01*
X337631Y1256322D01*
X333793Y1240969D02*
X322278Y1240969D01*
X356657Y1221778D02*
X356842Y1221780D01*
X357028Y1221787D01*
X357213Y1221798D01*
X357398Y1221814D01*
X357582Y1221834D01*
X357766Y1221859D01*
X357949Y1221888D01*
X358132Y1221921D01*
X358313Y1221959D01*
X358494Y1222001D01*
X358674Y1222048D01*
X358852Y1222099D01*
X359029Y1222154D01*
X359205Y1222213D01*
X359379Y1222277D01*
X359552Y1222345D01*
X359723Y1222417D01*
X359892Y1222493D01*
X360059Y1222573D01*
X360224Y1222657D01*
X360387Y1222745D01*
X360548Y1222838D01*
X360707Y1222933D01*
X360864Y1223033D01*
X361017Y1223137D01*
X361169Y1223244D01*
X361318Y1223355D01*
X361464Y1223469D01*
X361607Y1223587D01*
X361747Y1223708D01*
X361884Y1223833D01*
X362019Y1223961D01*
X362150Y1224092D01*
X362278Y1224227D01*
X362403Y1224364D01*
X362524Y1224504D01*
X362642Y1224647D01*
X362756Y1224793D01*
X362867Y1224942D01*
X362974Y1225094D01*
X363078Y1225247D01*
X363178Y1225404D01*
X363273Y1225563D01*
X363366Y1225724D01*
X363454Y1225887D01*
X363538Y1226052D01*
X363618Y1226219D01*
X363694Y1226388D01*
X363766Y1226559D01*
X363834Y1226732D01*
X363898Y1226906D01*
X363957Y1227082D01*
X364012Y1227259D01*
X364063Y1227437D01*
X364110Y1227617D01*
X364152Y1227798D01*
X364190Y1227979D01*
X364223Y1228162D01*
X364252Y1228345D01*
X364277Y1228529D01*
X364297Y1228713D01*
X364313Y1228898D01*
X364324Y1229083D01*
X364331Y1229269D01*
X364333Y1229454D01*
X356657Y1221778D02*
X356269Y1221783D01*
X355881Y1221797D01*
X355494Y1221820D01*
X355107Y1221852D01*
X354722Y1221894D01*
X354337Y1221945D01*
X353954Y1222005D01*
X353572Y1222074D01*
X353192Y1222153D01*
X352814Y1222240D01*
X352438Y1222336D01*
X352065Y1222442D01*
X351694Y1222556D01*
X351326Y1222679D01*
X350961Y1222811D01*
X350599Y1222952D01*
X350241Y1223101D01*
X349887Y1223259D01*
X349536Y1223425D01*
X349189Y1223600D01*
X348847Y1223782D01*
X348509Y1223973D01*
X348176Y1224172D01*
X347848Y1224379D01*
X347525Y1224594D01*
X347207Y1224816D01*
X346894Y1225046D01*
X346587Y1225283D01*
X346286Y1225528D01*
X345991Y1225779D01*
X345701Y1226038D01*
X345419Y1226304D01*
X345142Y1226576D01*
X346103Y1248646D02*
X346105Y1248831D01*
X346112Y1249017D01*
X346123Y1249202D01*
X346139Y1249387D01*
X346159Y1249571D01*
X346184Y1249755D01*
X346213Y1249938D01*
X346246Y1250121D01*
X346284Y1250302D01*
X346326Y1250483D01*
X346373Y1250663D01*
X346424Y1250841D01*
X346479Y1251018D01*
X346538Y1251194D01*
X346602Y1251368D01*
X346670Y1251541D01*
X346742Y1251712D01*
X346818Y1251881D01*
X346898Y1252048D01*
X346982Y1252213D01*
X347070Y1252376D01*
X347163Y1252537D01*
X347258Y1252696D01*
X347358Y1252853D01*
X347462Y1253006D01*
X347569Y1253158D01*
X347680Y1253307D01*
X347794Y1253453D01*
X347912Y1253596D01*
X348033Y1253736D01*
X348158Y1253873D01*
X348286Y1254008D01*
X348417Y1254139D01*
X348552Y1254267D01*
X348689Y1254392D01*
X348829Y1254513D01*
X348972Y1254631D01*
X349118Y1254745D01*
X349267Y1254856D01*
X349419Y1254963D01*
X349572Y1255067D01*
X349729Y1255167D01*
X349888Y1255262D01*
X350049Y1255355D01*
X350212Y1255443D01*
X350377Y1255527D01*
X350544Y1255607D01*
X350713Y1255683D01*
X350884Y1255755D01*
X351057Y1255823D01*
X351231Y1255887D01*
X351407Y1255946D01*
X351584Y1256002D01*
X351762Y1256052D01*
X351942Y1256099D01*
X352123Y1256141D01*
X352304Y1256179D01*
X352487Y1256212D01*
X352670Y1256241D01*
X352854Y1256266D01*
X353038Y1256286D01*
X353223Y1256302D01*
X353408Y1256313D01*
X353594Y1256320D01*
X353779Y1256322D01*
X354122Y1256318D01*
X354465Y1256306D01*
X354807Y1256285D01*
X355149Y1256257D01*
X355490Y1256220D01*
X355830Y1256175D01*
X356169Y1256122D01*
X356507Y1256061D01*
X356843Y1255992D01*
X357177Y1255915D01*
X357509Y1255830D01*
X357840Y1255737D01*
X358167Y1255637D01*
X358493Y1255528D01*
X358816Y1255412D01*
X359136Y1255288D01*
X359452Y1255157D01*
X359766Y1255018D01*
X360076Y1254871D01*
X360383Y1254718D01*
X360686Y1254557D01*
X360985Y1254388D01*
X361280Y1254213D01*
X361570Y1254031D01*
X361856Y1253842D01*
X362138Y1253646D01*
X362415Y1253443D01*
X349941Y1241929D02*
X349780Y1242027D01*
X349621Y1242128D01*
X349465Y1242234D01*
X349312Y1242342D01*
X349161Y1242455D01*
X349013Y1242571D01*
X348868Y1242691D01*
X348725Y1242814D01*
X348586Y1242941D01*
X348450Y1243071D01*
X348317Y1243204D01*
X348187Y1243340D01*
X348061Y1243480D01*
X347938Y1243622D01*
X347818Y1243768D01*
X347702Y1243916D01*
X347590Y1244067D01*
X347481Y1244221D01*
X347376Y1244377D01*
X347275Y1244536D01*
X347177Y1244697D01*
X347084Y1244860D01*
X346995Y1245026D01*
X346909Y1245193D01*
X346828Y1245363D01*
X346751Y1245535D01*
X346678Y1245708D01*
X346609Y1245884D01*
X346544Y1246060D01*
X346484Y1246239D01*
X346428Y1246419D01*
X346376Y1246600D01*
X346329Y1246782D01*
X346286Y1246965D01*
X346248Y1247149D01*
X346214Y1247335D01*
X346185Y1247520D01*
X346160Y1247707D01*
X346139Y1247894D01*
X346123Y1248082D01*
X346112Y1248270D01*
X346105Y1248458D01*
X346103Y1248646D01*
X360495Y1236171D02*
X360656Y1236073D01*
X360815Y1235972D01*
X360971Y1235866D01*
X361124Y1235758D01*
X361275Y1235645D01*
X361423Y1235529D01*
X361568Y1235409D01*
X361711Y1235286D01*
X361850Y1235159D01*
X361986Y1235029D01*
X362119Y1234896D01*
X362249Y1234760D01*
X362375Y1234620D01*
X362498Y1234478D01*
X362618Y1234332D01*
X362734Y1234184D01*
X362846Y1234033D01*
X362955Y1233879D01*
X363060Y1233723D01*
X363161Y1233564D01*
X363259Y1233403D01*
X363352Y1233240D01*
X363441Y1233074D01*
X363527Y1232906D01*
X363608Y1232737D01*
X363685Y1232565D01*
X363758Y1232392D01*
X363827Y1232216D01*
X363892Y1232040D01*
X363952Y1231861D01*
X364008Y1231681D01*
X364060Y1231500D01*
X364107Y1231318D01*
X364150Y1231135D01*
X364188Y1230951D01*
X364222Y1230765D01*
X364251Y1230580D01*
X364276Y1230393D01*
X364297Y1230206D01*
X364313Y1230018D01*
X364324Y1229830D01*
X364331Y1229642D01*
X364333Y1229454D01*
X360496Y1236171D02*
X349940Y1241929D01*
D14*
X357500Y67500D03*
D15*
X357500Y68750D03*
D16*
X185625Y70000D03*
D14*
X246250Y70000D03*
D15*
X357500Y70000D03*
D16*
X186875Y71250D03*
D17*
X246250Y71250D03*
D18*
X301875Y71250D03*
D16*
X358125Y71250D03*
D18*
X373125Y71250D03*
D19*
X153125Y72500D03*
D16*
X186875Y72500D03*
D18*
X201875Y72500D03*
D20*
X224375Y72500D03*
D17*
X246250Y72500D03*
D21*
X269375Y72500D03*
X301875Y72500D03*
D18*
X334375Y72500D03*
D16*
X358125Y72500D03*
D22*
X375000Y72500D03*
D23*
X152500Y73750D03*
D16*
X186875Y73750D03*
D21*
X201875Y73750D03*
D18*
X224375Y73750D03*
D17*
X246250Y73750D03*
D16*
X269375Y73750D03*
D24*
X287500Y73750D03*
D25*
X302500Y73750D03*
D16*
X334375Y73750D03*
X358125Y73750D03*
D26*
X376250Y73750D03*
D27*
X152500Y75000D03*
D16*
X186875Y75000D03*
D15*
X201250Y75000D03*
D21*
X224375Y75000D03*
D17*
X246250Y75000D03*
D16*
X269375Y75000D03*
D15*
X283750Y75000D03*
D19*
X304375Y75000D03*
X334375Y75000D03*
D16*
X358125Y75000D03*
D28*
X375625Y75000D03*
D27*
X152500Y76250D03*
D21*
X186875Y76250D03*
D15*
X201250Y76250D03*
X223750Y76250D03*
D17*
X246250Y76250D03*
D16*
X269375Y76250D03*
D15*
X283750Y76250D03*
D29*
X308125Y76250D03*
D28*
X334375Y76250D03*
D17*
X357500Y76250D03*
D23*
X376250Y76250D03*
D30*
X152500Y77500D03*
D17*
X186250Y77500D03*
D15*
X201250Y77500D03*
D25*
X223750Y77500D03*
D14*
X246250Y77500D03*
D21*
X269375Y77500D03*
D15*
X283750Y77500D03*
D31*
X308125Y77500D03*
D23*
X335000Y77500D03*
D17*
X357500Y77500D03*
D28*
X376875Y77500D03*
D16*
X145625Y78750D03*
D15*
X160000Y78750D03*
D14*
X185000Y78750D03*
D15*
X201250Y78750D03*
D22*
X222500Y78750D03*
D14*
X246250Y78750D03*
X268750Y78750D03*
D15*
X283750Y78750D03*
D31*
X309375Y78750D03*
D23*
X335000Y78750D03*
D18*
X356875Y78750D03*
D23*
X377500Y78750D03*
D16*
X144375Y80000D03*
D17*
X161250Y80000D03*
D14*
X185000Y80000D03*
D21*
X200625Y80000D03*
D19*
X221875Y80000D03*
D14*
X246250Y80000D03*
X268750Y80000D03*
D21*
X284375Y80000D03*
D31*
X309375Y80000D03*
D23*
X335000Y80000D03*
D18*
X356875Y80000D03*
D26*
X378750Y80000D03*
D15*
X143750Y81250D03*
D18*
X160625Y81250D03*
D20*
X184375Y81250D03*
D17*
X201250Y81250D03*
D22*
X221250Y81250D03*
D14*
X246250Y81250D03*
D20*
X268125Y81250D03*
D17*
X283750Y81250D03*
D31*
X309375Y81250D03*
D17*
X330000Y81250D03*
D25*
X340000Y81250D03*
D18*
X356875Y81250D03*
D32*
X380625Y81250D03*
D15*
X143750Y82500D03*
D18*
X160625Y82500D03*
D20*
X184375Y82500D03*
D17*
X201250Y82500D03*
D32*
X220625Y82500D03*
D14*
X246250Y82500D03*
D20*
X268125Y82500D03*
D17*
X283750Y82500D03*
D31*
X309375Y82500D03*
D16*
X340625Y82500D03*
D14*
X356250Y82500D03*
D25*
X381250Y82500D03*
D17*
X143750Y83750D03*
D18*
X160625Y83750D03*
D21*
X181875Y83750D03*
D18*
X200625Y83750D03*
D19*
X219375Y83750D03*
D14*
X246250Y83750D03*
D20*
X268125Y83750D03*
D17*
X283750Y83750D03*
D14*
X300000Y83750D03*
D15*
X315000Y83750D03*
X341250Y83750D03*
D14*
X356250Y83750D03*
D15*
X382500Y83750D03*
D14*
X143750Y85000D03*
D18*
X160625Y85000D03*
D16*
X181875Y85000D03*
D18*
X200625Y85000D03*
D26*
X218750Y85000D03*
D14*
X246250Y85000D03*
X267500Y85000D03*
D17*
X283750Y85000D03*
D14*
X300000Y85000D03*
D21*
X315625Y85000D03*
D15*
X341250Y85000D03*
D14*
X356250Y85000D03*
D16*
X383125Y85000D03*
D18*
X160625Y86250D03*
D16*
X181875Y86250D03*
D18*
X200625Y86250D03*
D23*
X217500Y86250D03*
D14*
X246250Y86250D03*
D20*
X266875Y86250D03*
D17*
X283750Y86250D03*
D14*
X300000Y86250D03*
D16*
X340625Y86250D03*
D14*
X356250Y86250D03*
D16*
X383125Y86250D03*
D14*
X160000Y87500D03*
D16*
X181875Y87500D03*
D18*
X200625Y87500D03*
D29*
X216875Y87500D03*
D14*
X246250Y87500D03*
D20*
X266875Y87500D03*
D18*
X284375Y87500D03*
D14*
X300000Y87500D03*
D16*
X339375Y87500D03*
D20*
X355625Y87500D03*
D16*
X383125Y87500D03*
D18*
X159375Y88750D03*
D15*
X181250Y88750D03*
D18*
X200625Y88750D03*
D25*
X211250Y88750D03*
D17*
X222500Y88750D03*
D18*
X245625Y88750D03*
X268125Y88750D03*
X284375Y88750D03*
D16*
X303125Y88750D03*
X339375Y88750D03*
D20*
X355625Y88750D03*
D15*
X382500Y88750D03*
D17*
X158750Y90000D03*
D21*
X181875Y90000D03*
D18*
X200625Y90000D03*
D16*
X210625Y90000D03*
D17*
X222500Y90000D03*
D18*
X245625Y90000D03*
D15*
X268750Y90000D03*
D18*
X284375Y90000D03*
D32*
X304375Y90000D03*
D20*
X314375Y90000D03*
D16*
X338125Y90000D03*
D20*
X355625Y90000D03*
D16*
X381875Y90000D03*
D17*
X157500Y91250D03*
X182500Y91250D03*
D18*
X200625Y91250D03*
D16*
X209375Y91250D03*
D17*
X222500Y91250D03*
D18*
X245625Y91250D03*
D31*
X275625Y91250D03*
D23*
X307500Y91250D03*
D16*
X336875Y91250D03*
D20*
X355625Y91250D03*
D16*
X381875Y91250D03*
D15*
X156250Y92500D03*
D18*
X183125Y92500D03*
X200625Y92500D03*
D15*
X208750Y92500D03*
D17*
X222500Y92500D03*
D18*
X245625Y92500D03*
D31*
X275625Y92500D03*
D23*
X308750Y92500D03*
D16*
X336875Y92500D03*
D24*
X355000Y92500D03*
D26*
X378750Y92500D03*
D15*
X155000Y93750D03*
D18*
X183125Y93750D03*
D22*
X205000Y93750D03*
D17*
X222500Y93750D03*
D18*
X245625Y93750D03*
D30*
X275000Y93750D03*
D23*
X308750Y93750D03*
D19*
X333125Y93750D03*
D24*
X355000Y93750D03*
D28*
X376875Y93750D03*
D16*
X154375Y95000D03*
D17*
X183750Y95000D03*
D32*
X204375Y95000D03*
D17*
X222500Y95000D03*
D18*
X245625Y95000D03*
D30*
X275000Y95000D03*
D23*
X308750Y95000D03*
D26*
X332500Y95000D03*
D20*
X354375Y95000D03*
D23*
X375000Y95000D03*
D16*
X153125Y96250D03*
D21*
X183125Y96250D03*
D25*
X203750Y96250D03*
D18*
X221875Y96250D03*
D17*
X245000Y96250D03*
D33*
X274375Y96250D03*
D23*
X308750Y96250D03*
D26*
X331250Y96250D03*
D20*
X354375Y96250D03*
D29*
X374375Y96250D03*
D32*
X151875Y97500D03*
D15*
X183750Y97500D03*
X202500Y97500D03*
D18*
X221875Y97500D03*
D17*
X245000Y97500D03*
X265000Y97500D03*
D28*
X278125Y97500D03*
D20*
X300625Y97500D03*
D14*
X306250Y97500D03*
D21*
X314375Y97500D03*
D26*
X330000Y97500D03*
D14*
X353750Y97500D03*
D23*
X373750Y97500D03*
D26*
X148750Y98750D03*
D15*
X183750Y98750D03*
X202500Y98750D03*
D18*
X221875Y98750D03*
D17*
X245000Y98750D03*
X265000Y98750D03*
D15*
X282500Y98750D03*
D14*
X300000Y98750D03*
D17*
X313750Y98750D03*
D19*
X329375Y98750D03*
D14*
X353750Y98750D03*
D23*
X372500Y98750D03*
D28*
X148125Y100000D03*
D16*
X183125Y100000D03*
D15*
X201250Y100000D03*
D14*
X221250Y100000D03*
D17*
X245000Y100000D03*
D15*
X265000Y100000D03*
X282500Y100000D03*
D14*
X300000Y100000D03*
X313750Y100000D03*
D19*
X328125Y100000D03*
D18*
X353125Y100000D03*
D28*
X371875Y100000D03*
D14*
X83750Y101250D03*
D28*
X146875Y101250D03*
D25*
X182500Y101250D03*
D16*
X200625Y101250D03*
D14*
X221250Y101250D03*
D21*
X244375Y101250D03*
D15*
X265000Y101250D03*
D21*
X283125Y101250D03*
D14*
X300000Y101250D03*
D22*
X327500Y101250D03*
D18*
X353125Y101250D03*
D32*
X368125Y101250D03*
D14*
X377500Y101250D03*
D17*
X83750Y102500D03*
D28*
X146875Y102500D03*
D25*
X181250Y102500D03*
D16*
X199375Y102500D03*
D14*
X221250Y102500D03*
D18*
X236875Y102500D03*
D21*
X244375Y102500D03*
D17*
X265000Y102500D03*
D18*
X284375Y102500D03*
X299375Y102500D03*
D25*
X326250Y102500D03*
D17*
X352500Y102500D03*
D25*
X367500Y102500D03*
D17*
X83750Y103750D03*
D26*
X146250Y103750D03*
D21*
X178125Y103750D03*
D20*
X184375Y103750D03*
D16*
X199375Y103750D03*
D18*
X220625Y103750D03*
D26*
X241250Y103750D03*
D21*
X263125Y103750D03*
D17*
X285000Y103750D03*
X300000Y103750D03*
D25*
X326250Y103750D03*
D21*
X353125Y103750D03*
D16*
X366875Y103750D03*
D17*
X83750Y105000D03*
D19*
X144375Y105000D03*
D15*
X176250Y105000D03*
D20*
X184375Y105000D03*
D16*
X199375Y105000D03*
D14*
X220000Y105000D03*
D26*
X241250Y105000D03*
D16*
X261875Y105000D03*
D17*
X285000Y105000D03*
X300000Y105000D03*
D14*
X316250Y105000D03*
D25*
X327500Y105000D03*
D21*
X353125Y105000D03*
D16*
X368125Y105000D03*
D14*
X83750Y106250D03*
D25*
X142500Y106250D03*
D15*
X175000Y106250D03*
D18*
X184375Y106250D03*
D16*
X199375Y106250D03*
D18*
X219375Y106250D03*
D29*
X243125Y106250D03*
D16*
X261875Y106250D03*
D17*
X285000Y106250D03*
D32*
X301875Y106250D03*
D18*
X316875Y106250D03*
D22*
X330000Y106250D03*
D21*
X353125Y106250D03*
D22*
X371250Y106250D03*
D20*
X83125Y107500D03*
D22*
X143750Y107500D03*
D15*
X173750Y107500D03*
D18*
X184375Y107500D03*
D17*
X200000Y107500D03*
D21*
X219375Y107500D03*
D34*
X250625Y107500D03*
D21*
X285625Y107500D03*
D26*
X303750Y107500D03*
D21*
X316875Y107500D03*
D22*
X331250Y107500D03*
D18*
X353125Y107500D03*
D22*
X372500Y107500D03*
D20*
X83125Y108750D03*
D19*
X145625Y108750D03*
D16*
X173125Y108750D03*
D17*
X185000Y108750D03*
D15*
X218750Y108750D03*
D35*
X251250Y108750D03*
D15*
X285000Y108750D03*
D33*
X308125Y108750D03*
D22*
X332500Y108750D03*
D32*
X373125Y108750D03*
D14*
X82500Y110000D03*
D22*
X147500Y110000D03*
D15*
X172500Y110000D03*
D17*
X185000Y110000D03*
D16*
X219375Y110000D03*
D31*
X255625Y110000D03*
D21*
X285625Y110000D03*
D33*
X308125Y110000D03*
D32*
X333125Y110000D03*
D25*
X373750Y110000D03*
D20*
X81875Y111250D03*
D25*
X148750Y111250D03*
D16*
X171875Y111250D03*
D17*
X185000Y111250D03*
D16*
X219375Y111250D03*
D23*
X256250Y111250D03*
D21*
X285625Y111250D03*
D33*
X308125Y111250D03*
D16*
X334375Y111250D03*
D25*
X373750Y111250D03*
D20*
X81875Y112500D03*
D15*
X150000Y112500D03*
X171250Y112500D03*
D17*
X185000Y112500D03*
D15*
X218750Y112500D03*
D21*
X261875Y112500D03*
X285625Y112500D03*
D30*
X308750Y112500D03*
D16*
X334375Y112500D03*
X374375Y112500D03*
D20*
X81875Y113750D03*
D21*
X150625Y113750D03*
D17*
X171250Y113750D03*
X185000Y113750D03*
D15*
X218750Y113750D03*
D24*
X263750Y113750D03*
D21*
X285625Y113750D03*
D29*
X309375Y113750D03*
D21*
X334375Y113750D03*
X374375Y113750D03*
D20*
X81875Y115000D03*
D17*
X150000Y115000D03*
D14*
X171250Y115000D03*
X185000Y115000D03*
D21*
X218125Y115000D03*
D24*
X282500Y115000D03*
D14*
X287500Y115000D03*
D15*
X305000Y115000D03*
D17*
X335000Y115000D03*
D14*
X375000Y115000D03*
D24*
X81250Y116250D03*
D21*
X218125Y116250D03*
D14*
X286250Y116250D03*
D24*
X81250Y117500D03*
D21*
X218125Y117500D03*
D14*
X286250Y117500D03*
D24*
X81250Y118750D03*
D17*
X217500Y118750D03*
D18*
X285625Y118750D03*
D20*
X80625Y120000D03*
D14*
X217500Y120000D03*
D20*
X80625Y121250D03*
X80625Y122500D03*
D24*
X80000Y123750D03*
X80000Y125000D03*
D20*
X79375Y126250D03*
X79375Y127500D03*
X79375Y128750D03*
X79375Y130000D03*
D24*
X78750Y131250D03*
X78750Y132500D03*
X290000Y132500D03*
D15*
X68750Y133750D03*
D20*
X78125Y133750D03*
D16*
X293125Y133750D03*
D25*
X68750Y135000D03*
D20*
X78125Y135000D03*
D15*
X293750Y135000D03*
D25*
X68750Y136250D03*
D20*
X78125Y136250D03*
D16*
X294375Y136250D03*
D19*
X68125Y137500D03*
D24*
X77500Y137500D03*
D17*
X202500Y137500D03*
D16*
X294375Y137500D03*
D14*
X390000Y137500D03*
D26*
X67500Y138750D03*
D24*
X77500Y138750D03*
D16*
X201875Y138750D03*
X294375Y138750D03*
D17*
X388750Y138750D03*
D28*
X66875Y140000D03*
D24*
X77500Y140000D03*
D32*
X201875Y140000D03*
X295625Y140000D03*
X388125Y140000D03*
D31*
X66875Y141250D03*
D26*
X203750Y141250D03*
D19*
X296875Y141250D03*
D24*
X352500Y141250D03*
D19*
X389375Y141250D03*
D20*
X446875Y141250D03*
D30*
X66250Y142500D03*
D20*
X145625Y142500D03*
D23*
X205000Y142500D03*
D28*
X299375Y142500D03*
D14*
X346250Y142500D03*
D20*
X351875Y142500D03*
D28*
X390625Y142500D03*
D14*
X447500Y142500D03*
D19*
X60625Y143750D03*
D18*
X75625Y143750D03*
D22*
X110000Y143750D03*
D15*
X143750Y143750D03*
D31*
X206875Y143750D03*
D15*
X248750Y143750D03*
D30*
X302500Y143750D03*
D16*
X348125Y143750D03*
D35*
X397500Y143750D03*
D17*
X448750Y143750D03*
D19*
X59375Y145000D03*
D18*
X76875Y145000D03*
D31*
X113125Y145000D03*
D19*
X140625Y145000D03*
D36*
X210000Y145000D03*
D16*
X248125Y145000D03*
D37*
X309375Y145000D03*
D16*
X348125Y145000D03*
D23*
X391250Y145000D03*
D38*
X421250Y145000D03*
D15*
X448750Y145000D03*
D24*
X457500Y145000D03*
D22*
X58750Y146250D03*
D14*
X77500Y146250D03*
D39*
X125000Y146250D03*
D40*
X213750Y146250D03*
D25*
X247500Y146250D03*
D20*
X293125Y146250D03*
D17*
X300000Y146250D03*
D23*
X330000Y146250D03*
D16*
X348125Y146250D03*
D32*
X389375Y146250D03*
D36*
X443750Y146250D03*
D32*
X58125Y147500D03*
D17*
X77500Y147500D03*
D32*
X108125Y147500D03*
D25*
X142500Y147500D03*
D16*
X201875Y147500D03*
D35*
X237500Y147500D03*
D20*
X293125Y147500D03*
D19*
X345625Y147500D03*
D15*
X387500Y147500D03*
D26*
X450000Y147500D03*
D17*
X55000Y148750D03*
D20*
X60625Y148750D03*
X75625Y148750D03*
D14*
X80000Y148750D03*
D16*
X106875Y148750D03*
D32*
X143125Y148750D03*
D15*
X202500Y148750D03*
D26*
X245000Y148750D03*
D20*
X293125Y148750D03*
D16*
X348125Y148750D03*
D21*
X386875Y148750D03*
D22*
X450000Y148750D03*
D14*
X55000Y150000D03*
D20*
X75625Y150000D03*
X80625Y150000D03*
D17*
X106250Y150000D03*
D22*
X142500Y150000D03*
D24*
X201250Y150000D03*
D25*
X247500Y150000D03*
D20*
X293125Y150000D03*
D16*
X348125Y150000D03*
D20*
X384375Y150000D03*
D32*
X449375Y150000D03*
D14*
X55000Y151250D03*
D24*
X75000Y151250D03*
D20*
X81875Y151250D03*
D22*
X142500Y151250D03*
D24*
X201250Y151250D03*
D16*
X248125Y151250D03*
D24*
X292500Y151250D03*
D16*
X348125Y151250D03*
D20*
X384375Y151250D03*
D25*
X448750Y151250D03*
D14*
X55000Y152500D03*
D24*
X75000Y152500D03*
D20*
X81875Y152500D03*
D15*
X141250Y152500D03*
D24*
X201250Y152500D03*
D16*
X248125Y152500D03*
D24*
X292500Y152500D03*
D15*
X348750Y152500D03*
D20*
X384375Y152500D03*
D21*
X448125Y152500D03*
D14*
X55000Y153750D03*
D20*
X74375Y153750D03*
X83125Y153750D03*
D15*
X141250Y153750D03*
D24*
X201250Y153750D03*
D21*
X248125Y153750D03*
D24*
X292500Y153750D03*
D21*
X348125Y153750D03*
D24*
X383750Y153750D03*
D14*
X55000Y155000D03*
D20*
X74375Y155000D03*
X84375Y155000D03*
D17*
X141250Y155000D03*
D24*
X201250Y155000D03*
D21*
X248125Y155000D03*
D20*
X291875Y155000D03*
D17*
X347500Y155000D03*
D24*
X383750Y155000D03*
D14*
X55000Y156250D03*
D20*
X74375Y156250D03*
D14*
X85000Y156250D03*
D17*
X141250Y156250D03*
D20*
X200625Y156250D03*
D17*
X247500Y156250D03*
D20*
X291875Y156250D03*
D17*
X347500Y156250D03*
D24*
X383750Y156250D03*
D20*
X55625Y157500D03*
X74375Y157500D03*
X85625Y157500D03*
D14*
X141250Y157500D03*
D20*
X200625Y157500D03*
D17*
X247500Y157500D03*
D20*
X291875Y157500D03*
D17*
X347500Y157500D03*
D24*
X383750Y157500D03*
D14*
X56250Y158750D03*
D24*
X73750Y158750D03*
D14*
X86250Y158750D03*
X141250Y158750D03*
D20*
X200625Y158750D03*
D17*
X247500Y158750D03*
D20*
X291875Y158750D03*
D17*
X347500Y158750D03*
D24*
X383750Y158750D03*
D14*
X56250Y160000D03*
D24*
X73750Y160000D03*
D14*
X86250Y160000D03*
X141250Y160000D03*
D20*
X200625Y160000D03*
D18*
X248125Y160000D03*
D24*
X291250Y160000D03*
D18*
X346875Y160000D03*
D24*
X383750Y160000D03*
D14*
X56250Y161250D03*
D20*
X73125Y161250D03*
D14*
X86250Y161250D03*
X141250Y161250D03*
D20*
X200625Y161250D03*
D14*
X247500Y161250D03*
D24*
X291250Y161250D03*
D15*
X313750Y161250D03*
D18*
X346875Y161250D03*
D24*
X383750Y161250D03*
D14*
X56250Y162500D03*
D20*
X73125Y162500D03*
D14*
X86250Y162500D03*
D20*
X141875Y162500D03*
X200625Y162500D03*
D14*
X247500Y162500D03*
D24*
X291250Y162500D03*
D16*
X314375Y162500D03*
D18*
X346875Y162500D03*
D24*
X383750Y162500D03*
D14*
X57500Y163750D03*
D20*
X73125Y163750D03*
D18*
X86875Y163750D03*
D24*
X141250Y163750D03*
D20*
X200625Y163750D03*
X248125Y163750D03*
D24*
X291250Y163750D03*
D32*
X314375Y163750D03*
D18*
X346875Y163750D03*
D24*
X383750Y163750D03*
D14*
X57500Y165000D03*
D24*
X72500Y165000D03*
D18*
X86875Y165000D03*
D21*
X116875Y165000D03*
D24*
X141250Y165000D03*
D20*
X200625Y165000D03*
D24*
X247500Y165000D03*
X291250Y165000D03*
D22*
X315000Y165000D03*
D14*
X346250Y165000D03*
D20*
X384375Y165000D03*
D14*
X57500Y166250D03*
D24*
X72500Y166250D03*
D18*
X86875Y166250D03*
D21*
X116875Y166250D03*
D24*
X141250Y166250D03*
X200000Y166250D03*
X247500Y166250D03*
X291250Y166250D03*
D22*
X315000Y166250D03*
D14*
X346250Y166250D03*
D20*
X384375Y166250D03*
D14*
X57500Y167500D03*
D24*
X72500Y167500D03*
D14*
X87500Y167500D03*
D15*
X116250Y167500D03*
D24*
X141250Y167500D03*
X200000Y167500D03*
D18*
X215625Y167500D03*
D24*
X222500Y167500D03*
X247500Y167500D03*
X291250Y167500D03*
D19*
X315625Y167500D03*
D14*
X346250Y167500D03*
D20*
X384375Y167500D03*
D21*
X408125Y167500D03*
D14*
X58750Y168750D03*
D20*
X71875Y168750D03*
X88125Y168750D03*
D16*
X116875Y168750D03*
D24*
X141250Y168750D03*
X200000Y168750D03*
D27*
X221250Y168750D03*
D24*
X247500Y168750D03*
X291250Y168750D03*
D18*
X310625Y168750D03*
D21*
X319375Y168750D03*
D20*
X345625Y168750D03*
X384375Y168750D03*
D16*
X408125Y168750D03*
D14*
X58750Y170000D03*
D20*
X71875Y170000D03*
D14*
X80000Y170000D03*
D20*
X88125Y170000D03*
D21*
X116875Y170000D03*
D24*
X141250Y170000D03*
X200000Y170000D03*
D30*
X221250Y170000D03*
D24*
X247500Y170000D03*
X291250Y170000D03*
D18*
X310625Y170000D03*
D21*
X320625Y170000D03*
D20*
X345625Y170000D03*
X384375Y170000D03*
D16*
X408125Y170000D03*
D20*
X59375Y171250D03*
D24*
X71250Y171250D03*
D17*
X80000Y171250D03*
D20*
X89375Y171250D03*
D21*
X116875Y171250D03*
D20*
X141875Y171250D03*
D24*
X200000Y171250D03*
D30*
X221250Y171250D03*
D20*
X246875Y171250D03*
D24*
X291250Y171250D03*
D14*
X310000Y171250D03*
D15*
X320000Y171250D03*
D20*
X345625Y171250D03*
X384375Y171250D03*
D25*
X408750Y171250D03*
D14*
X60000Y172500D03*
D24*
X71250Y172500D03*
D16*
X80625Y172500D03*
D14*
X90000Y172500D03*
D17*
X116250Y172500D03*
D20*
X141875Y172500D03*
X199375Y172500D03*
D30*
X221250Y172500D03*
D20*
X246875Y172500D03*
D24*
X291250Y172500D03*
D14*
X310000Y172500D03*
D15*
X320000Y172500D03*
D20*
X345625Y172500D03*
X384375Y172500D03*
D25*
X408750Y172500D03*
D20*
X60625Y173750D03*
D24*
X71250Y173750D03*
D25*
X80000Y173750D03*
D14*
X90000Y173750D03*
D18*
X110625Y173750D03*
X116875Y173750D03*
D20*
X141875Y173750D03*
X199375Y173750D03*
D30*
X221250Y173750D03*
D20*
X246875Y173750D03*
D24*
X291250Y173750D03*
D14*
X310000Y173750D03*
D15*
X320000Y173750D03*
D20*
X345625Y173750D03*
X384375Y173750D03*
D25*
X408750Y173750D03*
D20*
X60625Y175000D03*
D24*
X71250Y175000D03*
D25*
X80000Y175000D03*
D18*
X90625Y175000D03*
D25*
X112500Y175000D03*
D24*
X141250Y175000D03*
D20*
X199375Y175000D03*
D33*
X220625Y175000D03*
D24*
X246250Y175000D03*
X291250Y175000D03*
D14*
X310000Y175000D03*
D15*
X320000Y175000D03*
D24*
X345000Y175000D03*
D20*
X384375Y175000D03*
D16*
X408125Y175000D03*
D20*
X61875Y176250D03*
X70625Y176250D03*
D28*
X84375Y176250D03*
D32*
X111875Y176250D03*
D24*
X141250Y176250D03*
D20*
X199375Y176250D03*
D21*
X210625Y176250D03*
D32*
X221875Y176250D03*
D24*
X246250Y176250D03*
X291250Y176250D03*
D14*
X310000Y176250D03*
D21*
X319375Y176250D03*
D24*
X345000Y176250D03*
D20*
X384375Y176250D03*
D15*
X408750Y176250D03*
D20*
X61875Y177500D03*
X70625Y177500D03*
D28*
X84375Y177500D03*
D27*
X116250Y177500D03*
D24*
X141250Y177500D03*
D20*
X199375Y177500D03*
D29*
X216875Y177500D03*
D24*
X246250Y177500D03*
X291250Y177500D03*
D14*
X310000Y177500D03*
X320000Y177500D03*
D24*
X345000Y177500D03*
D20*
X384375Y177500D03*
D21*
X409375Y177500D03*
D20*
X63125Y178750D03*
D24*
X70000Y178750D03*
D28*
X84375Y178750D03*
D27*
X116250Y178750D03*
D24*
X141250Y178750D03*
D20*
X199375Y178750D03*
D15*
X211250Y178750D03*
D21*
X221875Y178750D03*
D24*
X246250Y178750D03*
X291250Y178750D03*
D18*
X309375Y178750D03*
D24*
X345000Y178750D03*
D20*
X384375Y178750D03*
D17*
X408750Y178750D03*
D24*
X63750Y180000D03*
X70000Y180000D03*
D19*
X84375Y180000D03*
D29*
X115625Y180000D03*
D24*
X141250Y180000D03*
D14*
X198750Y180000D03*
D15*
X211250Y180000D03*
D17*
X221250Y180000D03*
D20*
X245625Y180000D03*
X290625Y180000D03*
D18*
X309375Y180000D03*
D20*
X344375Y180000D03*
X384375Y180000D03*
D18*
X409375Y180000D03*
D20*
X64375Y181250D03*
D24*
X70000Y181250D03*
D32*
X84375Y181250D03*
D23*
X116250Y181250D03*
D24*
X141250Y181250D03*
D14*
X198750Y181250D03*
D28*
X215625Y181250D03*
D20*
X245625Y181250D03*
X290625Y181250D03*
D18*
X309375Y181250D03*
D20*
X344375Y181250D03*
X384375Y181250D03*
D18*
X409375Y181250D03*
D20*
X65625Y182500D03*
D24*
X70000Y182500D03*
D21*
X85625Y182500D03*
D22*
X118750Y182500D03*
D24*
X141250Y182500D03*
D20*
X198125Y182500D03*
D26*
X216250Y182500D03*
D24*
X245000Y182500D03*
D20*
X290625Y182500D03*
D18*
X309375Y182500D03*
D24*
X343750Y182500D03*
D20*
X384375Y182500D03*
D18*
X409375Y182500D03*
D20*
X65625Y183750D03*
X69375Y183750D03*
D14*
X86250Y183750D03*
D18*
X114375Y183750D03*
D17*
X121250Y183750D03*
D24*
X141250Y183750D03*
D20*
X198125Y183750D03*
D26*
X217500Y183750D03*
D24*
X245000Y183750D03*
D20*
X290625Y183750D03*
D18*
X309375Y183750D03*
D24*
X343750Y183750D03*
D20*
X384375Y183750D03*
D17*
X410000Y183750D03*
D18*
X66875Y185000D03*
X114375Y185000D03*
D17*
X121250Y185000D03*
D20*
X140625Y185000D03*
X198125Y185000D03*
D22*
X218750Y185000D03*
D24*
X245000Y185000D03*
D20*
X290625Y185000D03*
D18*
X309375Y185000D03*
D24*
X343750Y185000D03*
D20*
X384375Y185000D03*
D17*
X410000Y185000D03*
D14*
X67500Y186250D03*
D18*
X114375Y186250D03*
D14*
X122500Y186250D03*
D20*
X140625Y186250D03*
X198125Y186250D03*
D22*
X218750Y186250D03*
D24*
X245000Y186250D03*
X290000Y186250D03*
D21*
X309375Y186250D03*
D24*
X343750Y186250D03*
D20*
X384375Y186250D03*
D17*
X410000Y186250D03*
D20*
X68125Y187500D03*
D18*
X114375Y187500D03*
D20*
X140625Y187500D03*
X196875Y187500D03*
D32*
X219375Y187500D03*
D20*
X244375Y187500D03*
D24*
X290000Y187500D03*
D21*
X309375Y187500D03*
D24*
X343750Y187500D03*
D20*
X384375Y187500D03*
D17*
X410000Y187500D03*
D14*
X68750Y188750D03*
D18*
X114375Y188750D03*
D20*
X140625Y188750D03*
X196875Y188750D03*
D18*
X215625Y188750D03*
D21*
X223125Y188750D03*
D20*
X244375Y188750D03*
X289375Y188750D03*
D21*
X309375Y188750D03*
D24*
X343750Y188750D03*
D20*
X384375Y188750D03*
D17*
X410000Y188750D03*
D14*
X68750Y190000D03*
D17*
X113750Y190000D03*
D20*
X120625Y190000D03*
X140625Y190000D03*
X196875Y190000D03*
D15*
X222500Y190000D03*
D20*
X244375Y190000D03*
X289375Y190000D03*
D16*
X309375Y190000D03*
D24*
X343750Y190000D03*
D20*
X384375Y190000D03*
D17*
X410000Y190000D03*
D18*
X69375Y191250D03*
D17*
X113750Y191250D03*
X121250Y191250D03*
D20*
X139375Y191250D03*
D24*
X196250Y191250D03*
D21*
X223125Y191250D03*
D20*
X244375Y191250D03*
D24*
X288750Y191250D03*
D16*
X309375Y191250D03*
D24*
X343750Y191250D03*
D20*
X384375Y191250D03*
D17*
X410000Y191250D03*
D24*
X67500Y192500D03*
D20*
X70625Y192500D03*
D18*
X113125Y192500D03*
D21*
X120625Y192500D03*
D20*
X139375Y192500D03*
X195625Y192500D03*
D21*
X223125Y192500D03*
D20*
X244375Y192500D03*
D24*
X288750Y192500D03*
D16*
X309375Y192500D03*
D24*
X343750Y192500D03*
D20*
X384375Y192500D03*
D21*
X410625Y192500D03*
D24*
X67500Y193750D03*
D20*
X71875Y193750D03*
D19*
X118125Y193750D03*
D20*
X139375Y193750D03*
X195625Y193750D03*
D17*
X211250Y193750D03*
D15*
X222500Y193750D03*
D20*
X244375Y193750D03*
D24*
X288750Y193750D03*
D15*
X308750Y193750D03*
D20*
X343125Y193750D03*
X384375Y193750D03*
D21*
X410625Y193750D03*
D20*
X66875Y195000D03*
X73125Y195000D03*
D22*
X117500Y195000D03*
D20*
X139375Y195000D03*
X194375Y195000D03*
D21*
X210625Y195000D03*
D15*
X222500Y195000D03*
D14*
X243750Y195000D03*
D20*
X288125Y195000D03*
D21*
X309375Y195000D03*
D20*
X343125Y195000D03*
X384375Y195000D03*
D15*
X410000Y195000D03*
D20*
X66875Y196250D03*
X73125Y196250D03*
D22*
X117500Y196250D03*
D20*
X139375Y196250D03*
X194375Y196250D03*
D16*
X210625Y196250D03*
X221875Y196250D03*
D20*
X243125Y196250D03*
D24*
X287500Y196250D03*
D20*
X309375Y196250D03*
D24*
X342500Y196250D03*
D20*
X384375Y196250D03*
D16*
X410625Y196250D03*
D20*
X66875Y197500D03*
X74375Y197500D03*
D22*
X116250Y197500D03*
D20*
X139375Y197500D03*
D14*
X193750Y197500D03*
D29*
X215625Y197500D03*
D20*
X243125Y197500D03*
D24*
X287500Y197500D03*
X342500Y197500D03*
D20*
X384375Y197500D03*
D26*
X413750Y197500D03*
D18*
X425625Y197500D03*
D20*
X66875Y198750D03*
X74375Y198750D03*
D32*
X115625Y198750D03*
D20*
X139375Y198750D03*
D14*
X193750Y198750D03*
D23*
X215000Y198750D03*
D20*
X243125Y198750D03*
D24*
X287500Y198750D03*
X342500Y198750D03*
D20*
X384375Y198750D03*
D36*
X415000Y198750D03*
D24*
X66250Y200000D03*
D20*
X75625Y200000D03*
D32*
X115625Y200000D03*
D20*
X139375Y200000D03*
D14*
X192500Y200000D03*
D28*
X214375Y200000D03*
D20*
X243125Y200000D03*
X286875Y200000D03*
D17*
X310000Y200000D03*
D24*
X342500Y200000D03*
D14*
X383750Y200000D03*
D41*
X414375Y200000D03*
D20*
X65625Y201250D03*
X75625Y201250D03*
D24*
X110000Y201250D03*
D15*
X116250Y201250D03*
D20*
X139375Y201250D03*
D18*
X191875Y201250D03*
D26*
X215000Y201250D03*
D20*
X243125Y201250D03*
X286875Y201250D03*
D16*
X308125Y201250D03*
D24*
X342500Y201250D03*
D14*
X383750Y201250D03*
D35*
X415000Y201250D03*
D20*
X65625Y202500D03*
X76875Y202500D03*
D24*
X110000Y202500D03*
D15*
X116250Y202500D03*
D20*
X139375Y202500D03*
D18*
X191875Y202500D03*
D32*
X215625Y202500D03*
D20*
X243125Y202500D03*
X286875Y202500D03*
D16*
X308125Y202500D03*
D20*
X341875Y202500D03*
D14*
X383750Y202500D03*
D35*
X415000Y202500D03*
D20*
X65625Y203750D03*
X76875Y203750D03*
D24*
X110000Y203750D03*
D15*
X116250Y203750D03*
D20*
X139375Y203750D03*
D18*
X190625Y203750D03*
X219375Y203750D03*
D20*
X243125Y203750D03*
X286875Y203750D03*
D25*
X307500Y203750D03*
D20*
X341875Y203750D03*
D14*
X383750Y203750D03*
D41*
X414375Y203750D03*
D20*
X65625Y205000D03*
X78125Y205000D03*
D16*
X114375Y205000D03*
D20*
X139375Y205000D03*
D17*
X190000Y205000D03*
D20*
X243125Y205000D03*
D14*
X286250Y205000D03*
D25*
X307500Y205000D03*
D20*
X341875Y205000D03*
D14*
X383750Y205000D03*
D26*
X407500Y205000D03*
D32*
X423125Y205000D03*
D20*
X65625Y206250D03*
X78125Y206250D03*
D15*
X113750Y206250D03*
D20*
X139375Y206250D03*
D21*
X189375Y206250D03*
D20*
X243125Y206250D03*
D14*
X286250Y206250D03*
D25*
X307500Y206250D03*
D20*
X341875Y206250D03*
D18*
X383125Y206250D03*
D32*
X406875Y206250D03*
D15*
X423750Y206250D03*
D20*
X64375Y207500D03*
X78125Y207500D03*
D17*
X112500Y207500D03*
D24*
X140000Y207500D03*
D17*
X188750Y207500D03*
D20*
X243125Y207500D03*
D14*
X286250Y207500D03*
D16*
X306875Y207500D03*
D20*
X341875Y207500D03*
D18*
X383125Y207500D03*
D20*
X409375Y207500D03*
D14*
X423750Y207500D03*
D20*
X64375Y208750D03*
X79375Y208750D03*
X111875Y208750D03*
D24*
X140000Y208750D03*
D21*
X188125Y208750D03*
D20*
X243125Y208750D03*
D18*
X285625Y208750D03*
D21*
X306875Y208750D03*
D20*
X340625Y208750D03*
D18*
X383125Y208750D03*
D20*
X64375Y210000D03*
X80625Y210000D03*
D14*
X141250Y210000D03*
D15*
X187500Y210000D03*
D20*
X243125Y210000D03*
D18*
X285625Y210000D03*
D14*
X306250Y210000D03*
D20*
X340625Y210000D03*
D17*
X382500Y210000D03*
D20*
X64375Y211250D03*
D14*
X81250Y211250D03*
D25*
X142500Y211250D03*
D21*
X186875Y211250D03*
D20*
X243125Y211250D03*
D17*
X285000Y211250D03*
D20*
X340625Y211250D03*
D21*
X381875Y211250D03*
D20*
X64375Y212500D03*
D18*
X81875Y212500D03*
D42*
X148125Y212500D03*
D15*
X186250Y212500D03*
D17*
X241250Y212500D03*
X285000Y212500D03*
D14*
X341250Y212500D03*
D21*
X381875Y212500D03*
D14*
X63750Y213750D03*
D17*
X82500Y213750D03*
D37*
X151875Y213750D03*
D22*
X188750Y213750D03*
D20*
X198125Y213750D03*
D16*
X243125Y213750D03*
D32*
X286875Y213750D03*
D21*
X341875Y213750D03*
X381875Y213750D03*
D14*
X63750Y215000D03*
D21*
X83125Y215000D03*
D43*
X165000Y215000D03*
D24*
X197500Y215000D03*
D32*
X244375Y215000D03*
D22*
X286250Y215000D03*
D16*
X343125Y215000D03*
D15*
X381250Y215000D03*
D20*
X389375Y215000D03*
D14*
X63750Y216250D03*
D17*
X83750Y216250D03*
D29*
X144375Y216250D03*
X188125Y216250D03*
D22*
X245000Y216250D03*
X286250Y216250D03*
D18*
X340625Y216250D03*
D21*
X348125Y216250D03*
D19*
X383125Y216250D03*
D14*
X63750Y217500D03*
D21*
X84375Y217500D03*
D32*
X140625Y217500D03*
D19*
X189375Y217500D03*
D26*
X246250Y217500D03*
D22*
X286250Y217500D03*
D23*
X347500Y217500D03*
D26*
X383750Y217500D03*
D14*
X63750Y218750D03*
D21*
X84375Y218750D03*
D17*
X136250Y218750D03*
D15*
X192500Y218750D03*
D42*
X253125Y218750D03*
D32*
X286875Y218750D03*
D30*
X350000Y218750D03*
D36*
X377500Y218750D03*
D14*
X63750Y220000D03*
D21*
X84375Y220000D03*
D20*
X193125Y220000D03*
D24*
X196250Y220000D03*
D44*
X265000Y220000D03*
D45*
X356875Y220000D03*
D19*
X384375Y220000D03*
D18*
X63125Y221250D03*
D15*
X85000Y221250D03*
D24*
X196250Y221250D03*
D15*
X243750Y221250D03*
D14*
X277500Y221250D03*
D15*
X287500Y221250D03*
D19*
X345625Y221250D03*
D27*
X380000Y221250D03*
D14*
X62500Y222500D03*
D15*
X85000Y222500D03*
D24*
X196250Y222500D03*
X283750Y222500D03*
D16*
X343125Y222500D03*
D18*
X380625Y222500D03*
D17*
X387500Y222500D03*
D14*
X62500Y223750D03*
D21*
X85625Y223750D03*
D17*
X343750Y223750D03*
D18*
X388125Y223750D03*
D14*
X62500Y225000D03*
D16*
X84375Y225000D03*
D20*
X343125Y225000D03*
D24*
X387500Y225000D03*
D14*
X62500Y226250D03*
D25*
X83750Y226250D03*
D15*
X63750Y227500D03*
D25*
X82500Y227500D03*
D36*
X73750Y228750D03*
D42*
X73125Y230000D03*
D46*
X72500Y231250D03*
D19*
X68125Y232500D03*
D14*
X82500Y232500D03*
D21*
X65625Y233750D03*
M02*
