G04 EAGLE Gerber RS-274X export*
G75*
%MOMM*%
%FSLAX34Y34*%
%LPD*%
%INSolderpaste Top*%
%IPPOS*%
%AMOC8*
5,1,8,0,0,1.08239X$1,22.5*%
G01*

G36*
X407770Y70342D02*
X407770Y70342D01*
X407789Y70340D01*
X407891Y70362D01*
X407993Y70379D01*
X408010Y70388D01*
X408030Y70392D01*
X408119Y70445D01*
X408210Y70494D01*
X408224Y70508D01*
X408241Y70518D01*
X408308Y70597D01*
X408380Y70672D01*
X408388Y70690D01*
X408401Y70705D01*
X408440Y70801D01*
X408483Y70895D01*
X408485Y70915D01*
X408493Y70933D01*
X408511Y71100D01*
X408511Y77450D01*
X408508Y77470D01*
X408510Y77489D01*
X408488Y77591D01*
X408472Y77693D01*
X408462Y77710D01*
X408458Y77730D01*
X408405Y77819D01*
X408356Y77910D01*
X408342Y77924D01*
X408332Y77941D01*
X408253Y78008D01*
X408178Y78080D01*
X408160Y78088D01*
X408145Y78101D01*
X408049Y78140D01*
X407955Y78183D01*
X407935Y78185D01*
X407917Y78193D01*
X407750Y78211D01*
X401400Y78211D01*
X401380Y78208D01*
X401361Y78210D01*
X401259Y78188D01*
X401157Y78172D01*
X401140Y78162D01*
X401120Y78158D01*
X401031Y78105D01*
X400940Y78056D01*
X400926Y78042D01*
X400909Y78032D01*
X400842Y77953D01*
X400771Y77878D01*
X400762Y77860D01*
X400749Y77845D01*
X400710Y77749D01*
X400667Y77655D01*
X400665Y77635D01*
X400657Y77617D01*
X400639Y77450D01*
X400639Y71100D01*
X400642Y71080D01*
X400640Y71061D01*
X400662Y70959D01*
X400679Y70857D01*
X400688Y70840D01*
X400692Y70820D01*
X400745Y70731D01*
X400794Y70640D01*
X400808Y70626D01*
X400818Y70609D01*
X400897Y70542D01*
X400972Y70471D01*
X400990Y70462D01*
X401005Y70449D01*
X401101Y70410D01*
X401195Y70367D01*
X401215Y70365D01*
X401233Y70357D01*
X401400Y70339D01*
X407750Y70339D01*
X407770Y70342D01*
G37*
M02*
