G04 EAGLE Gerber RS-274X export*
G75*
%MOMM*%
%FSLAX34Y34*%
%LPD*%
%IN*%
%IPPOS*%
%AMOC8*
5,1,8,0,0,1.08239X$1,22.5*%
G01*
%ADD10C,3.200000*%
%ADD11C,6.000000*%
%ADD12C,6.100000*%
%ADD13C,0.254000*%


D10*
X75000Y30000D03*
X75000Y1255000D03*
D11*
X72638Y1073483D03*
X72638Y893483D03*
X72638Y713483D03*
X222638Y243483D03*
D12*
X222638Y533483D03*
X222638Y713483D03*
X222638Y893483D03*
X222638Y1073483D03*
D13*
X0Y0D02*
X300000Y0D01*
X300000Y1285000D01*
X0Y1285000D01*
X0Y0D01*
X91000Y29476D02*
X91000Y30524D01*
X90932Y31569D01*
X90795Y32608D01*
X90590Y33635D01*
X90319Y34647D01*
X89983Y35639D01*
X89582Y36607D01*
X89118Y37546D01*
X88595Y38454D01*
X88013Y39325D01*
X87375Y40156D01*
X86684Y40943D01*
X85943Y41684D01*
X85156Y42375D01*
X84325Y43013D01*
X83454Y43595D01*
X82546Y44118D01*
X81607Y44582D01*
X80639Y44983D01*
X79647Y45319D01*
X78635Y45590D01*
X77608Y45795D01*
X76569Y45932D01*
X75524Y46000D01*
X74476Y46000D01*
X73431Y45932D01*
X72392Y45795D01*
X71365Y45590D01*
X70353Y45319D01*
X69361Y44983D01*
X68393Y44582D01*
X67454Y44118D01*
X66546Y43595D01*
X65675Y43013D01*
X64844Y42375D01*
X64057Y41684D01*
X63316Y40943D01*
X62625Y40156D01*
X61988Y39325D01*
X61406Y38454D01*
X60882Y37546D01*
X60418Y36607D01*
X60017Y35639D01*
X59681Y34647D01*
X59410Y33635D01*
X59205Y32608D01*
X59069Y31569D01*
X59000Y30524D01*
X59000Y29476D01*
X59069Y28431D01*
X59205Y27392D01*
X59410Y26365D01*
X59681Y25353D01*
X60017Y24361D01*
X60418Y23393D01*
X60882Y22454D01*
X61406Y21546D01*
X61988Y20675D01*
X62625Y19844D01*
X63316Y19057D01*
X64057Y18316D01*
X64844Y17625D01*
X65675Y16988D01*
X66546Y16406D01*
X67454Y15882D01*
X68393Y15418D01*
X69361Y15017D01*
X70353Y14681D01*
X71365Y14410D01*
X72392Y14205D01*
X73431Y14069D01*
X74476Y14000D01*
X75524Y14000D01*
X76569Y14069D01*
X77608Y14205D01*
X78635Y14410D01*
X79647Y14681D01*
X80639Y15017D01*
X81607Y15418D01*
X82546Y15882D01*
X83454Y16406D01*
X84325Y16988D01*
X85156Y17625D01*
X85943Y18316D01*
X86684Y19057D01*
X87375Y19844D01*
X88013Y20675D01*
X88595Y21546D01*
X89118Y22454D01*
X89582Y23393D01*
X89983Y24361D01*
X90319Y25353D01*
X90590Y26365D01*
X90795Y27392D01*
X90932Y28431D01*
X91000Y29476D01*
X91000Y1254476D02*
X91000Y1255524D01*
X90932Y1256569D01*
X90795Y1257608D01*
X90590Y1258635D01*
X90319Y1259647D01*
X89983Y1260639D01*
X89582Y1261607D01*
X89118Y1262546D01*
X88595Y1263454D01*
X88013Y1264325D01*
X87375Y1265156D01*
X86684Y1265943D01*
X85943Y1266684D01*
X85156Y1267375D01*
X84325Y1268013D01*
X83454Y1268595D01*
X82546Y1269118D01*
X81607Y1269582D01*
X80639Y1269983D01*
X79647Y1270319D01*
X78635Y1270590D01*
X77608Y1270795D01*
X76569Y1270932D01*
X75524Y1271000D01*
X74476Y1271000D01*
X73431Y1270932D01*
X72392Y1270795D01*
X71365Y1270590D01*
X70353Y1270319D01*
X69361Y1269983D01*
X68393Y1269582D01*
X67454Y1269118D01*
X66546Y1268595D01*
X65675Y1268013D01*
X64844Y1267375D01*
X64057Y1266684D01*
X63316Y1265943D01*
X62625Y1265156D01*
X61988Y1264325D01*
X61406Y1263454D01*
X60882Y1262546D01*
X60418Y1261607D01*
X60017Y1260639D01*
X59681Y1259647D01*
X59410Y1258635D01*
X59205Y1257608D01*
X59069Y1256569D01*
X59000Y1255524D01*
X59000Y1254476D01*
X59069Y1253431D01*
X59205Y1252392D01*
X59410Y1251365D01*
X59681Y1250353D01*
X60017Y1249361D01*
X60418Y1248393D01*
X60882Y1247454D01*
X61406Y1246546D01*
X61988Y1245675D01*
X62625Y1244844D01*
X63316Y1244057D01*
X64057Y1243316D01*
X64844Y1242625D01*
X65675Y1241988D01*
X66546Y1241406D01*
X67454Y1240882D01*
X68393Y1240418D01*
X69361Y1240017D01*
X70353Y1239681D01*
X71365Y1239410D01*
X72392Y1239205D01*
X73431Y1239069D01*
X74476Y1239000D01*
X75524Y1239000D01*
X76569Y1239069D01*
X77608Y1239205D01*
X78635Y1239410D01*
X79647Y1239681D01*
X80639Y1240017D01*
X81607Y1240418D01*
X82546Y1240882D01*
X83454Y1241406D01*
X84325Y1241988D01*
X85156Y1242625D01*
X85943Y1243316D01*
X86684Y1244057D01*
X87375Y1244844D01*
X88013Y1245675D01*
X88595Y1246546D01*
X89118Y1247454D01*
X89582Y1248393D01*
X89983Y1249361D01*
X90319Y1250353D01*
X90590Y1251365D01*
X90795Y1252392D01*
X90932Y1253431D01*
X91000Y1254476D01*
X102638Y1072746D02*
X102638Y1074219D01*
X102566Y1075690D01*
X102422Y1077156D01*
X102206Y1078613D01*
X101918Y1080058D01*
X101560Y1081486D01*
X101133Y1082896D01*
X100637Y1084283D01*
X100073Y1085644D01*
X99443Y1086975D01*
X98749Y1088274D01*
X97992Y1089537D01*
X97173Y1090762D01*
X96296Y1091945D01*
X95361Y1093084D01*
X94372Y1094175D01*
X93331Y1095217D01*
X92239Y1096206D01*
X91101Y1097140D01*
X89918Y1098018D01*
X88693Y1098836D01*
X87430Y1099593D01*
X86131Y1100288D01*
X84799Y1100917D01*
X83438Y1101481D01*
X82052Y1101977D01*
X80642Y1102405D01*
X79213Y1102763D01*
X77769Y1103050D01*
X76312Y1103266D01*
X74846Y1103410D01*
X73375Y1103483D01*
X71902Y1103483D01*
X70431Y1103410D01*
X68965Y1103266D01*
X67508Y1103050D01*
X66063Y1102763D01*
X64635Y1102405D01*
X63225Y1101977D01*
X61838Y1101481D01*
X60477Y1100917D01*
X59146Y1100288D01*
X57847Y1099593D01*
X56584Y1098836D01*
X55359Y1098018D01*
X54176Y1097140D01*
X53037Y1096206D01*
X51946Y1095217D01*
X50904Y1094175D01*
X49915Y1093084D01*
X48981Y1091945D01*
X48103Y1090762D01*
X47285Y1089537D01*
X46528Y1088274D01*
X45834Y1086975D01*
X45204Y1085644D01*
X44640Y1084283D01*
X44144Y1082896D01*
X43716Y1081486D01*
X43358Y1080058D01*
X43071Y1078613D01*
X42855Y1077156D01*
X42711Y1075690D01*
X42638Y1074219D01*
X42638Y1072746D01*
X42711Y1071275D01*
X42855Y1069809D01*
X43071Y1068352D01*
X43358Y1066908D01*
X43716Y1065479D01*
X44144Y1064069D01*
X44640Y1062683D01*
X45204Y1061322D01*
X45834Y1059990D01*
X46528Y1058691D01*
X47285Y1057428D01*
X48103Y1056203D01*
X48981Y1055020D01*
X49915Y1053882D01*
X50904Y1052790D01*
X51946Y1051749D01*
X53037Y1050760D01*
X54176Y1049825D01*
X55359Y1048948D01*
X56584Y1048129D01*
X57847Y1047372D01*
X59146Y1046678D01*
X60477Y1046048D01*
X61838Y1045484D01*
X63225Y1044988D01*
X64635Y1044561D01*
X66063Y1044203D01*
X67508Y1043915D01*
X68965Y1043699D01*
X70431Y1043555D01*
X71902Y1043483D01*
X73375Y1043483D01*
X74846Y1043555D01*
X76312Y1043699D01*
X77769Y1043915D01*
X79213Y1044203D01*
X80642Y1044561D01*
X82052Y1044988D01*
X83438Y1045484D01*
X84799Y1046048D01*
X86131Y1046678D01*
X87430Y1047372D01*
X88693Y1048129D01*
X89918Y1048948D01*
X91101Y1049825D01*
X92239Y1050760D01*
X93331Y1051749D01*
X94372Y1052790D01*
X95361Y1053882D01*
X96296Y1055020D01*
X97173Y1056203D01*
X97992Y1057428D01*
X98749Y1058691D01*
X99443Y1059990D01*
X100073Y1061322D01*
X100637Y1062683D01*
X101133Y1064069D01*
X101560Y1065479D01*
X101918Y1066908D01*
X102206Y1068352D01*
X102422Y1069809D01*
X102566Y1071275D01*
X102638Y1072746D01*
X102638Y892746D02*
X102638Y894219D01*
X102566Y895690D01*
X102422Y897156D01*
X102206Y898613D01*
X101918Y900058D01*
X101560Y901486D01*
X101133Y902896D01*
X100637Y904283D01*
X100073Y905644D01*
X99443Y906975D01*
X98749Y908274D01*
X97992Y909537D01*
X97173Y910762D01*
X96296Y911945D01*
X95361Y913084D01*
X94372Y914175D01*
X93331Y915217D01*
X92239Y916206D01*
X91101Y917140D01*
X89918Y918018D01*
X88693Y918836D01*
X87430Y919593D01*
X86131Y920288D01*
X84799Y920917D01*
X83438Y921481D01*
X82052Y921977D01*
X80642Y922405D01*
X79213Y922763D01*
X77769Y923050D01*
X76312Y923266D01*
X74846Y923410D01*
X73375Y923483D01*
X71902Y923483D01*
X70431Y923410D01*
X68965Y923266D01*
X67508Y923050D01*
X66063Y922763D01*
X64635Y922405D01*
X63225Y921977D01*
X61838Y921481D01*
X60477Y920917D01*
X59146Y920288D01*
X57847Y919593D01*
X56584Y918836D01*
X55359Y918018D01*
X54176Y917140D01*
X53037Y916206D01*
X51946Y915217D01*
X50904Y914175D01*
X49915Y913084D01*
X48981Y911945D01*
X48103Y910762D01*
X47285Y909537D01*
X46528Y908274D01*
X45834Y906975D01*
X45204Y905644D01*
X44640Y904283D01*
X44144Y902896D01*
X43716Y901486D01*
X43358Y900058D01*
X43071Y898613D01*
X42855Y897156D01*
X42711Y895690D01*
X42638Y894219D01*
X42638Y892746D01*
X42711Y891275D01*
X42855Y889809D01*
X43071Y888352D01*
X43358Y886908D01*
X43716Y885479D01*
X44144Y884069D01*
X44640Y882683D01*
X45204Y881322D01*
X45834Y879990D01*
X46528Y878691D01*
X47285Y877428D01*
X48103Y876203D01*
X48981Y875020D01*
X49915Y873882D01*
X50904Y872790D01*
X51946Y871749D01*
X53037Y870760D01*
X54176Y869825D01*
X55359Y868948D01*
X56584Y868129D01*
X57847Y867372D01*
X59146Y866678D01*
X60477Y866048D01*
X61838Y865484D01*
X63225Y864988D01*
X64635Y864561D01*
X66063Y864203D01*
X67508Y863915D01*
X68965Y863699D01*
X70431Y863555D01*
X71902Y863483D01*
X73375Y863483D01*
X74846Y863555D01*
X76312Y863699D01*
X77769Y863915D01*
X79213Y864203D01*
X80642Y864561D01*
X82052Y864988D01*
X83438Y865484D01*
X84799Y866048D01*
X86131Y866678D01*
X87430Y867372D01*
X88693Y868129D01*
X89918Y868948D01*
X91101Y869825D01*
X92239Y870760D01*
X93331Y871749D01*
X94372Y872790D01*
X95361Y873882D01*
X96296Y875020D01*
X97173Y876203D01*
X97992Y877428D01*
X98749Y878691D01*
X99443Y879990D01*
X100073Y881322D01*
X100637Y882683D01*
X101133Y884069D01*
X101560Y885479D01*
X101918Y886908D01*
X102206Y888352D01*
X102422Y889809D01*
X102566Y891275D01*
X102638Y892746D01*
X102638Y712746D02*
X102638Y714219D01*
X102566Y715690D01*
X102422Y717156D01*
X102206Y718613D01*
X101918Y720058D01*
X101560Y721486D01*
X101133Y722896D01*
X100637Y724283D01*
X100073Y725644D01*
X99443Y726975D01*
X98749Y728274D01*
X97992Y729537D01*
X97173Y730762D01*
X96296Y731945D01*
X95361Y733084D01*
X94372Y734175D01*
X93331Y735217D01*
X92239Y736206D01*
X91101Y737140D01*
X89918Y738018D01*
X88693Y738836D01*
X87430Y739593D01*
X86131Y740288D01*
X84799Y740917D01*
X83438Y741481D01*
X82052Y741977D01*
X80642Y742405D01*
X79213Y742763D01*
X77769Y743050D01*
X76312Y743266D01*
X74846Y743410D01*
X73375Y743483D01*
X71902Y743483D01*
X70431Y743410D01*
X68965Y743266D01*
X67508Y743050D01*
X66063Y742763D01*
X64635Y742405D01*
X63225Y741977D01*
X61838Y741481D01*
X60477Y740917D01*
X59146Y740288D01*
X57847Y739593D01*
X56584Y738836D01*
X55359Y738018D01*
X54176Y737140D01*
X53037Y736206D01*
X51946Y735217D01*
X50904Y734175D01*
X49915Y733084D01*
X48981Y731945D01*
X48103Y730762D01*
X47285Y729537D01*
X46528Y728274D01*
X45834Y726975D01*
X45204Y725644D01*
X44640Y724283D01*
X44144Y722896D01*
X43716Y721486D01*
X43358Y720058D01*
X43071Y718613D01*
X42855Y717156D01*
X42711Y715690D01*
X42638Y714219D01*
X42638Y712746D01*
X42711Y711275D01*
X42855Y709809D01*
X43071Y708352D01*
X43358Y706908D01*
X43716Y705479D01*
X44144Y704069D01*
X44640Y702683D01*
X45204Y701322D01*
X45834Y699990D01*
X46528Y698691D01*
X47285Y697428D01*
X48103Y696203D01*
X48981Y695020D01*
X49915Y693882D01*
X50904Y692790D01*
X51946Y691749D01*
X53037Y690760D01*
X54176Y689825D01*
X55359Y688948D01*
X56584Y688129D01*
X57847Y687372D01*
X59146Y686678D01*
X60477Y686048D01*
X61838Y685484D01*
X63225Y684988D01*
X64635Y684561D01*
X66063Y684203D01*
X67508Y683915D01*
X68965Y683699D01*
X70431Y683555D01*
X71902Y683483D01*
X73375Y683483D01*
X74846Y683555D01*
X76312Y683699D01*
X77769Y683915D01*
X79213Y684203D01*
X80642Y684561D01*
X82052Y684988D01*
X83438Y685484D01*
X84799Y686048D01*
X86131Y686678D01*
X87430Y687372D01*
X88693Y688129D01*
X89918Y688948D01*
X91101Y689825D01*
X92239Y690760D01*
X93331Y691749D01*
X94372Y692790D01*
X95361Y693882D01*
X96296Y695020D01*
X97173Y696203D01*
X97992Y697428D01*
X98749Y698691D01*
X99443Y699990D01*
X100073Y701322D01*
X100637Y702683D01*
X101133Y704069D01*
X101560Y705479D01*
X101918Y706908D01*
X102206Y708352D01*
X102422Y709809D01*
X102566Y711275D01*
X102638Y712746D01*
X252638Y242746D02*
X252638Y244219D01*
X252566Y245690D01*
X252422Y247156D01*
X252206Y248613D01*
X251918Y250058D01*
X251560Y251486D01*
X251133Y252896D01*
X250637Y254283D01*
X250073Y255644D01*
X249443Y256975D01*
X248749Y258274D01*
X247992Y259537D01*
X247173Y260762D01*
X246296Y261945D01*
X245361Y263084D01*
X244372Y264175D01*
X243331Y265217D01*
X242239Y266206D01*
X241101Y267140D01*
X239918Y268018D01*
X238693Y268836D01*
X237430Y269593D01*
X236131Y270288D01*
X234799Y270917D01*
X233438Y271481D01*
X232052Y271977D01*
X230642Y272405D01*
X229213Y272763D01*
X227769Y273050D01*
X226312Y273266D01*
X224846Y273410D01*
X223375Y273483D01*
X221902Y273483D01*
X220431Y273410D01*
X218965Y273266D01*
X217508Y273050D01*
X216063Y272763D01*
X214635Y272405D01*
X213225Y271977D01*
X211838Y271481D01*
X210477Y270917D01*
X209146Y270288D01*
X207847Y269593D01*
X206584Y268836D01*
X205359Y268018D01*
X204176Y267140D01*
X203037Y266206D01*
X201946Y265217D01*
X200904Y264175D01*
X199915Y263084D01*
X198981Y261945D01*
X198103Y260762D01*
X197285Y259537D01*
X196528Y258274D01*
X195834Y256975D01*
X195204Y255644D01*
X194640Y254283D01*
X194144Y252896D01*
X193716Y251486D01*
X193358Y250058D01*
X193071Y248613D01*
X192855Y247156D01*
X192711Y245690D01*
X192638Y244219D01*
X192638Y242746D01*
X192711Y241275D01*
X192855Y239809D01*
X193071Y238352D01*
X193358Y236908D01*
X193716Y235479D01*
X194144Y234069D01*
X194640Y232683D01*
X195204Y231322D01*
X195834Y229990D01*
X196528Y228691D01*
X197285Y227428D01*
X198103Y226203D01*
X198981Y225020D01*
X199915Y223882D01*
X200904Y222790D01*
X201946Y221749D01*
X203037Y220760D01*
X204176Y219825D01*
X205359Y218948D01*
X206584Y218129D01*
X207847Y217372D01*
X209146Y216678D01*
X210477Y216048D01*
X211838Y215484D01*
X213225Y214988D01*
X214635Y214561D01*
X216063Y214203D01*
X217508Y213915D01*
X218965Y213699D01*
X220431Y213555D01*
X221902Y213483D01*
X223375Y213483D01*
X224846Y213555D01*
X226312Y213699D01*
X227769Y213915D01*
X229213Y214203D01*
X230642Y214561D01*
X232052Y214988D01*
X233438Y215484D01*
X234799Y216048D01*
X236131Y216678D01*
X237430Y217372D01*
X238693Y218129D01*
X239918Y218948D01*
X241101Y219825D01*
X242239Y220760D01*
X243331Y221749D01*
X244372Y222790D01*
X245361Y223882D01*
X246296Y225020D01*
X247173Y226203D01*
X247992Y227428D01*
X248749Y228691D01*
X249443Y229990D01*
X250073Y231322D01*
X250637Y232683D01*
X251133Y234069D01*
X251560Y235479D01*
X251918Y236908D01*
X252206Y238352D01*
X252422Y239809D01*
X252566Y241275D01*
X252638Y242746D01*
X253138Y532734D02*
X253138Y534231D01*
X253065Y535727D01*
X252918Y537217D01*
X252698Y538699D01*
X252406Y540167D01*
X252042Y541620D01*
X251608Y543053D01*
X251103Y544463D01*
X250530Y545846D01*
X249890Y547200D01*
X249184Y548521D01*
X248414Y549805D01*
X247582Y551050D01*
X246690Y552253D01*
X245740Y553410D01*
X244735Y554520D01*
X243676Y555579D01*
X242566Y556585D01*
X241409Y557535D01*
X240206Y558427D01*
X238961Y559259D01*
X237676Y560028D01*
X236356Y560734D01*
X235002Y561375D01*
X233618Y561948D01*
X232209Y562452D01*
X230776Y562887D01*
X229323Y563251D01*
X227854Y563543D01*
X226373Y563762D01*
X224883Y563909D01*
X223387Y563983D01*
X221890Y563983D01*
X220394Y563909D01*
X218904Y563762D01*
X217422Y563543D01*
X215954Y563251D01*
X214501Y562887D01*
X213068Y562452D01*
X211658Y561948D01*
X210275Y561375D01*
X208921Y560734D01*
X207600Y560028D01*
X206316Y559259D01*
X205071Y558427D01*
X203868Y557535D01*
X202711Y556585D01*
X201601Y555579D01*
X200542Y554520D01*
X199537Y553410D01*
X198587Y552253D01*
X197694Y551050D01*
X196863Y549805D01*
X196093Y548521D01*
X195387Y547200D01*
X194747Y545846D01*
X194173Y544463D01*
X193669Y543053D01*
X193234Y541620D01*
X192870Y540167D01*
X192578Y538699D01*
X192359Y537217D01*
X192212Y535727D01*
X192138Y534231D01*
X192138Y532734D01*
X192212Y531238D01*
X192359Y529748D01*
X192578Y528267D01*
X192870Y526798D01*
X193234Y525346D01*
X193669Y523913D01*
X194173Y522503D01*
X194747Y521119D01*
X195387Y519765D01*
X196093Y518445D01*
X196863Y517160D01*
X197694Y515915D01*
X198587Y514712D01*
X199537Y513555D01*
X200542Y512445D01*
X201601Y511387D01*
X202711Y510381D01*
X203868Y509431D01*
X205071Y508539D01*
X206316Y507707D01*
X207600Y506937D01*
X208921Y506231D01*
X210275Y505591D01*
X211658Y505018D01*
X213068Y504513D01*
X214501Y504079D01*
X215954Y503715D01*
X217422Y503423D01*
X218904Y503203D01*
X220394Y503056D01*
X221890Y502983D01*
X223387Y502983D01*
X224883Y503056D01*
X226373Y503203D01*
X227854Y503423D01*
X229323Y503715D01*
X230776Y504079D01*
X232209Y504513D01*
X233618Y505018D01*
X235002Y505591D01*
X236356Y506231D01*
X237676Y506937D01*
X238961Y507707D01*
X240206Y508539D01*
X241409Y509431D01*
X242566Y510381D01*
X243676Y511387D01*
X244735Y512445D01*
X245740Y513555D01*
X246690Y514712D01*
X247582Y515915D01*
X248414Y517160D01*
X249184Y518445D01*
X249890Y519765D01*
X250530Y521119D01*
X251103Y522503D01*
X251608Y523913D01*
X252042Y525346D01*
X252406Y526798D01*
X252698Y528267D01*
X252918Y529748D01*
X253065Y531238D01*
X253138Y532734D01*
X253138Y712734D02*
X253138Y714231D01*
X253065Y715727D01*
X252918Y717217D01*
X252698Y718699D01*
X252406Y720167D01*
X252042Y721620D01*
X251608Y723053D01*
X251103Y724463D01*
X250530Y725846D01*
X249890Y727200D01*
X249184Y728521D01*
X248414Y729805D01*
X247582Y731050D01*
X246690Y732253D01*
X245740Y733410D01*
X244735Y734520D01*
X243676Y735579D01*
X242566Y736585D01*
X241409Y737535D01*
X240206Y738427D01*
X238961Y739259D01*
X237676Y740028D01*
X236356Y740734D01*
X235002Y741375D01*
X233618Y741948D01*
X232209Y742452D01*
X230776Y742887D01*
X229323Y743251D01*
X227854Y743543D01*
X226373Y743762D01*
X224883Y743909D01*
X223387Y743983D01*
X221890Y743983D01*
X220394Y743909D01*
X218904Y743762D01*
X217422Y743543D01*
X215954Y743251D01*
X214501Y742887D01*
X213068Y742452D01*
X211658Y741948D01*
X210275Y741375D01*
X208921Y740734D01*
X207600Y740028D01*
X206316Y739259D01*
X205071Y738427D01*
X203868Y737535D01*
X202711Y736585D01*
X201601Y735579D01*
X200542Y734520D01*
X199537Y733410D01*
X198587Y732253D01*
X197694Y731050D01*
X196863Y729805D01*
X196093Y728521D01*
X195387Y727200D01*
X194747Y725846D01*
X194173Y724463D01*
X193669Y723053D01*
X193234Y721620D01*
X192870Y720167D01*
X192578Y718699D01*
X192359Y717217D01*
X192212Y715727D01*
X192138Y714231D01*
X192138Y712734D01*
X192212Y711238D01*
X192359Y709748D01*
X192578Y708267D01*
X192870Y706798D01*
X193234Y705346D01*
X193669Y703913D01*
X194173Y702503D01*
X194747Y701119D01*
X195387Y699765D01*
X196093Y698445D01*
X196863Y697160D01*
X197694Y695915D01*
X198587Y694712D01*
X199537Y693555D01*
X200542Y692445D01*
X201601Y691387D01*
X202711Y690381D01*
X203868Y689431D01*
X205071Y688539D01*
X206316Y687707D01*
X207600Y686937D01*
X208921Y686231D01*
X210275Y685591D01*
X211658Y685018D01*
X213068Y684513D01*
X214501Y684079D01*
X215954Y683715D01*
X217422Y683423D01*
X218904Y683203D01*
X220394Y683056D01*
X221890Y682983D01*
X223387Y682983D01*
X224883Y683056D01*
X226373Y683203D01*
X227854Y683423D01*
X229323Y683715D01*
X230776Y684079D01*
X232209Y684513D01*
X233618Y685018D01*
X235002Y685591D01*
X236356Y686231D01*
X237676Y686937D01*
X238961Y687707D01*
X240206Y688539D01*
X241409Y689431D01*
X242566Y690381D01*
X243676Y691387D01*
X244735Y692445D01*
X245740Y693555D01*
X246690Y694712D01*
X247582Y695915D01*
X248414Y697160D01*
X249184Y698445D01*
X249890Y699765D01*
X250530Y701119D01*
X251103Y702503D01*
X251608Y703913D01*
X252042Y705346D01*
X252406Y706798D01*
X252698Y708267D01*
X252918Y709748D01*
X253065Y711238D01*
X253138Y712734D01*
X253138Y892734D02*
X253138Y894231D01*
X253065Y895727D01*
X252918Y897217D01*
X252698Y898699D01*
X252406Y900167D01*
X252042Y901620D01*
X251608Y903053D01*
X251103Y904463D01*
X250530Y905846D01*
X249890Y907200D01*
X249184Y908521D01*
X248414Y909805D01*
X247582Y911050D01*
X246690Y912253D01*
X245740Y913410D01*
X244735Y914520D01*
X243676Y915579D01*
X242566Y916585D01*
X241409Y917535D01*
X240206Y918427D01*
X238961Y919259D01*
X237676Y920028D01*
X236356Y920734D01*
X235002Y921375D01*
X233618Y921948D01*
X232209Y922452D01*
X230776Y922887D01*
X229323Y923251D01*
X227854Y923543D01*
X226373Y923762D01*
X224883Y923909D01*
X223387Y923983D01*
X221890Y923983D01*
X220394Y923909D01*
X218904Y923762D01*
X217422Y923543D01*
X215954Y923251D01*
X214501Y922887D01*
X213068Y922452D01*
X211658Y921948D01*
X210275Y921375D01*
X208921Y920734D01*
X207600Y920028D01*
X206316Y919259D01*
X205071Y918427D01*
X203868Y917535D01*
X202711Y916585D01*
X201601Y915579D01*
X200542Y914520D01*
X199537Y913410D01*
X198587Y912253D01*
X197694Y911050D01*
X196863Y909805D01*
X196093Y908521D01*
X195387Y907200D01*
X194747Y905846D01*
X194173Y904463D01*
X193669Y903053D01*
X193234Y901620D01*
X192870Y900167D01*
X192578Y898699D01*
X192359Y897217D01*
X192212Y895727D01*
X192138Y894231D01*
X192138Y892734D01*
X192212Y891238D01*
X192359Y889748D01*
X192578Y888267D01*
X192870Y886798D01*
X193234Y885346D01*
X193669Y883913D01*
X194173Y882503D01*
X194747Y881119D01*
X195387Y879765D01*
X196093Y878445D01*
X196863Y877160D01*
X197694Y875915D01*
X198587Y874712D01*
X199537Y873555D01*
X200542Y872445D01*
X201601Y871387D01*
X202711Y870381D01*
X203868Y869431D01*
X205071Y868539D01*
X206316Y867707D01*
X207600Y866937D01*
X208921Y866231D01*
X210275Y865591D01*
X211658Y865018D01*
X213068Y864513D01*
X214501Y864079D01*
X215954Y863715D01*
X217422Y863423D01*
X218904Y863203D01*
X220394Y863056D01*
X221890Y862983D01*
X223387Y862983D01*
X224883Y863056D01*
X226373Y863203D01*
X227854Y863423D01*
X229323Y863715D01*
X230776Y864079D01*
X232209Y864513D01*
X233618Y865018D01*
X235002Y865591D01*
X236356Y866231D01*
X237676Y866937D01*
X238961Y867707D01*
X240206Y868539D01*
X241409Y869431D01*
X242566Y870381D01*
X243676Y871387D01*
X244735Y872445D01*
X245740Y873555D01*
X246690Y874712D01*
X247582Y875915D01*
X248414Y877160D01*
X249184Y878445D01*
X249890Y879765D01*
X250530Y881119D01*
X251103Y882503D01*
X251608Y883913D01*
X252042Y885346D01*
X252406Y886798D01*
X252698Y888267D01*
X252918Y889748D01*
X253065Y891238D01*
X253138Y892734D01*
X253138Y1072734D02*
X253138Y1074231D01*
X253065Y1075727D01*
X252918Y1077217D01*
X252698Y1078699D01*
X252406Y1080167D01*
X252042Y1081620D01*
X251608Y1083053D01*
X251103Y1084463D01*
X250530Y1085846D01*
X249890Y1087200D01*
X249184Y1088521D01*
X248414Y1089805D01*
X247582Y1091050D01*
X246690Y1092253D01*
X245740Y1093410D01*
X244735Y1094520D01*
X243676Y1095579D01*
X242566Y1096585D01*
X241409Y1097535D01*
X240206Y1098427D01*
X238961Y1099259D01*
X237676Y1100028D01*
X236356Y1100734D01*
X235002Y1101375D01*
X233618Y1101948D01*
X232209Y1102452D01*
X230776Y1102887D01*
X229323Y1103251D01*
X227854Y1103543D01*
X226373Y1103762D01*
X224883Y1103909D01*
X223387Y1103983D01*
X221890Y1103983D01*
X220394Y1103909D01*
X218904Y1103762D01*
X217422Y1103543D01*
X215954Y1103251D01*
X214501Y1102887D01*
X213068Y1102452D01*
X211658Y1101948D01*
X210275Y1101375D01*
X208921Y1100734D01*
X207600Y1100028D01*
X206316Y1099259D01*
X205071Y1098427D01*
X203868Y1097535D01*
X202711Y1096585D01*
X201601Y1095579D01*
X200542Y1094520D01*
X199537Y1093410D01*
X198587Y1092253D01*
X197694Y1091050D01*
X196863Y1089805D01*
X196093Y1088521D01*
X195387Y1087200D01*
X194747Y1085846D01*
X194173Y1084463D01*
X193669Y1083053D01*
X193234Y1081620D01*
X192870Y1080167D01*
X192578Y1078699D01*
X192359Y1077217D01*
X192212Y1075727D01*
X192138Y1074231D01*
X192138Y1072734D01*
X192212Y1071238D01*
X192359Y1069748D01*
X192578Y1068267D01*
X192870Y1066798D01*
X193234Y1065346D01*
X193669Y1063913D01*
X194173Y1062503D01*
X194747Y1061119D01*
X195387Y1059765D01*
X196093Y1058445D01*
X196863Y1057160D01*
X197694Y1055915D01*
X198587Y1054712D01*
X199537Y1053555D01*
X200542Y1052445D01*
X201601Y1051387D01*
X202711Y1050381D01*
X203868Y1049431D01*
X205071Y1048539D01*
X206316Y1047707D01*
X207600Y1046937D01*
X208921Y1046231D01*
X210275Y1045591D01*
X211658Y1045018D01*
X213068Y1044513D01*
X214501Y1044079D01*
X215954Y1043715D01*
X217422Y1043423D01*
X218904Y1043203D01*
X220394Y1043056D01*
X221890Y1042983D01*
X223387Y1042983D01*
X224883Y1043056D01*
X226373Y1043203D01*
X227854Y1043423D01*
X229323Y1043715D01*
X230776Y1044079D01*
X232209Y1044513D01*
X233618Y1045018D01*
X235002Y1045591D01*
X236356Y1046231D01*
X237676Y1046937D01*
X238961Y1047707D01*
X240206Y1048539D01*
X241409Y1049431D01*
X242566Y1050381D01*
X243676Y1051387D01*
X244735Y1052445D01*
X245740Y1053555D01*
X246690Y1054712D01*
X247582Y1055915D01*
X248414Y1057160D01*
X249184Y1058445D01*
X249890Y1059765D01*
X250530Y1061119D01*
X251103Y1062503D01*
X251608Y1063913D01*
X252042Y1065346D01*
X252406Y1066798D01*
X252698Y1068267D01*
X252918Y1069748D01*
X253065Y1071238D01*
X253138Y1072734D01*
M02*
