G04 EAGLE Gerber RS-274X export*
G75*
%MOMM*%
%FSLAX34Y34*%
%LPD*%
%INSolderpaste Top*%
%IPPOS*%
%AMOC8*
5,1,8,0,0,1.08239X$1,22.5*%
G01*

G36*
X115970Y26142D02*
X115970Y26142D01*
X115989Y26140D01*
X116091Y26162D01*
X116193Y26179D01*
X116210Y26188D01*
X116230Y26192D01*
X116319Y26245D01*
X116410Y26294D01*
X116424Y26308D01*
X116441Y26318D01*
X116508Y26397D01*
X116580Y26472D01*
X116588Y26490D01*
X116601Y26505D01*
X116640Y26601D01*
X116683Y26695D01*
X116685Y26715D01*
X116693Y26733D01*
X116711Y26900D01*
X116711Y33250D01*
X116708Y33270D01*
X116710Y33289D01*
X116688Y33391D01*
X116672Y33493D01*
X116662Y33510D01*
X116658Y33530D01*
X116605Y33619D01*
X116556Y33710D01*
X116542Y33724D01*
X116532Y33741D01*
X116453Y33808D01*
X116378Y33880D01*
X116360Y33888D01*
X116345Y33901D01*
X116249Y33940D01*
X116155Y33983D01*
X116135Y33985D01*
X116117Y33993D01*
X115950Y34011D01*
X109600Y34011D01*
X109580Y34008D01*
X109561Y34010D01*
X109459Y33988D01*
X109357Y33972D01*
X109340Y33962D01*
X109320Y33958D01*
X109231Y33905D01*
X109140Y33856D01*
X109126Y33842D01*
X109109Y33832D01*
X109042Y33753D01*
X108971Y33678D01*
X108962Y33660D01*
X108949Y33645D01*
X108910Y33549D01*
X108867Y33455D01*
X108865Y33435D01*
X108857Y33417D01*
X108839Y33250D01*
X108839Y26900D01*
X108842Y26880D01*
X108840Y26861D01*
X108862Y26759D01*
X108879Y26657D01*
X108888Y26640D01*
X108892Y26620D01*
X108945Y26531D01*
X108994Y26440D01*
X109008Y26426D01*
X109018Y26409D01*
X109097Y26342D01*
X109172Y26271D01*
X109190Y26262D01*
X109205Y26249D01*
X109301Y26210D01*
X109395Y26167D01*
X109415Y26165D01*
X109433Y26157D01*
X109600Y26139D01*
X115950Y26139D01*
X115970Y26142D01*
G37*
M02*
