G04 EAGLE Gerber RS-274X export*
G75*
%MOMM*%
%FSLAX34Y34*%
%LPD*%
%INSilkscreen Top*%
%IPPOS*%
%AMOC8*
5,1,8,0,0,1.08239X$1,22.5*%
G01*
%ADD10C,0.203200*%
%ADD11C,0.609600*%
%ADD12C,0.304800*%
%ADD13R,0.300000X0.100000*%
%ADD14R,0.700000X0.100000*%
%ADD15R,0.800000X0.100000*%
%ADD16R,0.500000X0.100000*%
%ADD17R,0.400000X0.100000*%
%ADD18R,1.200000X0.100000*%
%ADD19R,0.200000X0.100000*%
%ADD20R,0.600000X0.100000*%
%ADD21R,1.100000X0.100000*%
%ADD22R,1.500000X0.100000*%
%ADD23R,0.100000X0.100000*%
%ADD24R,0.900000X0.100000*%
%ADD25R,1.300000X0.100000*%
%ADD26R,1.700000X0.100000*%
%ADD27R,1.400000X0.100000*%
%ADD28R,1.600000X0.100000*%
%ADD29R,1.900000X0.100000*%
%ADD30R,1.800000X0.100000*%
%ADD31R,1.000000X0.100000*%
%ADD32R,2.000000X0.100000*%
%ADD33R,2.600000X0.100000*%
%ADD34R,2.500000X0.100000*%
%ADD35R,2.300000X0.100000*%
%ADD36R,2.800000X0.100000*%
%ADD37R,2.900000X0.100000*%
%ADD38R,3.700000X0.100000*%
%ADD39R,2.700000X0.100000*%
%ADD40R,2.400000X0.100000*%
%ADD41R,2.200000X0.100000*%
%ADD42R,4.900000X0.100000*%
%ADD43R,4.300000X0.100000*%
%ADD44R,3.000000X0.100000*%
%ADD45R,2.100000X0.100000*%
%ADD46R,0.050000X0.050000*%
%ADD47R,0.500000X0.050000*%
%ADD48R,0.200000X0.050000*%
%ADD49R,0.100000X0.050000*%
%ADD50R,0.550000X0.050000*%
%ADD51R,0.950000X0.050000*%
%ADD52R,0.600000X0.050000*%
%ADD53R,0.300000X0.050000*%
%ADD54R,0.800000X0.050000*%
%ADD55R,1.000000X0.050000*%
%ADD56R,0.650000X0.050000*%
%ADD57R,0.750000X0.050000*%
%ADD58R,1.100000X0.050000*%
%ADD59R,0.150000X0.050000*%
%ADD60R,1.150000X0.050000*%
%ADD61R,1.050000X0.050000*%
%ADD62R,0.900000X0.050000*%
%ADD63R,1.200000X0.050000*%
%ADD64R,1.300000X0.050000*%
%ADD65R,1.350000X0.050000*%
%ADD66R,1.600000X0.050000*%
%ADD67R,2.650000X0.050000*%
%ADD68R,2.500000X0.050000*%
%ADD69R,2.550000X0.050000*%
%ADD70R,2.600000X0.050000*%
%ADD71R,2.200000X0.050000*%
%ADD72R,2.050000X0.050000*%
%ADD73R,1.950000X0.050000*%
%ADD74R,0.450000X0.050000*%
%ADD75R,1.400000X0.050000*%
%ADD76R,0.250000X0.050000*%
%ADD77R,0.350000X0.050000*%
%ADD78R,0.700000X0.050000*%
%ADD79R,1.700000X0.050000*%
%ADD80R,1.550000X0.050000*%
%ADD81R,1.500000X0.050000*%
%ADD82R,2.150000X0.050000*%
%ADD83R,2.700000X0.050000*%
%ADD84R,1.450000X0.050000*%
%ADD85R,0.400000X0.050000*%
%ADD86R,3.350000X0.050000*%
%ADD87R,1.800000X0.050000*%
%ADD88R,1.850000X0.050000*%
%ADD89R,3.300000X0.050000*%
%ADD90R,3.250000X0.050000*%
%ADD91R,3.100000X0.050000*%
%ADD92R,3.150000X0.050000*%
%ADD93R,1.750000X0.050000*%
%ADD94R,3.600000X0.050000*%
%ADD95R,1.650000X0.050000*%
%ADD96R,2.000000X0.050000*%
%ADD97R,2.300000X0.050000*%
%ADD98R,6.100000X0.050000*%
%ADD99R,6.500000X0.050000*%
%ADD100R,2.100000X0.050000*%
%ADD101R,6.400000X0.050000*%
%ADD102R,6.550000X0.050000*%
%ADD103R,9.350000X0.050000*%
%ADD104R,8.950000X0.050000*%
%ADD105R,7.400000X0.050000*%
%ADD106R,7.350000X0.050000*%
%ADD107R,6.600000X0.050000*%
%ADD108R,7.050000X0.050000*%
%ADD109R,7.100000X0.050000*%
%ADD110R,7.600000X0.050000*%
%ADD111R,7.750000X0.050000*%
%ADD112R,16.300000X0.050000*%
%ADD113R,16.350000X0.050000*%
%ADD114R,4.600000X0.050000*%
%ADD115R,4.050000X0.050000*%
%ADD116R,4.500000X0.050000*%
%ADD117R,3.650000X0.050000*%
%ADD118R,2.800000X0.050000*%
%ADD119R,4.100000X0.050000*%
%ADD120R,4.450000X0.050000*%
%ADD121R,2.750000X0.050000*%
%ADD122R,1.250000X0.050000*%
%ADD123R,4.200000X0.050000*%
%ADD124R,9.750000X0.050000*%
%ADD125R,8.450000X0.050000*%
%ADD126R,6.000000X0.050000*%
%ADD127R,5.100000X0.050000*%
%ADD128R,3.200000X0.050000*%
%ADD129R,4.000000X0.050000*%
%ADD130R,9.700000X0.050000*%
%ADD131R,5.950000X0.050000*%
%ADD132R,5.000000X0.050000*%
%ADD133R,4.550000X0.050000*%
%ADD134R,0.850000X0.050000*%
%ADD135R,3.800000X0.050000*%
%ADD136R,3.850000X0.050000*%
%ADD137R,4.150000X0.050000*%


D10*
X306402Y446016D02*
X301209Y446016D01*
X301066Y446018D01*
X300923Y446024D01*
X300780Y446034D01*
X300638Y446048D01*
X300496Y446065D01*
X300354Y446087D01*
X300213Y446112D01*
X300073Y446142D01*
X299934Y446175D01*
X299796Y446212D01*
X299659Y446253D01*
X299523Y446297D01*
X299388Y446346D01*
X299255Y446398D01*
X299123Y446453D01*
X298993Y446513D01*
X298864Y446576D01*
X298737Y446642D01*
X298612Y446712D01*
X298490Y446785D01*
X298369Y446862D01*
X298250Y446942D01*
X298134Y447025D01*
X298019Y447111D01*
X297908Y447200D01*
X297798Y447293D01*
X297692Y447388D01*
X297588Y447487D01*
X297487Y447588D01*
X297388Y447692D01*
X297293Y447798D01*
X297200Y447908D01*
X297111Y448019D01*
X297025Y448134D01*
X296942Y448250D01*
X296862Y448369D01*
X296785Y448490D01*
X296712Y448613D01*
X296642Y448737D01*
X296576Y448864D01*
X296513Y448993D01*
X296453Y449123D01*
X296398Y449255D01*
X296346Y449388D01*
X296297Y449523D01*
X296253Y449659D01*
X296212Y449796D01*
X296175Y449934D01*
X296142Y450073D01*
X296112Y450213D01*
X296087Y450354D01*
X296065Y450496D01*
X296048Y450638D01*
X296034Y450780D01*
X296024Y450923D01*
X296018Y451066D01*
X296016Y451209D01*
X296016Y464191D01*
X296018Y464334D01*
X296024Y464477D01*
X296034Y464620D01*
X296048Y464762D01*
X296065Y464904D01*
X296087Y465046D01*
X296112Y465187D01*
X296142Y465327D01*
X296175Y465466D01*
X296212Y465604D01*
X296253Y465741D01*
X296297Y465877D01*
X296346Y466012D01*
X296398Y466145D01*
X296453Y466277D01*
X296513Y466407D01*
X296576Y466536D01*
X296642Y466663D01*
X296712Y466787D01*
X296785Y466910D01*
X296862Y467031D01*
X296942Y467150D01*
X297025Y467266D01*
X297111Y467381D01*
X297200Y467492D01*
X297293Y467602D01*
X297388Y467708D01*
X297487Y467812D01*
X297588Y467913D01*
X297692Y468012D01*
X297798Y468107D01*
X297908Y468200D01*
X298019Y468289D01*
X298134Y468375D01*
X298250Y468458D01*
X298369Y468538D01*
X298490Y468615D01*
X298612Y468688D01*
X298737Y468758D01*
X298864Y468824D01*
X298993Y468887D01*
X299123Y468947D01*
X299255Y469002D01*
X299388Y469054D01*
X299523Y469103D01*
X299659Y469147D01*
X299796Y469188D01*
X299934Y469225D01*
X300073Y469258D01*
X300213Y469288D01*
X300354Y469313D01*
X300496Y469335D01*
X300638Y469352D01*
X300780Y469366D01*
X300923Y469376D01*
X301066Y469382D01*
X301209Y469384D01*
X306402Y469384D01*
X296016Y526016D02*
X296016Y549384D01*
X302507Y549384D01*
X302666Y549382D01*
X302825Y549376D01*
X302985Y549366D01*
X303143Y549353D01*
X303302Y549335D01*
X303459Y549314D01*
X303617Y549288D01*
X303773Y549259D01*
X303929Y549226D01*
X304084Y549189D01*
X304238Y549149D01*
X304391Y549104D01*
X304543Y549056D01*
X304694Y549005D01*
X304843Y548949D01*
X304991Y548890D01*
X305137Y548827D01*
X305282Y548761D01*
X305425Y548691D01*
X305567Y548618D01*
X305706Y548541D01*
X305844Y548461D01*
X305980Y548377D01*
X306113Y548290D01*
X306245Y548200D01*
X306374Y548107D01*
X306500Y548010D01*
X306625Y547911D01*
X306747Y547808D01*
X306866Y547703D01*
X306983Y547594D01*
X307097Y547483D01*
X307208Y547369D01*
X307317Y547252D01*
X307422Y547133D01*
X307525Y547011D01*
X307624Y546886D01*
X307721Y546760D01*
X307814Y546631D01*
X307904Y546499D01*
X307991Y546366D01*
X308075Y546230D01*
X308155Y546092D01*
X308232Y545953D01*
X308305Y545811D01*
X308375Y545668D01*
X308441Y545523D01*
X308504Y545377D01*
X308563Y545229D01*
X308619Y545080D01*
X308670Y544929D01*
X308718Y544777D01*
X308763Y544624D01*
X308803Y544470D01*
X308840Y544315D01*
X308873Y544159D01*
X308902Y544003D01*
X308928Y543845D01*
X308949Y543688D01*
X308967Y543529D01*
X308980Y543371D01*
X308990Y543211D01*
X308996Y543052D01*
X308998Y542893D01*
X308998Y532507D01*
X308996Y532348D01*
X308990Y532189D01*
X308980Y532029D01*
X308967Y531871D01*
X308949Y531712D01*
X308928Y531555D01*
X308902Y531397D01*
X308873Y531241D01*
X308840Y531085D01*
X308803Y530930D01*
X308763Y530776D01*
X308718Y530623D01*
X308670Y530471D01*
X308619Y530320D01*
X308563Y530171D01*
X308504Y530023D01*
X308441Y529877D01*
X308375Y529732D01*
X308305Y529589D01*
X308232Y529447D01*
X308155Y529308D01*
X308075Y529170D01*
X307991Y529034D01*
X307904Y528901D01*
X307814Y528769D01*
X307721Y528640D01*
X307624Y528514D01*
X307525Y528389D01*
X307422Y528267D01*
X307317Y528148D01*
X307208Y528031D01*
X307097Y527917D01*
X306983Y527806D01*
X306866Y527697D01*
X306747Y527592D01*
X306625Y527489D01*
X306500Y527390D01*
X306374Y527293D01*
X306245Y527200D01*
X306113Y527110D01*
X305980Y527023D01*
X305844Y526939D01*
X305706Y526859D01*
X305567Y526782D01*
X305425Y526709D01*
X305282Y526639D01*
X305137Y526573D01*
X304991Y526510D01*
X304843Y526451D01*
X304694Y526395D01*
X304543Y526344D01*
X304391Y526295D01*
X304238Y526251D01*
X304084Y526211D01*
X303929Y526174D01*
X303773Y526141D01*
X303617Y526112D01*
X303459Y526086D01*
X303302Y526065D01*
X303143Y526047D01*
X302984Y526034D01*
X302825Y526024D01*
X302666Y526018D01*
X302507Y526016D01*
X296016Y526016D01*
X296016Y606016D02*
X306402Y606016D01*
X296016Y606016D02*
X296016Y629384D01*
X306402Y629384D01*
X303805Y618998D02*
X296016Y618998D01*
X296016Y686016D02*
X296016Y709384D01*
X306402Y709384D01*
X306402Y698998D02*
X296016Y698998D01*
X305104Y778998D02*
X308998Y778998D01*
X308998Y766016D01*
X301209Y766016D01*
X301066Y766018D01*
X300923Y766024D01*
X300780Y766034D01*
X300638Y766048D01*
X300496Y766065D01*
X300354Y766087D01*
X300213Y766112D01*
X300073Y766142D01*
X299934Y766175D01*
X299796Y766212D01*
X299659Y766253D01*
X299523Y766297D01*
X299388Y766346D01*
X299255Y766398D01*
X299123Y766453D01*
X298993Y766513D01*
X298864Y766576D01*
X298737Y766642D01*
X298612Y766712D01*
X298490Y766785D01*
X298369Y766862D01*
X298250Y766942D01*
X298134Y767025D01*
X298019Y767111D01*
X297908Y767200D01*
X297798Y767293D01*
X297692Y767388D01*
X297588Y767487D01*
X297487Y767588D01*
X297388Y767692D01*
X297293Y767798D01*
X297200Y767908D01*
X297111Y768019D01*
X297025Y768134D01*
X296942Y768250D01*
X296862Y768369D01*
X296785Y768490D01*
X296712Y768613D01*
X296642Y768737D01*
X296576Y768864D01*
X296513Y768993D01*
X296453Y769123D01*
X296398Y769255D01*
X296346Y769388D01*
X296297Y769523D01*
X296253Y769659D01*
X296212Y769796D01*
X296175Y769934D01*
X296142Y770073D01*
X296112Y770213D01*
X296087Y770354D01*
X296065Y770496D01*
X296048Y770638D01*
X296034Y770780D01*
X296024Y770923D01*
X296018Y771066D01*
X296016Y771209D01*
X296016Y784191D01*
X296018Y784334D01*
X296024Y784477D01*
X296034Y784620D01*
X296048Y784762D01*
X296065Y784904D01*
X296087Y785046D01*
X296112Y785187D01*
X296142Y785327D01*
X296175Y785466D01*
X296212Y785604D01*
X296253Y785741D01*
X296297Y785877D01*
X296346Y786012D01*
X296398Y786145D01*
X296453Y786277D01*
X296513Y786407D01*
X296576Y786536D01*
X296642Y786663D01*
X296712Y786787D01*
X296785Y786910D01*
X296862Y787031D01*
X296942Y787150D01*
X297025Y787266D01*
X297111Y787381D01*
X297200Y787492D01*
X297293Y787602D01*
X297388Y787708D01*
X297487Y787812D01*
X297588Y787913D01*
X297692Y788012D01*
X297798Y788107D01*
X297908Y788200D01*
X298019Y788289D01*
X298134Y788375D01*
X298250Y788458D01*
X298369Y788538D01*
X298490Y788615D01*
X298612Y788688D01*
X298737Y788758D01*
X298864Y788824D01*
X298993Y788887D01*
X299123Y788947D01*
X299255Y789002D01*
X299388Y789054D01*
X299523Y789103D01*
X299659Y789147D01*
X299796Y789188D01*
X299934Y789225D01*
X300073Y789258D01*
X300213Y789288D01*
X300354Y789313D01*
X300496Y789335D01*
X300638Y789352D01*
X300780Y789366D01*
X300923Y789376D01*
X301066Y789382D01*
X301209Y789384D01*
X308998Y789384D01*
X296016Y846016D02*
X303805Y869384D01*
X311595Y846016D01*
X309647Y851858D02*
X297963Y851858D01*
X296016Y938998D02*
X302507Y938998D01*
X302666Y938996D01*
X302825Y938990D01*
X302985Y938980D01*
X303143Y938967D01*
X303302Y938949D01*
X303459Y938928D01*
X303617Y938902D01*
X303773Y938873D01*
X303929Y938840D01*
X304084Y938803D01*
X304238Y938763D01*
X304391Y938718D01*
X304543Y938670D01*
X304694Y938619D01*
X304843Y938563D01*
X304991Y938504D01*
X305137Y938441D01*
X305282Y938375D01*
X305425Y938305D01*
X305567Y938232D01*
X305706Y938155D01*
X305844Y938075D01*
X305980Y937991D01*
X306113Y937904D01*
X306245Y937814D01*
X306374Y937721D01*
X306500Y937624D01*
X306625Y937525D01*
X306747Y937422D01*
X306866Y937317D01*
X306983Y937208D01*
X307097Y937097D01*
X307208Y936983D01*
X307317Y936866D01*
X307422Y936747D01*
X307525Y936625D01*
X307624Y936500D01*
X307721Y936374D01*
X307814Y936245D01*
X307904Y936113D01*
X307991Y935980D01*
X308075Y935844D01*
X308155Y935706D01*
X308232Y935567D01*
X308305Y935425D01*
X308375Y935282D01*
X308441Y935137D01*
X308504Y934991D01*
X308563Y934843D01*
X308619Y934694D01*
X308670Y934543D01*
X308718Y934391D01*
X308763Y934238D01*
X308803Y934084D01*
X308840Y933929D01*
X308873Y933773D01*
X308902Y933617D01*
X308928Y933459D01*
X308949Y933302D01*
X308967Y933143D01*
X308980Y932985D01*
X308990Y932825D01*
X308996Y932666D01*
X308998Y932507D01*
X308996Y932348D01*
X308990Y932189D01*
X308980Y932029D01*
X308967Y931871D01*
X308949Y931712D01*
X308928Y931555D01*
X308902Y931397D01*
X308873Y931241D01*
X308840Y931085D01*
X308803Y930930D01*
X308763Y930776D01*
X308718Y930623D01*
X308670Y930471D01*
X308619Y930320D01*
X308563Y930171D01*
X308504Y930023D01*
X308441Y929877D01*
X308375Y929732D01*
X308305Y929589D01*
X308232Y929447D01*
X308155Y929308D01*
X308075Y929170D01*
X307991Y929034D01*
X307904Y928901D01*
X307814Y928769D01*
X307721Y928640D01*
X307624Y928514D01*
X307525Y928389D01*
X307422Y928267D01*
X307317Y928148D01*
X307208Y928031D01*
X307097Y927917D01*
X306983Y927806D01*
X306866Y927697D01*
X306747Y927592D01*
X306625Y927489D01*
X306500Y927390D01*
X306374Y927293D01*
X306245Y927200D01*
X306113Y927110D01*
X305980Y927023D01*
X305844Y926939D01*
X305706Y926859D01*
X305567Y926782D01*
X305425Y926709D01*
X305282Y926639D01*
X305137Y926573D01*
X304991Y926510D01*
X304843Y926451D01*
X304694Y926395D01*
X304543Y926344D01*
X304391Y926296D01*
X304238Y926251D01*
X304084Y926211D01*
X303929Y926174D01*
X303773Y926141D01*
X303617Y926112D01*
X303459Y926086D01*
X303302Y926065D01*
X303143Y926047D01*
X302985Y926034D01*
X302825Y926024D01*
X302666Y926018D01*
X302507Y926016D01*
X296016Y926016D01*
X296016Y949384D01*
X302507Y949384D01*
X302650Y949382D01*
X302793Y949376D01*
X302936Y949366D01*
X303078Y949352D01*
X303220Y949335D01*
X303362Y949313D01*
X303503Y949288D01*
X303643Y949258D01*
X303782Y949225D01*
X303920Y949188D01*
X304057Y949147D01*
X304193Y949103D01*
X304328Y949054D01*
X304461Y949002D01*
X304593Y948947D01*
X304723Y948887D01*
X304852Y948824D01*
X304979Y948758D01*
X305104Y948688D01*
X305226Y948615D01*
X305347Y948538D01*
X305466Y948458D01*
X305582Y948375D01*
X305697Y948289D01*
X305808Y948200D01*
X305918Y948107D01*
X306024Y948012D01*
X306128Y947913D01*
X306229Y947812D01*
X306328Y947708D01*
X306423Y947602D01*
X306516Y947492D01*
X306605Y947381D01*
X306691Y947266D01*
X306774Y947150D01*
X306854Y947031D01*
X306931Y946910D01*
X307004Y946787D01*
X307074Y946663D01*
X307140Y946536D01*
X307203Y946407D01*
X307263Y946277D01*
X307318Y946145D01*
X307370Y946012D01*
X307419Y945877D01*
X307463Y945741D01*
X307504Y945604D01*
X307541Y945466D01*
X307574Y945327D01*
X307604Y945187D01*
X307629Y945046D01*
X307651Y944904D01*
X307668Y944762D01*
X307682Y944620D01*
X307692Y944477D01*
X307698Y944334D01*
X307700Y944191D01*
X307698Y944048D01*
X307692Y943905D01*
X307682Y943762D01*
X307668Y943620D01*
X307651Y943478D01*
X307629Y943336D01*
X307604Y943195D01*
X307574Y943055D01*
X307541Y942916D01*
X307504Y942778D01*
X307463Y942641D01*
X307419Y942505D01*
X307370Y942370D01*
X307318Y942237D01*
X307263Y942105D01*
X307203Y941975D01*
X307140Y941846D01*
X307074Y941719D01*
X307004Y941595D01*
X306931Y941472D01*
X306854Y941351D01*
X306774Y941232D01*
X306691Y941116D01*
X306605Y941001D01*
X306516Y940890D01*
X306423Y940780D01*
X306328Y940674D01*
X306229Y940570D01*
X306128Y940469D01*
X306024Y940370D01*
X305918Y940275D01*
X305808Y940182D01*
X305697Y940093D01*
X305582Y940007D01*
X305466Y939924D01*
X305347Y939844D01*
X305226Y939767D01*
X305104Y939694D01*
X304979Y939624D01*
X304852Y939558D01*
X304723Y939495D01*
X304593Y939435D01*
X304461Y939380D01*
X304328Y939328D01*
X304193Y939279D01*
X304057Y939235D01*
X303920Y939194D01*
X303782Y939157D01*
X303643Y939124D01*
X303503Y939094D01*
X303362Y939069D01*
X303220Y939047D01*
X303078Y939030D01*
X302936Y939016D01*
X302793Y939006D01*
X302650Y939000D01*
X302507Y938998D01*
X188805Y909384D02*
X181016Y886016D01*
X196595Y886016D02*
X188805Y909384D01*
X194647Y891858D02*
X182963Y891858D01*
X202591Y893805D02*
X218169Y893805D01*
X218169Y901595D02*
X202591Y901595D01*
X206485Y909384D02*
X206485Y886016D01*
X214275Y886016D02*
X214275Y909384D01*
X193998Y818998D02*
X190104Y818998D01*
X193998Y818998D02*
X193998Y806016D01*
X186209Y806016D01*
X186066Y806018D01*
X185923Y806024D01*
X185780Y806034D01*
X185638Y806048D01*
X185496Y806065D01*
X185354Y806087D01*
X185213Y806112D01*
X185073Y806142D01*
X184934Y806175D01*
X184796Y806212D01*
X184659Y806253D01*
X184523Y806297D01*
X184388Y806346D01*
X184255Y806398D01*
X184123Y806453D01*
X183993Y806513D01*
X183864Y806576D01*
X183737Y806642D01*
X183612Y806712D01*
X183490Y806785D01*
X183369Y806862D01*
X183250Y806942D01*
X183134Y807025D01*
X183019Y807111D01*
X182908Y807200D01*
X182798Y807293D01*
X182692Y807388D01*
X182588Y807487D01*
X182487Y807588D01*
X182388Y807692D01*
X182293Y807798D01*
X182200Y807908D01*
X182111Y808019D01*
X182025Y808134D01*
X181942Y808250D01*
X181862Y808369D01*
X181785Y808490D01*
X181712Y808613D01*
X181642Y808737D01*
X181576Y808864D01*
X181513Y808993D01*
X181453Y809123D01*
X181398Y809255D01*
X181346Y809388D01*
X181297Y809523D01*
X181253Y809659D01*
X181212Y809796D01*
X181175Y809934D01*
X181142Y810073D01*
X181112Y810213D01*
X181087Y810354D01*
X181065Y810496D01*
X181048Y810638D01*
X181034Y810780D01*
X181024Y810923D01*
X181018Y811066D01*
X181016Y811209D01*
X181016Y824191D01*
X181018Y824334D01*
X181024Y824477D01*
X181034Y824620D01*
X181048Y824762D01*
X181065Y824904D01*
X181087Y825046D01*
X181112Y825187D01*
X181142Y825327D01*
X181175Y825466D01*
X181212Y825604D01*
X181253Y825741D01*
X181297Y825877D01*
X181346Y826012D01*
X181398Y826145D01*
X181453Y826277D01*
X181513Y826407D01*
X181576Y826536D01*
X181642Y826663D01*
X181712Y826787D01*
X181785Y826910D01*
X181862Y827031D01*
X181942Y827150D01*
X182025Y827266D01*
X182111Y827381D01*
X182200Y827492D01*
X182293Y827602D01*
X182388Y827708D01*
X182487Y827812D01*
X182588Y827913D01*
X182692Y828012D01*
X182798Y828107D01*
X182908Y828200D01*
X183019Y828289D01*
X183134Y828375D01*
X183250Y828458D01*
X183369Y828538D01*
X183490Y828615D01*
X183612Y828688D01*
X183737Y828758D01*
X183864Y828824D01*
X183993Y828887D01*
X184123Y828947D01*
X184255Y829002D01*
X184388Y829054D01*
X184523Y829103D01*
X184659Y829147D01*
X184796Y829188D01*
X184934Y829225D01*
X185073Y829258D01*
X185213Y829288D01*
X185354Y829313D01*
X185496Y829335D01*
X185638Y829352D01*
X185780Y829366D01*
X185923Y829376D01*
X186066Y829382D01*
X186209Y829384D01*
X193998Y829384D01*
X201988Y813805D02*
X217567Y813805D01*
X217567Y821595D02*
X201988Y821595D01*
X205883Y829384D02*
X205883Y806016D01*
X213672Y806016D02*
X213672Y829384D01*
X191402Y486016D02*
X186209Y486016D01*
X186066Y486018D01*
X185923Y486024D01*
X185780Y486034D01*
X185638Y486048D01*
X185496Y486065D01*
X185354Y486087D01*
X185213Y486112D01*
X185073Y486142D01*
X184934Y486175D01*
X184796Y486212D01*
X184659Y486253D01*
X184523Y486297D01*
X184388Y486346D01*
X184255Y486398D01*
X184123Y486453D01*
X183993Y486513D01*
X183864Y486576D01*
X183737Y486642D01*
X183612Y486712D01*
X183490Y486785D01*
X183369Y486862D01*
X183250Y486942D01*
X183134Y487025D01*
X183019Y487111D01*
X182908Y487200D01*
X182798Y487293D01*
X182692Y487388D01*
X182588Y487487D01*
X182487Y487588D01*
X182388Y487692D01*
X182293Y487798D01*
X182200Y487908D01*
X182111Y488019D01*
X182025Y488134D01*
X181942Y488250D01*
X181862Y488369D01*
X181785Y488490D01*
X181712Y488613D01*
X181642Y488737D01*
X181576Y488864D01*
X181513Y488993D01*
X181453Y489123D01*
X181398Y489255D01*
X181346Y489388D01*
X181297Y489523D01*
X181253Y489659D01*
X181212Y489796D01*
X181175Y489934D01*
X181142Y490073D01*
X181112Y490213D01*
X181087Y490354D01*
X181065Y490496D01*
X181048Y490638D01*
X181034Y490780D01*
X181024Y490923D01*
X181018Y491066D01*
X181016Y491209D01*
X181016Y504191D01*
X181018Y504334D01*
X181024Y504477D01*
X181034Y504620D01*
X181048Y504762D01*
X181065Y504904D01*
X181087Y505046D01*
X181112Y505187D01*
X181142Y505327D01*
X181175Y505466D01*
X181212Y505604D01*
X181253Y505741D01*
X181297Y505877D01*
X181346Y506012D01*
X181398Y506145D01*
X181453Y506277D01*
X181513Y506407D01*
X181576Y506536D01*
X181642Y506663D01*
X181712Y506787D01*
X181785Y506910D01*
X181862Y507031D01*
X181942Y507150D01*
X182025Y507266D01*
X182111Y507381D01*
X182200Y507492D01*
X182293Y507602D01*
X182388Y507708D01*
X182487Y507812D01*
X182588Y507913D01*
X182692Y508012D01*
X182798Y508107D01*
X182908Y508200D01*
X183019Y508289D01*
X183134Y508375D01*
X183250Y508458D01*
X183369Y508538D01*
X183490Y508615D01*
X183612Y508688D01*
X183737Y508758D01*
X183864Y508824D01*
X183993Y508887D01*
X184123Y508947D01*
X184255Y509002D01*
X184388Y509054D01*
X184523Y509103D01*
X184659Y509147D01*
X184796Y509188D01*
X184934Y509225D01*
X185073Y509258D01*
X185213Y509288D01*
X185354Y509313D01*
X185496Y509335D01*
X185638Y509352D01*
X185780Y509366D01*
X185923Y509376D01*
X186066Y509382D01*
X186209Y509384D01*
X191402Y509384D01*
X197836Y493805D02*
X213415Y493805D01*
X213415Y501595D02*
X197836Y501595D01*
X201731Y509384D02*
X201731Y486016D01*
X209520Y486016D02*
X209520Y509384D01*
X181016Y566016D02*
X181016Y589384D01*
X187507Y589384D01*
X187666Y589382D01*
X187825Y589376D01*
X187985Y589366D01*
X188143Y589353D01*
X188302Y589335D01*
X188459Y589314D01*
X188617Y589288D01*
X188773Y589259D01*
X188929Y589226D01*
X189084Y589189D01*
X189238Y589149D01*
X189391Y589104D01*
X189543Y589056D01*
X189694Y589005D01*
X189843Y588949D01*
X189991Y588890D01*
X190137Y588827D01*
X190282Y588761D01*
X190425Y588691D01*
X190567Y588618D01*
X190706Y588541D01*
X190844Y588461D01*
X190980Y588377D01*
X191113Y588290D01*
X191245Y588200D01*
X191374Y588107D01*
X191500Y588010D01*
X191625Y587911D01*
X191747Y587808D01*
X191866Y587703D01*
X191983Y587594D01*
X192097Y587483D01*
X192208Y587369D01*
X192317Y587252D01*
X192422Y587133D01*
X192525Y587011D01*
X192624Y586886D01*
X192721Y586760D01*
X192814Y586631D01*
X192904Y586499D01*
X192991Y586366D01*
X193075Y586230D01*
X193155Y586092D01*
X193232Y585953D01*
X193305Y585811D01*
X193375Y585668D01*
X193441Y585523D01*
X193504Y585377D01*
X193563Y585229D01*
X193619Y585080D01*
X193670Y584929D01*
X193718Y584777D01*
X193763Y584624D01*
X193803Y584470D01*
X193840Y584315D01*
X193873Y584159D01*
X193902Y584003D01*
X193928Y583845D01*
X193949Y583688D01*
X193967Y583529D01*
X193980Y583371D01*
X193990Y583211D01*
X193996Y583052D01*
X193998Y582893D01*
X193998Y572507D01*
X193996Y572348D01*
X193990Y572189D01*
X193980Y572029D01*
X193967Y571871D01*
X193949Y571712D01*
X193928Y571555D01*
X193902Y571397D01*
X193873Y571241D01*
X193840Y571085D01*
X193803Y570930D01*
X193763Y570776D01*
X193718Y570623D01*
X193670Y570471D01*
X193619Y570320D01*
X193563Y570171D01*
X193504Y570023D01*
X193441Y569877D01*
X193375Y569732D01*
X193305Y569589D01*
X193232Y569447D01*
X193155Y569308D01*
X193075Y569170D01*
X192991Y569034D01*
X192904Y568901D01*
X192814Y568769D01*
X192721Y568640D01*
X192624Y568514D01*
X192525Y568389D01*
X192422Y568267D01*
X192317Y568148D01*
X192208Y568031D01*
X192097Y567917D01*
X191983Y567806D01*
X191866Y567697D01*
X191747Y567592D01*
X191625Y567489D01*
X191500Y567390D01*
X191374Y567293D01*
X191245Y567200D01*
X191113Y567110D01*
X190980Y567023D01*
X190844Y566939D01*
X190706Y566859D01*
X190567Y566782D01*
X190425Y566709D01*
X190282Y566639D01*
X190137Y566573D01*
X189991Y566510D01*
X189843Y566451D01*
X189694Y566395D01*
X189543Y566344D01*
X189391Y566295D01*
X189238Y566251D01*
X189084Y566211D01*
X188929Y566174D01*
X188773Y566141D01*
X188617Y566112D01*
X188459Y566086D01*
X188302Y566065D01*
X188143Y566047D01*
X187984Y566034D01*
X187825Y566024D01*
X187666Y566018D01*
X187507Y566016D01*
X181016Y566016D01*
X201988Y573805D02*
X217567Y573805D01*
X217567Y581595D02*
X201988Y581595D01*
X205883Y589384D02*
X205883Y566016D01*
X213672Y566016D02*
X213672Y589384D01*
X181016Y726016D02*
X181016Y749384D01*
X191402Y749384D01*
X191402Y738998D02*
X181016Y738998D01*
X197788Y733805D02*
X213367Y733805D01*
X213367Y741595D02*
X197788Y741595D01*
X201683Y749384D02*
X201683Y726016D01*
X209472Y726016D02*
X209472Y749384D01*
D11*
X124058Y1065000D02*
X105000Y1065000D01*
X135336Y1065000D02*
X137164Y1065000D01*
X148442Y1065000D02*
X167500Y1065000D01*
D10*
X271016Y247484D02*
X271016Y224116D01*
X271016Y247484D02*
X277507Y247484D01*
X277666Y247482D01*
X277825Y247476D01*
X277985Y247466D01*
X278143Y247453D01*
X278302Y247435D01*
X278459Y247414D01*
X278617Y247388D01*
X278773Y247359D01*
X278929Y247326D01*
X279084Y247289D01*
X279238Y247249D01*
X279391Y247204D01*
X279543Y247156D01*
X279694Y247105D01*
X279843Y247049D01*
X279991Y246990D01*
X280137Y246927D01*
X280282Y246861D01*
X280425Y246791D01*
X280567Y246718D01*
X280706Y246641D01*
X280844Y246561D01*
X280980Y246477D01*
X281113Y246390D01*
X281245Y246300D01*
X281374Y246207D01*
X281500Y246110D01*
X281625Y246011D01*
X281747Y245908D01*
X281866Y245803D01*
X281983Y245694D01*
X282097Y245583D01*
X282208Y245469D01*
X282317Y245352D01*
X282422Y245233D01*
X282525Y245111D01*
X282624Y244986D01*
X282721Y244860D01*
X282814Y244731D01*
X282904Y244599D01*
X282991Y244466D01*
X283075Y244330D01*
X283155Y244192D01*
X283232Y244053D01*
X283305Y243911D01*
X283375Y243768D01*
X283441Y243623D01*
X283504Y243477D01*
X283563Y243329D01*
X283619Y243180D01*
X283670Y243029D01*
X283718Y242877D01*
X283763Y242724D01*
X283803Y242570D01*
X283840Y242415D01*
X283873Y242259D01*
X283902Y242103D01*
X283928Y241945D01*
X283949Y241788D01*
X283967Y241629D01*
X283980Y241471D01*
X283990Y241311D01*
X283996Y241152D01*
X283998Y240993D01*
X283996Y240834D01*
X283990Y240675D01*
X283980Y240515D01*
X283967Y240357D01*
X283949Y240198D01*
X283928Y240041D01*
X283902Y239883D01*
X283873Y239727D01*
X283840Y239571D01*
X283803Y239416D01*
X283763Y239262D01*
X283718Y239109D01*
X283670Y238957D01*
X283619Y238806D01*
X283563Y238657D01*
X283504Y238509D01*
X283441Y238363D01*
X283375Y238218D01*
X283305Y238075D01*
X283232Y237933D01*
X283155Y237794D01*
X283075Y237656D01*
X282991Y237520D01*
X282904Y237387D01*
X282814Y237255D01*
X282721Y237126D01*
X282624Y237000D01*
X282525Y236875D01*
X282422Y236753D01*
X282317Y236634D01*
X282208Y236517D01*
X282097Y236403D01*
X281983Y236292D01*
X281866Y236183D01*
X281747Y236078D01*
X281625Y235975D01*
X281500Y235876D01*
X281374Y235779D01*
X281245Y235686D01*
X281113Y235596D01*
X280980Y235509D01*
X280844Y235425D01*
X280706Y235345D01*
X280567Y235268D01*
X280425Y235195D01*
X280282Y235125D01*
X280137Y235059D01*
X279991Y234996D01*
X279843Y234937D01*
X279694Y234881D01*
X279543Y234830D01*
X279391Y234782D01*
X279238Y234737D01*
X279084Y234697D01*
X278929Y234660D01*
X278773Y234627D01*
X278617Y234598D01*
X278459Y234572D01*
X278302Y234551D01*
X278143Y234533D01*
X277985Y234520D01*
X277825Y234510D01*
X277666Y234504D01*
X277507Y234502D01*
X271016Y234502D01*
X293367Y224116D02*
X293367Y247484D01*
X290770Y224116D02*
X295963Y224116D01*
X295963Y247484D02*
X290770Y247484D01*
X308678Y247484D02*
X308678Y224116D01*
X302187Y247484D02*
X315169Y247484D01*
X326843Y224116D02*
X332036Y224116D01*
X326843Y224116D02*
X326700Y224118D01*
X326557Y224124D01*
X326414Y224134D01*
X326272Y224148D01*
X326130Y224165D01*
X325988Y224187D01*
X325847Y224212D01*
X325707Y224242D01*
X325568Y224275D01*
X325430Y224312D01*
X325293Y224353D01*
X325157Y224397D01*
X325022Y224446D01*
X324889Y224498D01*
X324757Y224553D01*
X324627Y224613D01*
X324498Y224676D01*
X324371Y224742D01*
X324246Y224812D01*
X324124Y224885D01*
X324003Y224962D01*
X323884Y225042D01*
X323768Y225125D01*
X323653Y225211D01*
X323542Y225300D01*
X323432Y225393D01*
X323326Y225488D01*
X323222Y225587D01*
X323121Y225688D01*
X323022Y225792D01*
X322927Y225898D01*
X322834Y226008D01*
X322745Y226119D01*
X322659Y226234D01*
X322576Y226350D01*
X322496Y226469D01*
X322419Y226590D01*
X322346Y226713D01*
X322276Y226837D01*
X322210Y226964D01*
X322147Y227093D01*
X322087Y227223D01*
X322032Y227355D01*
X321980Y227488D01*
X321931Y227623D01*
X321887Y227759D01*
X321846Y227896D01*
X321809Y228034D01*
X321776Y228173D01*
X321746Y228313D01*
X321721Y228454D01*
X321699Y228596D01*
X321682Y228738D01*
X321668Y228880D01*
X321658Y229023D01*
X321652Y229166D01*
X321650Y229309D01*
X321650Y242291D01*
X321652Y242434D01*
X321658Y242577D01*
X321668Y242720D01*
X321682Y242862D01*
X321699Y243004D01*
X321721Y243146D01*
X321746Y243287D01*
X321776Y243427D01*
X321809Y243566D01*
X321846Y243704D01*
X321887Y243841D01*
X321931Y243977D01*
X321980Y244112D01*
X322032Y244245D01*
X322087Y244377D01*
X322147Y244507D01*
X322210Y244636D01*
X322276Y244763D01*
X322346Y244887D01*
X322419Y245010D01*
X322496Y245131D01*
X322576Y245250D01*
X322659Y245366D01*
X322745Y245481D01*
X322834Y245592D01*
X322927Y245702D01*
X323022Y245808D01*
X323121Y245912D01*
X323222Y246013D01*
X323326Y246112D01*
X323432Y246207D01*
X323542Y246300D01*
X323653Y246389D01*
X323768Y246475D01*
X323884Y246558D01*
X324003Y246638D01*
X324124Y246715D01*
X324246Y246788D01*
X324371Y246858D01*
X324498Y246924D01*
X324627Y246987D01*
X324757Y247047D01*
X324889Y247102D01*
X325022Y247154D01*
X325157Y247203D01*
X325293Y247247D01*
X325430Y247288D01*
X325568Y247325D01*
X325707Y247358D01*
X325847Y247388D01*
X325988Y247413D01*
X326130Y247435D01*
X326272Y247452D01*
X326414Y247466D01*
X326557Y247476D01*
X326700Y247482D01*
X326843Y247484D01*
X332036Y247484D01*
X339768Y247484D02*
X339768Y224116D01*
X339768Y237098D02*
X352751Y237098D01*
X352751Y247484D02*
X352751Y224116D01*
X271016Y202893D02*
X271016Y192507D01*
X271016Y202893D02*
X271018Y203052D01*
X271024Y203211D01*
X271034Y203371D01*
X271047Y203529D01*
X271065Y203688D01*
X271086Y203845D01*
X271112Y204003D01*
X271141Y204159D01*
X271174Y204315D01*
X271211Y204470D01*
X271251Y204624D01*
X271296Y204777D01*
X271344Y204929D01*
X271395Y205080D01*
X271451Y205229D01*
X271510Y205377D01*
X271573Y205523D01*
X271639Y205668D01*
X271709Y205811D01*
X271782Y205953D01*
X271859Y206092D01*
X271939Y206230D01*
X272023Y206366D01*
X272110Y206499D01*
X272200Y206631D01*
X272293Y206760D01*
X272390Y206886D01*
X272489Y207011D01*
X272592Y207133D01*
X272697Y207252D01*
X272806Y207369D01*
X272917Y207483D01*
X273031Y207594D01*
X273148Y207703D01*
X273267Y207808D01*
X273389Y207911D01*
X273514Y208010D01*
X273640Y208107D01*
X273769Y208200D01*
X273901Y208290D01*
X274034Y208377D01*
X274170Y208461D01*
X274308Y208541D01*
X274447Y208618D01*
X274589Y208691D01*
X274732Y208761D01*
X274877Y208827D01*
X275023Y208890D01*
X275171Y208949D01*
X275320Y209005D01*
X275471Y209056D01*
X275623Y209104D01*
X275776Y209149D01*
X275930Y209189D01*
X276085Y209226D01*
X276241Y209259D01*
X276397Y209288D01*
X276555Y209314D01*
X276712Y209335D01*
X276871Y209353D01*
X277029Y209366D01*
X277189Y209376D01*
X277348Y209382D01*
X277507Y209384D01*
X277666Y209382D01*
X277825Y209376D01*
X277985Y209366D01*
X278143Y209353D01*
X278302Y209335D01*
X278459Y209314D01*
X278617Y209288D01*
X278773Y209259D01*
X278929Y209226D01*
X279084Y209189D01*
X279238Y209149D01*
X279391Y209104D01*
X279543Y209056D01*
X279694Y209005D01*
X279843Y208949D01*
X279991Y208890D01*
X280137Y208827D01*
X280282Y208761D01*
X280425Y208691D01*
X280567Y208618D01*
X280706Y208541D01*
X280844Y208461D01*
X280980Y208377D01*
X281113Y208290D01*
X281245Y208200D01*
X281374Y208107D01*
X281500Y208010D01*
X281625Y207911D01*
X281747Y207808D01*
X281866Y207703D01*
X281983Y207594D01*
X282097Y207483D01*
X282208Y207369D01*
X282317Y207252D01*
X282422Y207133D01*
X282525Y207011D01*
X282624Y206886D01*
X282721Y206760D01*
X282814Y206631D01*
X282904Y206499D01*
X282991Y206366D01*
X283075Y206230D01*
X283155Y206092D01*
X283232Y205953D01*
X283305Y205811D01*
X283375Y205668D01*
X283441Y205523D01*
X283504Y205377D01*
X283563Y205229D01*
X283619Y205080D01*
X283670Y204929D01*
X283718Y204777D01*
X283763Y204624D01*
X283803Y204470D01*
X283840Y204315D01*
X283873Y204159D01*
X283902Y204003D01*
X283928Y203845D01*
X283949Y203688D01*
X283967Y203529D01*
X283980Y203371D01*
X283990Y203211D01*
X283996Y203052D01*
X283998Y202893D01*
X283998Y192507D01*
X283996Y192348D01*
X283990Y192189D01*
X283980Y192029D01*
X283967Y191871D01*
X283949Y191712D01*
X283928Y191555D01*
X283902Y191397D01*
X283873Y191241D01*
X283840Y191085D01*
X283803Y190930D01*
X283763Y190776D01*
X283718Y190623D01*
X283670Y190471D01*
X283619Y190320D01*
X283563Y190171D01*
X283504Y190023D01*
X283441Y189877D01*
X283375Y189732D01*
X283305Y189589D01*
X283232Y189447D01*
X283155Y189308D01*
X283075Y189170D01*
X282991Y189034D01*
X282904Y188901D01*
X282814Y188769D01*
X282721Y188640D01*
X282624Y188514D01*
X282525Y188389D01*
X282422Y188267D01*
X282317Y188148D01*
X282208Y188031D01*
X282097Y187917D01*
X281983Y187806D01*
X281866Y187697D01*
X281747Y187592D01*
X281625Y187489D01*
X281500Y187390D01*
X281374Y187293D01*
X281245Y187200D01*
X281113Y187110D01*
X280980Y187023D01*
X280844Y186939D01*
X280706Y186859D01*
X280567Y186782D01*
X280425Y186709D01*
X280282Y186639D01*
X280137Y186573D01*
X279991Y186510D01*
X279843Y186451D01*
X279694Y186395D01*
X279543Y186344D01*
X279391Y186296D01*
X279238Y186251D01*
X279084Y186211D01*
X278929Y186174D01*
X278773Y186141D01*
X278617Y186112D01*
X278459Y186086D01*
X278302Y186065D01*
X278143Y186047D01*
X277985Y186034D01*
X277825Y186024D01*
X277666Y186018D01*
X277507Y186016D01*
X277348Y186018D01*
X277189Y186024D01*
X277029Y186034D01*
X276871Y186047D01*
X276712Y186065D01*
X276555Y186086D01*
X276397Y186112D01*
X276241Y186141D01*
X276085Y186174D01*
X275930Y186211D01*
X275776Y186251D01*
X275623Y186296D01*
X275471Y186344D01*
X275320Y186395D01*
X275171Y186451D01*
X275023Y186510D01*
X274877Y186573D01*
X274732Y186639D01*
X274589Y186709D01*
X274447Y186782D01*
X274308Y186859D01*
X274170Y186939D01*
X274034Y187023D01*
X273901Y187110D01*
X273769Y187200D01*
X273640Y187293D01*
X273514Y187390D01*
X273389Y187489D01*
X273267Y187592D01*
X273148Y187697D01*
X273031Y187806D01*
X272917Y187917D01*
X272806Y188031D01*
X272697Y188148D01*
X272592Y188267D01*
X272489Y188389D01*
X272390Y188514D01*
X272293Y188640D01*
X272200Y188769D01*
X272110Y188901D01*
X272023Y189034D01*
X271939Y189170D01*
X271859Y189308D01*
X271782Y189447D01*
X271709Y189589D01*
X271639Y189732D01*
X271573Y189877D01*
X271510Y190023D01*
X271451Y190171D01*
X271395Y190320D01*
X271344Y190471D01*
X271296Y190623D01*
X271251Y190776D01*
X271211Y190930D01*
X271174Y191085D01*
X271141Y191241D01*
X271112Y191397D01*
X271086Y191555D01*
X271065Y191712D01*
X271047Y191871D01*
X271034Y192029D01*
X271024Y192189D01*
X271018Y192348D01*
X271016Y192507D01*
X292591Y192507D02*
X292591Y209384D01*
X292591Y192507D02*
X292593Y192348D01*
X292599Y192189D01*
X292609Y192029D01*
X292622Y191871D01*
X292640Y191712D01*
X292661Y191555D01*
X292687Y191397D01*
X292716Y191241D01*
X292749Y191085D01*
X292786Y190930D01*
X292826Y190776D01*
X292871Y190623D01*
X292919Y190471D01*
X292970Y190320D01*
X293026Y190171D01*
X293085Y190023D01*
X293148Y189877D01*
X293214Y189732D01*
X293284Y189589D01*
X293357Y189447D01*
X293434Y189308D01*
X293514Y189170D01*
X293598Y189034D01*
X293685Y188901D01*
X293775Y188769D01*
X293868Y188640D01*
X293965Y188514D01*
X294064Y188389D01*
X294167Y188267D01*
X294272Y188148D01*
X294381Y188031D01*
X294492Y187917D01*
X294606Y187806D01*
X294723Y187697D01*
X294842Y187592D01*
X294964Y187489D01*
X295089Y187390D01*
X295215Y187293D01*
X295344Y187200D01*
X295476Y187110D01*
X295609Y187023D01*
X295745Y186939D01*
X295883Y186859D01*
X296022Y186782D01*
X296164Y186709D01*
X296307Y186639D01*
X296452Y186573D01*
X296598Y186510D01*
X296746Y186451D01*
X296895Y186395D01*
X297046Y186344D01*
X297198Y186296D01*
X297351Y186251D01*
X297505Y186211D01*
X297660Y186174D01*
X297816Y186141D01*
X297972Y186112D01*
X298130Y186086D01*
X298287Y186065D01*
X298446Y186047D01*
X298604Y186034D01*
X298764Y186024D01*
X298923Y186018D01*
X299082Y186016D01*
X299241Y186018D01*
X299400Y186024D01*
X299560Y186034D01*
X299718Y186047D01*
X299877Y186065D01*
X300034Y186086D01*
X300192Y186112D01*
X300348Y186141D01*
X300504Y186174D01*
X300659Y186211D01*
X300813Y186251D01*
X300966Y186296D01*
X301118Y186344D01*
X301269Y186395D01*
X301418Y186451D01*
X301566Y186510D01*
X301712Y186573D01*
X301857Y186639D01*
X302000Y186709D01*
X302142Y186782D01*
X302281Y186859D01*
X302419Y186939D01*
X302555Y187023D01*
X302688Y187110D01*
X302820Y187200D01*
X302949Y187293D01*
X303075Y187390D01*
X303200Y187489D01*
X303322Y187592D01*
X303441Y187697D01*
X303558Y187806D01*
X303672Y187917D01*
X303783Y188031D01*
X303892Y188148D01*
X303997Y188267D01*
X304100Y188389D01*
X304199Y188514D01*
X304296Y188640D01*
X304389Y188769D01*
X304479Y188901D01*
X304566Y189034D01*
X304650Y189170D01*
X304730Y189308D01*
X304807Y189447D01*
X304880Y189589D01*
X304950Y189732D01*
X305016Y189877D01*
X305079Y190023D01*
X305138Y190171D01*
X305194Y190320D01*
X305245Y190471D01*
X305293Y190623D01*
X305338Y190776D01*
X305378Y190930D01*
X305415Y191085D01*
X305448Y191241D01*
X305477Y191397D01*
X305503Y191555D01*
X305524Y191712D01*
X305542Y191871D01*
X305555Y192029D01*
X305565Y192189D01*
X305571Y192348D01*
X305573Y192507D01*
X305573Y209384D01*
X319265Y209384D02*
X319265Y186016D01*
X312774Y209384D02*
X325756Y209384D01*
D11*
X65000Y302192D02*
X65000Y320000D01*
X65000Y290914D02*
X65000Y289086D01*
X65000Y277808D02*
X65000Y260000D01*
D12*
X129524Y1215524D02*
X129524Y1250576D01*
X129524Y1234997D02*
X148997Y1234997D01*
X148997Y1250576D02*
X148997Y1215524D01*
X159052Y1225261D02*
X159052Y1240839D01*
X159051Y1240839D02*
X159054Y1241076D01*
X159063Y1241313D01*
X159077Y1241550D01*
X159097Y1241786D01*
X159123Y1242022D01*
X159155Y1242257D01*
X159192Y1242491D01*
X159235Y1242724D01*
X159284Y1242956D01*
X159338Y1243187D01*
X159398Y1243416D01*
X159464Y1243644D01*
X159535Y1243870D01*
X159611Y1244095D01*
X159693Y1244317D01*
X159781Y1244538D01*
X159874Y1244756D01*
X159972Y1244972D01*
X160075Y1245185D01*
X160183Y1245396D01*
X160297Y1245604D01*
X160415Y1245810D01*
X160539Y1246012D01*
X160667Y1246212D01*
X160801Y1246408D01*
X160939Y1246601D01*
X161081Y1246790D01*
X161228Y1246976D01*
X161380Y1247158D01*
X161536Y1247337D01*
X161697Y1247511D01*
X161861Y1247682D01*
X162030Y1247849D01*
X162202Y1248011D01*
X162379Y1248169D01*
X162560Y1248323D01*
X162744Y1248473D01*
X162931Y1248618D01*
X163122Y1248758D01*
X163317Y1248894D01*
X163515Y1249024D01*
X163716Y1249150D01*
X163920Y1249271D01*
X164126Y1249388D01*
X164336Y1249499D01*
X164548Y1249604D01*
X164763Y1249705D01*
X164980Y1249800D01*
X165199Y1249890D01*
X165421Y1249975D01*
X165644Y1250054D01*
X165869Y1250128D01*
X166097Y1250197D01*
X166325Y1250259D01*
X166555Y1250317D01*
X166787Y1250368D01*
X167019Y1250414D01*
X167253Y1250454D01*
X167488Y1250489D01*
X167723Y1250518D01*
X167959Y1250541D01*
X168196Y1250558D01*
X168432Y1250570D01*
X168669Y1250575D01*
X168907Y1250575D01*
X169144Y1250570D01*
X169380Y1250558D01*
X169617Y1250541D01*
X169853Y1250518D01*
X170088Y1250489D01*
X170323Y1250454D01*
X170557Y1250414D01*
X170789Y1250368D01*
X171021Y1250317D01*
X171251Y1250259D01*
X171479Y1250197D01*
X171707Y1250128D01*
X171932Y1250054D01*
X172155Y1249975D01*
X172377Y1249890D01*
X172596Y1249800D01*
X172813Y1249705D01*
X173028Y1249604D01*
X173240Y1249499D01*
X173450Y1249388D01*
X173657Y1249271D01*
X173860Y1249150D01*
X174061Y1249024D01*
X174259Y1248894D01*
X174454Y1248758D01*
X174645Y1248618D01*
X174832Y1248473D01*
X175016Y1248323D01*
X175197Y1248169D01*
X175374Y1248011D01*
X175546Y1247849D01*
X175715Y1247682D01*
X175879Y1247511D01*
X176040Y1247337D01*
X176196Y1247158D01*
X176348Y1246976D01*
X176495Y1246790D01*
X176637Y1246601D01*
X176775Y1246408D01*
X176909Y1246212D01*
X177037Y1246012D01*
X177161Y1245810D01*
X177279Y1245604D01*
X177393Y1245396D01*
X177501Y1245185D01*
X177604Y1244972D01*
X177702Y1244756D01*
X177795Y1244538D01*
X177883Y1244317D01*
X177965Y1244095D01*
X178041Y1243870D01*
X178112Y1243644D01*
X178178Y1243416D01*
X178238Y1243187D01*
X178292Y1242956D01*
X178341Y1242724D01*
X178384Y1242491D01*
X178421Y1242257D01*
X178453Y1242022D01*
X178479Y1241786D01*
X178499Y1241550D01*
X178513Y1241313D01*
X178522Y1241076D01*
X178525Y1240839D01*
X178525Y1225261D01*
X178522Y1225024D01*
X178513Y1224787D01*
X178499Y1224550D01*
X178479Y1224314D01*
X178453Y1224078D01*
X178421Y1223843D01*
X178384Y1223609D01*
X178341Y1223376D01*
X178292Y1223144D01*
X178238Y1222913D01*
X178178Y1222684D01*
X178112Y1222456D01*
X178041Y1222230D01*
X177965Y1222005D01*
X177883Y1221783D01*
X177795Y1221562D01*
X177702Y1221344D01*
X177604Y1221128D01*
X177501Y1220915D01*
X177393Y1220704D01*
X177279Y1220496D01*
X177161Y1220290D01*
X177037Y1220088D01*
X176909Y1219888D01*
X176775Y1219692D01*
X176637Y1219499D01*
X176495Y1219310D01*
X176348Y1219124D01*
X176196Y1218942D01*
X176040Y1218763D01*
X175879Y1218589D01*
X175715Y1218418D01*
X175546Y1218251D01*
X175374Y1218089D01*
X175197Y1217931D01*
X175016Y1217777D01*
X174832Y1217627D01*
X174645Y1217482D01*
X174454Y1217342D01*
X174259Y1217206D01*
X174061Y1217076D01*
X173860Y1216950D01*
X173657Y1216829D01*
X173450Y1216712D01*
X173240Y1216601D01*
X173028Y1216496D01*
X172813Y1216395D01*
X172596Y1216300D01*
X172377Y1216210D01*
X172155Y1216125D01*
X171932Y1216046D01*
X171707Y1215972D01*
X171479Y1215903D01*
X171251Y1215841D01*
X171021Y1215783D01*
X170789Y1215732D01*
X170557Y1215686D01*
X170323Y1215646D01*
X170088Y1215611D01*
X169853Y1215582D01*
X169617Y1215559D01*
X169380Y1215542D01*
X169144Y1215530D01*
X168907Y1215525D01*
X168669Y1215525D01*
X168432Y1215530D01*
X168196Y1215542D01*
X167959Y1215559D01*
X167723Y1215582D01*
X167488Y1215611D01*
X167253Y1215646D01*
X167019Y1215686D01*
X166787Y1215732D01*
X166555Y1215783D01*
X166325Y1215841D01*
X166097Y1215903D01*
X165869Y1215972D01*
X165644Y1216046D01*
X165421Y1216125D01*
X165199Y1216210D01*
X164980Y1216300D01*
X164763Y1216395D01*
X164548Y1216496D01*
X164336Y1216601D01*
X164126Y1216712D01*
X163920Y1216829D01*
X163716Y1216950D01*
X163515Y1217076D01*
X163317Y1217206D01*
X163122Y1217342D01*
X162931Y1217482D01*
X162744Y1217627D01*
X162560Y1217777D01*
X162379Y1217931D01*
X162202Y1218089D01*
X162030Y1218251D01*
X161861Y1218418D01*
X161697Y1218589D01*
X161536Y1218763D01*
X161380Y1218942D01*
X161228Y1219124D01*
X161081Y1219310D01*
X160939Y1219499D01*
X160801Y1219692D01*
X160667Y1219888D01*
X160539Y1220088D01*
X160415Y1220290D01*
X160297Y1220496D01*
X160183Y1220704D01*
X160075Y1220915D01*
X159972Y1221128D01*
X159874Y1221344D01*
X159781Y1221562D01*
X159693Y1221783D01*
X159611Y1222005D01*
X159535Y1222230D01*
X159464Y1222456D01*
X159398Y1222684D01*
X159338Y1222913D01*
X159284Y1223144D01*
X159235Y1223376D01*
X159192Y1223609D01*
X159155Y1223843D01*
X159123Y1224078D01*
X159097Y1224314D01*
X159077Y1224550D01*
X159063Y1224787D01*
X159054Y1225024D01*
X159051Y1225261D01*
X195424Y1215524D02*
X203214Y1215524D01*
X195424Y1215524D02*
X195236Y1215526D01*
X195048Y1215533D01*
X194860Y1215544D01*
X194672Y1215560D01*
X194485Y1215581D01*
X194299Y1215606D01*
X194113Y1215635D01*
X193928Y1215669D01*
X193743Y1215708D01*
X193560Y1215750D01*
X193378Y1215798D01*
X193197Y1215849D01*
X193017Y1215905D01*
X192839Y1215966D01*
X192662Y1216030D01*
X192487Y1216099D01*
X192313Y1216172D01*
X192142Y1216249D01*
X191972Y1216331D01*
X191804Y1216416D01*
X191639Y1216506D01*
X191475Y1216599D01*
X191314Y1216696D01*
X191156Y1216798D01*
X190999Y1216903D01*
X190846Y1217012D01*
X190695Y1217124D01*
X190547Y1217240D01*
X190401Y1217360D01*
X190259Y1217483D01*
X190120Y1217609D01*
X189983Y1217739D01*
X189850Y1217872D01*
X189720Y1218009D01*
X189594Y1218148D01*
X189471Y1218290D01*
X189351Y1218436D01*
X189235Y1218584D01*
X189123Y1218735D01*
X189014Y1218888D01*
X188909Y1219045D01*
X188807Y1219203D01*
X188710Y1219364D01*
X188617Y1219528D01*
X188527Y1219693D01*
X188442Y1219861D01*
X188360Y1220031D01*
X188283Y1220202D01*
X188210Y1220376D01*
X188141Y1220551D01*
X188077Y1220728D01*
X188016Y1220906D01*
X187960Y1221086D01*
X187909Y1221267D01*
X187861Y1221449D01*
X187819Y1221632D01*
X187780Y1221817D01*
X187746Y1222002D01*
X187717Y1222188D01*
X187692Y1222374D01*
X187671Y1222561D01*
X187655Y1222749D01*
X187644Y1222937D01*
X187637Y1223125D01*
X187635Y1223313D01*
X187635Y1242787D01*
X187637Y1242978D01*
X187644Y1243169D01*
X187656Y1243360D01*
X187673Y1243550D01*
X187694Y1243740D01*
X187719Y1243930D01*
X187750Y1244119D01*
X187785Y1244307D01*
X187824Y1244494D01*
X187868Y1244680D01*
X187917Y1244864D01*
X187970Y1245048D01*
X188028Y1245230D01*
X188090Y1245411D01*
X188157Y1245590D01*
X188228Y1245768D01*
X188303Y1245943D01*
X188383Y1246117D01*
X188467Y1246289D01*
X188555Y1246459D01*
X188647Y1246626D01*
X188743Y1246791D01*
X188843Y1246954D01*
X188948Y1247114D01*
X189056Y1247272D01*
X189168Y1247427D01*
X189284Y1247579D01*
X189403Y1247728D01*
X189526Y1247875D01*
X189653Y1248018D01*
X189783Y1248158D01*
X189916Y1248295D01*
X190053Y1248428D01*
X190193Y1248558D01*
X190336Y1248685D01*
X190483Y1248808D01*
X190632Y1248927D01*
X190784Y1249043D01*
X190939Y1249155D01*
X191097Y1249263D01*
X191257Y1249368D01*
X191420Y1249468D01*
X191585Y1249564D01*
X191752Y1249656D01*
X191922Y1249744D01*
X192094Y1249828D01*
X192268Y1249908D01*
X192443Y1249983D01*
X192621Y1250054D01*
X192800Y1250121D01*
X192981Y1250183D01*
X193163Y1250241D01*
X193347Y1250294D01*
X193531Y1250343D01*
X193717Y1250387D01*
X193904Y1250426D01*
X194092Y1250461D01*
X194281Y1250492D01*
X194471Y1250517D01*
X194661Y1250538D01*
X194851Y1250555D01*
X195042Y1250567D01*
X195233Y1250574D01*
X195424Y1250576D01*
X203214Y1250576D01*
X212321Y1250576D02*
X212321Y1215524D01*
X212321Y1229155D02*
X231794Y1250576D01*
X220110Y1236945D02*
X231794Y1215524D01*
X240952Y1215524D02*
X256531Y1215524D01*
X240952Y1215524D02*
X240952Y1250576D01*
X256531Y1250576D01*
X252636Y1234997D02*
X240952Y1234997D01*
X272611Y1250576D02*
X272611Y1215524D01*
X262874Y1250576D02*
X282347Y1250576D01*
X290454Y1250576D02*
X290454Y1215524D01*
X302138Y1231103D02*
X290454Y1250576D01*
X302138Y1231103D02*
X313822Y1250576D01*
X313822Y1215524D01*
X321887Y1215524D02*
X333571Y1250576D01*
X345255Y1215524D01*
X342334Y1224287D02*
X324808Y1224287D01*
X353361Y1215524D02*
X353361Y1250576D01*
X372835Y1215524D01*
X372835Y1250576D01*
D13*
X301000Y33000D03*
D14*
X301000Y34000D03*
D15*
X163500Y35000D03*
D13*
X212000Y35000D03*
D14*
X301000Y35000D03*
D15*
X164500Y36000D03*
D16*
X212000Y36000D03*
D17*
X256500Y36000D03*
D15*
X301500Y36000D03*
D17*
X313500Y36000D03*
D18*
X137500Y37000D03*
D15*
X164500Y37000D03*
D17*
X176500Y37000D03*
D19*
X194500Y37000D03*
D16*
X212000Y37000D03*
D20*
X230500Y37000D03*
X256500Y37000D03*
D17*
X282500Y37000D03*
D15*
X301500Y37000D03*
D21*
X315000Y37000D03*
D22*
X137000Y38000D03*
D15*
X164500Y38000D03*
D20*
X176500Y38000D03*
D17*
X194500Y38000D03*
D16*
X212000Y38000D03*
D15*
X230500Y38000D03*
D23*
X245000Y38000D03*
D24*
X257000Y38000D03*
D15*
X282500Y38000D03*
X301500Y38000D03*
D25*
X316000Y38000D03*
D26*
X137000Y39000D03*
D15*
X164500Y39000D03*
D14*
X176000Y39000D03*
D20*
X194500Y39000D03*
D16*
X212000Y39000D03*
D15*
X230500Y39000D03*
D14*
X242000Y39000D03*
D18*
X258500Y39000D03*
X282500Y39000D03*
D15*
X301500Y39000D03*
D27*
X315500Y39000D03*
D26*
X137000Y40000D03*
D20*
X164500Y40000D03*
D14*
X176000Y40000D03*
X194000Y40000D03*
D16*
X212000Y40000D03*
D15*
X230500Y40000D03*
D14*
X242000Y40000D03*
D28*
X261500Y40000D03*
D27*
X282500Y40000D03*
D16*
X301000Y40000D03*
D22*
X316000Y40000D03*
D29*
X137000Y41000D03*
D16*
X164000Y41000D03*
D14*
X176000Y41000D03*
D24*
X194000Y41000D03*
D13*
X212000Y41000D03*
D20*
X230500Y41000D03*
D14*
X242000Y41000D03*
D30*
X261500Y41000D03*
D22*
X283000Y41000D03*
D16*
X301000Y41000D03*
D27*
X316500Y41000D03*
D15*
X131500Y42000D03*
D14*
X143000Y42000D03*
D13*
X163000Y42000D03*
D14*
X176000Y42000D03*
D21*
X193000Y42000D03*
D13*
X212000Y42000D03*
X230000Y42000D03*
D14*
X242000Y42000D03*
D30*
X262500Y42000D03*
D22*
X283000Y42000D03*
D17*
X300500Y42000D03*
D22*
X317000Y42000D03*
D15*
X130500Y43000D03*
D16*
X144000Y43000D03*
D13*
X163000Y43000D03*
D20*
X175500Y43000D03*
D18*
X192500Y43000D03*
D13*
X212000Y43000D03*
X230000Y43000D03*
D20*
X242500Y43000D03*
D30*
X262500Y43000D03*
D22*
X283000Y43000D03*
D17*
X300500Y43000D03*
D25*
X318000Y43000D03*
D14*
X130000Y44000D03*
D17*
X143500Y44000D03*
D19*
X162500Y44000D03*
D16*
X176000Y44000D03*
D21*
X192000Y44000D03*
D13*
X212000Y44000D03*
D19*
X229500Y44000D03*
D16*
X242000Y44000D03*
D30*
X262500Y44000D03*
D16*
X279000Y44000D03*
D24*
X287000Y44000D03*
D17*
X300500Y44000D03*
D31*
X319500Y44000D03*
D14*
X130000Y45000D03*
D17*
X143500Y45000D03*
D19*
X162500Y45000D03*
D16*
X176000Y45000D03*
D31*
X191500Y45000D03*
D13*
X212000Y45000D03*
D19*
X229500Y45000D03*
D16*
X242000Y45000D03*
D30*
X262500Y45000D03*
D15*
X287500Y45000D03*
D13*
X300000Y45000D03*
D24*
X320000Y45000D03*
D16*
X130000Y46000D03*
D17*
X143500Y46000D03*
D20*
X160500Y46000D03*
D17*
X175500Y46000D03*
D18*
X190500Y46000D03*
D13*
X212000Y46000D03*
D19*
X229500Y46000D03*
D16*
X242000Y46000D03*
D13*
X255000Y46000D03*
D14*
X267000Y46000D03*
X288000Y46000D03*
D13*
X300000Y46000D03*
D14*
X321000Y46000D03*
D13*
X130000Y47000D03*
D17*
X143500Y47000D03*
D15*
X160500Y47000D03*
D17*
X175500Y47000D03*
D25*
X190000Y47000D03*
D13*
X212000Y47000D03*
X229000Y47000D03*
D16*
X242000Y47000D03*
D13*
X255000Y47000D03*
D20*
X267500Y47000D03*
D14*
X288000Y47000D03*
D13*
X300000Y47000D03*
D15*
X321500Y47000D03*
D17*
X143500Y48000D03*
D15*
X160500Y48000D03*
D17*
X175500Y48000D03*
D22*
X189000Y48000D03*
D13*
X212000Y48000D03*
D19*
X228500Y48000D03*
D16*
X242000Y48000D03*
D13*
X255000Y48000D03*
D15*
X287500Y48000D03*
D13*
X300000Y48000D03*
D15*
X321500Y48000D03*
D13*
X143000Y49000D03*
D15*
X160500Y49000D03*
D17*
X175500Y49000D03*
D28*
X188500Y49000D03*
D13*
X212000Y49000D03*
D19*
X228500Y49000D03*
D17*
X242500Y49000D03*
D13*
X255000Y49000D03*
D15*
X286500Y49000D03*
D19*
X299500Y49000D03*
D15*
X321500Y49000D03*
D17*
X142500Y50000D03*
D14*
X160000Y50000D03*
D17*
X175500Y50000D03*
D24*
X184000Y50000D03*
D16*
X193000Y50000D03*
D17*
X211500Y50000D03*
X229500Y50000D03*
X242500Y50000D03*
D15*
X257500Y50000D03*
X286500Y50000D03*
D19*
X299500Y50000D03*
D14*
X321000Y50000D03*
D16*
X142000Y51000D03*
D20*
X160500Y51000D03*
D17*
X175500Y51000D03*
D15*
X183500Y51000D03*
D16*
X193000Y51000D03*
D17*
X211500Y51000D03*
D14*
X230000Y51000D03*
D17*
X242500Y51000D03*
D31*
X258500Y51000D03*
D19*
X266500Y51000D03*
D15*
X285500Y51000D03*
D19*
X299500Y51000D03*
D15*
X320500Y51000D03*
D16*
X141000Y52000D03*
X161000Y52000D03*
D17*
X175500Y52000D03*
D15*
X182500Y52000D03*
D16*
X193000Y52000D03*
D17*
X211500Y52000D03*
D30*
X235500Y52000D03*
D22*
X261000Y52000D03*
D15*
X284500Y52000D03*
D19*
X299500Y52000D03*
D15*
X320500Y52000D03*
D14*
X140000Y53000D03*
D17*
X161500Y53000D03*
X175500Y53000D03*
D14*
X182000Y53000D03*
D16*
X193000Y53000D03*
D17*
X211500Y53000D03*
D30*
X235500Y53000D03*
D22*
X262000Y53000D03*
D15*
X284500Y53000D03*
D23*
X299000Y53000D03*
D25*
X318000Y53000D03*
D14*
X139000Y54000D03*
D17*
X161500Y54000D03*
D21*
X179000Y54000D03*
D16*
X193000Y54000D03*
D17*
X211500Y54000D03*
D29*
X235000Y54000D03*
D22*
X262000Y54000D03*
D18*
X281500Y54000D03*
D23*
X299000Y54000D03*
D27*
X316500Y54000D03*
D15*
X138500Y55000D03*
D16*
X162000Y55000D03*
D31*
X178500Y55000D03*
D16*
X193000Y55000D03*
D17*
X211500Y55000D03*
D29*
X235000Y55000D03*
D22*
X262000Y55000D03*
D25*
X281000Y55000D03*
D19*
X298500Y55000D03*
D22*
X315000Y55000D03*
D15*
X137500Y56000D03*
D20*
X161500Y56000D03*
D24*
X178000Y56000D03*
D17*
X192500Y56000D03*
D16*
X211000Y56000D03*
D32*
X234500Y56000D03*
D22*
X262000Y56000D03*
D25*
X280000Y56000D03*
D19*
X298500Y56000D03*
D28*
X314500Y56000D03*
D31*
X136500Y57000D03*
D14*
X162000Y57000D03*
X177000Y57000D03*
D17*
X192500Y57000D03*
D16*
X211000Y57000D03*
X227000Y57000D03*
D27*
X237500Y57000D03*
D19*
X255500Y57000D03*
D13*
X260000Y57000D03*
D20*
X266500Y57000D03*
D25*
X279000Y57000D03*
D13*
X298000Y57000D03*
D22*
X314000Y57000D03*
D25*
X134000Y58000D03*
D14*
X162000Y58000D03*
X177000Y58000D03*
D17*
X192500Y58000D03*
D16*
X211000Y58000D03*
X227000Y58000D03*
D14*
X241000Y58000D03*
D13*
X255000Y58000D03*
D16*
X266000Y58000D03*
D18*
X278500Y58000D03*
D13*
X298000Y58000D03*
D22*
X313000Y58000D03*
D27*
X133500Y59000D03*
D15*
X161500Y59000D03*
D14*
X176000Y59000D03*
D13*
X192000Y59000D03*
D16*
X211000Y59000D03*
D14*
X227000Y59000D03*
X241000Y59000D03*
D13*
X255000Y59000D03*
X266000Y59000D03*
D18*
X277500Y59000D03*
D17*
X297500Y59000D03*
D27*
X312500Y59000D03*
D13*
X82000Y60000D03*
D27*
X132500Y60000D03*
D24*
X161000Y60000D03*
D15*
X175500Y60000D03*
D13*
X192000Y60000D03*
D20*
X210500Y60000D03*
D14*
X227000Y60000D03*
D20*
X241500Y60000D03*
D13*
X255000Y60000D03*
D21*
X277000Y60000D03*
D17*
X297500Y60000D03*
D31*
X309500Y60000D03*
D13*
X317000Y60000D03*
D16*
X82000Y61000D03*
D27*
X132500Y61000D03*
D24*
X160000Y61000D03*
D15*
X174500Y61000D03*
D13*
X192000Y61000D03*
D17*
X204500Y61000D03*
D20*
X210500Y61000D03*
D16*
X227000Y61000D03*
D17*
X242500Y61000D03*
X254500Y61000D03*
D24*
X276000Y61000D03*
D16*
X297000Y61000D03*
D24*
X309000Y61000D03*
D16*
X82000Y62000D03*
D25*
X132000Y62000D03*
D20*
X157500Y62000D03*
D19*
X162500Y62000D03*
D15*
X174500Y62000D03*
D17*
X191500Y62000D03*
D25*
X208000Y62000D03*
D20*
X225500Y62000D03*
D16*
X243000Y62000D03*
X255000Y62000D03*
D24*
X276000Y62000D03*
D20*
X297500Y62000D03*
D15*
X308500Y62000D03*
D16*
X82000Y63000D03*
D18*
X130500Y63000D03*
D14*
X156000Y63000D03*
D19*
X162500Y63000D03*
D15*
X174500Y63000D03*
D13*
X191000Y63000D03*
D25*
X208000Y63000D03*
D15*
X224500Y63000D03*
D16*
X243000Y63000D03*
X255000Y63000D03*
D13*
X268000Y63000D03*
D24*
X277000Y63000D03*
D20*
X297500Y63000D03*
D15*
X309500Y63000D03*
D13*
X82000Y64000D03*
D24*
X129000Y64000D03*
D14*
X155000Y64000D03*
D17*
X162500Y64000D03*
D15*
X174500Y64000D03*
D17*
X190500Y64000D03*
D28*
X209500Y64000D03*
D15*
X224500Y64000D03*
D16*
X243000Y64000D03*
D31*
X256500Y64000D03*
D17*
X268500Y64000D03*
D21*
X279000Y64000D03*
D20*
X297500Y64000D03*
D21*
X312000Y64000D03*
D19*
X81500Y65000D03*
D21*
X130000Y65000D03*
D14*
X154000Y65000D03*
D17*
X162500Y65000D03*
D16*
X175000Y65000D03*
D20*
X190500Y65000D03*
D33*
X215500Y65000D03*
D20*
X243500Y65000D03*
D25*
X258000Y65000D03*
D20*
X268500Y65000D03*
D21*
X280000Y65000D03*
D17*
X297500Y65000D03*
D21*
X313000Y65000D03*
D19*
X81500Y66000D03*
D18*
X131500Y66000D03*
D15*
X153500Y66000D03*
D16*
X163000Y66000D03*
D14*
X190000Y66000D03*
D34*
X216000Y66000D03*
D14*
X243000Y66000D03*
D32*
X261500Y66000D03*
D21*
X281000Y66000D03*
D31*
X313500Y66000D03*
D13*
X81000Y67000D03*
D21*
X133000Y67000D03*
D14*
X153000Y67000D03*
D16*
X163000Y67000D03*
D15*
X190500Y67000D03*
D30*
X219500Y67000D03*
D20*
X243500Y67000D03*
D32*
X261500Y67000D03*
D31*
X281500Y67000D03*
D24*
X314000Y67000D03*
D19*
X80500Y68000D03*
D24*
X134000Y68000D03*
D15*
X152500Y68000D03*
D16*
X163000Y68000D03*
D15*
X190500Y68000D03*
D22*
X220000Y68000D03*
D20*
X243500Y68000D03*
D32*
X261500Y68000D03*
D15*
X282500Y68000D03*
D24*
X314000Y68000D03*
D19*
X80500Y69000D03*
D14*
X135000Y69000D03*
X152000Y69000D03*
D16*
X163000Y69000D03*
D14*
X190000Y69000D03*
D20*
X224500Y69000D03*
X243500Y69000D03*
D29*
X262000Y69000D03*
D15*
X282500Y69000D03*
X314500Y69000D03*
D19*
X80500Y70000D03*
D20*
X135500Y70000D03*
D16*
X152000Y70000D03*
X163000Y70000D03*
D14*
X190000Y70000D03*
D23*
X226000Y70000D03*
D20*
X243500Y70000D03*
D28*
X262500Y70000D03*
D20*
X282500Y70000D03*
X314500Y70000D03*
D19*
X80500Y71000D03*
D16*
X135000Y71000D03*
D13*
X152000Y71000D03*
X163000Y71000D03*
D20*
X189500Y71000D03*
D23*
X241000Y71000D03*
D13*
X245000Y71000D03*
D14*
X259000Y71000D03*
D16*
X283000Y71000D03*
D13*
X315000Y71000D03*
D23*
X80000Y72000D03*
D20*
X189500Y72000D03*
D13*
X244000Y72000D03*
D23*
X80000Y73000D03*
D20*
X189500Y73000D03*
D13*
X244000Y73000D03*
D23*
X80000Y74000D03*
D16*
X189000Y74000D03*
D17*
X243500Y74000D03*
D19*
X79500Y75000D03*
D13*
X189000Y75000D03*
D19*
X79500Y76000D03*
X79500Y77000D03*
D23*
X79000Y78000D03*
X79000Y79000D03*
D19*
X78500Y80000D03*
X78500Y81000D03*
X78500Y82000D03*
X78500Y83000D03*
D23*
X78000Y84000D03*
X78000Y85000D03*
X247000Y85000D03*
D14*
X70000Y86000D03*
D19*
X77500Y86000D03*
D15*
X249500Y86000D03*
D24*
X70000Y87000D03*
D19*
X77500Y87000D03*
D14*
X250000Y87000D03*
D24*
X70000Y88000D03*
D19*
X77500Y88000D03*
D15*
X250500Y88000D03*
D18*
X69500Y89000D03*
D23*
X77000Y89000D03*
D16*
X177000Y89000D03*
D15*
X250500Y89000D03*
D13*
X327000Y89000D03*
D25*
X69000Y90000D03*
D23*
X77000Y90000D03*
D15*
X176500Y90000D03*
X250500Y90000D03*
D16*
X326000Y90000D03*
D27*
X68500Y91000D03*
D23*
X77000Y91000D03*
D31*
X176500Y91000D03*
X251500Y91000D03*
X325500Y91000D03*
D30*
X68500Y92000D03*
D25*
X178000Y92000D03*
D18*
X252500Y92000D03*
D23*
X297000Y92000D03*
D18*
X326500Y92000D03*
D19*
X372500Y92000D03*
D29*
X68000Y93000D03*
D19*
X131500Y93000D03*
D22*
X179000Y93000D03*
D27*
X254500Y93000D03*
D13*
X292000Y93000D03*
D19*
X296500Y93000D03*
D27*
X327500Y93000D03*
D13*
X373000Y93000D03*
D18*
X63500Y94000D03*
D17*
X75500Y94000D03*
D21*
X103000Y94000D03*
D14*
X130000Y94000D03*
D30*
X180500Y94000D03*
D14*
X214000Y94000D03*
D29*
X257000Y94000D03*
D15*
X293500Y94000D03*
D34*
X333000Y94000D03*
D16*
X374000Y94000D03*
D18*
X62500Y95000D03*
D17*
X76500Y95000D03*
D30*
X105500Y95000D03*
D18*
X127500Y95000D03*
D35*
X183000Y95000D03*
D15*
X213500Y95000D03*
D36*
X262500Y95000D03*
D15*
X293500Y95000D03*
D22*
X328000Y95000D03*
D37*
X352000Y95000D03*
D14*
X374000Y95000D03*
D21*
X62000Y96000D03*
D13*
X77000Y96000D03*
D38*
X115000Y96000D03*
D39*
X186000Y96000D03*
D24*
X213000Y96000D03*
D19*
X249500Y96000D03*
D16*
X255000Y96000D03*
D22*
X279000Y96000D03*
D15*
X293500Y96000D03*
D31*
X326500Y96000D03*
D35*
X370000Y96000D03*
D31*
X61500Y97000D03*
D16*
X77000Y97000D03*
D31*
X101500Y97000D03*
D24*
X129000Y97000D03*
D15*
X176500Y97000D03*
D34*
X205000Y97000D03*
D19*
X249500Y97000D03*
D18*
X291500Y97000D03*
D14*
X325000Y97000D03*
D25*
X375000Y97000D03*
D16*
X59000Y98000D03*
D19*
X63500Y98000D03*
X75500Y98000D03*
D13*
X79000Y98000D03*
D15*
X100500Y98000D03*
D31*
X129500Y98000D03*
D14*
X177000Y98000D03*
D25*
X211000Y98000D03*
D19*
X249500Y98000D03*
D15*
X293500Y98000D03*
D20*
X324500Y98000D03*
D21*
X375000Y98000D03*
D13*
X59000Y99000D03*
D19*
X75500Y99000D03*
X79500Y99000D03*
D16*
X100000Y99000D03*
D21*
X129000Y99000D03*
D23*
X176000Y99000D03*
D24*
X213000Y99000D03*
D19*
X249500Y99000D03*
D15*
X293500Y99000D03*
D19*
X322500Y99000D03*
D31*
X374500Y99000D03*
D13*
X59000Y100000D03*
D23*
X75000Y100000D03*
D19*
X80500Y100000D03*
D21*
X129000Y100000D03*
D23*
X176000Y100000D03*
D15*
X213500Y100000D03*
D23*
X249000Y100000D03*
D15*
X293500Y100000D03*
D19*
X322500Y100000D03*
D24*
X374000Y100000D03*
D13*
X59000Y101000D03*
D23*
X75000Y101000D03*
D19*
X80500Y101000D03*
D14*
X128000Y101000D03*
D23*
X176000Y101000D03*
D15*
X213500Y101000D03*
D23*
X249000Y101000D03*
D14*
X294000Y101000D03*
D19*
X322500Y101000D03*
D20*
X373500Y101000D03*
D13*
X59000Y102000D03*
D19*
X74500Y102000D03*
X81500Y102000D03*
D14*
X128000Y102000D03*
D23*
X176000Y102000D03*
D20*
X213500Y102000D03*
D23*
X249000Y102000D03*
D20*
X293500Y102000D03*
D23*
X322000Y102000D03*
D13*
X59000Y103000D03*
D19*
X74500Y103000D03*
X82500Y103000D03*
D16*
X128000Y103000D03*
D23*
X176000Y103000D03*
D20*
X213500Y103000D03*
D19*
X248500Y103000D03*
D16*
X293000Y103000D03*
D23*
X322000Y103000D03*
D13*
X59000Y104000D03*
D19*
X74500Y104000D03*
D13*
X83000Y104000D03*
D16*
X128000Y104000D03*
D19*
X175500Y104000D03*
D16*
X213000Y104000D03*
D19*
X248500Y104000D03*
D16*
X293000Y104000D03*
D23*
X322000Y104000D03*
D19*
X59500Y105000D03*
X74500Y105000D03*
X83500Y105000D03*
D13*
X128000Y105000D03*
D19*
X175500Y105000D03*
D16*
X213000Y105000D03*
D19*
X248500Y105000D03*
D16*
X293000Y105000D03*
D23*
X322000Y105000D03*
D13*
X60000Y106000D03*
D23*
X74000Y106000D03*
D13*
X84000Y106000D03*
X128000Y106000D03*
D19*
X175500Y106000D03*
D16*
X213000Y106000D03*
D19*
X248500Y106000D03*
D16*
X293000Y106000D03*
D23*
X322000Y106000D03*
D13*
X60000Y107000D03*
D23*
X74000Y107000D03*
D13*
X84000Y107000D03*
X128000Y107000D03*
D19*
X175500Y107000D03*
D17*
X213500Y107000D03*
D23*
X248000Y107000D03*
D17*
X292500Y107000D03*
D23*
X322000Y107000D03*
D13*
X60000Y108000D03*
D19*
X73500Y108000D03*
D13*
X84000Y108000D03*
X128000Y108000D03*
D19*
X175500Y108000D03*
D13*
X213000Y108000D03*
D23*
X248000Y108000D03*
D14*
X266000Y108000D03*
D17*
X292500Y108000D03*
D23*
X322000Y108000D03*
D13*
X60000Y109000D03*
D19*
X73500Y109000D03*
D13*
X84000Y109000D03*
D19*
X128500Y109000D03*
X175500Y109000D03*
D13*
X213000Y109000D03*
D23*
X248000Y109000D03*
D15*
X266500Y109000D03*
D17*
X292500Y109000D03*
D23*
X322000Y109000D03*
D13*
X61000Y110000D03*
D19*
X73500Y110000D03*
D17*
X84500Y110000D03*
D23*
X128000Y110000D03*
D19*
X175500Y110000D03*
X213500Y110000D03*
D23*
X248000Y110000D03*
D31*
X266500Y110000D03*
D17*
X292500Y110000D03*
D23*
X322000Y110000D03*
D13*
X61000Y111000D03*
D23*
X73000Y111000D03*
D17*
X84500Y111000D03*
D20*
X108500Y111000D03*
D23*
X128000Y111000D03*
D19*
X175500Y111000D03*
D23*
X213000Y111000D03*
X248000Y111000D03*
D21*
X267000Y111000D03*
D13*
X292000Y111000D03*
D19*
X322500Y111000D03*
D13*
X61000Y112000D03*
D23*
X73000Y112000D03*
D17*
X84500Y112000D03*
D20*
X108500Y112000D03*
D23*
X128000Y112000D03*
X175000Y112000D03*
X213000Y112000D03*
X248000Y112000D03*
D21*
X267000Y112000D03*
D13*
X292000Y112000D03*
D19*
X322500Y112000D03*
D13*
X61000Y113000D03*
D23*
X73000Y113000D03*
D13*
X85000Y113000D03*
D14*
X108000Y113000D03*
D23*
X128000Y113000D03*
X175000Y113000D03*
D17*
X187500Y113000D03*
D23*
X193000Y113000D03*
X213000Y113000D03*
X248000Y113000D03*
D18*
X267500Y113000D03*
D13*
X292000Y113000D03*
D19*
X322500Y113000D03*
D20*
X341500Y113000D03*
D13*
X62000Y114000D03*
D19*
X72500Y114000D03*
X85500Y114000D03*
D15*
X108500Y114000D03*
D23*
X128000Y114000D03*
X175000Y114000D03*
D26*
X192000Y114000D03*
D23*
X213000Y114000D03*
X248000Y114000D03*
D17*
X263500Y114000D03*
D20*
X270500Y114000D03*
D19*
X291500Y114000D03*
X322500Y114000D03*
D15*
X341500Y114000D03*
D13*
X62000Y115000D03*
D19*
X72500Y115000D03*
D13*
X79000Y115000D03*
D19*
X85500Y115000D03*
D20*
X108500Y115000D03*
D23*
X128000Y115000D03*
X175000Y115000D03*
D29*
X192000Y115000D03*
D23*
X213000Y115000D03*
X248000Y115000D03*
D17*
X263500Y115000D03*
D20*
X271500Y115000D03*
D19*
X291500Y115000D03*
X322500Y115000D03*
D15*
X341500Y115000D03*
D19*
X62500Y116000D03*
D23*
X72000Y116000D03*
D16*
X79000Y116000D03*
D19*
X86500Y116000D03*
D20*
X108500Y116000D03*
D19*
X128500Y116000D03*
D23*
X175000Y116000D03*
D29*
X192000Y116000D03*
D19*
X212500Y116000D03*
D23*
X248000Y116000D03*
D13*
X263000Y116000D03*
D14*
X271000Y116000D03*
D19*
X291500Y116000D03*
X322500Y116000D03*
D24*
X342000Y116000D03*
D13*
X63000Y117000D03*
D23*
X72000Y117000D03*
D15*
X79500Y117000D03*
D13*
X87000Y117000D03*
D16*
X108000Y117000D03*
D19*
X128500Y117000D03*
X174500Y117000D03*
D29*
X192000Y117000D03*
D19*
X212500Y117000D03*
D23*
X248000Y117000D03*
D13*
X263000Y117000D03*
D14*
X271000Y117000D03*
D19*
X291500Y117000D03*
X322500Y117000D03*
D24*
X342000Y117000D03*
D19*
X63500Y118000D03*
D23*
X72000Y118000D03*
D24*
X79000Y118000D03*
D13*
X87000Y118000D03*
D17*
X103500Y118000D03*
X108500Y118000D03*
D19*
X128500Y118000D03*
X174500Y118000D03*
D29*
X192000Y118000D03*
D19*
X212500Y118000D03*
D23*
X248000Y118000D03*
D13*
X263000Y118000D03*
D14*
X271000Y118000D03*
D19*
X291500Y118000D03*
X322500Y118000D03*
D24*
X342000Y118000D03*
D19*
X63500Y119000D03*
D23*
X72000Y119000D03*
D24*
X79000Y119000D03*
D17*
X87500Y119000D03*
D24*
X105000Y119000D03*
D23*
X128000Y119000D03*
D19*
X174500Y119000D03*
D32*
X191500Y119000D03*
D23*
X212000Y119000D03*
X248000Y119000D03*
D13*
X263000Y119000D03*
D14*
X271000Y119000D03*
D23*
X291000Y119000D03*
D19*
X322500Y119000D03*
D15*
X341500Y119000D03*
D19*
X64500Y120000D03*
X71500Y120000D03*
D27*
X82500Y120000D03*
D31*
X104500Y120000D03*
D23*
X128000Y120000D03*
D19*
X174500Y120000D03*
D20*
X183500Y120000D03*
D31*
X192500Y120000D03*
D23*
X212000Y120000D03*
X248000Y120000D03*
D13*
X263000Y120000D03*
D20*
X270500Y120000D03*
D23*
X291000Y120000D03*
D19*
X322500Y120000D03*
D14*
X342000Y120000D03*
D19*
X64500Y121000D03*
X71500Y121000D03*
D27*
X82500Y121000D03*
D26*
X108000Y121000D03*
D23*
X128000Y121000D03*
D19*
X174500Y121000D03*
D28*
X188500Y121000D03*
D23*
X212000Y121000D03*
X248000Y121000D03*
D13*
X263000Y121000D03*
X271000Y121000D03*
D23*
X291000Y121000D03*
D19*
X322500Y121000D03*
D20*
X342500Y121000D03*
D19*
X65500Y122000D03*
D23*
X71000Y122000D03*
D27*
X82500Y122000D03*
D26*
X108000Y122000D03*
D23*
X128000Y122000D03*
D19*
X174500Y122000D03*
D14*
X184000Y122000D03*
D20*
X192500Y122000D03*
D23*
X212000Y122000D03*
X248000Y122000D03*
D17*
X262500Y122000D03*
D23*
X291000Y122000D03*
D19*
X322500Y122000D03*
D16*
X342000Y122000D03*
D23*
X66000Y123000D03*
X71000Y123000D03*
D18*
X82500Y123000D03*
D28*
X107500Y123000D03*
D23*
X128000Y123000D03*
D13*
X174000Y123000D03*
D14*
X184000Y123000D03*
D16*
X192000Y123000D03*
D19*
X211500Y123000D03*
X247500Y123000D03*
D17*
X262500Y123000D03*
D19*
X290500Y123000D03*
X322500Y123000D03*
D17*
X342500Y123000D03*
D19*
X66500Y124000D03*
D23*
X71000Y124000D03*
D31*
X82500Y124000D03*
D22*
X108000Y124000D03*
D23*
X128000Y124000D03*
D13*
X174000Y124000D03*
D27*
X187500Y124000D03*
D19*
X211500Y124000D03*
X247500Y124000D03*
D17*
X262500Y124000D03*
D19*
X290500Y124000D03*
X322500Y124000D03*
D17*
X342500Y124000D03*
D19*
X67500Y125000D03*
D23*
X71000Y125000D03*
D20*
X83500Y125000D03*
D21*
X110000Y125000D03*
D23*
X128000Y125000D03*
D19*
X173500Y125000D03*
D25*
X188000Y125000D03*
D23*
X211000Y125000D03*
D19*
X247500Y125000D03*
D17*
X262500Y125000D03*
D23*
X290000Y125000D03*
D19*
X322500Y125000D03*
D17*
X342500Y125000D03*
D19*
X67500Y126000D03*
X70500Y126000D03*
D13*
X84000Y126000D03*
D17*
X106500Y126000D03*
D16*
X112000Y126000D03*
D23*
X128000Y126000D03*
D19*
X173500Y126000D03*
D25*
X189000Y126000D03*
D23*
X211000Y126000D03*
D19*
X247500Y126000D03*
D17*
X262500Y126000D03*
D23*
X290000Y126000D03*
D19*
X322500Y126000D03*
D16*
X343000Y126000D03*
D17*
X68500Y127000D03*
X106500Y127000D03*
D16*
X112000Y127000D03*
D19*
X127500Y127000D03*
X173500Y127000D03*
D21*
X190000Y127000D03*
D23*
X211000Y127000D03*
D19*
X247500Y127000D03*
D17*
X262500Y127000D03*
D23*
X290000Y127000D03*
D19*
X322500Y127000D03*
D16*
X343000Y127000D03*
D13*
X69000Y128000D03*
D17*
X106500Y128000D03*
D13*
X113000Y128000D03*
D19*
X127500Y128000D03*
X173500Y128000D03*
D21*
X190000Y128000D03*
D23*
X211000Y128000D03*
X247000Y128000D03*
D20*
X262500Y128000D03*
D23*
X290000Y128000D03*
D19*
X322500Y128000D03*
D16*
X343000Y128000D03*
D19*
X69500Y129000D03*
D17*
X106500Y129000D03*
D19*
X127500Y129000D03*
X172500Y129000D03*
D31*
X190500Y129000D03*
D19*
X210500Y129000D03*
D23*
X247000Y129000D03*
D20*
X262500Y129000D03*
D23*
X290000Y129000D03*
D19*
X322500Y129000D03*
D16*
X343000Y129000D03*
D13*
X70000Y130000D03*
D17*
X106500Y130000D03*
D19*
X127500Y130000D03*
X172500Y130000D03*
D17*
X187500Y130000D03*
D20*
X193500Y130000D03*
D19*
X210500Y130000D03*
X246500Y130000D03*
D20*
X262500Y130000D03*
D23*
X290000Y130000D03*
D19*
X322500Y130000D03*
D16*
X343000Y130000D03*
D13*
X70000Y131000D03*
D16*
X106000Y131000D03*
D19*
X111500Y131000D03*
X127500Y131000D03*
X172500Y131000D03*
D14*
X193000Y131000D03*
D19*
X210500Y131000D03*
X246500Y131000D03*
D15*
X262500Y131000D03*
D23*
X290000Y131000D03*
D19*
X322500Y131000D03*
D16*
X343000Y131000D03*
D17*
X70500Y132000D03*
D16*
X106000Y132000D03*
X112000Y132000D03*
D19*
X126500Y132000D03*
D23*
X172000Y132000D03*
D20*
X193500Y132000D03*
D19*
X210500Y132000D03*
D23*
X246000Y132000D03*
D15*
X262500Y132000D03*
D23*
X290000Y132000D03*
D19*
X322500Y132000D03*
D16*
X343000Y132000D03*
D23*
X69000Y133000D03*
D19*
X71500Y133000D03*
D17*
X105500Y133000D03*
D20*
X111500Y133000D03*
D19*
X126500Y133000D03*
X171500Y133000D03*
D20*
X193500Y133000D03*
D19*
X210500Y133000D03*
D23*
X246000Y133000D03*
D15*
X262500Y133000D03*
D23*
X290000Y133000D03*
D19*
X322500Y133000D03*
D20*
X343500Y133000D03*
D23*
X69000Y134000D03*
D19*
X72500Y134000D03*
D18*
X109500Y134000D03*
D19*
X126500Y134000D03*
X171500Y134000D03*
D16*
X184000Y134000D03*
D14*
X193000Y134000D03*
D19*
X210500Y134000D03*
D23*
X246000Y134000D03*
D14*
X262000Y134000D03*
D19*
X289500Y134000D03*
X322500Y134000D03*
D20*
X343500Y134000D03*
D19*
X68500Y135000D03*
X73500Y135000D03*
D21*
X109000Y135000D03*
D19*
X126500Y135000D03*
X170500Y135000D03*
D20*
X183500Y135000D03*
D14*
X193000Y135000D03*
D13*
X210000Y135000D03*
D19*
X245500Y135000D03*
D20*
X262500Y135000D03*
D19*
X289500Y135000D03*
X322500Y135000D03*
D14*
X343000Y135000D03*
D19*
X68500Y136000D03*
X73500Y136000D03*
D21*
X109000Y136000D03*
D19*
X126500Y136000D03*
X170500Y136000D03*
D15*
X183500Y136000D03*
X192500Y136000D03*
D19*
X209500Y136000D03*
D23*
X245000Y136000D03*
D19*
X262500Y136000D03*
D23*
X289000Y136000D03*
D19*
X322500Y136000D03*
D15*
X343500Y136000D03*
D19*
X68500Y137000D03*
X74500Y137000D03*
D21*
X108000Y137000D03*
D19*
X126500Y137000D03*
D13*
X170000Y137000D03*
D28*
X187500Y137000D03*
D19*
X209500Y137000D03*
D23*
X245000Y137000D03*
X289000Y137000D03*
D19*
X322500Y137000D03*
D25*
X346000Y137000D03*
D17*
X355500Y137000D03*
D19*
X68500Y138000D03*
X74500Y138000D03*
D31*
X107500Y138000D03*
D19*
X126500Y138000D03*
D13*
X170000Y138000D03*
D22*
X187000Y138000D03*
D19*
X209500Y138000D03*
D23*
X245000Y138000D03*
X289000Y138000D03*
D19*
X322500Y138000D03*
D35*
X347000Y138000D03*
D23*
X68000Y139000D03*
D19*
X75500Y139000D03*
D31*
X107500Y139000D03*
D19*
X126500Y139000D03*
D13*
X169000Y139000D03*
D27*
X186500Y139000D03*
D19*
X209500Y139000D03*
X244500Y139000D03*
D16*
X263000Y139000D03*
D23*
X289000Y139000D03*
D13*
X322000Y139000D03*
D40*
X346500Y139000D03*
D19*
X67500Y140000D03*
X75500Y140000D03*
D23*
X103000Y140000D03*
D14*
X108000Y140000D03*
D19*
X126500Y140000D03*
D17*
X168500Y140000D03*
D25*
X187000Y140000D03*
D19*
X209500Y140000D03*
X244500Y140000D03*
D15*
X261500Y140000D03*
D23*
X289000Y140000D03*
D13*
X322000Y140000D03*
D34*
X347000Y140000D03*
D19*
X67500Y141000D03*
X76500Y141000D03*
D23*
X103000Y141000D03*
D14*
X108000Y141000D03*
D19*
X126500Y141000D03*
D17*
X168500Y141000D03*
D31*
X187500Y141000D03*
D19*
X209500Y141000D03*
X244500Y141000D03*
D15*
X261500Y141000D03*
D19*
X288500Y141000D03*
D13*
X322000Y141000D03*
D34*
X347000Y141000D03*
D19*
X67500Y142000D03*
X76500Y142000D03*
D23*
X103000Y142000D03*
D14*
X108000Y142000D03*
D19*
X126500Y142000D03*
D17*
X167500Y142000D03*
X190500Y142000D03*
D19*
X209500Y142000D03*
X244500Y142000D03*
D24*
X261000Y142000D03*
D19*
X288500Y142000D03*
D13*
X322000Y142000D03*
D40*
X346500Y142000D03*
D19*
X67500Y143000D03*
X77500Y143000D03*
D15*
X106500Y143000D03*
D19*
X126500Y143000D03*
D16*
X167000Y143000D03*
D19*
X209500Y143000D03*
D13*
X244000Y143000D03*
D24*
X261000Y143000D03*
D19*
X288500Y143000D03*
D13*
X322000Y143000D03*
D25*
X341000Y143000D03*
D31*
X353500Y143000D03*
D19*
X67500Y144000D03*
X77500Y144000D03*
D14*
X106000Y144000D03*
D19*
X126500Y144000D03*
D20*
X166500Y144000D03*
D19*
X209500Y144000D03*
D13*
X244000Y144000D03*
D24*
X261000Y144000D03*
D19*
X288500Y144000D03*
D17*
X321500Y144000D03*
D31*
X340500Y144000D03*
D14*
X354000Y144000D03*
D19*
X66500Y145000D03*
X77500Y145000D03*
D16*
X105000Y145000D03*
D23*
X127000Y145000D03*
D16*
X166000Y145000D03*
D19*
X209500Y145000D03*
D13*
X244000Y145000D03*
D15*
X260500Y145000D03*
D19*
X288500Y145000D03*
D17*
X321500Y145000D03*
D19*
X342500Y145000D03*
D13*
X354000Y145000D03*
D19*
X66500Y146000D03*
X78500Y146000D03*
X104500Y146000D03*
D23*
X127000Y146000D03*
D20*
X165500Y146000D03*
D19*
X209500Y146000D03*
D17*
X243500Y146000D03*
D20*
X260500Y146000D03*
D19*
X287500Y146000D03*
D17*
X321500Y146000D03*
D19*
X66500Y147000D03*
X79500Y147000D03*
D13*
X128000Y147000D03*
D14*
X165000Y147000D03*
D19*
X209500Y147000D03*
D17*
X243500Y147000D03*
D13*
X260000Y147000D03*
D19*
X287500Y147000D03*
D16*
X321000Y147000D03*
D19*
X66500Y148000D03*
D13*
X80000Y148000D03*
D24*
X129000Y148000D03*
D20*
X164500Y148000D03*
D19*
X209500Y148000D03*
D16*
X243000Y148000D03*
D19*
X287500Y148000D03*
D20*
X320500Y148000D03*
D19*
X66500Y149000D03*
D17*
X80500Y149000D03*
D41*
X133500Y149000D03*
D14*
X164000Y149000D03*
D16*
X208000Y149000D03*
X243000Y149000D03*
D13*
X288000Y149000D03*
D20*
X320500Y149000D03*
D13*
X66000Y150000D03*
D16*
X81000Y150000D03*
D36*
X136500Y150000D03*
D21*
X166000Y150000D03*
D19*
X173500Y150000D03*
D15*
X209500Y150000D03*
D31*
X244500Y150000D03*
D20*
X288500Y150000D03*
X320500Y150000D03*
D13*
X66000Y151000D03*
D20*
X81500Y151000D03*
D42*
X147000Y151000D03*
D23*
X173000Y151000D03*
D31*
X210500Y151000D03*
D21*
X244000Y151000D03*
D15*
X289500Y151000D03*
D14*
X320000Y151000D03*
D19*
X326500Y151000D03*
D13*
X66000Y152000D03*
D16*
X82000Y152000D03*
D28*
X130500Y152000D03*
X165500Y152000D03*
D21*
X211000Y152000D03*
X244000Y152000D03*
D17*
X287500Y152000D03*
D20*
X293500Y152000D03*
D18*
X321500Y152000D03*
D13*
X66000Y153000D03*
D20*
X82500Y153000D03*
D31*
X127500Y153000D03*
D18*
X166500Y153000D03*
D25*
X212000Y153000D03*
D21*
X244000Y153000D03*
D22*
X293000Y153000D03*
D25*
X322000Y153000D03*
D13*
X66000Y154000D03*
D20*
X82500Y154000D03*
D16*
X124000Y154000D03*
D14*
X169000Y154000D03*
D41*
X217500Y154000D03*
D31*
X244500Y154000D03*
D29*
X295000Y154000D03*
D35*
X317000Y154000D03*
D13*
X66000Y155000D03*
D20*
X82500Y155000D03*
D19*
X169500Y155000D03*
D23*
X172000Y155000D03*
D43*
X227000Y155000D03*
D44*
X300500Y155000D03*
D18*
X322500Y155000D03*
D17*
X65500Y156000D03*
D14*
X83000Y156000D03*
D23*
X172000Y156000D03*
D14*
X210000Y156000D03*
D13*
X237000Y156000D03*
D14*
X245000Y156000D03*
D18*
X291500Y156000D03*
D26*
X319000Y156000D03*
D13*
X65000Y157000D03*
D14*
X83000Y157000D03*
D23*
X172000Y157000D03*
X242000Y157000D03*
D15*
X289500Y157000D03*
D17*
X319500Y157000D03*
D16*
X325000Y157000D03*
D13*
X65000Y158000D03*
D20*
X83500Y158000D03*
D16*
X290000Y158000D03*
D17*
X325500Y158000D03*
D13*
X65000Y159000D03*
D15*
X82500Y159000D03*
D19*
X289500Y159000D03*
D23*
X325000Y159000D03*
D13*
X65000Y160000D03*
D24*
X82000Y160000D03*
D14*
X66000Y161000D03*
D24*
X81000Y161000D03*
D35*
X74000Y162000D03*
D41*
X73500Y163000D03*
D45*
X73000Y164000D03*
D18*
X69500Y165000D03*
D13*
X81000Y165000D03*
D20*
X67500Y166000D03*
D11*
X205000Y302192D02*
X205000Y320000D01*
X205000Y290914D02*
X205000Y289086D01*
X205000Y277808D02*
X205000Y260000D01*
D10*
X280104Y382098D02*
X283998Y382098D01*
X283998Y369116D01*
X276209Y369116D01*
X276066Y369118D01*
X275923Y369124D01*
X275780Y369134D01*
X275638Y369148D01*
X275496Y369165D01*
X275354Y369187D01*
X275213Y369212D01*
X275073Y369242D01*
X274934Y369275D01*
X274796Y369312D01*
X274659Y369353D01*
X274523Y369397D01*
X274388Y369446D01*
X274255Y369498D01*
X274123Y369553D01*
X273993Y369613D01*
X273864Y369676D01*
X273737Y369742D01*
X273612Y369812D01*
X273490Y369885D01*
X273369Y369962D01*
X273250Y370042D01*
X273134Y370125D01*
X273019Y370211D01*
X272908Y370300D01*
X272798Y370393D01*
X272692Y370488D01*
X272588Y370587D01*
X272487Y370688D01*
X272388Y370792D01*
X272293Y370898D01*
X272200Y371008D01*
X272111Y371119D01*
X272025Y371234D01*
X271942Y371350D01*
X271862Y371469D01*
X271785Y371590D01*
X271712Y371713D01*
X271642Y371837D01*
X271576Y371964D01*
X271513Y372093D01*
X271453Y372223D01*
X271398Y372355D01*
X271346Y372488D01*
X271297Y372623D01*
X271253Y372759D01*
X271212Y372896D01*
X271175Y373034D01*
X271142Y373173D01*
X271112Y373313D01*
X271087Y373454D01*
X271065Y373596D01*
X271048Y373738D01*
X271034Y373880D01*
X271024Y374023D01*
X271018Y374166D01*
X271016Y374309D01*
X271016Y387291D01*
X271018Y387434D01*
X271024Y387577D01*
X271034Y387720D01*
X271048Y387862D01*
X271065Y388004D01*
X271087Y388146D01*
X271112Y388287D01*
X271142Y388427D01*
X271175Y388566D01*
X271212Y388704D01*
X271253Y388841D01*
X271297Y388977D01*
X271346Y389112D01*
X271398Y389245D01*
X271453Y389377D01*
X271513Y389507D01*
X271576Y389636D01*
X271642Y389763D01*
X271712Y389887D01*
X271785Y390010D01*
X271862Y390131D01*
X271942Y390250D01*
X272025Y390366D01*
X272111Y390481D01*
X272200Y390592D01*
X272293Y390702D01*
X272388Y390808D01*
X272487Y390912D01*
X272588Y391013D01*
X272692Y391112D01*
X272798Y391207D01*
X272908Y391300D01*
X273019Y391389D01*
X273134Y391475D01*
X273250Y391558D01*
X273369Y391638D01*
X273490Y391715D01*
X273612Y391788D01*
X273737Y391858D01*
X273864Y391924D01*
X273993Y391987D01*
X274123Y392047D01*
X274255Y392102D01*
X274388Y392154D01*
X274523Y392203D01*
X274659Y392247D01*
X274796Y392288D01*
X274934Y392325D01*
X275073Y392358D01*
X275213Y392388D01*
X275354Y392413D01*
X275496Y392435D01*
X275638Y392452D01*
X275780Y392466D01*
X275923Y392476D01*
X276066Y392482D01*
X276209Y392484D01*
X283998Y392484D01*
X299082Y392484D02*
X291293Y369116D01*
X306871Y369116D02*
X299082Y392484D01*
X304924Y374958D02*
X293240Y374958D01*
X318569Y369116D02*
X318569Y392484D01*
X312078Y392484D02*
X325060Y392484D01*
X332285Y369116D02*
X342670Y369116D01*
X332285Y369116D02*
X332285Y392484D01*
X342670Y392484D01*
X340074Y382098D02*
X332285Y382098D01*
X271016Y347893D02*
X271016Y337507D01*
X271016Y347893D02*
X271018Y348052D01*
X271024Y348211D01*
X271034Y348371D01*
X271047Y348529D01*
X271065Y348688D01*
X271086Y348845D01*
X271112Y349003D01*
X271141Y349159D01*
X271174Y349315D01*
X271211Y349470D01*
X271251Y349624D01*
X271296Y349777D01*
X271344Y349929D01*
X271395Y350080D01*
X271451Y350229D01*
X271510Y350377D01*
X271573Y350523D01*
X271639Y350668D01*
X271709Y350811D01*
X271782Y350953D01*
X271859Y351092D01*
X271939Y351230D01*
X272023Y351366D01*
X272110Y351499D01*
X272200Y351631D01*
X272293Y351760D01*
X272390Y351886D01*
X272489Y352011D01*
X272592Y352133D01*
X272697Y352252D01*
X272806Y352369D01*
X272917Y352483D01*
X273031Y352594D01*
X273148Y352703D01*
X273267Y352808D01*
X273389Y352911D01*
X273514Y353010D01*
X273640Y353107D01*
X273769Y353200D01*
X273901Y353290D01*
X274034Y353377D01*
X274170Y353461D01*
X274308Y353541D01*
X274447Y353618D01*
X274589Y353691D01*
X274732Y353761D01*
X274877Y353827D01*
X275023Y353890D01*
X275171Y353949D01*
X275320Y354005D01*
X275471Y354056D01*
X275623Y354104D01*
X275776Y354149D01*
X275930Y354189D01*
X276085Y354226D01*
X276241Y354259D01*
X276397Y354288D01*
X276555Y354314D01*
X276712Y354335D01*
X276871Y354353D01*
X277029Y354366D01*
X277189Y354376D01*
X277348Y354382D01*
X277507Y354384D01*
X277666Y354382D01*
X277825Y354376D01*
X277985Y354366D01*
X278143Y354353D01*
X278302Y354335D01*
X278459Y354314D01*
X278617Y354288D01*
X278773Y354259D01*
X278929Y354226D01*
X279084Y354189D01*
X279238Y354149D01*
X279391Y354104D01*
X279543Y354056D01*
X279694Y354005D01*
X279843Y353949D01*
X279991Y353890D01*
X280137Y353827D01*
X280282Y353761D01*
X280425Y353691D01*
X280567Y353618D01*
X280706Y353541D01*
X280844Y353461D01*
X280980Y353377D01*
X281113Y353290D01*
X281245Y353200D01*
X281374Y353107D01*
X281500Y353010D01*
X281625Y352911D01*
X281747Y352808D01*
X281866Y352703D01*
X281983Y352594D01*
X282097Y352483D01*
X282208Y352369D01*
X282317Y352252D01*
X282422Y352133D01*
X282525Y352011D01*
X282624Y351886D01*
X282721Y351760D01*
X282814Y351631D01*
X282904Y351499D01*
X282991Y351366D01*
X283075Y351230D01*
X283155Y351092D01*
X283232Y350953D01*
X283305Y350811D01*
X283375Y350668D01*
X283441Y350523D01*
X283504Y350377D01*
X283563Y350229D01*
X283619Y350080D01*
X283670Y349929D01*
X283718Y349777D01*
X283763Y349624D01*
X283803Y349470D01*
X283840Y349315D01*
X283873Y349159D01*
X283902Y349003D01*
X283928Y348845D01*
X283949Y348688D01*
X283967Y348529D01*
X283980Y348371D01*
X283990Y348211D01*
X283996Y348052D01*
X283998Y347893D01*
X283998Y337507D01*
X283996Y337348D01*
X283990Y337189D01*
X283980Y337029D01*
X283967Y336871D01*
X283949Y336712D01*
X283928Y336555D01*
X283902Y336397D01*
X283873Y336241D01*
X283840Y336085D01*
X283803Y335930D01*
X283763Y335776D01*
X283718Y335623D01*
X283670Y335471D01*
X283619Y335320D01*
X283563Y335171D01*
X283504Y335023D01*
X283441Y334877D01*
X283375Y334732D01*
X283305Y334589D01*
X283232Y334447D01*
X283155Y334308D01*
X283075Y334170D01*
X282991Y334034D01*
X282904Y333901D01*
X282814Y333769D01*
X282721Y333640D01*
X282624Y333514D01*
X282525Y333389D01*
X282422Y333267D01*
X282317Y333148D01*
X282208Y333031D01*
X282097Y332917D01*
X281983Y332806D01*
X281866Y332697D01*
X281747Y332592D01*
X281625Y332489D01*
X281500Y332390D01*
X281374Y332293D01*
X281245Y332200D01*
X281113Y332110D01*
X280980Y332023D01*
X280844Y331939D01*
X280706Y331859D01*
X280567Y331782D01*
X280425Y331709D01*
X280282Y331639D01*
X280137Y331573D01*
X279991Y331510D01*
X279843Y331451D01*
X279694Y331395D01*
X279543Y331344D01*
X279391Y331296D01*
X279238Y331251D01*
X279084Y331211D01*
X278929Y331174D01*
X278773Y331141D01*
X278617Y331112D01*
X278459Y331086D01*
X278302Y331065D01*
X278143Y331047D01*
X277985Y331034D01*
X277825Y331024D01*
X277666Y331018D01*
X277507Y331016D01*
X277348Y331018D01*
X277189Y331024D01*
X277029Y331034D01*
X276871Y331047D01*
X276712Y331065D01*
X276555Y331086D01*
X276397Y331112D01*
X276241Y331141D01*
X276085Y331174D01*
X275930Y331211D01*
X275776Y331251D01*
X275623Y331296D01*
X275471Y331344D01*
X275320Y331395D01*
X275171Y331451D01*
X275023Y331510D01*
X274877Y331573D01*
X274732Y331639D01*
X274589Y331709D01*
X274447Y331782D01*
X274308Y331859D01*
X274170Y331939D01*
X274034Y332023D01*
X273901Y332110D01*
X273769Y332200D01*
X273640Y332293D01*
X273514Y332390D01*
X273389Y332489D01*
X273267Y332592D01*
X273148Y332697D01*
X273031Y332806D01*
X272917Y332917D01*
X272806Y333031D01*
X272697Y333148D01*
X272592Y333267D01*
X272489Y333389D01*
X272390Y333514D01*
X272293Y333640D01*
X272200Y333769D01*
X272110Y333901D01*
X272023Y334034D01*
X271939Y334170D01*
X271859Y334308D01*
X271782Y334447D01*
X271709Y334589D01*
X271639Y334732D01*
X271573Y334877D01*
X271510Y335023D01*
X271451Y335171D01*
X271395Y335320D01*
X271344Y335471D01*
X271296Y335623D01*
X271251Y335776D01*
X271211Y335930D01*
X271174Y336085D01*
X271141Y336241D01*
X271112Y336397D01*
X271086Y336555D01*
X271065Y336712D01*
X271047Y336871D01*
X271034Y337029D01*
X271024Y337189D01*
X271018Y337348D01*
X271016Y337507D01*
X292591Y337507D02*
X292591Y354384D01*
X292591Y337507D02*
X292593Y337348D01*
X292599Y337189D01*
X292609Y337029D01*
X292622Y336871D01*
X292640Y336712D01*
X292661Y336555D01*
X292687Y336397D01*
X292716Y336241D01*
X292749Y336085D01*
X292786Y335930D01*
X292826Y335776D01*
X292871Y335623D01*
X292919Y335471D01*
X292970Y335320D01*
X293026Y335171D01*
X293085Y335023D01*
X293148Y334877D01*
X293214Y334732D01*
X293284Y334589D01*
X293357Y334447D01*
X293434Y334308D01*
X293514Y334170D01*
X293598Y334034D01*
X293685Y333901D01*
X293775Y333769D01*
X293868Y333640D01*
X293965Y333514D01*
X294064Y333389D01*
X294167Y333267D01*
X294272Y333148D01*
X294381Y333031D01*
X294492Y332917D01*
X294606Y332806D01*
X294723Y332697D01*
X294842Y332592D01*
X294964Y332489D01*
X295089Y332390D01*
X295215Y332293D01*
X295344Y332200D01*
X295476Y332110D01*
X295609Y332023D01*
X295745Y331939D01*
X295883Y331859D01*
X296022Y331782D01*
X296164Y331709D01*
X296307Y331639D01*
X296452Y331573D01*
X296598Y331510D01*
X296746Y331451D01*
X296895Y331395D01*
X297046Y331344D01*
X297198Y331296D01*
X297351Y331251D01*
X297505Y331211D01*
X297660Y331174D01*
X297816Y331141D01*
X297972Y331112D01*
X298130Y331086D01*
X298287Y331065D01*
X298446Y331047D01*
X298604Y331034D01*
X298764Y331024D01*
X298923Y331018D01*
X299082Y331016D01*
X299241Y331018D01*
X299400Y331024D01*
X299560Y331034D01*
X299718Y331047D01*
X299877Y331065D01*
X300034Y331086D01*
X300192Y331112D01*
X300348Y331141D01*
X300504Y331174D01*
X300659Y331211D01*
X300813Y331251D01*
X300966Y331296D01*
X301118Y331344D01*
X301269Y331395D01*
X301418Y331451D01*
X301566Y331510D01*
X301712Y331573D01*
X301857Y331639D01*
X302000Y331709D01*
X302142Y331782D01*
X302281Y331859D01*
X302419Y331939D01*
X302555Y332023D01*
X302688Y332110D01*
X302820Y332200D01*
X302949Y332293D01*
X303075Y332390D01*
X303200Y332489D01*
X303322Y332592D01*
X303441Y332697D01*
X303558Y332806D01*
X303672Y332917D01*
X303783Y333031D01*
X303892Y333148D01*
X303997Y333267D01*
X304100Y333389D01*
X304199Y333514D01*
X304296Y333640D01*
X304389Y333769D01*
X304479Y333901D01*
X304566Y334034D01*
X304650Y334170D01*
X304730Y334308D01*
X304807Y334447D01*
X304880Y334589D01*
X304950Y334732D01*
X305016Y334877D01*
X305079Y335023D01*
X305138Y335171D01*
X305194Y335320D01*
X305245Y335471D01*
X305293Y335623D01*
X305338Y335776D01*
X305378Y335930D01*
X305415Y336085D01*
X305448Y336241D01*
X305477Y336397D01*
X305503Y336555D01*
X305524Y336712D01*
X305542Y336871D01*
X305555Y337029D01*
X305565Y337189D01*
X305571Y337348D01*
X305573Y337507D01*
X305573Y354384D01*
X319265Y354384D02*
X319265Y331016D01*
X312774Y354384D02*
X325756Y354384D01*
X53998Y1167098D02*
X50104Y1167098D01*
X53998Y1167098D02*
X53998Y1154116D01*
X46209Y1154116D01*
X46066Y1154118D01*
X45923Y1154124D01*
X45780Y1154134D01*
X45638Y1154148D01*
X45496Y1154165D01*
X45354Y1154187D01*
X45213Y1154212D01*
X45073Y1154242D01*
X44934Y1154275D01*
X44796Y1154312D01*
X44659Y1154353D01*
X44523Y1154397D01*
X44388Y1154446D01*
X44255Y1154498D01*
X44123Y1154553D01*
X43993Y1154613D01*
X43864Y1154676D01*
X43737Y1154742D01*
X43612Y1154812D01*
X43490Y1154885D01*
X43369Y1154962D01*
X43250Y1155042D01*
X43134Y1155125D01*
X43019Y1155211D01*
X42908Y1155300D01*
X42798Y1155393D01*
X42692Y1155488D01*
X42588Y1155587D01*
X42487Y1155688D01*
X42388Y1155792D01*
X42293Y1155898D01*
X42200Y1156008D01*
X42111Y1156119D01*
X42025Y1156234D01*
X41942Y1156350D01*
X41862Y1156469D01*
X41785Y1156590D01*
X41712Y1156713D01*
X41642Y1156837D01*
X41576Y1156964D01*
X41513Y1157093D01*
X41453Y1157223D01*
X41398Y1157355D01*
X41346Y1157488D01*
X41297Y1157623D01*
X41253Y1157759D01*
X41212Y1157896D01*
X41175Y1158034D01*
X41142Y1158173D01*
X41112Y1158313D01*
X41087Y1158454D01*
X41065Y1158596D01*
X41048Y1158738D01*
X41034Y1158880D01*
X41024Y1159023D01*
X41018Y1159166D01*
X41016Y1159309D01*
X41016Y1172291D01*
X41018Y1172434D01*
X41024Y1172577D01*
X41034Y1172720D01*
X41048Y1172862D01*
X41065Y1173004D01*
X41087Y1173146D01*
X41112Y1173287D01*
X41142Y1173427D01*
X41175Y1173566D01*
X41212Y1173704D01*
X41253Y1173841D01*
X41297Y1173977D01*
X41346Y1174112D01*
X41398Y1174245D01*
X41453Y1174377D01*
X41513Y1174507D01*
X41576Y1174636D01*
X41642Y1174763D01*
X41712Y1174887D01*
X41785Y1175010D01*
X41862Y1175131D01*
X41942Y1175250D01*
X42025Y1175366D01*
X42111Y1175481D01*
X42200Y1175592D01*
X42293Y1175702D01*
X42388Y1175808D01*
X42487Y1175912D01*
X42588Y1176013D01*
X42692Y1176112D01*
X42798Y1176207D01*
X42908Y1176300D01*
X43019Y1176389D01*
X43134Y1176475D01*
X43250Y1176558D01*
X43369Y1176638D01*
X43490Y1176715D01*
X43612Y1176788D01*
X43737Y1176858D01*
X43864Y1176924D01*
X43993Y1176987D01*
X44123Y1177047D01*
X44255Y1177102D01*
X44388Y1177154D01*
X44523Y1177203D01*
X44659Y1177247D01*
X44796Y1177288D01*
X44934Y1177325D01*
X45073Y1177358D01*
X45213Y1177388D01*
X45354Y1177413D01*
X45496Y1177435D01*
X45638Y1177452D01*
X45780Y1177466D01*
X45923Y1177476D01*
X46066Y1177482D01*
X46209Y1177484D01*
X53998Y1177484D01*
X69082Y1177484D02*
X61293Y1154116D01*
X76871Y1154116D02*
X69082Y1177484D01*
X74924Y1159958D02*
X63240Y1159958D01*
X88569Y1154116D02*
X88569Y1177484D01*
X82078Y1177484D02*
X95060Y1177484D01*
X102285Y1154116D02*
X112670Y1154116D01*
X102285Y1154116D02*
X102285Y1177484D01*
X112670Y1177484D01*
X110074Y1167098D02*
X102285Y1167098D01*
X43612Y1139384D02*
X43612Y1116016D01*
X41016Y1116016D02*
X46209Y1116016D01*
X46209Y1139384D02*
X41016Y1139384D01*
X54520Y1139384D02*
X54520Y1116016D01*
X67503Y1116016D02*
X54520Y1139384D01*
X67503Y1139384D02*
X67503Y1116016D01*
X181016Y1154116D02*
X181016Y1177484D01*
X187507Y1177484D01*
X187666Y1177482D01*
X187825Y1177476D01*
X187985Y1177466D01*
X188143Y1177453D01*
X188302Y1177435D01*
X188459Y1177414D01*
X188617Y1177388D01*
X188773Y1177359D01*
X188929Y1177326D01*
X189084Y1177289D01*
X189238Y1177249D01*
X189391Y1177204D01*
X189543Y1177156D01*
X189694Y1177105D01*
X189843Y1177049D01*
X189991Y1176990D01*
X190137Y1176927D01*
X190282Y1176861D01*
X190425Y1176791D01*
X190567Y1176718D01*
X190706Y1176641D01*
X190844Y1176561D01*
X190980Y1176477D01*
X191113Y1176390D01*
X191245Y1176300D01*
X191374Y1176207D01*
X191500Y1176110D01*
X191625Y1176011D01*
X191747Y1175908D01*
X191866Y1175803D01*
X191983Y1175694D01*
X192097Y1175583D01*
X192208Y1175469D01*
X192317Y1175352D01*
X192422Y1175233D01*
X192525Y1175111D01*
X192624Y1174986D01*
X192721Y1174860D01*
X192814Y1174731D01*
X192904Y1174599D01*
X192991Y1174466D01*
X193075Y1174330D01*
X193155Y1174192D01*
X193232Y1174053D01*
X193305Y1173911D01*
X193375Y1173768D01*
X193441Y1173623D01*
X193504Y1173477D01*
X193563Y1173329D01*
X193619Y1173180D01*
X193670Y1173029D01*
X193718Y1172877D01*
X193763Y1172724D01*
X193803Y1172570D01*
X193840Y1172415D01*
X193873Y1172259D01*
X193902Y1172103D01*
X193928Y1171945D01*
X193949Y1171788D01*
X193967Y1171629D01*
X193980Y1171471D01*
X193990Y1171311D01*
X193996Y1171152D01*
X193998Y1170993D01*
X193996Y1170834D01*
X193990Y1170675D01*
X193980Y1170515D01*
X193967Y1170357D01*
X193949Y1170198D01*
X193928Y1170041D01*
X193902Y1169883D01*
X193873Y1169727D01*
X193840Y1169571D01*
X193803Y1169416D01*
X193763Y1169262D01*
X193718Y1169109D01*
X193670Y1168957D01*
X193619Y1168806D01*
X193563Y1168657D01*
X193504Y1168509D01*
X193441Y1168363D01*
X193375Y1168218D01*
X193305Y1168075D01*
X193232Y1167933D01*
X193155Y1167794D01*
X193075Y1167656D01*
X192991Y1167520D01*
X192904Y1167387D01*
X192814Y1167255D01*
X192721Y1167126D01*
X192624Y1167000D01*
X192525Y1166875D01*
X192422Y1166753D01*
X192317Y1166634D01*
X192208Y1166517D01*
X192097Y1166403D01*
X191983Y1166292D01*
X191866Y1166183D01*
X191747Y1166078D01*
X191625Y1165975D01*
X191500Y1165876D01*
X191374Y1165779D01*
X191245Y1165686D01*
X191113Y1165596D01*
X190980Y1165509D01*
X190844Y1165425D01*
X190706Y1165345D01*
X190567Y1165268D01*
X190425Y1165195D01*
X190282Y1165125D01*
X190137Y1165059D01*
X189991Y1164996D01*
X189843Y1164937D01*
X189694Y1164881D01*
X189543Y1164830D01*
X189391Y1164782D01*
X189238Y1164737D01*
X189084Y1164697D01*
X188929Y1164660D01*
X188773Y1164627D01*
X188617Y1164598D01*
X188459Y1164572D01*
X188302Y1164551D01*
X188143Y1164533D01*
X187985Y1164520D01*
X187825Y1164510D01*
X187666Y1164504D01*
X187507Y1164502D01*
X181016Y1164502D01*
X203367Y1154116D02*
X203367Y1177484D01*
X200770Y1154116D02*
X205963Y1154116D01*
X205963Y1177484D02*
X200770Y1177484D01*
X218678Y1177484D02*
X218678Y1154116D01*
X212187Y1177484D02*
X225169Y1177484D01*
X236843Y1154116D02*
X242036Y1154116D01*
X236843Y1154116D02*
X236700Y1154118D01*
X236557Y1154124D01*
X236414Y1154134D01*
X236272Y1154148D01*
X236130Y1154165D01*
X235988Y1154187D01*
X235847Y1154212D01*
X235707Y1154242D01*
X235568Y1154275D01*
X235430Y1154312D01*
X235293Y1154353D01*
X235157Y1154397D01*
X235022Y1154446D01*
X234889Y1154498D01*
X234757Y1154553D01*
X234627Y1154613D01*
X234498Y1154676D01*
X234371Y1154742D01*
X234246Y1154812D01*
X234124Y1154885D01*
X234003Y1154962D01*
X233884Y1155042D01*
X233768Y1155125D01*
X233653Y1155211D01*
X233542Y1155300D01*
X233432Y1155393D01*
X233326Y1155488D01*
X233222Y1155587D01*
X233121Y1155688D01*
X233022Y1155792D01*
X232927Y1155898D01*
X232834Y1156008D01*
X232745Y1156119D01*
X232659Y1156234D01*
X232576Y1156350D01*
X232496Y1156469D01*
X232419Y1156590D01*
X232346Y1156713D01*
X232276Y1156837D01*
X232210Y1156964D01*
X232147Y1157093D01*
X232087Y1157223D01*
X232032Y1157355D01*
X231980Y1157488D01*
X231931Y1157623D01*
X231887Y1157759D01*
X231846Y1157896D01*
X231809Y1158034D01*
X231776Y1158173D01*
X231746Y1158313D01*
X231721Y1158454D01*
X231699Y1158596D01*
X231682Y1158738D01*
X231668Y1158880D01*
X231658Y1159023D01*
X231652Y1159166D01*
X231650Y1159309D01*
X231650Y1172291D01*
X231652Y1172434D01*
X231658Y1172577D01*
X231668Y1172720D01*
X231682Y1172862D01*
X231699Y1173004D01*
X231721Y1173146D01*
X231746Y1173287D01*
X231776Y1173427D01*
X231809Y1173566D01*
X231846Y1173704D01*
X231887Y1173841D01*
X231931Y1173977D01*
X231980Y1174112D01*
X232032Y1174245D01*
X232087Y1174377D01*
X232147Y1174507D01*
X232210Y1174636D01*
X232276Y1174763D01*
X232346Y1174887D01*
X232419Y1175010D01*
X232496Y1175131D01*
X232576Y1175250D01*
X232659Y1175366D01*
X232745Y1175481D01*
X232834Y1175592D01*
X232927Y1175702D01*
X233022Y1175808D01*
X233121Y1175912D01*
X233222Y1176013D01*
X233326Y1176112D01*
X233432Y1176207D01*
X233542Y1176300D01*
X233653Y1176389D01*
X233768Y1176475D01*
X233884Y1176558D01*
X234003Y1176638D01*
X234124Y1176715D01*
X234246Y1176788D01*
X234371Y1176858D01*
X234498Y1176924D01*
X234627Y1176987D01*
X234757Y1177047D01*
X234889Y1177102D01*
X235022Y1177154D01*
X235157Y1177203D01*
X235293Y1177247D01*
X235430Y1177288D01*
X235568Y1177325D01*
X235707Y1177358D01*
X235847Y1177388D01*
X235988Y1177413D01*
X236130Y1177435D01*
X236272Y1177452D01*
X236414Y1177466D01*
X236557Y1177476D01*
X236700Y1177482D01*
X236843Y1177484D01*
X242036Y1177484D01*
X249768Y1177484D02*
X249768Y1154116D01*
X249768Y1167098D02*
X262751Y1167098D01*
X262751Y1177484D02*
X262751Y1154116D01*
X183612Y1139384D02*
X183612Y1116016D01*
X181016Y1116016D02*
X186209Y1116016D01*
X186209Y1139384D02*
X181016Y1139384D01*
X194520Y1139384D02*
X194520Y1116016D01*
X207503Y1116016D02*
X194520Y1139384D01*
X207503Y1139384D02*
X207503Y1116016D01*
D46*
X92000Y588500D03*
D47*
X94250Y589000D03*
X94250Y589500D03*
X94250Y590000D03*
D48*
X115250Y590000D03*
D49*
X148250Y590000D03*
D47*
X94250Y590500D03*
D50*
X114000Y590500D03*
X94500Y591000D03*
X114000Y591000D03*
X94500Y591500D03*
X114000Y591500D03*
X94500Y592000D03*
X114000Y592000D03*
X94500Y592500D03*
X114000Y592500D03*
X94500Y593000D03*
X114000Y593000D03*
X94500Y593500D03*
X114000Y593500D03*
X94500Y594000D03*
X114000Y594000D03*
X94500Y594500D03*
X114000Y594500D03*
D51*
X96500Y595000D03*
D52*
X113750Y595000D03*
D53*
X128750Y595000D03*
D48*
X151250Y595000D03*
D51*
X96500Y595500D03*
D52*
X113750Y595500D03*
D53*
X128750Y595500D03*
D48*
X151250Y595500D03*
D54*
X60750Y596000D03*
D55*
X78250Y596000D03*
D56*
X95000Y596000D03*
D48*
X108250Y596000D03*
D52*
X113750Y596000D03*
D50*
X129500Y596000D03*
D57*
X148500Y596000D03*
D58*
X62250Y596500D03*
D55*
X78250Y596500D03*
D56*
X95000Y596500D03*
D48*
X108750Y596500D03*
D56*
X113500Y596500D03*
X130000Y596500D03*
D59*
X137000Y596500D03*
D57*
X148500Y596500D03*
D58*
X62250Y597000D03*
D55*
X78250Y597000D03*
D56*
X95000Y597000D03*
D48*
X108750Y597000D03*
D56*
X113500Y597000D03*
X130000Y597000D03*
D59*
X137000Y597000D03*
D57*
X148500Y597000D03*
D60*
X62500Y597500D03*
D61*
X78000Y597500D03*
D56*
X95000Y597500D03*
D48*
X108750Y597500D03*
D56*
X113500Y597500D03*
D62*
X131250Y597500D03*
D46*
X137500Y597500D03*
D57*
X148500Y597500D03*
D63*
X62750Y598000D03*
D61*
X78000Y598000D03*
D57*
X95500Y598000D03*
D48*
X108750Y598000D03*
D56*
X113500Y598000D03*
D58*
X132250Y598000D03*
D57*
X148500Y598000D03*
D60*
X62500Y598500D03*
D61*
X78000Y598500D03*
D54*
X95750Y598500D03*
D62*
X112250Y598500D03*
D64*
X133250Y598500D03*
D46*
X141000Y598500D03*
D57*
X148500Y598500D03*
D60*
X62500Y599000D03*
D61*
X78000Y599000D03*
D54*
X95750Y599000D03*
D62*
X112250Y599000D03*
D64*
X133250Y599000D03*
D46*
X141000Y599000D03*
D57*
X148500Y599000D03*
D63*
X62750Y599500D03*
D61*
X78000Y599500D03*
D65*
X98500Y599500D03*
D62*
X112250Y599500D03*
D66*
X134750Y599500D03*
D57*
X148500Y599500D03*
D67*
X70000Y600000D03*
D68*
X104250Y600000D03*
D69*
X139500Y600000D03*
D67*
X70000Y600500D03*
D68*
X104250Y600500D03*
D69*
X139500Y600500D03*
D67*
X70000Y601000D03*
D68*
X104250Y601000D03*
X139250Y601000D03*
D70*
X69750Y601500D03*
D68*
X104250Y601500D03*
X139250Y601500D03*
D70*
X69750Y602000D03*
D68*
X104250Y602000D03*
X139250Y602000D03*
D48*
X57750Y602500D03*
D71*
X71750Y602500D03*
D59*
X92500Y602500D03*
D72*
X106500Y602500D03*
D68*
X139250Y602500D03*
D48*
X57750Y603000D03*
D50*
X80000Y603000D03*
D59*
X92500Y603000D03*
D73*
X107000Y603000D03*
D49*
X127250Y603000D03*
D74*
X149500Y603000D03*
D48*
X57750Y603500D03*
D50*
X80000Y603500D03*
D59*
X92500Y603500D03*
D73*
X107000Y603500D03*
D49*
X127250Y603500D03*
D74*
X149500Y603500D03*
D48*
X57750Y604000D03*
D50*
X80000Y604000D03*
D59*
X92500Y604000D03*
D75*
X109750Y604000D03*
D49*
X127250Y604000D03*
D46*
X143500Y604000D03*
D50*
X149500Y604000D03*
D48*
X57750Y604500D03*
D46*
X73500Y604500D03*
D50*
X80000Y604500D03*
D48*
X92250Y604500D03*
D52*
X113750Y604500D03*
D49*
X127250Y604500D03*
D46*
X143500Y604500D03*
D50*
X149500Y604500D03*
D48*
X57750Y605000D03*
D46*
X73500Y605000D03*
D50*
X80000Y605000D03*
D48*
X92250Y605000D03*
D52*
X113750Y605000D03*
D49*
X127250Y605000D03*
D46*
X143500Y605000D03*
D50*
X149500Y605000D03*
D76*
X58000Y605500D03*
D46*
X73500Y605500D03*
D50*
X80000Y605500D03*
D48*
X92250Y605500D03*
D52*
X113750Y605500D03*
D49*
X127250Y605500D03*
D50*
X149500Y605500D03*
D76*
X58000Y606000D03*
D46*
X73500Y606000D03*
D50*
X80000Y606000D03*
D48*
X92250Y606000D03*
D52*
X113750Y606000D03*
D49*
X127250Y606000D03*
D50*
X149500Y606000D03*
D76*
X58000Y606500D03*
D46*
X73500Y606500D03*
D50*
X80000Y606500D03*
D48*
X92250Y606500D03*
D52*
X113750Y606500D03*
D49*
X127250Y606500D03*
D50*
X149500Y606500D03*
D53*
X58250Y607000D03*
D49*
X73250Y607000D03*
D50*
X80000Y607000D03*
D59*
X92500Y607000D03*
D52*
X113750Y607000D03*
D74*
X129000Y607000D03*
D46*
X143500Y607000D03*
D52*
X149250Y607000D03*
D77*
X58500Y607500D03*
D55*
X77750Y607500D03*
D48*
X92750Y607500D03*
D46*
X97000Y607500D03*
D49*
X107750Y607500D03*
D78*
X113250Y607500D03*
D47*
X129250Y607500D03*
D55*
X147250Y607500D03*
D77*
X58500Y608000D03*
D55*
X77750Y608000D03*
D48*
X92750Y608000D03*
D46*
X97000Y608000D03*
D49*
X107750Y608000D03*
D78*
X113250Y608000D03*
D47*
X129250Y608000D03*
D55*
X147250Y608000D03*
D70*
X69750Y608500D03*
D68*
X104250Y608500D03*
D69*
X139500Y608500D03*
D70*
X69750Y609000D03*
D68*
X104250Y609000D03*
D69*
X139500Y609000D03*
D70*
X69750Y609500D03*
D56*
X95000Y609500D03*
D79*
X108250Y609500D03*
D69*
X139500Y609500D03*
D70*
X69750Y610000D03*
D52*
X94750Y610000D03*
D80*
X109000Y610000D03*
D69*
X139500Y610000D03*
D70*
X69750Y610500D03*
D52*
X94750Y610500D03*
D81*
X109250Y610500D03*
D69*
X139500Y610500D03*
D70*
X69750Y611000D03*
D52*
X94750Y611000D03*
D81*
X109250Y611000D03*
D69*
X139500Y611000D03*
D70*
X69750Y611500D03*
D52*
X94750Y611500D03*
D81*
X109250Y611500D03*
D69*
X139500Y611500D03*
D70*
X69750Y612000D03*
D52*
X94750Y612000D03*
D81*
X109250Y612000D03*
D69*
X139500Y612000D03*
D70*
X69750Y612500D03*
D52*
X94750Y612500D03*
D81*
X109250Y612500D03*
D69*
X139500Y612500D03*
D70*
X69750Y613000D03*
D56*
X95000Y613000D03*
D81*
X109250Y613000D03*
D69*
X139500Y613000D03*
D70*
X69750Y613500D03*
D68*
X104250Y613500D03*
D48*
X127750Y613500D03*
D49*
X131250Y613500D03*
D80*
X144500Y613500D03*
D70*
X69750Y614000D03*
D68*
X104250Y614000D03*
D48*
X127750Y614000D03*
D49*
X131250Y614000D03*
D80*
X144500Y614000D03*
D46*
X57000Y614500D03*
D61*
X77500Y614500D03*
D68*
X104250Y614500D03*
D49*
X126750Y614500D03*
X131250Y614500D03*
D56*
X149000Y614500D03*
D53*
X73750Y615000D03*
D52*
X79750Y615000D03*
D68*
X104250Y615000D03*
D49*
X126750Y615000D03*
X131250Y615000D03*
D52*
X149250Y615000D03*
D53*
X73750Y615500D03*
D52*
X79250Y615500D03*
D68*
X104250Y615500D03*
D46*
X126500Y615500D03*
D49*
X131250Y615500D03*
D52*
X149250Y615500D03*
D46*
X57500Y616000D03*
D76*
X73500Y616000D03*
D50*
X79500Y616000D03*
D68*
X104250Y616000D03*
D46*
X118000Y616000D03*
X126500Y616000D03*
D59*
X131500Y616000D03*
D52*
X149250Y616000D03*
D46*
X57500Y616500D03*
D59*
X73000Y616500D03*
D50*
X79500Y616500D03*
D68*
X104250Y616500D03*
D46*
X126500Y616500D03*
D59*
X131500Y616500D03*
D52*
X149250Y616500D03*
D46*
X57500Y617000D03*
D59*
X73000Y617000D03*
D50*
X79500Y617000D03*
D68*
X104250Y617000D03*
D46*
X126500Y617000D03*
D59*
X131500Y617000D03*
D52*
X149250Y617000D03*
D46*
X57500Y617500D03*
D75*
X75250Y617500D03*
D68*
X104750Y617500D03*
D46*
X126500Y617500D03*
D59*
X131500Y617500D03*
D77*
X143500Y617500D03*
D52*
X149250Y617500D03*
D53*
X58250Y618000D03*
D82*
X71500Y618000D03*
D69*
X104500Y618000D03*
D46*
X126500Y618000D03*
D82*
X141500Y618000D03*
D53*
X58250Y618500D03*
D82*
X71500Y618500D03*
D69*
X104500Y618500D03*
D46*
X126500Y618500D03*
D82*
X141500Y618500D03*
D69*
X69500Y619000D03*
X104500Y619000D03*
D46*
X126500Y619000D03*
D82*
X141500Y619000D03*
D69*
X69500Y619500D03*
D49*
X87750Y619500D03*
D69*
X104500Y619500D03*
D70*
X139250Y619500D03*
D69*
X69500Y620000D03*
D76*
X88500Y620000D03*
D83*
X105250Y620000D03*
D70*
X139250Y620000D03*
D69*
X69500Y620500D03*
D76*
X88500Y620500D03*
D83*
X105250Y620500D03*
D70*
X139250Y620500D03*
D69*
X69500Y621000D03*
D50*
X90000Y621000D03*
D84*
X114500Y621000D03*
D70*
X139250Y621000D03*
D69*
X69500Y621500D03*
D50*
X90000Y621500D03*
D49*
X107750Y621500D03*
D55*
X116250Y621500D03*
D52*
X129250Y621500D03*
D79*
X143750Y621500D03*
D69*
X69500Y622000D03*
D50*
X90000Y622000D03*
D49*
X107750Y622000D03*
D55*
X116250Y622000D03*
D52*
X129250Y622000D03*
D79*
X143750Y622000D03*
D59*
X58000Y622500D03*
D49*
X72750Y622500D03*
D52*
X79250Y622500D03*
D50*
X90000Y622500D03*
D49*
X107750Y622500D03*
D55*
X116250Y622500D03*
D52*
X129250Y622500D03*
D59*
X142500Y622500D03*
D78*
X148750Y622500D03*
D49*
X57750Y623000D03*
D46*
X61000Y623000D03*
X72500Y623000D03*
D52*
X79250Y623000D03*
D50*
X90000Y623000D03*
D49*
X107750Y623000D03*
D55*
X116250Y623000D03*
D52*
X129250Y623000D03*
D49*
X142250Y623000D03*
D78*
X148750Y623000D03*
D49*
X57750Y623500D03*
D46*
X72500Y623500D03*
D52*
X79250Y623500D03*
D50*
X90000Y623500D03*
D49*
X107750Y623500D03*
D55*
X116250Y623500D03*
D52*
X129250Y623500D03*
D49*
X142250Y623500D03*
D78*
X148750Y623500D03*
D49*
X57750Y624000D03*
D46*
X72500Y624000D03*
D52*
X79250Y624000D03*
D50*
X90000Y624000D03*
D49*
X107750Y624000D03*
D55*
X116250Y624000D03*
D52*
X129250Y624000D03*
D49*
X142250Y624000D03*
D78*
X148750Y624000D03*
D59*
X58000Y624500D03*
D46*
X72500Y624500D03*
D52*
X79250Y624500D03*
D50*
X90000Y624500D03*
D49*
X107750Y624500D03*
D55*
X116250Y624500D03*
D52*
X129250Y624500D03*
D49*
X142250Y624500D03*
D78*
X148750Y624500D03*
D76*
X58500Y625000D03*
D46*
X72500Y625000D03*
D52*
X79250Y625000D03*
D47*
X90250Y625000D03*
D49*
X107750Y625000D03*
D55*
X116250Y625000D03*
D52*
X129250Y625000D03*
D49*
X142250Y625000D03*
D78*
X148750Y625000D03*
D76*
X58500Y625500D03*
D46*
X72500Y625500D03*
D52*
X79250Y625500D03*
D47*
X90250Y625500D03*
D49*
X107750Y625500D03*
D55*
X116250Y625500D03*
D52*
X129250Y625500D03*
D49*
X142250Y625500D03*
D78*
X148750Y625500D03*
D85*
X59250Y626000D03*
D49*
X69250Y626000D03*
X72750Y626000D03*
D52*
X79250Y626000D03*
D47*
X90250Y626000D03*
D62*
X98750Y626000D03*
D46*
X107500Y626000D03*
D55*
X116250Y626000D03*
D52*
X129250Y626000D03*
D49*
X142250Y626000D03*
D78*
X148750Y626000D03*
D68*
X69750Y626500D03*
D86*
X104500Y626500D03*
D70*
X139250Y626500D03*
D68*
X69750Y627000D03*
D86*
X104500Y627000D03*
D70*
X139250Y627000D03*
D68*
X69750Y627500D03*
D86*
X104500Y627500D03*
D69*
X139000Y627500D03*
D68*
X69750Y628000D03*
D86*
X104500Y628000D03*
D49*
X127250Y628000D03*
D71*
X140750Y628000D03*
D68*
X69750Y628500D03*
D86*
X104500Y628500D03*
D49*
X127250Y628500D03*
D71*
X140750Y628500D03*
D75*
X64250Y629000D03*
D52*
X74750Y629000D03*
D50*
X90500Y629000D03*
D87*
X111750Y629000D03*
D46*
X127000Y629000D03*
D77*
X131000Y629000D03*
D66*
X143750Y629000D03*
D50*
X60000Y629500D03*
D59*
X69000Y629500D03*
D52*
X74750Y629500D03*
D47*
X90250Y629500D03*
D87*
X111750Y629500D03*
D46*
X127000Y629500D03*
D85*
X130750Y629500D03*
D61*
X146500Y629500D03*
D50*
X60000Y630000D03*
D48*
X69250Y630000D03*
D52*
X74750Y630000D03*
D47*
X90250Y630000D03*
D87*
X111750Y630000D03*
D46*
X127000Y630000D03*
D47*
X130250Y630000D03*
D61*
X146500Y630000D03*
D50*
X60000Y630500D03*
D48*
X69250Y630500D03*
D52*
X74750Y630500D03*
D47*
X90250Y630500D03*
D87*
X111750Y630500D03*
D46*
X127000Y630500D03*
D47*
X130250Y630500D03*
D61*
X146500Y630500D03*
D50*
X60000Y631000D03*
D48*
X69250Y631000D03*
D52*
X74750Y631000D03*
D47*
X90250Y631000D03*
D87*
X111750Y631000D03*
D46*
X127000Y631000D03*
D47*
X130250Y631000D03*
D61*
X146500Y631000D03*
D50*
X60000Y631500D03*
D48*
X69250Y631500D03*
D52*
X74750Y631500D03*
D56*
X91000Y631500D03*
D88*
X111500Y631500D03*
D52*
X129750Y631500D03*
D61*
X146500Y631500D03*
D50*
X60000Y632000D03*
D59*
X69000Y632000D03*
D52*
X74750Y632000D03*
D60*
X93500Y632000D03*
D88*
X111500Y632000D03*
D52*
X129750Y632000D03*
D61*
X146500Y632000D03*
D50*
X60000Y632500D03*
D59*
X69000Y632500D03*
D52*
X74750Y632500D03*
D89*
X104250Y632500D03*
D52*
X129750Y632500D03*
D61*
X146500Y632500D03*
D50*
X60000Y633000D03*
D59*
X69000Y633000D03*
D52*
X74750Y633000D03*
D89*
X104250Y633000D03*
D52*
X129750Y633000D03*
D61*
X146500Y633000D03*
D50*
X60000Y633500D03*
D59*
X69000Y633500D03*
D52*
X74750Y633500D03*
D90*
X104000Y633500D03*
D52*
X129750Y633500D03*
D61*
X146500Y633500D03*
D69*
X69500Y634000D03*
D46*
X88500Y634000D03*
D91*
X104750Y634000D03*
D52*
X129750Y634000D03*
D65*
X145000Y634000D03*
D69*
X69500Y634500D03*
D46*
X88500Y634500D03*
D91*
X104750Y634500D03*
D52*
X129750Y634500D03*
D65*
X145000Y634500D03*
D92*
X72500Y635000D03*
D46*
X92500Y635000D03*
D93*
X102000Y635000D03*
D48*
X112250Y635000D03*
D59*
X115000Y635000D03*
D94*
X134250Y635000D03*
D92*
X72500Y635500D03*
D48*
X112750Y635500D03*
D94*
X134250Y635500D03*
D92*
X72500Y636000D03*
D48*
X112750Y636000D03*
D94*
X134250Y636000D03*
D92*
X72500Y636500D03*
D53*
X113250Y636500D03*
D94*
X134250Y636500D03*
D85*
X58750Y637000D03*
D83*
X74750Y637000D03*
D85*
X113250Y637000D03*
D94*
X134250Y637000D03*
D85*
X58750Y637500D03*
D83*
X74750Y637500D03*
D85*
X113250Y637500D03*
D94*
X134250Y637500D03*
D47*
X59250Y638000D03*
D69*
X75500Y638000D03*
D46*
X92000Y638000D03*
D85*
X113250Y638000D03*
D68*
X128750Y638000D03*
D55*
X147250Y638000D03*
D47*
X59250Y638500D03*
D77*
X70000Y638500D03*
D87*
X81250Y638500D03*
D46*
X92000Y638500D03*
D53*
X112750Y638500D03*
D95*
X124500Y638500D03*
D53*
X143750Y638500D03*
D56*
X149000Y638500D03*
D47*
X59250Y639000D03*
D77*
X70000Y639000D03*
D87*
X81250Y639000D03*
D46*
X92000Y639000D03*
D53*
X112750Y639000D03*
D95*
X124500Y639000D03*
D53*
X143750Y639000D03*
D56*
X149000Y639000D03*
D50*
X59500Y639500D03*
D48*
X69250Y639500D03*
D96*
X82250Y639500D03*
D82*
X122000Y639500D03*
D55*
X147250Y639500D03*
D50*
X59500Y640000D03*
D59*
X69000Y640000D03*
D96*
X82250Y640000D03*
D82*
X122000Y640000D03*
D53*
X143750Y640000D03*
D56*
X149000Y640000D03*
D50*
X59500Y640500D03*
D48*
X69250Y640500D03*
D97*
X83750Y640500D03*
D68*
X120250Y640500D03*
D46*
X137500Y640500D03*
D76*
X143500Y640500D03*
D56*
X149000Y640500D03*
D50*
X59500Y641000D03*
D48*
X69250Y641000D03*
D97*
X83750Y641000D03*
D68*
X120250Y641000D03*
D46*
X137500Y641000D03*
D76*
X143500Y641000D03*
D56*
X149000Y641000D03*
D50*
X59500Y641500D03*
D76*
X69000Y641500D03*
D98*
X102250Y641500D03*
D46*
X137500Y641500D03*
D76*
X143500Y641500D03*
D56*
X149000Y641500D03*
D50*
X59500Y642000D03*
D99*
X100250Y642000D03*
D46*
X137500Y642000D03*
D55*
X147250Y642000D03*
D50*
X59500Y642500D03*
D99*
X100250Y642500D03*
D46*
X137500Y642500D03*
D55*
X147250Y642500D03*
D46*
X22500Y643000D03*
D73*
X41500Y643000D03*
D50*
X59500Y643000D03*
D100*
X77250Y643000D03*
D101*
X120250Y643000D03*
D102*
X55000Y643500D03*
D103*
X138500Y643500D03*
D102*
X55000Y644000D03*
D46*
X92500Y644000D03*
D104*
X140000Y644000D03*
D102*
X55000Y644500D03*
D46*
X92500Y644500D03*
D104*
X140000Y644500D03*
D102*
X55000Y645000D03*
D52*
X106750Y645000D03*
D105*
X147750Y645000D03*
D102*
X55000Y645500D03*
D46*
X107500Y645500D03*
D106*
X148000Y645500D03*
D102*
X55000Y646000D03*
D46*
X107500Y646000D03*
D106*
X148000Y646000D03*
D102*
X55000Y646500D03*
D46*
X92000Y646500D03*
X107500Y646500D03*
D106*
X148000Y646500D03*
D107*
X54750Y647000D03*
D46*
X92000Y647000D03*
X107500Y647000D03*
D106*
X148000Y647000D03*
D107*
X54750Y647500D03*
D46*
X92000Y647500D03*
X107500Y647500D03*
D106*
X148000Y647500D03*
D107*
X54750Y648000D03*
D46*
X92000Y648000D03*
X107500Y648000D03*
D106*
X148000Y648000D03*
D108*
X57000Y648500D03*
D46*
X107500Y648500D03*
D106*
X148000Y648500D03*
D108*
X57000Y649000D03*
D46*
X107500Y649000D03*
D106*
X148000Y649000D03*
D108*
X57000Y649500D03*
D46*
X107500Y649500D03*
D106*
X148000Y649500D03*
D109*
X57250Y650000D03*
D46*
X107500Y650000D03*
D106*
X148000Y650000D03*
D110*
X59750Y650500D03*
D111*
X146000Y650500D03*
D110*
X59750Y651000D03*
D111*
X146000Y651000D03*
D112*
X103250Y651500D03*
D113*
X103500Y652000D03*
D50*
X24500Y652500D03*
D47*
X55250Y652500D03*
D74*
X65000Y652500D03*
D85*
X74250Y652500D03*
D114*
X100250Y652500D03*
D46*
X127000Y652500D03*
D83*
X154750Y652500D03*
D61*
X180000Y652500D03*
D50*
X24500Y653000D03*
D47*
X55250Y653000D03*
D74*
X65000Y653000D03*
D85*
X74250Y653000D03*
D114*
X100250Y653000D03*
D46*
X127000Y653000D03*
D83*
X154750Y653000D03*
D61*
X180000Y653000D03*
D50*
X24500Y653500D03*
D115*
X103000Y653500D03*
D77*
X126000Y653500D03*
D50*
X182500Y653500D03*
X24500Y654000D03*
D49*
X77750Y654000D03*
D116*
X105250Y654000D03*
D50*
X182500Y654000D03*
X24500Y654500D03*
D49*
X77750Y654500D03*
D116*
X105250Y654500D03*
D50*
X182500Y654500D03*
X24500Y655000D03*
D49*
X77750Y655000D03*
D116*
X105250Y655000D03*
D50*
X182500Y655000D03*
X24500Y655500D03*
D49*
X77750Y655500D03*
D116*
X105250Y655500D03*
D50*
X182500Y655500D03*
X24500Y656000D03*
D49*
X77750Y656000D03*
D116*
X105250Y656000D03*
D50*
X182500Y656000D03*
X24500Y656500D03*
D49*
X77750Y656500D03*
D50*
X85500Y656500D03*
D117*
X109500Y656500D03*
D50*
X182500Y656500D03*
X24500Y657000D03*
D49*
X77750Y657000D03*
D50*
X85500Y657000D03*
D118*
X113750Y657000D03*
D50*
X182500Y657000D03*
X24500Y657500D03*
D49*
X77750Y657500D03*
D50*
X85500Y657500D03*
D48*
X112750Y657500D03*
D60*
X122000Y657500D03*
D50*
X182500Y657500D03*
X24500Y658000D03*
D49*
X77750Y658000D03*
D50*
X85500Y658000D03*
D48*
X112750Y658000D03*
D60*
X122000Y658000D03*
D50*
X182500Y658000D03*
X24500Y658500D03*
D49*
X77750Y658500D03*
D50*
X85500Y658500D03*
D66*
X119750Y658500D03*
D50*
X182500Y658500D03*
D52*
X24250Y659000D03*
D59*
X78000Y659000D03*
D50*
X85500Y659000D03*
D66*
X119750Y659000D03*
D50*
X182500Y659000D03*
D52*
X24250Y659500D03*
D59*
X78000Y659500D03*
D47*
X85250Y659500D03*
D66*
X119750Y659500D03*
D50*
X182500Y659500D03*
D52*
X24250Y660000D03*
D77*
X30000Y660000D03*
D50*
X85500Y660000D03*
D95*
X120000Y660000D03*
D50*
X182500Y660000D03*
D48*
X22250Y660500D03*
D47*
X29250Y660500D03*
D50*
X85500Y660500D03*
D66*
X119750Y660500D03*
D61*
X180000Y660500D03*
D47*
X29250Y661000D03*
D50*
X85500Y661000D03*
D66*
X119750Y661000D03*
D50*
X177500Y661000D03*
D47*
X29250Y661500D03*
D50*
X85500Y661500D03*
D66*
X119750Y661500D03*
D50*
X177500Y661500D03*
D47*
X29250Y662000D03*
D50*
X85500Y662000D03*
D66*
X119750Y662000D03*
D50*
X177500Y662000D03*
D47*
X29250Y662500D03*
D52*
X85250Y662500D03*
D60*
X117500Y662500D03*
D85*
X125750Y662500D03*
D50*
X177500Y662500D03*
D47*
X29250Y663000D03*
D52*
X85250Y663000D03*
D60*
X117500Y663000D03*
D85*
X125750Y663000D03*
D50*
X177500Y663000D03*
D47*
X29250Y663500D03*
D52*
X85250Y663500D03*
D60*
X117500Y663500D03*
D85*
X125750Y663500D03*
D50*
X177500Y663500D03*
D47*
X29250Y664000D03*
D52*
X85250Y664000D03*
D60*
X117500Y664000D03*
D85*
X125750Y664000D03*
D50*
X177500Y664000D03*
D47*
X29250Y664500D03*
D52*
X85250Y664500D03*
D60*
X117500Y664500D03*
D85*
X125750Y664500D03*
D50*
X177500Y664500D03*
D47*
X29250Y665000D03*
D52*
X85250Y665000D03*
D60*
X117500Y665000D03*
D85*
X125750Y665000D03*
D50*
X177500Y665000D03*
D47*
X29250Y665500D03*
D52*
X85250Y665500D03*
D60*
X117500Y665500D03*
D85*
X125750Y665500D03*
D50*
X177500Y665500D03*
D47*
X29250Y666000D03*
D52*
X85250Y666000D03*
D60*
X117500Y666000D03*
D85*
X125750Y666000D03*
D59*
X170500Y666000D03*
D52*
X177750Y666000D03*
D47*
X29250Y666500D03*
D52*
X85250Y666500D03*
D60*
X117500Y666500D03*
D85*
X125750Y666500D03*
D59*
X170500Y666500D03*
D52*
X177750Y666500D03*
D85*
X28250Y667000D03*
D52*
X34250Y667000D03*
X85250Y667000D03*
D60*
X117500Y667000D03*
D85*
X125750Y667000D03*
D60*
X175000Y667000D03*
D52*
X34250Y667500D03*
X85250Y667500D03*
D60*
X117500Y667500D03*
D85*
X125750Y667500D03*
D52*
X172250Y667500D03*
X34250Y668000D03*
X85250Y668000D03*
D60*
X117500Y668000D03*
D85*
X125750Y668000D03*
D52*
X172250Y668000D03*
X34250Y668500D03*
X85250Y668500D03*
D60*
X117500Y668500D03*
D85*
X125750Y668500D03*
D52*
X172250Y668500D03*
X34250Y669000D03*
X85250Y669000D03*
D60*
X117500Y669000D03*
D85*
X125750Y669000D03*
D52*
X172250Y669000D03*
X34250Y669500D03*
X85250Y669500D03*
D60*
X117500Y669500D03*
D85*
X125750Y669500D03*
D52*
X172250Y669500D03*
X34250Y670000D03*
X85250Y670000D03*
D60*
X117500Y670000D03*
D85*
X125750Y670000D03*
D52*
X172250Y670000D03*
X34250Y670500D03*
D50*
X85500Y670500D03*
D60*
X117500Y670500D03*
D85*
X125750Y670500D03*
D52*
X172250Y670500D03*
X34250Y671000D03*
D50*
X85500Y671000D03*
D60*
X117500Y671000D03*
D85*
X125750Y671000D03*
D52*
X172250Y671000D03*
X34250Y671500D03*
D50*
X85500Y671500D03*
D60*
X117500Y671500D03*
D85*
X125750Y671500D03*
D52*
X172250Y671500D03*
X34250Y672000D03*
D50*
X85500Y672000D03*
D60*
X117500Y672000D03*
D85*
X125750Y672000D03*
D46*
X164500Y672000D03*
D52*
X172250Y672000D03*
X34250Y672500D03*
D46*
X42500Y672500D03*
D59*
X44000Y672500D03*
D50*
X85500Y672500D03*
D60*
X117500Y672500D03*
D85*
X125750Y672500D03*
D46*
X164500Y672500D03*
D52*
X172250Y672500D03*
D56*
X34500Y673000D03*
D53*
X41250Y673000D03*
D52*
X85250Y673000D03*
D60*
X117500Y673000D03*
D85*
X125750Y673000D03*
D49*
X164750Y673000D03*
D52*
X172250Y673000D03*
D46*
X32000Y673500D03*
D47*
X39750Y673500D03*
D52*
X85250Y673500D03*
D60*
X117500Y673500D03*
D85*
X125750Y673500D03*
D53*
X165750Y673500D03*
D56*
X172500Y673500D03*
D47*
X39750Y674000D03*
D52*
X85250Y674000D03*
D60*
X117500Y674000D03*
D85*
X125750Y674000D03*
D50*
X167000Y674000D03*
D48*
X174750Y674000D03*
D47*
X39750Y674500D03*
D52*
X85250Y674500D03*
D60*
X117500Y674500D03*
D85*
X125750Y674500D03*
D50*
X167000Y674500D03*
D48*
X174750Y674500D03*
D47*
X39750Y675000D03*
D51*
X87000Y675000D03*
D97*
X111750Y675000D03*
D85*
X125750Y675000D03*
D52*
X167250Y675000D03*
D50*
X39500Y675500D03*
D119*
X102750Y675500D03*
D85*
X125750Y675500D03*
D52*
X167250Y675500D03*
D50*
X39500Y676000D03*
D119*
X102750Y676000D03*
D85*
X125750Y676000D03*
D52*
X167250Y676000D03*
D50*
X39500Y676500D03*
D119*
X102750Y676500D03*
D85*
X125750Y676500D03*
D52*
X167250Y676500D03*
D50*
X39500Y677000D03*
D119*
X102750Y677000D03*
D85*
X125750Y677000D03*
D52*
X167250Y677000D03*
D50*
X39500Y677500D03*
D119*
X102750Y677500D03*
D85*
X125750Y677500D03*
D52*
X167250Y677500D03*
D50*
X39500Y678000D03*
D119*
X102750Y678000D03*
D85*
X125750Y678000D03*
D52*
X167250Y678000D03*
D50*
X39500Y678500D03*
D119*
X102750Y678500D03*
D85*
X125750Y678500D03*
D52*
X167250Y678500D03*
D50*
X39500Y679000D03*
D119*
X102750Y679000D03*
D85*
X125750Y679000D03*
D52*
X167250Y679000D03*
D50*
X39500Y679500D03*
D46*
X47500Y679500D03*
D119*
X102750Y679500D03*
D85*
X125750Y679500D03*
D49*
X156250Y679500D03*
D46*
X159500Y679500D03*
D56*
X167500Y679500D03*
D50*
X39500Y680000D03*
D47*
X45250Y680000D03*
D119*
X102750Y680000D03*
D85*
X125750Y680000D03*
D58*
X164750Y680000D03*
D50*
X39500Y680500D03*
D47*
X45250Y680500D03*
D119*
X102750Y680500D03*
D85*
X125750Y680500D03*
D58*
X164750Y680500D03*
D47*
X45250Y681000D03*
D50*
X85000Y681000D03*
D58*
X117750Y681000D03*
D85*
X125750Y681000D03*
D52*
X162250Y681000D03*
D47*
X45250Y681500D03*
D52*
X85250Y681500D03*
D58*
X117750Y681500D03*
D85*
X125750Y681500D03*
D52*
X162250Y681500D03*
D47*
X45250Y682000D03*
D52*
X85250Y682000D03*
D58*
X117750Y682000D03*
D85*
X125750Y682000D03*
D50*
X162000Y682000D03*
D47*
X45250Y682500D03*
D52*
X85250Y682500D03*
D58*
X117750Y682500D03*
D85*
X125750Y682500D03*
D50*
X162000Y682500D03*
D47*
X45250Y683000D03*
D52*
X85250Y683000D03*
D58*
X117750Y683000D03*
D85*
X125750Y683000D03*
D50*
X162000Y683000D03*
D47*
X45250Y683500D03*
D52*
X85250Y683500D03*
D58*
X117750Y683500D03*
D85*
X125750Y683500D03*
D50*
X162000Y683500D03*
D47*
X45250Y684000D03*
D52*
X85250Y684000D03*
D58*
X117750Y684000D03*
D85*
X125750Y684000D03*
D50*
X162000Y684000D03*
D47*
X45250Y684500D03*
D52*
X85250Y684500D03*
D58*
X117750Y684500D03*
D85*
X125750Y684500D03*
D50*
X162000Y684500D03*
D74*
X45000Y685000D03*
D52*
X85250Y685000D03*
D58*
X117750Y685000D03*
D85*
X125750Y685000D03*
D50*
X162000Y685000D03*
D74*
X45000Y685500D03*
D52*
X85250Y685500D03*
D58*
X117750Y685500D03*
D85*
X125750Y685500D03*
D50*
X162000Y685500D03*
D74*
X45000Y686000D03*
D52*
X85250Y686000D03*
D58*
X117750Y686000D03*
D85*
X125750Y686000D03*
D50*
X162000Y686000D03*
D47*
X44750Y686500D03*
D52*
X85250Y686500D03*
D60*
X117500Y686500D03*
D77*
X125500Y686500D03*
D46*
X154000Y686500D03*
D52*
X162250Y686500D03*
D55*
X47250Y687000D03*
D52*
X85250Y687000D03*
D60*
X117500Y687000D03*
D77*
X125500Y687000D03*
D60*
X159500Y687000D03*
D55*
X47250Y687500D03*
D52*
X85250Y687500D03*
D60*
X117500Y687500D03*
D77*
X125500Y687500D03*
D60*
X159500Y687500D03*
D47*
X49750Y688000D03*
D52*
X85250Y688000D03*
D60*
X117500Y688000D03*
D77*
X125500Y688000D03*
D52*
X156750Y688000D03*
D47*
X49750Y688500D03*
D52*
X85250Y688500D03*
D60*
X117500Y688500D03*
D77*
X125500Y688500D03*
D52*
X156750Y688500D03*
D47*
X49750Y689000D03*
D52*
X85250Y689000D03*
D60*
X117500Y689000D03*
D77*
X125500Y689000D03*
D52*
X156750Y689000D03*
D47*
X49750Y689500D03*
D52*
X85250Y689500D03*
D60*
X117500Y689500D03*
D77*
X125500Y689500D03*
D52*
X156750Y689500D03*
D47*
X49750Y690000D03*
D52*
X85250Y690000D03*
D60*
X117500Y690000D03*
D77*
X125500Y690000D03*
D52*
X156750Y690000D03*
D47*
X49750Y690500D03*
D52*
X85250Y690500D03*
D60*
X117500Y690500D03*
D77*
X125500Y690500D03*
D50*
X157000Y690500D03*
D47*
X49750Y691000D03*
D52*
X85250Y691000D03*
D60*
X117500Y691000D03*
D77*
X125500Y691000D03*
D52*
X156750Y691000D03*
D47*
X49750Y691500D03*
D52*
X85250Y691500D03*
D60*
X117500Y691500D03*
D77*
X125500Y691500D03*
D52*
X156750Y691500D03*
D47*
X49750Y692000D03*
D52*
X85250Y692000D03*
D60*
X117500Y692000D03*
D77*
X125500Y692000D03*
D52*
X156750Y692000D03*
X49750Y692500D03*
X85250Y692500D03*
D60*
X117500Y692500D03*
D77*
X125500Y692500D03*
D46*
X148500Y692500D03*
D52*
X156750Y692500D03*
X49750Y693000D03*
X85250Y693000D03*
D60*
X117500Y693000D03*
D77*
X125500Y693000D03*
D46*
X148500Y693000D03*
D52*
X156750Y693000D03*
D58*
X52250Y693500D03*
D50*
X85500Y693500D03*
D60*
X117500Y693500D03*
D77*
X125500Y693500D03*
X150000Y693500D03*
D47*
X157250Y693500D03*
D50*
X55000Y694000D03*
X85500Y694000D03*
D60*
X117500Y694000D03*
D77*
X125500Y694000D03*
D50*
X151000Y694000D03*
X55000Y694500D03*
X85500Y694500D03*
D60*
X117500Y694500D03*
D77*
X125500Y694500D03*
D50*
X151000Y694500D03*
X55000Y695000D03*
X85500Y695000D03*
D60*
X117500Y695000D03*
D77*
X125500Y695000D03*
D50*
X151000Y695000D03*
X55000Y695500D03*
X85500Y695500D03*
D80*
X119500Y695500D03*
D50*
X151000Y695500D03*
D47*
X54750Y696000D03*
D50*
X85500Y696000D03*
D80*
X119500Y696000D03*
D50*
X151000Y696000D03*
D47*
X54750Y696500D03*
D50*
X85500Y696500D03*
D80*
X119500Y696500D03*
D50*
X151000Y696500D03*
X54500Y697000D03*
X85500Y697000D03*
D80*
X119500Y697000D03*
D50*
X151000Y697000D03*
X54500Y697500D03*
X85500Y697500D03*
D80*
X119500Y697500D03*
D50*
X151000Y697500D03*
X54500Y698000D03*
X85500Y698000D03*
D80*
X119500Y698000D03*
D50*
X151000Y698000D03*
X54500Y698500D03*
D46*
X62000Y698500D03*
D50*
X85500Y698500D03*
D80*
X119500Y698500D03*
D49*
X143250Y698500D03*
D52*
X151250Y698500D03*
D50*
X54500Y699000D03*
D46*
X62000Y699000D03*
D50*
X85500Y699000D03*
D80*
X119500Y699000D03*
D49*
X143250Y699000D03*
D52*
X151250Y699000D03*
D61*
X57000Y699500D03*
D50*
X85500Y699500D03*
D80*
X119500Y699500D03*
D48*
X143750Y699500D03*
D52*
X151250Y699500D03*
D48*
X52750Y700000D03*
D50*
X59500Y700000D03*
X85500Y700000D03*
D80*
X119500Y700000D03*
D58*
X148250Y700000D03*
D48*
X52750Y700500D03*
D50*
X59500Y700500D03*
X85500Y700500D03*
D80*
X119500Y700500D03*
D58*
X148250Y700500D03*
D50*
X59500Y701000D03*
X85500Y701000D03*
D80*
X119500Y701000D03*
D61*
X148000Y701000D03*
D50*
X59500Y701500D03*
X85500Y701500D03*
D80*
X119500Y701500D03*
D51*
X148000Y701500D03*
D50*
X59500Y702000D03*
X85500Y702000D03*
D80*
X119500Y702000D03*
D51*
X148000Y702000D03*
D50*
X59500Y702500D03*
X85500Y702500D03*
D80*
X119500Y702500D03*
D51*
X148000Y702500D03*
D50*
X59500Y703000D03*
X85500Y703000D03*
D80*
X119500Y703000D03*
D51*
X148000Y703000D03*
D50*
X59500Y703500D03*
X85500Y703500D03*
D80*
X119500Y703500D03*
D51*
X148000Y703500D03*
D52*
X59750Y704000D03*
D47*
X85250Y704000D03*
D80*
X119500Y704000D03*
D51*
X148000Y704000D03*
D52*
X59750Y704500D03*
D50*
X85500Y704500D03*
D80*
X119500Y704500D03*
D51*
X148000Y704500D03*
D52*
X59750Y705000D03*
D50*
X85500Y705000D03*
D80*
X119500Y705000D03*
D51*
X148000Y705000D03*
D50*
X59500Y705500D03*
D55*
X87750Y705500D03*
D46*
X107500Y705500D03*
D80*
X119500Y705500D03*
D46*
X138000Y705500D03*
D51*
X148000Y705500D03*
D50*
X59500Y706000D03*
D46*
X67000Y706000D03*
D120*
X105000Y706000D03*
D49*
X138250Y706000D03*
D51*
X148000Y706000D03*
D77*
X56500Y706500D03*
D47*
X64750Y706500D03*
D120*
X105000Y706500D03*
D81*
X145250Y706500D03*
D77*
X56500Y707000D03*
D47*
X64750Y707000D03*
D120*
X105000Y707000D03*
D81*
X145250Y707000D03*
D77*
X55500Y707500D03*
D47*
X64750Y707500D03*
D120*
X105000Y707500D03*
D81*
X145250Y707500D03*
D77*
X55500Y708000D03*
D47*
X64750Y708000D03*
D120*
X105000Y708000D03*
D81*
X145250Y708000D03*
D77*
X55500Y708500D03*
D47*
X64750Y708500D03*
D120*
X105000Y708500D03*
D81*
X145250Y708500D03*
D85*
X55750Y709000D03*
D50*
X64500Y709000D03*
D120*
X105000Y709000D03*
D81*
X145250Y709000D03*
D85*
X55750Y709500D03*
D50*
X64500Y709500D03*
D120*
X105000Y709500D03*
D81*
X145250Y709500D03*
D85*
X55750Y710000D03*
D50*
X64500Y710000D03*
D120*
X105000Y710000D03*
D81*
X145250Y710000D03*
D85*
X55750Y710500D03*
D50*
X64500Y710500D03*
D120*
X105000Y710500D03*
D81*
X145250Y710500D03*
D85*
X55750Y711000D03*
D50*
X64500Y711000D03*
D121*
X96500Y711000D03*
D81*
X119750Y711000D03*
X145250Y711000D03*
D74*
X56000Y711500D03*
D52*
X64250Y711500D03*
D47*
X85250Y711500D03*
D81*
X119750Y711500D03*
D84*
X145500Y711500D03*
D74*
X56000Y712000D03*
D52*
X64250Y712000D03*
D47*
X85250Y712000D03*
D81*
X119750Y712000D03*
D84*
X145500Y712000D03*
D65*
X60500Y712500D03*
D47*
X85250Y712500D03*
D81*
X119750Y712500D03*
D84*
X145500Y712500D03*
D88*
X63000Y713000D03*
D47*
X85250Y713000D03*
D81*
X119750Y713000D03*
D46*
X132500Y713000D03*
D84*
X145500Y713000D03*
D77*
X56000Y713500D03*
D60*
X66500Y713500D03*
D47*
X85250Y713500D03*
D81*
X119750Y713500D03*
D47*
X134750Y713500D03*
D74*
X140000Y713500D03*
D52*
X149750Y713500D03*
D77*
X56000Y714000D03*
D47*
X69750Y714000D03*
D50*
X85500Y714000D03*
D81*
X119750Y714000D03*
D55*
X137250Y714000D03*
D52*
X149750Y714000D03*
D77*
X56000Y714500D03*
D47*
X69750Y714500D03*
D50*
X85500Y714500D03*
D80*
X119500Y714500D03*
D51*
X137500Y714500D03*
D52*
X149750Y714500D03*
D77*
X56000Y715000D03*
D47*
X69750Y715000D03*
D50*
X85500Y715000D03*
D80*
X119500Y715000D03*
D51*
X137500Y715000D03*
D52*
X149750Y715000D03*
D77*
X56000Y715500D03*
D47*
X69750Y715500D03*
D50*
X85500Y715500D03*
D80*
X119500Y715500D03*
D51*
X137500Y715500D03*
D52*
X149750Y715500D03*
D77*
X56000Y716000D03*
D47*
X69750Y716000D03*
D50*
X85500Y716000D03*
D80*
X119500Y716000D03*
D51*
X137500Y716000D03*
D52*
X149750Y716000D03*
D77*
X56000Y716500D03*
D47*
X69750Y716500D03*
D50*
X85500Y716500D03*
D80*
X119500Y716500D03*
D51*
X137500Y716500D03*
D52*
X149750Y716500D03*
D77*
X56000Y717000D03*
D47*
X69750Y717000D03*
D50*
X85500Y717000D03*
D80*
X119500Y717000D03*
D51*
X137500Y717000D03*
D52*
X149750Y717000D03*
D77*
X56000Y717500D03*
D47*
X69750Y717500D03*
D50*
X85500Y717500D03*
D80*
X119500Y717500D03*
D51*
X137500Y717500D03*
D52*
X149750Y717500D03*
D53*
X56250Y718000D03*
D47*
X69750Y718000D03*
D50*
X85500Y718000D03*
D80*
X119500Y718000D03*
D51*
X137500Y718000D03*
D52*
X149750Y718000D03*
D53*
X56250Y718500D03*
D50*
X69500Y718500D03*
D59*
X77000Y718500D03*
D50*
X85500Y718500D03*
D80*
X119500Y718500D03*
D51*
X137500Y718500D03*
D52*
X149750Y718500D03*
D53*
X56250Y719000D03*
D50*
X69500Y719000D03*
D59*
X77000Y719000D03*
D50*
X85500Y719000D03*
D80*
X119500Y719000D03*
D51*
X137500Y719000D03*
D52*
X149750Y719000D03*
D53*
X56250Y719500D03*
X68250Y719500D03*
D50*
X75000Y719500D03*
X85500Y719500D03*
D60*
X117500Y719500D03*
D77*
X125500Y719500D03*
D62*
X137250Y719500D03*
D52*
X149750Y719500D03*
D53*
X56250Y720000D03*
D46*
X67500Y720000D03*
D50*
X75000Y720000D03*
X85500Y720000D03*
D60*
X117500Y720000D03*
D77*
X125500Y720000D03*
D62*
X137250Y720000D03*
D52*
X149750Y720000D03*
D53*
X56250Y720500D03*
D46*
X67500Y720500D03*
D50*
X75000Y720500D03*
X85500Y720500D03*
D60*
X117500Y720500D03*
D77*
X125500Y720500D03*
D62*
X137250Y720500D03*
D52*
X149750Y720500D03*
D53*
X56250Y721000D03*
D50*
X75000Y721000D03*
X85500Y721000D03*
D60*
X117500Y721000D03*
D77*
X125500Y721000D03*
D85*
X134750Y721000D03*
D52*
X149750Y721000D03*
D53*
X56250Y721500D03*
D50*
X75000Y721500D03*
X85500Y721500D03*
D60*
X117500Y721500D03*
D77*
X125500Y721500D03*
D85*
X134750Y721500D03*
D52*
X149750Y721500D03*
D53*
X56250Y722000D03*
D50*
X75000Y722000D03*
X85500Y722000D03*
D60*
X117500Y722000D03*
D77*
X125500Y722000D03*
D85*
X134750Y722000D03*
D52*
X149750Y722000D03*
D53*
X56250Y722500D03*
D50*
X75000Y722500D03*
X85500Y722500D03*
D60*
X117500Y722500D03*
D77*
X125500Y722500D03*
D85*
X134750Y722500D03*
D52*
X149750Y722500D03*
D53*
X56250Y723000D03*
D50*
X75000Y723000D03*
X85500Y723000D03*
D58*
X117750Y723000D03*
D77*
X125500Y723000D03*
D85*
X134750Y723000D03*
D52*
X149750Y723000D03*
D53*
X56250Y723500D03*
D50*
X75000Y723500D03*
X85500Y723500D03*
D58*
X117750Y723500D03*
D77*
X125500Y723500D03*
D85*
X134750Y723500D03*
D52*
X149750Y723500D03*
D53*
X56250Y724000D03*
D50*
X75000Y724000D03*
X85500Y724000D03*
D58*
X117750Y724000D03*
D77*
X125500Y724000D03*
D85*
X134750Y724000D03*
D52*
X149750Y724000D03*
D53*
X56250Y724500D03*
D50*
X75000Y724500D03*
X85500Y724500D03*
D58*
X117750Y724500D03*
D77*
X125500Y724500D03*
D85*
X134750Y724500D03*
D52*
X149750Y724500D03*
D53*
X56250Y725000D03*
D50*
X75000Y725000D03*
X85500Y725000D03*
D58*
X117750Y725000D03*
D53*
X125250Y725000D03*
D74*
X135000Y725000D03*
D52*
X149750Y725000D03*
D53*
X56250Y725500D03*
D50*
X75000Y725500D03*
X85500Y725500D03*
D58*
X117750Y725500D03*
D53*
X125250Y725500D03*
D74*
X135000Y725500D03*
D52*
X149750Y725500D03*
D53*
X56250Y726000D03*
D50*
X75000Y726000D03*
X85500Y726000D03*
D58*
X117750Y726000D03*
D48*
X124750Y726000D03*
D74*
X128500Y726000D03*
X135000Y726000D03*
D52*
X149750Y726000D03*
D53*
X56250Y726500D03*
D50*
X75000Y726500D03*
X85500Y726500D03*
D58*
X117750Y726500D03*
D59*
X124500Y726500D03*
D58*
X131750Y726500D03*
D52*
X149750Y726500D03*
D53*
X56250Y727000D03*
D50*
X75000Y727000D03*
X85500Y727000D03*
D58*
X117750Y727000D03*
D59*
X124500Y727000D03*
D58*
X131750Y727000D03*
D52*
X149750Y727000D03*
D53*
X56250Y727500D03*
D50*
X75000Y727500D03*
X85500Y727500D03*
D58*
X117750Y727500D03*
D59*
X124500Y727500D03*
D58*
X131750Y727500D03*
D52*
X149750Y727500D03*
D53*
X56250Y728000D03*
D50*
X75000Y728000D03*
X85500Y728000D03*
D60*
X117500Y728000D03*
D46*
X124000Y728000D03*
D61*
X132000Y728000D03*
D52*
X149750Y728000D03*
D77*
X56500Y728500D03*
D50*
X75000Y728500D03*
X85500Y728500D03*
D60*
X117500Y728500D03*
D46*
X124000Y728500D03*
D52*
X129750Y728500D03*
D77*
X135500Y728500D03*
D52*
X149750Y728500D03*
D77*
X56500Y729000D03*
D50*
X75000Y729000D03*
X85500Y729000D03*
D60*
X117500Y729000D03*
D46*
X124000Y729000D03*
D52*
X129750Y729000D03*
D77*
X135500Y729000D03*
D52*
X149750Y729000D03*
D77*
X56500Y729500D03*
D47*
X74750Y729500D03*
D50*
X85500Y729500D03*
D60*
X117500Y729500D03*
D52*
X129750Y729500D03*
D46*
X136500Y729500D03*
D50*
X150000Y729500D03*
D77*
X56500Y730000D03*
D47*
X74750Y730000D03*
D50*
X85500Y730000D03*
D60*
X117500Y730000D03*
D52*
X129750Y730000D03*
D46*
X136500Y730000D03*
D50*
X150000Y730000D03*
D53*
X56750Y730500D03*
D74*
X74500Y730500D03*
D50*
X85500Y730500D03*
D122*
X118000Y730500D03*
D52*
X129750Y730500D03*
D46*
X136500Y730500D03*
D52*
X149750Y730500D03*
D53*
X56750Y731000D03*
D46*
X72500Y731000D03*
D76*
X75000Y731000D03*
D47*
X79250Y731000D03*
D50*
X85500Y731000D03*
D85*
X113750Y731000D03*
D54*
X120250Y731000D03*
D50*
X129500Y731000D03*
D46*
X136500Y731000D03*
D52*
X149750Y731000D03*
D53*
X56750Y731500D03*
D46*
X72500Y731500D03*
D76*
X75000Y731500D03*
D47*
X79250Y731500D03*
D50*
X85500Y731500D03*
D85*
X113750Y731500D03*
D54*
X120250Y731500D03*
D50*
X129500Y731500D03*
D46*
X136500Y731500D03*
D52*
X149750Y731500D03*
D53*
X56750Y732000D03*
D46*
X72500Y732000D03*
D60*
X82500Y732000D03*
D85*
X113750Y732000D03*
D54*
X120250Y732000D03*
D50*
X129500Y732000D03*
D46*
X136500Y732000D03*
D52*
X149750Y732000D03*
D53*
X56750Y732500D03*
D60*
X82500Y732500D03*
D77*
X114000Y732500D03*
D62*
X120750Y732500D03*
D50*
X129500Y732500D03*
D46*
X136500Y732500D03*
D52*
X149750Y732500D03*
D53*
X56750Y733000D03*
D60*
X82500Y733000D03*
D77*
X114000Y733000D03*
D62*
X120750Y733000D03*
D50*
X129500Y733000D03*
D46*
X136500Y733000D03*
D52*
X149750Y733000D03*
D74*
X57500Y733500D03*
D58*
X82250Y733500D03*
D77*
X114000Y733500D03*
D51*
X121000Y733500D03*
D52*
X129250Y733500D03*
D46*
X136500Y733500D03*
D52*
X149750Y733500D03*
D56*
X58500Y734000D03*
D58*
X82250Y734000D03*
D77*
X114000Y734000D03*
D66*
X124250Y734000D03*
D46*
X136500Y734000D03*
D74*
X144000Y734000D03*
D52*
X149750Y734000D03*
D122*
X61500Y734500D03*
D46*
X72000Y734500D03*
D58*
X82250Y734500D03*
D77*
X114000Y734500D03*
D117*
X134500Y734500D03*
D122*
X61500Y735000D03*
D46*
X72000Y735000D03*
D58*
X82250Y735000D03*
D77*
X114000Y735000D03*
D117*
X134500Y735000D03*
D90*
X71500Y735500D03*
D77*
X114000Y735500D03*
D117*
X134500Y735500D03*
D90*
X71500Y736000D03*
D115*
X132500Y736000D03*
D90*
X71500Y736500D03*
D115*
X132500Y736500D03*
D90*
X71500Y737000D03*
D117*
X134500Y737000D03*
D94*
X73250Y737500D03*
D46*
X107500Y737500D03*
D123*
X131750Y737500D03*
D94*
X73250Y738000D03*
D46*
X107500Y738000D03*
D123*
X131750Y738000D03*
D124*
X104000Y738500D03*
X104000Y739000D03*
D125*
X97500Y739500D03*
D58*
X147250Y739500D03*
D125*
X97500Y740000D03*
D58*
X147250Y740000D03*
D47*
X57750Y740500D03*
D126*
X101750Y740500D03*
D52*
X149750Y740500D03*
D47*
X57750Y741000D03*
D127*
X102250Y741000D03*
D50*
X150000Y741000D03*
D47*
X57750Y741500D03*
D127*
X102250Y741500D03*
D50*
X150000Y741500D03*
D47*
X57750Y742000D03*
D127*
X102250Y742000D03*
D76*
X130500Y742000D03*
D50*
X150000Y742000D03*
D47*
X57750Y742500D03*
D127*
X102250Y742500D03*
D53*
X130250Y742500D03*
D52*
X149750Y742500D03*
D47*
X57750Y743000D03*
D127*
X102250Y743000D03*
D53*
X130250Y743000D03*
D52*
X149750Y743000D03*
D47*
X57750Y743500D03*
D75*
X83750Y743500D03*
D80*
X120000Y743500D03*
D53*
X130250Y743500D03*
D52*
X149750Y743500D03*
D47*
X57750Y744000D03*
D58*
X82250Y744000D03*
D80*
X120000Y744000D03*
D76*
X130500Y744000D03*
D52*
X149750Y744000D03*
D47*
X57750Y744500D03*
D58*
X82250Y744500D03*
D80*
X120000Y744500D03*
D76*
X130500Y744500D03*
D52*
X149750Y744500D03*
D47*
X57750Y745000D03*
D58*
X82250Y745000D03*
D80*
X120000Y745000D03*
D76*
X130500Y745000D03*
D52*
X149750Y745000D03*
D47*
X57750Y745500D03*
D58*
X82250Y745500D03*
D81*
X119750Y745500D03*
D76*
X130500Y745500D03*
D52*
X149750Y745500D03*
D47*
X57750Y746000D03*
D60*
X82500Y746000D03*
D81*
X119750Y746000D03*
D76*
X130500Y746000D03*
D52*
X149750Y746000D03*
D47*
X57750Y746500D03*
D60*
X82500Y746500D03*
D81*
X119750Y746500D03*
D76*
X130500Y746500D03*
D52*
X149750Y746500D03*
D47*
X57750Y747000D03*
D60*
X82500Y747000D03*
D81*
X119750Y747000D03*
D76*
X130500Y747000D03*
D52*
X149750Y747000D03*
D47*
X57750Y747500D03*
D60*
X82500Y747500D03*
D80*
X119500Y747500D03*
D46*
X130500Y747500D03*
D52*
X149750Y747500D03*
D47*
X57750Y748000D03*
D60*
X82500Y748000D03*
D80*
X119500Y748000D03*
D46*
X130500Y748000D03*
D52*
X149750Y748000D03*
D47*
X57750Y748500D03*
D60*
X82500Y748500D03*
D80*
X119500Y748500D03*
D52*
X149750Y748500D03*
D47*
X57750Y749000D03*
D60*
X82500Y749000D03*
D80*
X119500Y749000D03*
D52*
X149750Y749000D03*
D47*
X57750Y749500D03*
D60*
X82500Y749500D03*
D80*
X119500Y749500D03*
D52*
X149750Y749500D03*
D47*
X57750Y750000D03*
D60*
X82500Y750000D03*
D80*
X119500Y750000D03*
D52*
X149750Y750000D03*
D47*
X57750Y750500D03*
D60*
X82500Y750500D03*
D80*
X119500Y750500D03*
D52*
X149750Y750500D03*
D47*
X57750Y751000D03*
D60*
X82500Y751000D03*
D80*
X119500Y751000D03*
D52*
X149750Y751000D03*
D47*
X57750Y751500D03*
D60*
X82500Y751500D03*
D80*
X119500Y751500D03*
D52*
X149750Y751500D03*
D47*
X57750Y752000D03*
D60*
X82500Y752000D03*
D80*
X119500Y752000D03*
D52*
X149750Y752000D03*
D47*
X57750Y752500D03*
D60*
X82500Y752500D03*
D80*
X119500Y752500D03*
D52*
X149750Y752500D03*
D47*
X57750Y753000D03*
D60*
X82500Y753000D03*
D80*
X119500Y753000D03*
D52*
X149750Y753000D03*
D74*
X58000Y753500D03*
D60*
X82500Y753500D03*
D80*
X119500Y753500D03*
D52*
X149750Y753500D03*
D74*
X58000Y754000D03*
D60*
X82500Y754000D03*
D80*
X119500Y754000D03*
D52*
X149750Y754000D03*
D74*
X58000Y754500D03*
D60*
X82500Y754500D03*
D80*
X119500Y754500D03*
D52*
X149750Y754500D03*
D74*
X58000Y755000D03*
D60*
X82500Y755000D03*
D80*
X119500Y755000D03*
D52*
X149750Y755000D03*
D74*
X58000Y755500D03*
D60*
X82500Y755500D03*
D80*
X119500Y755500D03*
D52*
X149750Y755500D03*
D74*
X58000Y756000D03*
D60*
X82500Y756000D03*
D80*
X119500Y756000D03*
D52*
X149750Y756000D03*
D74*
X58000Y756500D03*
D60*
X82500Y756500D03*
D80*
X119500Y756500D03*
D52*
X149750Y756500D03*
D74*
X58000Y757000D03*
D60*
X82500Y757000D03*
D80*
X119500Y757000D03*
D52*
X149750Y757000D03*
D74*
X58000Y757500D03*
D60*
X82500Y757500D03*
D80*
X119500Y757500D03*
D52*
X149750Y757500D03*
D74*
X58000Y758000D03*
D60*
X82500Y758000D03*
D80*
X119500Y758000D03*
D52*
X149750Y758000D03*
D74*
X58000Y758500D03*
D60*
X82500Y758500D03*
D80*
X119500Y758500D03*
D52*
X149750Y758500D03*
D74*
X58000Y759000D03*
D60*
X82500Y759000D03*
D80*
X119500Y759000D03*
D52*
X149750Y759000D03*
D74*
X58000Y759500D03*
D60*
X82500Y759500D03*
D80*
X119500Y759500D03*
D52*
X149750Y759500D03*
D74*
X58000Y760000D03*
D60*
X82500Y760000D03*
D80*
X119500Y760000D03*
D50*
X150000Y760000D03*
D74*
X58000Y760500D03*
D53*
X78250Y760500D03*
D78*
X84750Y760500D03*
D80*
X119500Y760500D03*
D50*
X150000Y760500D03*
D74*
X58000Y761000D03*
D53*
X78250Y761000D03*
D78*
X84750Y761000D03*
D80*
X119500Y761000D03*
D50*
X150000Y761000D03*
D74*
X58000Y761500D03*
D60*
X82500Y761500D03*
D80*
X119500Y761500D03*
D50*
X150000Y761500D03*
D57*
X59500Y762000D03*
D46*
X72000Y762000D03*
D63*
X82250Y762000D03*
D96*
X121750Y762000D03*
D58*
X147250Y762000D03*
D57*
X59500Y762500D03*
D46*
X72000Y762500D03*
D63*
X82250Y762500D03*
D96*
X121750Y762500D03*
D58*
X147250Y762500D03*
D90*
X72000Y763000D03*
D119*
X132250Y763000D03*
D90*
X72000Y763500D03*
D119*
X132250Y763500D03*
D90*
X72000Y764000D03*
D119*
X132250Y764000D03*
D90*
X72000Y764500D03*
D119*
X132250Y764500D03*
D90*
X72000Y765000D03*
D119*
X132250Y765000D03*
D90*
X72000Y765500D03*
D119*
X132250Y765500D03*
D90*
X72000Y766000D03*
D119*
X132250Y766000D03*
D90*
X72000Y766500D03*
D119*
X132250Y766500D03*
D90*
X72000Y767000D03*
D119*
X132250Y767000D03*
D55*
X60750Y767500D03*
D60*
X82500Y767500D03*
D96*
X121750Y767500D03*
D60*
X147000Y767500D03*
D74*
X58000Y768000D03*
D46*
X77000Y768000D03*
D78*
X84750Y768000D03*
D80*
X119500Y768000D03*
D52*
X149750Y768000D03*
D47*
X58250Y768500D03*
D53*
X78250Y768500D03*
D78*
X84750Y768500D03*
D80*
X119500Y768500D03*
D52*
X149750Y768500D03*
D47*
X58250Y769000D03*
D53*
X78250Y769000D03*
D78*
X84750Y769000D03*
D80*
X119500Y769000D03*
D52*
X149750Y769000D03*
D47*
X58250Y769500D03*
D85*
X78750Y769500D03*
D78*
X84750Y769500D03*
D80*
X119500Y769500D03*
D52*
X149750Y769500D03*
D47*
X58250Y770000D03*
D60*
X82500Y770000D03*
D80*
X119500Y770000D03*
D52*
X149750Y770000D03*
D47*
X58250Y770500D03*
D60*
X82500Y770500D03*
D80*
X119500Y770500D03*
D52*
X149750Y770500D03*
D47*
X58250Y771000D03*
D85*
X78750Y771000D03*
D78*
X84750Y771000D03*
D80*
X119500Y771000D03*
D52*
X149750Y771000D03*
D47*
X58250Y771500D03*
D85*
X78750Y771500D03*
D78*
X84750Y771500D03*
D80*
X119500Y771500D03*
D52*
X149750Y771500D03*
D47*
X58250Y772000D03*
D85*
X78750Y772000D03*
D78*
X84750Y772000D03*
D80*
X119500Y772000D03*
D52*
X149750Y772000D03*
D47*
X58250Y772500D03*
D85*
X78750Y772500D03*
D78*
X84750Y772500D03*
D80*
X119500Y772500D03*
D52*
X149750Y772500D03*
D47*
X58250Y773000D03*
D85*
X78750Y773000D03*
D78*
X84750Y773000D03*
D80*
X119500Y773000D03*
D52*
X149750Y773000D03*
D47*
X58250Y773500D03*
D85*
X78750Y773500D03*
D78*
X84750Y773500D03*
D80*
X119500Y773500D03*
D52*
X149750Y773500D03*
D47*
X58250Y774000D03*
D85*
X78750Y774000D03*
D78*
X84750Y774000D03*
D80*
X119500Y774000D03*
D52*
X149750Y774000D03*
D47*
X58250Y774500D03*
D85*
X78750Y774500D03*
D78*
X84750Y774500D03*
D80*
X119500Y774500D03*
D52*
X149750Y774500D03*
D47*
X58250Y775000D03*
D85*
X78750Y775000D03*
D78*
X84750Y775000D03*
D80*
X119500Y775000D03*
D52*
X149750Y775000D03*
D47*
X58250Y775500D03*
D85*
X78750Y775500D03*
D78*
X84750Y775500D03*
D80*
X119500Y775500D03*
D52*
X149750Y775500D03*
D47*
X58250Y776000D03*
D60*
X82500Y776000D03*
D80*
X119500Y776000D03*
D52*
X149750Y776000D03*
D47*
X58250Y776500D03*
D60*
X82500Y776500D03*
D80*
X119500Y776500D03*
D52*
X149750Y776500D03*
D74*
X58000Y777000D03*
D60*
X82500Y777000D03*
D81*
X119750Y777000D03*
D52*
X149750Y777000D03*
D74*
X58000Y777500D03*
D60*
X82500Y777500D03*
D81*
X119750Y777500D03*
D52*
X149750Y777500D03*
D74*
X58000Y778000D03*
D60*
X82500Y778000D03*
D81*
X119750Y778000D03*
D52*
X149750Y778000D03*
D74*
X58000Y778500D03*
D60*
X82500Y778500D03*
D81*
X119750Y778500D03*
D52*
X149750Y778500D03*
D74*
X58000Y779000D03*
D60*
X82500Y779000D03*
D81*
X119750Y779000D03*
D52*
X149750Y779000D03*
D74*
X58000Y779500D03*
D85*
X78750Y779500D03*
D114*
X104250Y779500D03*
D52*
X149750Y779500D03*
D74*
X58000Y780000D03*
D85*
X78750Y780000D03*
D114*
X104250Y780000D03*
D52*
X149750Y780000D03*
D74*
X58000Y780500D03*
D85*
X78750Y780500D03*
D114*
X104250Y780500D03*
D52*
X149750Y780500D03*
D74*
X58000Y781000D03*
D85*
X78750Y781000D03*
D114*
X104250Y781000D03*
D52*
X149750Y781000D03*
D74*
X58000Y781500D03*
D85*
X78750Y781500D03*
D114*
X104250Y781500D03*
D52*
X149750Y781500D03*
D47*
X58250Y782000D03*
D85*
X78750Y782000D03*
D114*
X104250Y782000D03*
D52*
X149750Y782000D03*
D47*
X58250Y782500D03*
D85*
X78750Y782500D03*
D114*
X104250Y782500D03*
D52*
X149750Y782500D03*
D47*
X58250Y783000D03*
D85*
X78750Y783000D03*
D114*
X104250Y783000D03*
D52*
X149750Y783000D03*
D47*
X58250Y783500D03*
D85*
X78750Y783500D03*
D114*
X104250Y783500D03*
D52*
X149750Y783500D03*
D47*
X58250Y784000D03*
D85*
X78750Y784000D03*
D114*
X104250Y784000D03*
D52*
X149750Y784000D03*
D47*
X58250Y784500D03*
D85*
X78750Y784500D03*
D114*
X104250Y784500D03*
D52*
X149750Y784500D03*
D47*
X58250Y785000D03*
D85*
X78750Y785000D03*
D114*
X104250Y785000D03*
D52*
X149750Y785000D03*
D47*
X58250Y785500D03*
D85*
X78750Y785500D03*
D78*
X84750Y785500D03*
D81*
X119750Y785500D03*
D52*
X149750Y785500D03*
D47*
X58250Y786000D03*
D85*
X78750Y786000D03*
D78*
X84750Y786000D03*
D81*
X119750Y786000D03*
D52*
X149750Y786000D03*
D47*
X58250Y786500D03*
D85*
X78750Y786500D03*
D56*
X84500Y786500D03*
D81*
X119750Y786500D03*
D52*
X149750Y786500D03*
D47*
X58250Y787000D03*
D85*
X78750Y787000D03*
D56*
X84500Y787000D03*
D81*
X119750Y787000D03*
D52*
X149750Y787000D03*
D47*
X58250Y787500D03*
D85*
X78750Y787500D03*
D56*
X84500Y787500D03*
D81*
X119750Y787500D03*
D52*
X149750Y787500D03*
D47*
X58250Y788000D03*
D46*
X77000Y788000D03*
D52*
X84750Y788000D03*
D81*
X119750Y788000D03*
D50*
X150000Y788000D03*
D47*
X58250Y788500D03*
D58*
X82250Y788500D03*
D81*
X119750Y788500D03*
D49*
X142750Y788500D03*
D54*
X148750Y788500D03*
D47*
X58250Y789000D03*
D58*
X82250Y789000D03*
D81*
X119750Y789000D03*
D49*
X142750Y789000D03*
D54*
X148750Y789000D03*
D128*
X71750Y789500D03*
D96*
X122250Y789500D03*
D84*
X145500Y789500D03*
D128*
X71750Y790000D03*
D115*
X132500Y790000D03*
D128*
X71750Y790500D03*
D115*
X132500Y790500D03*
D128*
X71750Y791000D03*
D115*
X132500Y791000D03*
D128*
X71750Y791500D03*
D115*
X132500Y791500D03*
D128*
X71750Y792000D03*
D115*
X132500Y792000D03*
D128*
X71750Y792500D03*
D115*
X132500Y792500D03*
D128*
X71750Y793000D03*
D115*
X132500Y793000D03*
D128*
X71750Y793500D03*
D115*
X132500Y793500D03*
D128*
X71750Y794000D03*
D115*
X132500Y794000D03*
D80*
X63500Y794500D03*
D59*
X72500Y794500D03*
D60*
X82000Y794500D03*
D72*
X122500Y794500D03*
D84*
X145500Y794500D03*
D74*
X58000Y795000D03*
D58*
X82250Y795000D03*
D79*
X120750Y795000D03*
D52*
X149750Y795000D03*
D74*
X58000Y795500D03*
D58*
X82250Y795500D03*
D79*
X120750Y795500D03*
D52*
X149750Y795500D03*
D74*
X58000Y796000D03*
D58*
X82250Y796000D03*
D80*
X119500Y796000D03*
D52*
X149750Y796000D03*
D74*
X58000Y796500D03*
D58*
X82250Y796500D03*
D80*
X119500Y796500D03*
D52*
X149750Y796500D03*
D74*
X58000Y797000D03*
D58*
X82250Y797000D03*
D80*
X119500Y797000D03*
D52*
X149750Y797000D03*
D74*
X58000Y797500D03*
D58*
X82250Y797500D03*
D80*
X119500Y797500D03*
D52*
X149750Y797500D03*
D74*
X58000Y798000D03*
D58*
X82250Y798000D03*
D80*
X119500Y798000D03*
D52*
X149750Y798000D03*
D74*
X58000Y798500D03*
D58*
X82250Y798500D03*
D80*
X119500Y798500D03*
D52*
X149750Y798500D03*
D74*
X58000Y799000D03*
D58*
X82250Y799000D03*
D80*
X119500Y799000D03*
D52*
X149750Y799000D03*
D85*
X57750Y799500D03*
D58*
X82250Y799500D03*
D80*
X119500Y799500D03*
D52*
X149750Y799500D03*
D85*
X57750Y800000D03*
D58*
X82250Y800000D03*
D80*
X119500Y800000D03*
D52*
X149750Y800000D03*
D77*
X57500Y800500D03*
D58*
X82250Y800500D03*
D80*
X119500Y800500D03*
D52*
X149750Y800500D03*
D77*
X57500Y801000D03*
D58*
X82250Y801000D03*
D80*
X119500Y801000D03*
D52*
X149750Y801000D03*
D77*
X57500Y801500D03*
D58*
X82250Y801500D03*
D80*
X119500Y801500D03*
D52*
X149750Y801500D03*
D77*
X57500Y802000D03*
D58*
X82250Y802000D03*
D80*
X119500Y802000D03*
D52*
X149750Y802000D03*
D77*
X57500Y802500D03*
D58*
X82250Y802500D03*
D80*
X119500Y802500D03*
D52*
X149750Y802500D03*
D77*
X57500Y803000D03*
D60*
X82500Y803000D03*
D80*
X119500Y803000D03*
D52*
X149750Y803000D03*
D53*
X57250Y803500D03*
D60*
X82500Y803500D03*
D80*
X119500Y803500D03*
D52*
X149750Y803500D03*
D53*
X57250Y804000D03*
D60*
X82500Y804000D03*
D80*
X119500Y804000D03*
D52*
X149750Y804000D03*
D76*
X57000Y804500D03*
D60*
X82500Y804500D03*
D80*
X119500Y804500D03*
D52*
X149750Y804500D03*
D53*
X56750Y805000D03*
D60*
X82500Y805000D03*
D81*
X119750Y805000D03*
D52*
X149750Y805000D03*
D53*
X56750Y805500D03*
D60*
X82500Y805500D03*
D81*
X119750Y805500D03*
D52*
X149750Y805500D03*
D53*
X56750Y806000D03*
D60*
X82500Y806000D03*
D81*
X119750Y806000D03*
D52*
X149750Y806000D03*
D76*
X56500Y806500D03*
D60*
X82500Y806500D03*
D81*
X119750Y806500D03*
D52*
X149750Y806500D03*
D76*
X56500Y807000D03*
D60*
X82500Y807000D03*
D81*
X119750Y807000D03*
D52*
X149750Y807000D03*
D76*
X56500Y807500D03*
D60*
X82500Y807500D03*
D81*
X119750Y807500D03*
D52*
X149750Y807500D03*
D76*
X56500Y808000D03*
D60*
X82500Y808000D03*
D81*
X119750Y808000D03*
D52*
X149750Y808000D03*
D76*
X56500Y808500D03*
D60*
X82500Y808500D03*
D81*
X119750Y808500D03*
D52*
X149750Y808500D03*
D76*
X56500Y809000D03*
D60*
X82500Y809000D03*
D81*
X119750Y809000D03*
D52*
X149750Y809000D03*
D76*
X56500Y809500D03*
D60*
X82500Y809500D03*
D81*
X119750Y809500D03*
D52*
X149750Y809500D03*
D76*
X56500Y810000D03*
D60*
X82500Y810000D03*
D81*
X119750Y810000D03*
D52*
X149750Y810000D03*
D76*
X56500Y810500D03*
D60*
X82500Y810500D03*
D81*
X119750Y810500D03*
D52*
X149750Y810500D03*
D76*
X56500Y811000D03*
D60*
X82500Y811000D03*
D81*
X119750Y811000D03*
D52*
X149750Y811000D03*
D76*
X56500Y811500D03*
D60*
X82500Y811500D03*
D81*
X119750Y811500D03*
D52*
X149750Y811500D03*
D76*
X56500Y812000D03*
D60*
X82500Y812000D03*
D81*
X119750Y812000D03*
D52*
X149750Y812000D03*
D76*
X56500Y812500D03*
D60*
X82500Y812500D03*
D81*
X119750Y812500D03*
D52*
X149750Y812500D03*
D76*
X56500Y813000D03*
D60*
X82500Y813000D03*
D81*
X119750Y813000D03*
D52*
X149750Y813000D03*
D76*
X56500Y813500D03*
D60*
X82500Y813500D03*
D81*
X119750Y813500D03*
D52*
X149750Y813500D03*
D76*
X56500Y814000D03*
D60*
X82500Y814000D03*
D81*
X119750Y814000D03*
D52*
X149750Y814000D03*
D76*
X56500Y814500D03*
D60*
X82500Y814500D03*
D81*
X119750Y814500D03*
D52*
X149750Y814500D03*
D76*
X56500Y815000D03*
D60*
X82500Y815000D03*
D81*
X119750Y815000D03*
D52*
X149750Y815000D03*
D76*
X56500Y815500D03*
D60*
X82500Y815500D03*
D81*
X119750Y815500D03*
D52*
X149750Y815500D03*
D76*
X56500Y816000D03*
D60*
X82500Y816000D03*
D81*
X119750Y816000D03*
D52*
X149750Y816000D03*
D89*
X71750Y816500D03*
D115*
X132500Y816500D03*
D89*
X71750Y817000D03*
D115*
X132500Y817000D03*
D89*
X71750Y817500D03*
D115*
X132500Y817500D03*
D89*
X71750Y818000D03*
D115*
X132500Y818000D03*
D129*
X75250Y818500D03*
D114*
X129750Y818500D03*
D124*
X104000Y819000D03*
X104000Y819500D03*
X104000Y820000D03*
D130*
X104250Y820500D03*
X104250Y821000D03*
X104250Y821500D03*
D77*
X57500Y822000D03*
D131*
X102000Y822000D03*
D122*
X146500Y822000D03*
D48*
X56750Y822500D03*
D132*
X101750Y822500D03*
D46*
X131500Y822500D03*
D48*
X142750Y822500D03*
D49*
X144750Y822500D03*
D52*
X149750Y822500D03*
D48*
X56750Y823000D03*
D132*
X101750Y823000D03*
D46*
X131500Y823000D03*
D48*
X142750Y823000D03*
D49*
X144750Y823000D03*
D52*
X149750Y823000D03*
D49*
X56250Y823500D03*
D46*
X57500Y823500D03*
D85*
X78750Y823500D03*
D133*
X104000Y823500D03*
D46*
X131500Y823500D03*
X142500Y823500D03*
X143500Y823500D03*
D52*
X149750Y823500D03*
D48*
X56250Y824000D03*
X77750Y824000D03*
D78*
X84750Y824000D03*
D83*
X113250Y824000D03*
D49*
X131250Y824000D03*
D46*
X142500Y824000D03*
D56*
X149500Y824000D03*
D48*
X56250Y824500D03*
X77750Y824500D03*
D78*
X84750Y824500D03*
D83*
X113250Y824500D03*
D49*
X131250Y824500D03*
D46*
X142500Y824500D03*
D56*
X149500Y824500D03*
D59*
X56000Y825000D03*
D48*
X77750Y825000D03*
D78*
X84750Y825000D03*
D46*
X112000Y825000D03*
D53*
X114250Y825000D03*
D55*
X121750Y825000D03*
D49*
X131250Y825000D03*
D46*
X142500Y825000D03*
D56*
X149500Y825000D03*
D59*
X56000Y825500D03*
D48*
X77750Y825500D03*
D78*
X84750Y825500D03*
D74*
X114000Y825500D03*
D55*
X121750Y825500D03*
D49*
X131250Y825500D03*
D46*
X142500Y825500D03*
D56*
X149500Y825500D03*
D59*
X56000Y826000D03*
D48*
X77750Y826000D03*
D78*
X84750Y826000D03*
D81*
X119250Y826000D03*
D49*
X131250Y826000D03*
X142750Y826000D03*
D56*
X149500Y826000D03*
D59*
X56000Y826500D03*
D48*
X77750Y826500D03*
D78*
X84750Y826500D03*
D81*
X119250Y826500D03*
D49*
X131250Y826500D03*
X142750Y826500D03*
D56*
X149500Y826500D03*
D59*
X56000Y827000D03*
D49*
X77250Y827000D03*
D78*
X84750Y827000D03*
D81*
X119250Y827000D03*
D46*
X131500Y827000D03*
X142500Y827000D03*
D56*
X149500Y827000D03*
D48*
X56250Y827500D03*
D46*
X77500Y827500D03*
D78*
X84750Y827500D03*
D81*
X119250Y827500D03*
D49*
X131250Y827500D03*
X142750Y827500D03*
D52*
X149750Y827500D03*
D48*
X56250Y828000D03*
D46*
X77500Y828000D03*
D78*
X84750Y828000D03*
D81*
X119250Y828000D03*
D49*
X131250Y828000D03*
X142750Y828000D03*
D52*
X149750Y828000D03*
D57*
X59000Y828500D03*
D46*
X72500Y828500D03*
D58*
X82750Y828500D03*
D81*
X119250Y828500D03*
D46*
X131500Y828500D03*
D56*
X149000Y828500D03*
D89*
X71750Y829000D03*
D115*
X132000Y829000D03*
D89*
X71750Y829500D03*
D115*
X132000Y829500D03*
D89*
X71750Y830000D03*
D115*
X132000Y830000D03*
D89*
X71750Y830500D03*
D115*
X132000Y830500D03*
D89*
X71750Y831000D03*
D115*
X132000Y831000D03*
D89*
X71750Y831500D03*
D115*
X132000Y831500D03*
D89*
X71750Y832000D03*
D115*
X132000Y832000D03*
D90*
X72000Y832500D03*
D115*
X132000Y832500D03*
D90*
X72000Y833000D03*
D115*
X132000Y833000D03*
D90*
X72000Y833500D03*
D80*
X119500Y833500D03*
D49*
X131250Y833500D03*
D55*
X147250Y833500D03*
D49*
X56250Y834000D03*
D46*
X73000Y834000D03*
D58*
X82750Y834000D03*
D81*
X119250Y834000D03*
D46*
X142500Y834000D03*
D52*
X149250Y834000D03*
D49*
X56250Y834500D03*
D58*
X82750Y834500D03*
D81*
X119250Y834500D03*
D46*
X142500Y834500D03*
D52*
X149250Y834500D03*
D49*
X56250Y835000D03*
D58*
X82750Y835000D03*
D81*
X119250Y835000D03*
D46*
X142500Y835000D03*
D52*
X149250Y835000D03*
D46*
X56000Y835500D03*
D53*
X78750Y835500D03*
D78*
X84750Y835500D03*
D81*
X119250Y835500D03*
D46*
X142500Y835500D03*
D52*
X149250Y835500D03*
D46*
X56000Y836000D03*
D76*
X78500Y836000D03*
D56*
X85000Y836000D03*
D81*
X119250Y836000D03*
D46*
X142500Y836000D03*
X143500Y836000D03*
D52*
X149250Y836000D03*
D46*
X56000Y836500D03*
D76*
X78500Y836500D03*
D56*
X85000Y836500D03*
D81*
X119250Y836500D03*
D46*
X142500Y836500D03*
X143500Y836500D03*
D52*
X149250Y836500D03*
D46*
X56000Y837000D03*
D76*
X78500Y837000D03*
D56*
X85000Y837000D03*
D81*
X119250Y837000D03*
D49*
X142750Y837000D03*
D52*
X149250Y837000D03*
D46*
X56000Y837500D03*
D76*
X78500Y837500D03*
D56*
X85000Y837500D03*
D81*
X119250Y837500D03*
D49*
X142750Y837500D03*
D52*
X149250Y837500D03*
D46*
X56000Y838000D03*
D76*
X78500Y838000D03*
D56*
X85000Y838000D03*
D81*
X119250Y838000D03*
D46*
X132000Y838000D03*
D55*
X147250Y838000D03*
D46*
X56000Y838500D03*
D76*
X78500Y838500D03*
D56*
X85000Y838500D03*
D81*
X119250Y838500D03*
D46*
X132000Y838500D03*
D55*
X147250Y838500D03*
D46*
X56000Y839000D03*
D53*
X78750Y839000D03*
D56*
X85000Y839000D03*
D81*
X119250Y839000D03*
D49*
X131750Y839000D03*
D55*
X147250Y839000D03*
D47*
X58250Y839500D03*
D77*
X74500Y839500D03*
D60*
X82500Y839500D03*
D81*
X119250Y839500D03*
D74*
X130000Y839500D03*
D55*
X147250Y839500D03*
D47*
X58250Y840000D03*
D77*
X74500Y840000D03*
D60*
X82500Y840000D03*
D81*
X119250Y840000D03*
D74*
X130000Y840000D03*
D55*
X147250Y840000D03*
D50*
X58500Y840500D03*
D80*
X80500Y840500D03*
D72*
X122000Y840500D03*
D55*
X147250Y840500D03*
D47*
X58750Y841000D03*
D80*
X80500Y841000D03*
D72*
X122000Y841000D03*
D55*
X147250Y841000D03*
D47*
X58750Y841500D03*
D46*
X73000Y841500D03*
D84*
X81000Y841500D03*
D72*
X122000Y841500D03*
D77*
X144000Y841500D03*
D52*
X149250Y841500D03*
D47*
X58750Y842000D03*
D46*
X73000Y842000D03*
D84*
X81000Y842000D03*
D72*
X122000Y842000D03*
D77*
X144000Y842000D03*
D52*
X149250Y842000D03*
D47*
X58750Y842500D03*
D64*
X81250Y842500D03*
D72*
X122000Y842500D03*
D77*
X144000Y842500D03*
D52*
X149250Y842500D03*
D47*
X58750Y843000D03*
D59*
X75500Y843000D03*
D58*
X82250Y843000D03*
D72*
X122000Y843000D03*
D77*
X144000Y843000D03*
D52*
X149250Y843000D03*
D47*
X58750Y843500D03*
D59*
X75500Y843500D03*
D58*
X82250Y843500D03*
D72*
X122000Y843500D03*
D77*
X144000Y843500D03*
D52*
X149250Y843500D03*
D85*
X58250Y844000D03*
D58*
X82250Y844000D03*
X117250Y844000D03*
D134*
X128000Y844000D03*
D77*
X144000Y844000D03*
D52*
X149250Y844000D03*
D47*
X58750Y844500D03*
D52*
X79750Y844500D03*
D74*
X85500Y844500D03*
D58*
X117250Y844500D03*
D50*
X129500Y844500D03*
D77*
X144000Y844500D03*
D52*
X149250Y844500D03*
D47*
X58750Y845000D03*
D52*
X79750Y845000D03*
D74*
X85500Y845000D03*
D58*
X117250Y845000D03*
D50*
X129500Y845000D03*
D77*
X144000Y845000D03*
D52*
X149250Y845000D03*
D50*
X59000Y845500D03*
D46*
X72500Y845500D03*
D50*
X79500Y845500D03*
D85*
X85750Y845500D03*
D61*
X117000Y845500D03*
D50*
X129500Y845500D03*
D77*
X144000Y845500D03*
D52*
X149250Y845500D03*
D50*
X59000Y846000D03*
D46*
X72500Y846000D03*
D50*
X79500Y846000D03*
D77*
X86000Y846000D03*
D61*
X117000Y846000D03*
D50*
X129500Y846000D03*
D77*
X144000Y846000D03*
D52*
X149250Y846000D03*
D50*
X59000Y846500D03*
D46*
X72500Y846500D03*
D50*
X79500Y846500D03*
D77*
X86000Y846500D03*
D61*
X117000Y846500D03*
D50*
X129500Y846500D03*
D77*
X144000Y846500D03*
D52*
X149250Y846500D03*
D50*
X59000Y847000D03*
D46*
X72500Y847000D03*
D50*
X79500Y847000D03*
D77*
X86000Y847000D03*
D61*
X117000Y847000D03*
D52*
X129750Y847000D03*
D77*
X144000Y847000D03*
D52*
X149250Y847000D03*
D50*
X59000Y847500D03*
D46*
X72500Y847500D03*
D50*
X79500Y847500D03*
D77*
X86000Y847500D03*
D61*
X117000Y847500D03*
D50*
X129500Y847500D03*
D77*
X144000Y847500D03*
D52*
X149250Y847500D03*
D50*
X59000Y848000D03*
D46*
X72500Y848000D03*
D50*
X79500Y848000D03*
D77*
X86000Y848000D03*
D61*
X117000Y848000D03*
D50*
X129500Y848000D03*
D77*
X144000Y848000D03*
D52*
X149250Y848000D03*
D50*
X59000Y848500D03*
D46*
X72500Y848500D03*
D50*
X79500Y848500D03*
D77*
X86000Y848500D03*
D61*
X117000Y848500D03*
D50*
X129500Y848500D03*
D77*
X144000Y848500D03*
D52*
X149250Y848500D03*
D50*
X59000Y849000D03*
D46*
X72500Y849000D03*
D50*
X79500Y849000D03*
D62*
X88750Y849000D03*
D96*
X112250Y849000D03*
D52*
X129750Y849000D03*
D53*
X143750Y849000D03*
D50*
X149500Y849000D03*
X59000Y849500D03*
D46*
X72500Y849500D03*
D50*
X79500Y849500D03*
D62*
X88750Y849500D03*
D96*
X112250Y849500D03*
D52*
X129750Y849500D03*
D53*
X143750Y849500D03*
D50*
X149500Y849500D03*
X59000Y850000D03*
D46*
X72500Y850000D03*
D50*
X79500Y850000D03*
D135*
X103250Y850000D03*
D52*
X129750Y850000D03*
D76*
X143500Y850000D03*
D50*
X149500Y850000D03*
X59000Y850500D03*
D46*
X72500Y850500D03*
D50*
X79500Y850500D03*
D135*
X103250Y850500D03*
D52*
X129750Y850500D03*
D50*
X149500Y850500D03*
X59000Y851000D03*
D46*
X72500Y851000D03*
D50*
X79500Y851000D03*
D136*
X103000Y851000D03*
D52*
X129750Y851000D03*
D50*
X149500Y851000D03*
X59000Y851500D03*
D46*
X72500Y851500D03*
D52*
X79750Y851500D03*
D136*
X103000Y851500D03*
D50*
X130000Y851500D03*
X149500Y851500D03*
X59000Y852000D03*
D46*
X72500Y852000D03*
D52*
X79750Y852000D03*
D136*
X103000Y852000D03*
D50*
X130000Y852000D03*
X149500Y852000D03*
D53*
X57750Y852500D03*
D59*
X63000Y852500D03*
D53*
X66750Y852500D03*
D46*
X72500Y852500D03*
D54*
X78750Y852500D03*
D136*
X103000Y852500D03*
D50*
X130000Y852500D03*
D48*
X142750Y852500D03*
D50*
X149500Y852500D03*
X65000Y853000D03*
D74*
X74500Y853000D03*
D49*
X82250Y853000D03*
D136*
X103000Y853000D03*
D50*
X130000Y853000D03*
D55*
X141750Y853000D03*
D74*
X150500Y853000D03*
D50*
X65000Y853500D03*
D74*
X74500Y853500D03*
D136*
X103000Y853500D03*
D65*
X134000Y853500D03*
D50*
X144000Y853500D03*
X65000Y854000D03*
D74*
X74500Y854000D03*
D136*
X103000Y854000D03*
D65*
X134000Y854000D03*
D50*
X144000Y854000D03*
X65000Y854500D03*
D47*
X74750Y854500D03*
D74*
X86000Y854500D03*
D46*
X107500Y854500D03*
D61*
X117000Y854500D03*
D51*
X133500Y854500D03*
D59*
X140000Y854500D03*
D50*
X144000Y854500D03*
X65000Y855000D03*
D47*
X74750Y855000D03*
X85750Y855000D03*
D85*
X113750Y855000D03*
D52*
X119250Y855000D03*
D62*
X133250Y855000D03*
D46*
X139500Y855000D03*
D50*
X144000Y855000D03*
X65000Y855500D03*
D47*
X74750Y855500D03*
X85750Y855500D03*
D85*
X113750Y855500D03*
D52*
X119250Y855500D03*
D62*
X133250Y855500D03*
D46*
X139500Y855500D03*
D50*
X144000Y855500D03*
X65000Y856000D03*
D47*
X74750Y856000D03*
X85750Y856000D03*
D61*
X117000Y856000D03*
D134*
X133000Y856000D03*
D50*
X144500Y856000D03*
X65000Y856500D03*
D47*
X74750Y856500D03*
X85750Y856500D03*
D61*
X117000Y856500D03*
D134*
X133000Y856500D03*
D50*
X144500Y856500D03*
X65000Y857000D03*
D47*
X74750Y857000D03*
X85750Y857000D03*
D61*
X117000Y857000D03*
D134*
X133000Y857000D03*
D50*
X144500Y857000D03*
X65000Y857500D03*
D47*
X74750Y857500D03*
X85750Y857500D03*
D61*
X117000Y857500D03*
D134*
X133000Y857500D03*
D52*
X144250Y857500D03*
D50*
X65000Y858000D03*
D47*
X74750Y858000D03*
X85750Y858000D03*
D61*
X117000Y858000D03*
D54*
X132750Y858000D03*
D50*
X144500Y858000D03*
X65000Y858500D03*
D47*
X74750Y858500D03*
X85750Y858500D03*
D61*
X117000Y858500D03*
D54*
X132750Y858500D03*
D50*
X144500Y858500D03*
D81*
X69750Y859000D03*
D47*
X85750Y859000D03*
D61*
X117000Y859000D03*
D54*
X135750Y859000D03*
D50*
X144500Y859000D03*
D81*
X69750Y859500D03*
D47*
X85750Y859500D03*
D61*
X117000Y859500D03*
D54*
X135750Y859500D03*
D50*
X144500Y859500D03*
D46*
X62500Y860000D03*
D55*
X72250Y860000D03*
D47*
X85750Y860000D03*
D61*
X117000Y860000D03*
D54*
X137250Y860000D03*
D50*
X144500Y860000D03*
D52*
X70250Y860500D03*
D47*
X85750Y860500D03*
D61*
X117000Y860500D03*
D75*
X140250Y860500D03*
D52*
X70250Y861000D03*
D47*
X85750Y861000D03*
D61*
X117000Y861000D03*
D75*
X140250Y861000D03*
D50*
X70000Y861500D03*
D47*
X85750Y861500D03*
D61*
X117000Y861500D03*
D134*
X137500Y861500D03*
D50*
X70000Y862000D03*
D47*
X85750Y862000D03*
D61*
X117000Y862000D03*
D62*
X137750Y862000D03*
D50*
X70000Y862500D03*
D47*
X85750Y862500D03*
D61*
X117000Y862500D03*
D62*
X137750Y862500D03*
D50*
X70000Y863000D03*
D47*
X85750Y863000D03*
D61*
X117000Y863000D03*
D62*
X137750Y863000D03*
D50*
X70000Y863500D03*
D47*
X85750Y863500D03*
D61*
X117000Y863500D03*
D62*
X137750Y863500D03*
D50*
X70000Y864000D03*
D47*
X85750Y864000D03*
D61*
X117000Y864000D03*
D62*
X137750Y864000D03*
D50*
X70000Y864500D03*
D47*
X85750Y864500D03*
D61*
X117000Y864500D03*
D62*
X137750Y864500D03*
D50*
X70000Y865000D03*
D47*
X85750Y865000D03*
D61*
X117000Y865000D03*
D62*
X137750Y865000D03*
D50*
X70000Y865500D03*
D47*
X85750Y865500D03*
D61*
X117000Y865500D03*
D62*
X137750Y865500D03*
D50*
X70000Y866000D03*
D47*
X85750Y866000D03*
D61*
X117000Y866000D03*
D62*
X137750Y866000D03*
D50*
X70000Y866500D03*
D47*
X85750Y866500D03*
D61*
X117000Y866500D03*
D62*
X137750Y866500D03*
D47*
X85750Y867000D03*
D61*
X117000Y867000D03*
D47*
X85750Y867500D03*
D61*
X117000Y867500D03*
D47*
X85750Y868000D03*
D61*
X117000Y868000D03*
D47*
X85750Y868500D03*
D61*
X117000Y868500D03*
D47*
X85750Y869000D03*
D61*
X117000Y869000D03*
D47*
X85750Y869500D03*
D61*
X117000Y869500D03*
D47*
X85750Y870000D03*
D61*
X117000Y870000D03*
D47*
X85750Y870500D03*
D61*
X117000Y870500D03*
D47*
X85750Y871000D03*
D61*
X117000Y871000D03*
D47*
X85750Y871500D03*
D61*
X117000Y871500D03*
D47*
X85750Y872000D03*
D61*
X117000Y872000D03*
D47*
X85750Y872500D03*
D61*
X117000Y872500D03*
D47*
X85750Y873000D03*
D61*
X117000Y873000D03*
D47*
X85750Y873500D03*
D61*
X117000Y873500D03*
D47*
X85750Y874000D03*
D61*
X117000Y874000D03*
D47*
X85750Y874500D03*
D61*
X117000Y874500D03*
D47*
X85750Y875000D03*
D61*
X117000Y875000D03*
D47*
X85750Y875500D03*
D61*
X117000Y875500D03*
D47*
X85750Y876000D03*
D61*
X117000Y876000D03*
D47*
X85750Y876500D03*
D61*
X117000Y876500D03*
D47*
X85750Y877000D03*
D61*
X117000Y877000D03*
D47*
X85750Y877500D03*
D61*
X117000Y877500D03*
D47*
X85750Y878000D03*
D61*
X117000Y878000D03*
D47*
X85750Y878500D03*
D61*
X117000Y878500D03*
D47*
X85750Y879000D03*
D61*
X117000Y879000D03*
D47*
X85750Y879500D03*
D61*
X117000Y879500D03*
D47*
X85750Y880000D03*
D61*
X117000Y880000D03*
D47*
X85750Y880500D03*
D61*
X117000Y880500D03*
D47*
X85750Y881000D03*
D61*
X117000Y881000D03*
D47*
X85750Y881500D03*
D61*
X117000Y881500D03*
D47*
X85750Y882000D03*
D61*
X117000Y882000D03*
D47*
X85750Y882500D03*
D61*
X117000Y882500D03*
D47*
X85750Y883000D03*
D58*
X117250Y883000D03*
D47*
X85750Y883500D03*
D58*
X117250Y883500D03*
D47*
X85750Y884000D03*
D58*
X117250Y884000D03*
D47*
X85750Y884500D03*
D58*
X117250Y884500D03*
D47*
X85750Y885000D03*
D58*
X117250Y885000D03*
D47*
X85750Y885500D03*
D58*
X117250Y885500D03*
D47*
X85750Y886000D03*
D58*
X117250Y886000D03*
D47*
X85750Y886500D03*
D58*
X117250Y886500D03*
D47*
X85750Y887000D03*
D58*
X117250Y887000D03*
D47*
X85750Y887500D03*
D58*
X117250Y887500D03*
D47*
X85750Y888000D03*
D58*
X117250Y888000D03*
D47*
X85750Y888500D03*
D58*
X117250Y888500D03*
D47*
X85750Y889000D03*
D58*
X117250Y889000D03*
D47*
X85750Y889500D03*
D58*
X117250Y889500D03*
D47*
X85750Y890000D03*
D58*
X117250Y890000D03*
D47*
X85750Y890500D03*
D58*
X117250Y890500D03*
D47*
X85750Y891000D03*
D58*
X117250Y891000D03*
D47*
X85750Y891500D03*
D60*
X117500Y891500D03*
D47*
X85750Y892000D03*
D60*
X117500Y892000D03*
D47*
X85750Y892500D03*
D60*
X117500Y892500D03*
D47*
X85750Y893000D03*
D60*
X117500Y893000D03*
D47*
X85750Y893500D03*
D60*
X117500Y893500D03*
D47*
X85750Y894000D03*
D60*
X117500Y894000D03*
D47*
X85750Y894500D03*
D60*
X117500Y894500D03*
D47*
X85750Y895000D03*
D63*
X117750Y895000D03*
D47*
X85750Y895500D03*
D63*
X117750Y895500D03*
D47*
X85750Y896000D03*
D63*
X117750Y896000D03*
D47*
X85750Y896500D03*
D63*
X117750Y896500D03*
D47*
X85750Y897000D03*
D63*
X117750Y897000D03*
D47*
X85750Y897500D03*
D63*
X117750Y897500D03*
D47*
X85750Y898000D03*
D63*
X117750Y898000D03*
D47*
X85750Y898500D03*
D63*
X117750Y898500D03*
D47*
X85750Y899000D03*
D63*
X117750Y899000D03*
D47*
X85750Y899500D03*
D63*
X117750Y899500D03*
D47*
X85750Y900000D03*
D63*
X117750Y900000D03*
D47*
X85750Y900500D03*
D122*
X118000Y900500D03*
D47*
X85750Y901000D03*
D122*
X118000Y901000D03*
D119*
X103750Y901500D03*
X103750Y902000D03*
X103750Y902500D03*
X103750Y903000D03*
X103750Y903500D03*
D137*
X103500Y904000D03*
X103500Y904500D03*
X103500Y905000D03*
X103500Y905500D03*
X103500Y906000D03*
X103500Y906500D03*
X103500Y907000D03*
X103500Y907500D03*
X103500Y908000D03*
X103500Y908500D03*
X103500Y909000D03*
X103500Y909500D03*
D123*
X103750Y910000D03*
X103750Y910500D03*
X103750Y911000D03*
X103750Y911500D03*
X103750Y912000D03*
X103750Y912500D03*
X103750Y913000D03*
X103750Y913500D03*
X103750Y914000D03*
X103750Y914500D03*
X103750Y915000D03*
X103750Y915500D03*
X103750Y916000D03*
X103750Y916500D03*
X103750Y917000D03*
X103750Y917500D03*
X103750Y918000D03*
X103750Y918500D03*
X103750Y919000D03*
D50*
X85500Y919500D03*
D46*
X107500Y919500D03*
D64*
X118250Y919500D03*
D50*
X85500Y920000D03*
D46*
X107500Y920000D03*
D64*
X118250Y920000D03*
D50*
X85500Y920500D03*
D64*
X118250Y920500D03*
D50*
X85500Y921000D03*
D65*
X118500Y921000D03*
D50*
X85500Y921500D03*
D65*
X118500Y921500D03*
D50*
X85500Y922000D03*
D65*
X118500Y922000D03*
D50*
X85500Y922500D03*
D65*
X118500Y922500D03*
D50*
X85500Y923000D03*
D65*
X118500Y923000D03*
D50*
X85500Y923500D03*
D65*
X118500Y923500D03*
D50*
X85500Y924000D03*
D65*
X118500Y924000D03*
D47*
X85250Y924500D03*
D65*
X118500Y924500D03*
D47*
X85250Y925000D03*
D65*
X118500Y925000D03*
D47*
X85250Y925500D03*
D65*
X118500Y925500D03*
D47*
X85250Y926000D03*
D65*
X118500Y926000D03*
D47*
X85250Y926500D03*
D65*
X118500Y926500D03*
D47*
X85250Y927000D03*
D75*
X118750Y927000D03*
D47*
X85250Y927500D03*
D75*
X118750Y927500D03*
D47*
X85250Y928000D03*
D75*
X118750Y928000D03*
D47*
X85250Y928500D03*
D75*
X118750Y928500D03*
D47*
X85250Y929000D03*
D75*
X118750Y929000D03*
D47*
X85250Y929500D03*
D75*
X118750Y929500D03*
D47*
X85250Y930000D03*
D75*
X118750Y930000D03*
D47*
X85250Y930500D03*
D75*
X118750Y930500D03*
D47*
X85250Y931000D03*
D81*
X118750Y931000D03*
D47*
X85250Y931500D03*
D81*
X118750Y931500D03*
D47*
X85250Y932000D03*
D81*
X118750Y932000D03*
D47*
X85250Y932500D03*
D81*
X118750Y932500D03*
D47*
X85250Y933000D03*
D81*
X118750Y933000D03*
D47*
X85250Y933500D03*
D81*
X118750Y933500D03*
D47*
X85250Y934000D03*
D81*
X118750Y934000D03*
D47*
X85250Y934500D03*
D81*
X118750Y934500D03*
D47*
X85250Y935000D03*
D81*
X118750Y935000D03*
D47*
X85250Y935500D03*
D81*
X118750Y935500D03*
D47*
X85250Y936000D03*
D81*
X118750Y936000D03*
D47*
X85250Y936500D03*
D81*
X118750Y936500D03*
D47*
X85250Y937000D03*
D81*
X118750Y937000D03*
D47*
X85250Y937500D03*
D81*
X118750Y937500D03*
D47*
X85250Y938000D03*
D81*
X118750Y938000D03*
D47*
X85250Y938500D03*
D80*
X119000Y938500D03*
D47*
X85250Y939000D03*
D80*
X119000Y939000D03*
D47*
X85250Y939500D03*
D80*
X119000Y939500D03*
D74*
X90000Y940000D03*
D55*
X116250Y940000D03*
D74*
X90000Y940500D03*
D55*
X116250Y940500D03*
D74*
X90000Y941000D03*
D55*
X116250Y941000D03*
D74*
X90000Y941500D03*
D55*
X116250Y941500D03*
D74*
X90000Y942000D03*
D55*
X116250Y942000D03*
D74*
X90000Y942500D03*
D55*
X116250Y942500D03*
D74*
X90000Y943000D03*
D55*
X116250Y943000D03*
D74*
X90000Y943500D03*
D55*
X116250Y943500D03*
D74*
X90000Y944000D03*
D55*
X116250Y944000D03*
D74*
X90000Y944500D03*
D55*
X116250Y944500D03*
D74*
X90000Y945000D03*
D55*
X116250Y945000D03*
D74*
X90000Y945500D03*
D55*
X116250Y945500D03*
D74*
X90000Y946000D03*
D55*
X116250Y946000D03*
D74*
X90000Y946500D03*
D55*
X116250Y946500D03*
D47*
X89750Y947000D03*
D55*
X116250Y947000D03*
D47*
X89750Y947500D03*
D55*
X116250Y947500D03*
D47*
X89750Y948000D03*
D55*
X116250Y948000D03*
D47*
X89750Y948500D03*
D55*
X116250Y948500D03*
D47*
X89750Y949000D03*
D55*
X116250Y949000D03*
D47*
X89750Y949500D03*
D55*
X116250Y949500D03*
D47*
X89750Y950000D03*
D55*
X116250Y950000D03*
D47*
X89750Y950500D03*
D55*
X116250Y950500D03*
D47*
X89750Y951000D03*
D55*
X116250Y951000D03*
D47*
X89750Y951500D03*
D55*
X116250Y951500D03*
D47*
X89750Y952000D03*
D48*
X95250Y952000D03*
D55*
X116250Y952000D03*
D47*
X89750Y952500D03*
D53*
X95250Y952500D03*
D55*
X116250Y952500D03*
D51*
X92000Y953000D03*
D55*
X116250Y953000D03*
D51*
X92000Y953500D03*
D55*
X116250Y953500D03*
D74*
X94500Y954000D03*
D55*
X116250Y954000D03*
D74*
X94500Y954500D03*
D50*
X114000Y954500D03*
D74*
X94500Y955000D03*
D50*
X114000Y955000D03*
D47*
X94250Y955500D03*
D50*
X114000Y955500D03*
D47*
X94250Y956000D03*
D46*
X107500Y956000D03*
D50*
X114000Y956000D03*
D47*
X94250Y956500D03*
D46*
X107500Y956500D03*
D50*
X114000Y956500D03*
D47*
X94250Y957000D03*
D46*
X107500Y957000D03*
D50*
X114000Y957000D03*
D47*
X94250Y957500D03*
D46*
X107500Y957500D03*
D50*
X114000Y957500D03*
D47*
X94250Y958000D03*
D46*
X107500Y958000D03*
D50*
X114000Y958000D03*
D47*
X94250Y958500D03*
D46*
X107500Y958500D03*
D50*
X114000Y958500D03*
D47*
X94250Y959000D03*
D46*
X107500Y959000D03*
D50*
X114000Y959000D03*
D47*
X94250Y959500D03*
D46*
X107500Y959500D03*
D50*
X114000Y959500D03*
D47*
X94250Y960000D03*
D46*
X107500Y960000D03*
D50*
X114000Y960000D03*
D47*
X94250Y960500D03*
D46*
X107500Y960500D03*
D50*
X114000Y960500D03*
D47*
X94250Y961000D03*
D48*
X100750Y961000D03*
D59*
X107500Y961000D03*
D47*
X114250Y961000D03*
D59*
X92500Y961500D03*
D56*
X98500Y961500D03*
D55*
X111750Y961500D03*
D59*
X92500Y962000D03*
D56*
X98500Y962000D03*
D55*
X111750Y962000D03*
D47*
X99250Y962500D03*
X109250Y962500D03*
X99250Y963000D03*
X109250Y963000D03*
X99250Y963500D03*
X109250Y963500D03*
X99250Y964000D03*
X109250Y964000D03*
X99250Y964500D03*
X109250Y964500D03*
X99250Y965000D03*
X109250Y965000D03*
X99250Y965500D03*
X109250Y965500D03*
X99250Y966000D03*
X109250Y966000D03*
X99250Y966500D03*
X109250Y966500D03*
X99250Y967000D03*
X109250Y967000D03*
X99250Y967500D03*
X109250Y967500D03*
X99250Y968000D03*
X109250Y968000D03*
D50*
X99000Y968500D03*
D78*
X108250Y968500D03*
D49*
X96750Y969000D03*
D50*
X104000Y969000D03*
D46*
X111500Y969000D03*
X96500Y969500D03*
D52*
X104250Y969500D03*
D46*
X96500Y970000D03*
D52*
X104250Y970000D03*
D50*
X104500Y970500D03*
X104500Y971000D03*
X104500Y971500D03*
X104500Y972000D03*
X104500Y972500D03*
X104500Y973000D03*
X104500Y973500D03*
X104500Y974000D03*
X104500Y974500D03*
D49*
X102250Y975000D03*
X102250Y975500D03*
D11*
X65000Y560000D02*
X65000Y526256D01*
X65000Y514978D02*
X65000Y513150D01*
X65000Y501872D02*
X65000Y468128D01*
X65000Y456850D02*
X65000Y455022D01*
X65000Y443744D02*
X65000Y410000D01*
X140000Y525942D02*
X140000Y560000D01*
X140000Y514664D02*
X140000Y512836D01*
X140000Y501558D02*
X140000Y467500D01*
X205000Y440000D02*
X205000Y410000D01*
X140000Y455000D02*
X140000Y457500D01*
X177500Y447500D02*
X197500Y447500D01*
X167500Y447500D02*
X147500Y447500D01*
M02*
