G04 EAGLE Gerber RS-274X export*
G75*
%MOMM*%
%FSLAX34Y34*%
%LPD*%
%INSilkscreen Top*%
%IPPOS*%
%AMOC8*
5,1,8,0,0,1.08239X$1,22.5*%
G01*
%ADD10C,0.228600*%
%ADD11C,0.304800*%
%ADD12C,0.355600*%
%ADD13R,0.375000X0.125000*%
%ADD14R,0.875000X0.125000*%
%ADD15R,1.000000X0.125000*%
%ADD16R,0.625000X0.125000*%
%ADD17R,0.500000X0.125000*%
%ADD18R,1.500000X0.125000*%
%ADD19R,0.250000X0.125000*%
%ADD20R,0.750000X0.125000*%
%ADD21R,1.375000X0.125000*%
%ADD22R,1.875000X0.125000*%
%ADD23R,0.125000X0.125000*%
%ADD24R,1.125000X0.125000*%
%ADD25R,1.625000X0.125000*%
%ADD26R,2.125000X0.125000*%
%ADD27R,1.750000X0.125000*%
%ADD28R,2.000000X0.125000*%
%ADD29R,2.375000X0.125000*%
%ADD30R,2.250000X0.125000*%
%ADD31R,1.250000X0.125000*%
%ADD32R,2.500000X0.125000*%
%ADD33R,3.250000X0.125000*%
%ADD34R,3.125000X0.125000*%
%ADD35R,2.875000X0.125000*%
%ADD36R,3.500000X0.125000*%
%ADD37R,3.625000X0.125000*%
%ADD38R,4.625000X0.125000*%
%ADD39R,3.375000X0.125000*%
%ADD40R,3.000000X0.125000*%
%ADD41R,2.750000X0.125000*%
%ADD42R,6.125000X0.125000*%
%ADD43R,5.375000X0.125000*%
%ADD44R,3.750000X0.125000*%
%ADD45R,2.625000X0.125000*%


D10*
X21143Y651143D02*
X21143Y674257D01*
X21143Y663984D02*
X33984Y663984D01*
X33984Y674257D02*
X33984Y651143D01*
X42718Y657564D02*
X42718Y667836D01*
X42717Y667836D02*
X42719Y667995D01*
X42725Y668154D01*
X42735Y668312D01*
X42748Y668470D01*
X42766Y668628D01*
X42788Y668786D01*
X42813Y668942D01*
X42842Y669098D01*
X42875Y669254D01*
X42912Y669408D01*
X42953Y669562D01*
X42998Y669714D01*
X43046Y669865D01*
X43098Y670016D01*
X43154Y670164D01*
X43213Y670312D01*
X43276Y670457D01*
X43343Y670602D01*
X43413Y670744D01*
X43487Y670885D01*
X43564Y671024D01*
X43645Y671160D01*
X43729Y671295D01*
X43816Y671428D01*
X43906Y671559D01*
X44000Y671687D01*
X44097Y671813D01*
X44197Y671936D01*
X44300Y672057D01*
X44405Y672176D01*
X44514Y672291D01*
X44626Y672404D01*
X44740Y672515D01*
X44857Y672622D01*
X44977Y672726D01*
X45099Y672828D01*
X45224Y672926D01*
X45351Y673021D01*
X45480Y673113D01*
X45612Y673202D01*
X45746Y673288D01*
X45882Y673370D01*
X46020Y673449D01*
X46159Y673524D01*
X46301Y673596D01*
X46444Y673665D01*
X46589Y673730D01*
X46736Y673791D01*
X46884Y673848D01*
X47033Y673902D01*
X47184Y673952D01*
X47336Y673999D01*
X47489Y674042D01*
X47643Y674081D01*
X47798Y674116D01*
X47954Y674147D01*
X48110Y674174D01*
X48267Y674198D01*
X48425Y674217D01*
X48583Y674233D01*
X48741Y674245D01*
X48900Y674253D01*
X49059Y674257D01*
X49217Y674257D01*
X49376Y674253D01*
X49535Y674245D01*
X49693Y674233D01*
X49851Y674217D01*
X50009Y674198D01*
X50166Y674174D01*
X50322Y674147D01*
X50478Y674116D01*
X50633Y674081D01*
X50787Y674042D01*
X50940Y673999D01*
X51092Y673952D01*
X51243Y673902D01*
X51392Y673848D01*
X51540Y673791D01*
X51687Y673730D01*
X51832Y673665D01*
X51975Y673596D01*
X52117Y673524D01*
X52256Y673449D01*
X52394Y673370D01*
X52530Y673288D01*
X52664Y673202D01*
X52796Y673113D01*
X52925Y673021D01*
X53052Y672926D01*
X53177Y672828D01*
X53299Y672726D01*
X53419Y672622D01*
X53536Y672515D01*
X53650Y672404D01*
X53762Y672291D01*
X53871Y672176D01*
X53976Y672057D01*
X54079Y671936D01*
X54179Y671813D01*
X54276Y671687D01*
X54370Y671559D01*
X54460Y671428D01*
X54547Y671295D01*
X54631Y671160D01*
X54712Y671024D01*
X54789Y670885D01*
X54863Y670744D01*
X54933Y670602D01*
X55000Y670457D01*
X55063Y670312D01*
X55122Y670164D01*
X55178Y670016D01*
X55230Y669865D01*
X55278Y669714D01*
X55323Y669562D01*
X55364Y669408D01*
X55401Y669254D01*
X55434Y669098D01*
X55463Y668942D01*
X55488Y668786D01*
X55510Y668628D01*
X55528Y668470D01*
X55541Y668312D01*
X55551Y668154D01*
X55557Y667995D01*
X55559Y667836D01*
X55559Y657564D01*
X55557Y657405D01*
X55551Y657246D01*
X55541Y657088D01*
X55528Y656930D01*
X55510Y656772D01*
X55488Y656614D01*
X55463Y656458D01*
X55434Y656302D01*
X55401Y656146D01*
X55364Y655992D01*
X55323Y655838D01*
X55278Y655686D01*
X55230Y655535D01*
X55178Y655384D01*
X55122Y655236D01*
X55063Y655088D01*
X55000Y654943D01*
X54933Y654798D01*
X54863Y654656D01*
X54789Y654515D01*
X54712Y654376D01*
X54631Y654240D01*
X54547Y654105D01*
X54460Y653972D01*
X54370Y653841D01*
X54276Y653713D01*
X54179Y653587D01*
X54079Y653464D01*
X53976Y653343D01*
X53871Y653224D01*
X53762Y653109D01*
X53650Y652996D01*
X53536Y652885D01*
X53419Y652778D01*
X53299Y652674D01*
X53177Y652572D01*
X53052Y652474D01*
X52925Y652379D01*
X52796Y652287D01*
X52664Y652198D01*
X52530Y652112D01*
X52394Y652030D01*
X52256Y651951D01*
X52117Y651876D01*
X51975Y651804D01*
X51832Y651735D01*
X51687Y651670D01*
X51540Y651609D01*
X51392Y651552D01*
X51243Y651498D01*
X51092Y651448D01*
X50940Y651401D01*
X50787Y651358D01*
X50633Y651319D01*
X50478Y651284D01*
X50322Y651253D01*
X50166Y651226D01*
X50009Y651202D01*
X49851Y651183D01*
X49693Y651167D01*
X49535Y651155D01*
X49376Y651147D01*
X49217Y651143D01*
X49059Y651143D01*
X48900Y651147D01*
X48741Y651155D01*
X48583Y651167D01*
X48425Y651183D01*
X48267Y651202D01*
X48110Y651226D01*
X47954Y651253D01*
X47798Y651284D01*
X47643Y651319D01*
X47489Y651358D01*
X47336Y651401D01*
X47184Y651448D01*
X47033Y651498D01*
X46884Y651552D01*
X46736Y651609D01*
X46589Y651670D01*
X46444Y651735D01*
X46301Y651804D01*
X46159Y651876D01*
X46020Y651951D01*
X45882Y652030D01*
X45746Y652112D01*
X45612Y652198D01*
X45480Y652287D01*
X45351Y652379D01*
X45224Y652474D01*
X45099Y652572D01*
X44977Y652674D01*
X44857Y652778D01*
X44740Y652885D01*
X44626Y652996D01*
X44514Y653109D01*
X44405Y653224D01*
X44300Y653343D01*
X44197Y653464D01*
X44097Y653587D01*
X44000Y653713D01*
X43906Y653841D01*
X43816Y653972D01*
X43729Y654105D01*
X43645Y654240D01*
X43564Y654376D01*
X43487Y654515D01*
X43413Y654656D01*
X43343Y654798D01*
X43276Y654943D01*
X43213Y655088D01*
X43154Y655236D01*
X43098Y655384D01*
X43046Y655535D01*
X42998Y655686D01*
X42953Y655838D01*
X42912Y655992D01*
X42875Y656146D01*
X42842Y656302D01*
X42813Y656458D01*
X42788Y656614D01*
X42766Y656772D01*
X42748Y656930D01*
X42735Y657088D01*
X42725Y657246D01*
X42719Y657405D01*
X42717Y657564D01*
X64320Y651143D02*
X64320Y674257D01*
X64320Y651143D02*
X74593Y651143D01*
X82387Y651143D02*
X82387Y674257D01*
X88808Y674257D01*
X88966Y674255D01*
X89123Y674249D01*
X89280Y674240D01*
X89437Y674226D01*
X89594Y674209D01*
X89750Y674188D01*
X89906Y674162D01*
X90061Y674134D01*
X90215Y674101D01*
X90368Y674065D01*
X90521Y674024D01*
X90672Y673981D01*
X90822Y673933D01*
X90971Y673882D01*
X91119Y673827D01*
X91265Y673768D01*
X91410Y673706D01*
X91553Y673641D01*
X91695Y673571D01*
X91835Y673499D01*
X91973Y673423D01*
X92109Y673343D01*
X92243Y673261D01*
X92375Y673175D01*
X92505Y673086D01*
X92633Y672993D01*
X92758Y672898D01*
X92881Y672800D01*
X93002Y672698D01*
X93120Y672594D01*
X93236Y672486D01*
X93348Y672376D01*
X93458Y672264D01*
X93566Y672148D01*
X93670Y672030D01*
X93772Y671909D01*
X93870Y671786D01*
X93965Y671661D01*
X94058Y671533D01*
X94147Y671403D01*
X94233Y671271D01*
X94315Y671137D01*
X94395Y671001D01*
X94471Y670863D01*
X94543Y670723D01*
X94613Y670581D01*
X94678Y670438D01*
X94740Y670293D01*
X94799Y670147D01*
X94854Y669999D01*
X94905Y669850D01*
X94953Y669700D01*
X94996Y669549D01*
X95037Y669396D01*
X95073Y669243D01*
X95106Y669089D01*
X95134Y668934D01*
X95160Y668778D01*
X95181Y668622D01*
X95198Y668465D01*
X95212Y668308D01*
X95221Y668151D01*
X95227Y667994D01*
X95229Y667836D01*
X95228Y667836D02*
X95228Y657564D01*
X95229Y657564D02*
X95227Y657406D01*
X95221Y657249D01*
X95212Y657092D01*
X95198Y656935D01*
X95181Y656778D01*
X95160Y656622D01*
X95134Y656466D01*
X95106Y656311D01*
X95073Y656157D01*
X95037Y656004D01*
X94996Y655851D01*
X94953Y655700D01*
X94905Y655550D01*
X94854Y655401D01*
X94799Y655253D01*
X94740Y655107D01*
X94678Y654962D01*
X94613Y654819D01*
X94543Y654677D01*
X94471Y654537D01*
X94395Y654399D01*
X94315Y654263D01*
X94233Y654129D01*
X94147Y653997D01*
X94058Y653867D01*
X93965Y653739D01*
X93870Y653614D01*
X93771Y653491D01*
X93670Y653370D01*
X93566Y653252D01*
X93458Y653136D01*
X93348Y653024D01*
X93236Y652914D01*
X93120Y652806D01*
X93002Y652702D01*
X92881Y652600D01*
X92758Y652502D01*
X92633Y652407D01*
X92505Y652314D01*
X92375Y652225D01*
X92243Y652139D01*
X92109Y652057D01*
X91973Y651977D01*
X91835Y651901D01*
X91695Y651829D01*
X91553Y651759D01*
X91410Y651694D01*
X91265Y651632D01*
X91119Y651573D01*
X90971Y651518D01*
X90822Y651467D01*
X90672Y651419D01*
X90521Y651376D01*
X90368Y651335D01*
X90215Y651299D01*
X90061Y651266D01*
X89906Y651238D01*
X89750Y651212D01*
X89594Y651191D01*
X89437Y651174D01*
X89280Y651160D01*
X89123Y651151D01*
X88966Y651145D01*
X88808Y651143D01*
X82387Y651143D01*
X21143Y791143D02*
X21143Y814257D01*
X31416Y814257D01*
X31416Y803984D02*
X21143Y803984D01*
X37230Y791143D02*
X44935Y814257D01*
X52639Y791143D01*
X50713Y796922D02*
X39156Y796922D01*
X60117Y791143D02*
X60117Y814257D01*
X60117Y791143D02*
X70390Y791143D01*
X78212Y791143D02*
X78212Y814257D01*
X78212Y791143D02*
X88484Y791143D01*
X21143Y931143D02*
X21143Y954257D01*
X27564Y954257D01*
X27723Y954255D01*
X27882Y954249D01*
X28040Y954239D01*
X28198Y954226D01*
X28356Y954208D01*
X28514Y954186D01*
X28670Y954161D01*
X28826Y954132D01*
X28982Y954099D01*
X29136Y954062D01*
X29290Y954021D01*
X29442Y953976D01*
X29593Y953928D01*
X29744Y953876D01*
X29892Y953820D01*
X30040Y953761D01*
X30185Y953698D01*
X30330Y953631D01*
X30472Y953561D01*
X30613Y953487D01*
X30752Y953410D01*
X30888Y953329D01*
X31023Y953245D01*
X31156Y953158D01*
X31287Y953068D01*
X31415Y952974D01*
X31541Y952877D01*
X31664Y952777D01*
X31785Y952674D01*
X31904Y952569D01*
X32019Y952460D01*
X32132Y952348D01*
X32243Y952234D01*
X32350Y952117D01*
X32454Y951997D01*
X32556Y951875D01*
X32654Y951750D01*
X32749Y951623D01*
X32841Y951494D01*
X32930Y951362D01*
X33016Y951228D01*
X33098Y951092D01*
X33177Y950954D01*
X33252Y950815D01*
X33324Y950673D01*
X33393Y950530D01*
X33458Y950385D01*
X33519Y950238D01*
X33576Y950090D01*
X33630Y949941D01*
X33680Y949790D01*
X33727Y949638D01*
X33770Y949485D01*
X33809Y949331D01*
X33844Y949176D01*
X33875Y949020D01*
X33902Y948864D01*
X33926Y948707D01*
X33945Y948549D01*
X33961Y948391D01*
X33973Y948233D01*
X33981Y948074D01*
X33985Y947915D01*
X33985Y947757D01*
X33981Y947598D01*
X33973Y947439D01*
X33961Y947281D01*
X33945Y947123D01*
X33926Y946965D01*
X33902Y946808D01*
X33875Y946652D01*
X33844Y946496D01*
X33809Y946341D01*
X33770Y946187D01*
X33727Y946034D01*
X33680Y945882D01*
X33630Y945731D01*
X33576Y945582D01*
X33519Y945434D01*
X33458Y945287D01*
X33393Y945142D01*
X33324Y944999D01*
X33252Y944857D01*
X33177Y944718D01*
X33098Y944580D01*
X33016Y944444D01*
X32930Y944310D01*
X32841Y944178D01*
X32749Y944049D01*
X32654Y943922D01*
X32556Y943797D01*
X32454Y943675D01*
X32350Y943555D01*
X32243Y943438D01*
X32132Y943324D01*
X32019Y943212D01*
X31904Y943103D01*
X31785Y942998D01*
X31664Y942895D01*
X31541Y942795D01*
X31415Y942698D01*
X31287Y942604D01*
X31156Y942514D01*
X31023Y942427D01*
X30888Y942343D01*
X30752Y942262D01*
X30613Y942185D01*
X30472Y942111D01*
X30330Y942041D01*
X30185Y941974D01*
X30040Y941911D01*
X29892Y941852D01*
X29744Y941796D01*
X29593Y941744D01*
X29442Y941696D01*
X29290Y941651D01*
X29136Y941610D01*
X28982Y941573D01*
X28826Y941540D01*
X28670Y941511D01*
X28514Y941486D01*
X28356Y941464D01*
X28198Y941446D01*
X28040Y941433D01*
X27882Y941423D01*
X27723Y941417D01*
X27564Y941415D01*
X27564Y941416D02*
X21143Y941416D01*
X28848Y941416D02*
X33984Y931143D01*
X44193Y931143D02*
X44193Y954257D01*
X41625Y931143D02*
X46761Y931143D01*
X46761Y954257D02*
X41625Y954257D01*
X61484Y931143D02*
X61626Y931145D01*
X61767Y931151D01*
X61908Y931161D01*
X62049Y931174D01*
X62189Y931192D01*
X62329Y931213D01*
X62469Y931238D01*
X62607Y931267D01*
X62745Y931300D01*
X62882Y931337D01*
X63017Y931377D01*
X63152Y931421D01*
X63285Y931469D01*
X63417Y931521D01*
X63547Y931576D01*
X63676Y931634D01*
X63803Y931696D01*
X63928Y931762D01*
X64052Y931831D01*
X64174Y931904D01*
X64293Y931979D01*
X64411Y932058D01*
X64526Y932141D01*
X64639Y932226D01*
X64749Y932314D01*
X64857Y932406D01*
X64963Y932500D01*
X65065Y932598D01*
X65165Y932698D01*
X65263Y932800D01*
X65357Y932906D01*
X65449Y933014D01*
X65537Y933124D01*
X65622Y933237D01*
X65705Y933352D01*
X65784Y933470D01*
X65859Y933589D01*
X65932Y933711D01*
X66001Y933835D01*
X66067Y933960D01*
X66129Y934087D01*
X66187Y934216D01*
X66242Y934346D01*
X66294Y934478D01*
X66342Y934611D01*
X66386Y934746D01*
X66426Y934881D01*
X66463Y935018D01*
X66496Y935156D01*
X66525Y935294D01*
X66550Y935434D01*
X66571Y935574D01*
X66589Y935714D01*
X66602Y935855D01*
X66612Y935996D01*
X66618Y936137D01*
X66620Y936279D01*
X61484Y931143D02*
X61224Y931146D01*
X60965Y931155D01*
X60706Y931171D01*
X60447Y931193D01*
X60189Y931221D01*
X59932Y931255D01*
X59675Y931295D01*
X59420Y931341D01*
X59165Y931394D01*
X58912Y931452D01*
X58661Y931517D01*
X58411Y931587D01*
X58163Y931664D01*
X57917Y931746D01*
X57673Y931834D01*
X57431Y931928D01*
X57191Y932028D01*
X56954Y932134D01*
X56719Y932245D01*
X56487Y932362D01*
X56258Y932484D01*
X56032Y932612D01*
X55809Y932745D01*
X55590Y932883D01*
X55374Y933027D01*
X55161Y933176D01*
X54952Y933330D01*
X54746Y933488D01*
X54545Y933652D01*
X54347Y933820D01*
X54154Y933993D01*
X53964Y934171D01*
X53779Y934353D01*
X54422Y949121D02*
X54424Y949263D01*
X54430Y949404D01*
X54440Y949545D01*
X54453Y949686D01*
X54471Y949826D01*
X54492Y949966D01*
X54517Y950106D01*
X54546Y950244D01*
X54579Y950382D01*
X54616Y950519D01*
X54656Y950654D01*
X54700Y950789D01*
X54748Y950922D01*
X54800Y951054D01*
X54855Y951184D01*
X54913Y951313D01*
X54975Y951440D01*
X55041Y951565D01*
X55110Y951689D01*
X55183Y951811D01*
X55258Y951930D01*
X55337Y952048D01*
X55420Y952163D01*
X55505Y952276D01*
X55593Y952386D01*
X55685Y952494D01*
X55779Y952600D01*
X55877Y952702D01*
X55977Y952802D01*
X56079Y952900D01*
X56185Y952994D01*
X56293Y953086D01*
X56403Y953174D01*
X56516Y953259D01*
X56631Y953342D01*
X56749Y953421D01*
X56868Y953496D01*
X56990Y953569D01*
X57114Y953638D01*
X57239Y953704D01*
X57366Y953766D01*
X57495Y953824D01*
X57625Y953879D01*
X57757Y953931D01*
X57890Y953979D01*
X58025Y954023D01*
X58161Y954063D01*
X58297Y954100D01*
X58435Y954133D01*
X58573Y954162D01*
X58713Y954187D01*
X58853Y954208D01*
X58993Y954226D01*
X59134Y954239D01*
X59275Y954249D01*
X59417Y954255D01*
X59558Y954257D01*
X59788Y954254D01*
X60017Y954246D01*
X60246Y954232D01*
X60475Y954213D01*
X60703Y954189D01*
X60931Y954159D01*
X61157Y954123D01*
X61383Y954082D01*
X61608Y954036D01*
X61832Y953985D01*
X62054Y953928D01*
X62275Y953866D01*
X62495Y953798D01*
X62712Y953726D01*
X62928Y953648D01*
X63142Y953565D01*
X63354Y953477D01*
X63564Y953384D01*
X63772Y953286D01*
X63977Y953183D01*
X64180Y953076D01*
X64380Y952963D01*
X64577Y952846D01*
X64771Y952724D01*
X64963Y952597D01*
X65151Y952466D01*
X65337Y952331D01*
X56989Y944626D02*
X56868Y944700D01*
X56748Y944778D01*
X56630Y944858D01*
X56515Y944942D01*
X56402Y945029D01*
X56291Y945119D01*
X56183Y945212D01*
X56078Y945308D01*
X55975Y945406D01*
X55875Y945508D01*
X55777Y945612D01*
X55683Y945719D01*
X55592Y945828D01*
X55503Y945940D01*
X55418Y946054D01*
X55336Y946170D01*
X55257Y946289D01*
X55181Y946410D01*
X55108Y946533D01*
X55039Y946657D01*
X54974Y946784D01*
X54912Y946912D01*
X54853Y947042D01*
X54798Y947174D01*
X54747Y947307D01*
X54699Y947441D01*
X54655Y947576D01*
X54615Y947713D01*
X54578Y947851D01*
X54545Y947990D01*
X54516Y948129D01*
X54491Y948270D01*
X54470Y948410D01*
X54452Y948552D01*
X54439Y948694D01*
X54429Y948836D01*
X54423Y948978D01*
X54421Y949121D01*
X64053Y940774D02*
X64174Y940700D01*
X64294Y940622D01*
X64412Y940542D01*
X64527Y940458D01*
X64640Y940371D01*
X64751Y940281D01*
X64859Y940188D01*
X64964Y940092D01*
X65067Y939994D01*
X65167Y939892D01*
X65265Y939788D01*
X65359Y939681D01*
X65450Y939572D01*
X65539Y939460D01*
X65624Y939346D01*
X65706Y939230D01*
X65785Y939111D01*
X65861Y938990D01*
X65934Y938867D01*
X66003Y938743D01*
X66068Y938616D01*
X66130Y938488D01*
X66189Y938358D01*
X66244Y938226D01*
X66295Y938093D01*
X66343Y937959D01*
X66387Y937824D01*
X66427Y937687D01*
X66464Y937549D01*
X66497Y937410D01*
X66526Y937271D01*
X66551Y937130D01*
X66572Y936990D01*
X66590Y936848D01*
X66603Y936706D01*
X66613Y936564D01*
X66619Y936422D01*
X66621Y936279D01*
X64053Y940774D02*
X56990Y944626D01*
X74686Y931143D02*
X84959Y931143D01*
X74686Y931143D02*
X74686Y954257D01*
X84959Y954257D01*
X82391Y943984D02*
X74686Y943984D01*
X33984Y1083984D02*
X30132Y1083984D01*
X33984Y1083984D02*
X33984Y1071143D01*
X26279Y1071143D01*
X26137Y1071145D01*
X25996Y1071151D01*
X25855Y1071161D01*
X25714Y1071174D01*
X25574Y1071192D01*
X25434Y1071213D01*
X25294Y1071238D01*
X25156Y1071267D01*
X25018Y1071300D01*
X24881Y1071337D01*
X24746Y1071377D01*
X24611Y1071421D01*
X24478Y1071469D01*
X24346Y1071521D01*
X24216Y1071576D01*
X24087Y1071634D01*
X23960Y1071696D01*
X23835Y1071762D01*
X23711Y1071831D01*
X23589Y1071904D01*
X23470Y1071979D01*
X23352Y1072058D01*
X23237Y1072141D01*
X23124Y1072226D01*
X23014Y1072314D01*
X22906Y1072406D01*
X22800Y1072500D01*
X22698Y1072598D01*
X22598Y1072698D01*
X22500Y1072800D01*
X22406Y1072906D01*
X22314Y1073014D01*
X22226Y1073124D01*
X22141Y1073237D01*
X22058Y1073352D01*
X21979Y1073470D01*
X21904Y1073589D01*
X21831Y1073711D01*
X21762Y1073835D01*
X21696Y1073960D01*
X21634Y1074087D01*
X21576Y1074216D01*
X21521Y1074346D01*
X21469Y1074478D01*
X21421Y1074611D01*
X21377Y1074746D01*
X21337Y1074881D01*
X21300Y1075018D01*
X21267Y1075156D01*
X21238Y1075294D01*
X21213Y1075434D01*
X21192Y1075574D01*
X21174Y1075714D01*
X21161Y1075855D01*
X21151Y1075996D01*
X21145Y1076137D01*
X21143Y1076279D01*
X21143Y1089121D01*
X21145Y1089263D01*
X21151Y1089404D01*
X21161Y1089545D01*
X21174Y1089686D01*
X21192Y1089826D01*
X21213Y1089966D01*
X21238Y1090106D01*
X21267Y1090244D01*
X21300Y1090382D01*
X21337Y1090519D01*
X21377Y1090654D01*
X21421Y1090789D01*
X21469Y1090922D01*
X21521Y1091054D01*
X21576Y1091184D01*
X21634Y1091313D01*
X21696Y1091440D01*
X21762Y1091565D01*
X21831Y1091689D01*
X21904Y1091811D01*
X21979Y1091930D01*
X22058Y1092048D01*
X22141Y1092163D01*
X22226Y1092276D01*
X22314Y1092386D01*
X22406Y1092494D01*
X22500Y1092600D01*
X22598Y1092702D01*
X22698Y1092802D01*
X22800Y1092900D01*
X22906Y1092994D01*
X23014Y1093086D01*
X23124Y1093174D01*
X23237Y1093259D01*
X23352Y1093342D01*
X23470Y1093421D01*
X23589Y1093496D01*
X23711Y1093569D01*
X23835Y1093638D01*
X23960Y1093704D01*
X24087Y1093766D01*
X24216Y1093824D01*
X24346Y1093879D01*
X24478Y1093931D01*
X24611Y1093979D01*
X24746Y1094023D01*
X24881Y1094063D01*
X25018Y1094100D01*
X25156Y1094133D01*
X25294Y1094162D01*
X25434Y1094187D01*
X25574Y1094208D01*
X25714Y1094226D01*
X25855Y1094239D01*
X25996Y1094249D01*
X26137Y1094255D01*
X26279Y1094257D01*
X33984Y1094257D01*
X49138Y1094257D02*
X41434Y1071143D01*
X56843Y1071143D02*
X49138Y1094257D01*
X54917Y1076922D02*
X43360Y1076922D01*
X68625Y1071143D02*
X68625Y1094257D01*
X62205Y1094257D02*
X75046Y1094257D01*
X82415Y1071143D02*
X92688Y1071143D01*
X82415Y1071143D02*
X82415Y1094257D01*
X92688Y1094257D01*
X90120Y1083984D02*
X82415Y1083984D01*
D11*
X275000Y620000D02*
X275000Y590000D01*
X150000Y980000D02*
X150000Y1045000D01*
X150000Y905000D02*
X150000Y840000D01*
X150000Y765000D02*
X150000Y700000D01*
X275000Y700000D02*
X275000Y765000D01*
X275000Y840000D02*
X275000Y905000D01*
X275000Y980000D02*
X275000Y1045000D01*
X150000Y620000D02*
X150000Y594286D01*
X150000Y587383D02*
X150000Y586188D01*
X150000Y579286D02*
X150000Y553571D01*
X150000Y546669D02*
X150000Y545474D01*
X150000Y538571D02*
X150000Y512857D01*
X150000Y505955D02*
X150000Y504760D01*
X150000Y497857D02*
X150000Y472143D01*
X150000Y465240D02*
X150000Y464045D01*
X150000Y457143D02*
X150000Y431429D01*
X150000Y424526D02*
X150000Y423331D01*
X150000Y416429D02*
X150000Y390714D01*
X150000Y383812D02*
X150000Y382617D01*
X150000Y375714D02*
X150000Y350000D01*
X275000Y350000D02*
X275000Y375833D01*
X275000Y382736D02*
X275000Y383931D01*
X275000Y390833D02*
X275000Y416667D01*
X275000Y423569D02*
X275000Y424764D01*
X275000Y431667D02*
X275000Y457500D01*
X275000Y464402D02*
X275000Y465598D01*
X275000Y472500D02*
X275000Y498333D01*
X275000Y505236D02*
X275000Y506431D01*
X275000Y513333D02*
X275000Y539167D01*
X275000Y546069D02*
X275000Y547264D01*
X275000Y554167D02*
X275000Y580000D01*
D12*
X147131Y1221778D02*
X131778Y1221778D01*
X131778Y1256322D01*
X147131Y1256322D01*
X143293Y1240969D02*
X131778Y1240969D01*
X156548Y1256322D02*
X156548Y1221778D01*
X175739Y1221778D02*
X156548Y1256322D01*
X175739Y1256322D02*
X175739Y1221778D01*
X195671Y1221778D02*
X184156Y1256322D01*
X207185Y1256322D02*
X195671Y1221778D01*
X214636Y1235212D02*
X237665Y1235212D01*
X247983Y1221778D02*
X247983Y1256322D01*
X247983Y1221778D02*
X263336Y1221778D01*
X272748Y1221778D02*
X272748Y1256322D01*
X288101Y1256322D01*
X288101Y1240969D02*
X272748Y1240969D01*
X296565Y1246726D02*
X296565Y1231374D01*
X296565Y1246726D02*
X296568Y1246960D01*
X296576Y1247193D01*
X296591Y1247426D01*
X296610Y1247659D01*
X296636Y1247892D01*
X296667Y1248123D01*
X296704Y1248354D01*
X296747Y1248584D01*
X296795Y1248812D01*
X296848Y1249040D01*
X296907Y1249266D01*
X296972Y1249491D01*
X297042Y1249714D01*
X297117Y1249935D01*
X297198Y1250154D01*
X297284Y1250371D01*
X297376Y1250586D01*
X297472Y1250799D01*
X297574Y1251009D01*
X297681Y1251217D01*
X297793Y1251422D01*
X297910Y1251625D01*
X298031Y1251824D01*
X298158Y1252021D01*
X298289Y1252214D01*
X298425Y1252404D01*
X298566Y1252591D01*
X298711Y1252774D01*
X298860Y1252954D01*
X299014Y1253130D01*
X299172Y1253302D01*
X299334Y1253470D01*
X299501Y1253634D01*
X299671Y1253794D01*
X299845Y1253950D01*
X300023Y1254102D01*
X300204Y1254249D01*
X300389Y1254392D01*
X300577Y1254530D01*
X300769Y1254664D01*
X300964Y1254793D01*
X301162Y1254917D01*
X301363Y1255036D01*
X301567Y1255151D01*
X301773Y1255260D01*
X301982Y1255364D01*
X302194Y1255464D01*
X302408Y1255558D01*
X302624Y1255646D01*
X302842Y1255730D01*
X303063Y1255808D01*
X303285Y1255881D01*
X303508Y1255948D01*
X303734Y1256010D01*
X303961Y1256066D01*
X304189Y1256117D01*
X304418Y1256162D01*
X304648Y1256202D01*
X304880Y1256236D01*
X305111Y1256264D01*
X305344Y1256287D01*
X305577Y1256304D01*
X305811Y1256316D01*
X306044Y1256321D01*
X306278Y1256321D01*
X306511Y1256316D01*
X306745Y1256304D01*
X306978Y1256287D01*
X307211Y1256264D01*
X307442Y1256236D01*
X307674Y1256202D01*
X307904Y1256162D01*
X308133Y1256117D01*
X308361Y1256066D01*
X308588Y1256010D01*
X308814Y1255948D01*
X309037Y1255881D01*
X309259Y1255808D01*
X309480Y1255730D01*
X309698Y1255646D01*
X309914Y1255558D01*
X310128Y1255464D01*
X310340Y1255364D01*
X310549Y1255260D01*
X310755Y1255151D01*
X310959Y1255036D01*
X311160Y1254917D01*
X311358Y1254793D01*
X311553Y1254664D01*
X311745Y1254530D01*
X311933Y1254392D01*
X312118Y1254249D01*
X312299Y1254102D01*
X312477Y1253950D01*
X312651Y1253794D01*
X312821Y1253634D01*
X312988Y1253470D01*
X313150Y1253302D01*
X313308Y1253130D01*
X313462Y1252954D01*
X313611Y1252774D01*
X313756Y1252591D01*
X313897Y1252404D01*
X314033Y1252214D01*
X314164Y1252021D01*
X314291Y1251824D01*
X314412Y1251625D01*
X314529Y1251422D01*
X314641Y1251217D01*
X314748Y1251009D01*
X314850Y1250799D01*
X314946Y1250586D01*
X315038Y1250371D01*
X315124Y1250154D01*
X315205Y1249935D01*
X315280Y1249714D01*
X315350Y1249491D01*
X315415Y1249266D01*
X315474Y1249040D01*
X315527Y1248812D01*
X315575Y1248584D01*
X315618Y1248354D01*
X315655Y1248123D01*
X315686Y1247892D01*
X315712Y1247659D01*
X315731Y1247426D01*
X315746Y1247193D01*
X315754Y1246960D01*
X315757Y1246726D01*
X315756Y1246726D02*
X315756Y1231374D01*
X315757Y1231374D02*
X315754Y1231140D01*
X315746Y1230907D01*
X315731Y1230674D01*
X315712Y1230441D01*
X315686Y1230208D01*
X315655Y1229977D01*
X315618Y1229746D01*
X315575Y1229516D01*
X315527Y1229288D01*
X315474Y1229060D01*
X315415Y1228834D01*
X315350Y1228609D01*
X315280Y1228386D01*
X315205Y1228165D01*
X315124Y1227946D01*
X315038Y1227729D01*
X314946Y1227514D01*
X314850Y1227301D01*
X314748Y1227091D01*
X314641Y1226883D01*
X314529Y1226678D01*
X314412Y1226475D01*
X314291Y1226276D01*
X314164Y1226079D01*
X314033Y1225886D01*
X313897Y1225696D01*
X313756Y1225509D01*
X313611Y1225326D01*
X313462Y1225146D01*
X313308Y1224970D01*
X313150Y1224798D01*
X312988Y1224630D01*
X312821Y1224466D01*
X312651Y1224306D01*
X312477Y1224150D01*
X312299Y1223998D01*
X312118Y1223851D01*
X311933Y1223708D01*
X311745Y1223570D01*
X311553Y1223436D01*
X311358Y1223307D01*
X311160Y1223183D01*
X310959Y1223064D01*
X310755Y1222949D01*
X310549Y1222840D01*
X310340Y1222736D01*
X310128Y1222636D01*
X309914Y1222542D01*
X309698Y1222454D01*
X309480Y1222370D01*
X309259Y1222292D01*
X309037Y1222219D01*
X308814Y1222152D01*
X308588Y1222090D01*
X308361Y1222034D01*
X308133Y1221983D01*
X307904Y1221938D01*
X307674Y1221898D01*
X307442Y1221864D01*
X307211Y1221836D01*
X306978Y1221813D01*
X306745Y1221796D01*
X306511Y1221784D01*
X306278Y1221779D01*
X306044Y1221779D01*
X305811Y1221784D01*
X305577Y1221796D01*
X305344Y1221813D01*
X305111Y1221836D01*
X304880Y1221864D01*
X304648Y1221898D01*
X304418Y1221938D01*
X304189Y1221983D01*
X303961Y1222034D01*
X303734Y1222090D01*
X303508Y1222152D01*
X303285Y1222219D01*
X303063Y1222292D01*
X302842Y1222370D01*
X302624Y1222454D01*
X302408Y1222542D01*
X302194Y1222636D01*
X301982Y1222736D01*
X301773Y1222840D01*
X301567Y1222949D01*
X301363Y1223064D01*
X301162Y1223183D01*
X300964Y1223307D01*
X300769Y1223436D01*
X300577Y1223570D01*
X300389Y1223708D01*
X300204Y1223851D01*
X300023Y1223998D01*
X299845Y1224150D01*
X299671Y1224306D01*
X299501Y1224466D01*
X299334Y1224630D01*
X299172Y1224798D01*
X299014Y1224970D01*
X298860Y1225146D01*
X298711Y1225326D01*
X298566Y1225509D01*
X298425Y1225696D01*
X298289Y1225886D01*
X298158Y1226079D01*
X298031Y1226276D01*
X297910Y1226475D01*
X297793Y1226678D01*
X297681Y1226883D01*
X297574Y1227091D01*
X297472Y1227301D01*
X297376Y1227514D01*
X297284Y1227729D01*
X297198Y1227946D01*
X297117Y1228165D01*
X297042Y1228386D01*
X296972Y1228609D01*
X296907Y1228834D01*
X296848Y1229060D01*
X296795Y1229288D01*
X296747Y1229516D01*
X296704Y1229746D01*
X296667Y1229977D01*
X296636Y1230208D01*
X296610Y1230441D01*
X296591Y1230674D01*
X296576Y1230907D01*
X296568Y1231140D01*
X296565Y1231374D01*
D13*
X357500Y67500D03*
D14*
X357500Y68750D03*
D15*
X185625Y70000D03*
D13*
X246250Y70000D03*
D14*
X357500Y70000D03*
D15*
X186875Y71250D03*
D16*
X246250Y71250D03*
D17*
X301875Y71250D03*
D15*
X358125Y71250D03*
D17*
X373125Y71250D03*
D18*
X153125Y72500D03*
D15*
X186875Y72500D03*
D17*
X201875Y72500D03*
D19*
X224375Y72500D03*
D16*
X246250Y72500D03*
D20*
X269375Y72500D03*
X301875Y72500D03*
D17*
X334375Y72500D03*
D15*
X358125Y72500D03*
D21*
X375000Y72500D03*
D22*
X152500Y73750D03*
D15*
X186875Y73750D03*
D20*
X201875Y73750D03*
D17*
X224375Y73750D03*
D16*
X246250Y73750D03*
D15*
X269375Y73750D03*
D23*
X287500Y73750D03*
D24*
X302500Y73750D03*
D15*
X334375Y73750D03*
X358125Y73750D03*
D25*
X376250Y73750D03*
D26*
X152500Y75000D03*
D15*
X186875Y75000D03*
D14*
X201250Y75000D03*
D20*
X224375Y75000D03*
D16*
X246250Y75000D03*
D15*
X269375Y75000D03*
D14*
X283750Y75000D03*
D18*
X304375Y75000D03*
X334375Y75000D03*
D15*
X358125Y75000D03*
D27*
X375625Y75000D03*
D26*
X152500Y76250D03*
D20*
X186875Y76250D03*
D14*
X201250Y76250D03*
X223750Y76250D03*
D16*
X246250Y76250D03*
D15*
X269375Y76250D03*
D14*
X283750Y76250D03*
D28*
X308125Y76250D03*
D27*
X334375Y76250D03*
D16*
X357500Y76250D03*
D22*
X376250Y76250D03*
D29*
X152500Y77500D03*
D16*
X186250Y77500D03*
D14*
X201250Y77500D03*
D24*
X223750Y77500D03*
D13*
X246250Y77500D03*
D20*
X269375Y77500D03*
D14*
X283750Y77500D03*
D30*
X308125Y77500D03*
D22*
X335000Y77500D03*
D16*
X357500Y77500D03*
D27*
X376875Y77500D03*
D15*
X145625Y78750D03*
D14*
X160000Y78750D03*
D13*
X185000Y78750D03*
D14*
X201250Y78750D03*
D21*
X222500Y78750D03*
D13*
X246250Y78750D03*
X268750Y78750D03*
D14*
X283750Y78750D03*
D30*
X309375Y78750D03*
D22*
X335000Y78750D03*
D17*
X356875Y78750D03*
D22*
X377500Y78750D03*
D15*
X144375Y80000D03*
D16*
X161250Y80000D03*
D13*
X185000Y80000D03*
D20*
X200625Y80000D03*
D18*
X221875Y80000D03*
D13*
X246250Y80000D03*
X268750Y80000D03*
D20*
X284375Y80000D03*
D30*
X309375Y80000D03*
D22*
X335000Y80000D03*
D17*
X356875Y80000D03*
D25*
X378750Y80000D03*
D14*
X143750Y81250D03*
D17*
X160625Y81250D03*
D19*
X184375Y81250D03*
D16*
X201250Y81250D03*
D21*
X221250Y81250D03*
D13*
X246250Y81250D03*
D19*
X268125Y81250D03*
D16*
X283750Y81250D03*
D30*
X309375Y81250D03*
D16*
X330000Y81250D03*
D24*
X340000Y81250D03*
D17*
X356875Y81250D03*
D31*
X380625Y81250D03*
D14*
X143750Y82500D03*
D17*
X160625Y82500D03*
D19*
X184375Y82500D03*
D16*
X201250Y82500D03*
D31*
X220625Y82500D03*
D13*
X246250Y82500D03*
D19*
X268125Y82500D03*
D16*
X283750Y82500D03*
D30*
X309375Y82500D03*
D15*
X340625Y82500D03*
D13*
X356250Y82500D03*
D24*
X381250Y82500D03*
D16*
X143750Y83750D03*
D17*
X160625Y83750D03*
D20*
X181875Y83750D03*
D17*
X200625Y83750D03*
D18*
X219375Y83750D03*
D13*
X246250Y83750D03*
D19*
X268125Y83750D03*
D16*
X283750Y83750D03*
D13*
X300000Y83750D03*
D14*
X315000Y83750D03*
X341250Y83750D03*
D13*
X356250Y83750D03*
D14*
X382500Y83750D03*
D13*
X143750Y85000D03*
D17*
X160625Y85000D03*
D15*
X181875Y85000D03*
D17*
X200625Y85000D03*
D25*
X218750Y85000D03*
D13*
X246250Y85000D03*
X267500Y85000D03*
D16*
X283750Y85000D03*
D13*
X300000Y85000D03*
D20*
X315625Y85000D03*
D14*
X341250Y85000D03*
D13*
X356250Y85000D03*
D15*
X383125Y85000D03*
D17*
X160625Y86250D03*
D15*
X181875Y86250D03*
D17*
X200625Y86250D03*
D22*
X217500Y86250D03*
D13*
X246250Y86250D03*
D19*
X266875Y86250D03*
D16*
X283750Y86250D03*
D13*
X300000Y86250D03*
D15*
X340625Y86250D03*
D13*
X356250Y86250D03*
D15*
X383125Y86250D03*
D13*
X160000Y87500D03*
D15*
X181875Y87500D03*
D17*
X200625Y87500D03*
D28*
X216875Y87500D03*
D13*
X246250Y87500D03*
D19*
X266875Y87500D03*
D17*
X284375Y87500D03*
D13*
X300000Y87500D03*
D15*
X339375Y87500D03*
D19*
X355625Y87500D03*
D15*
X383125Y87500D03*
D17*
X159375Y88750D03*
D14*
X181250Y88750D03*
D17*
X200625Y88750D03*
D24*
X211250Y88750D03*
D16*
X222500Y88750D03*
D17*
X245625Y88750D03*
X268125Y88750D03*
X284375Y88750D03*
D15*
X303125Y88750D03*
X339375Y88750D03*
D19*
X355625Y88750D03*
D14*
X382500Y88750D03*
D16*
X158750Y90000D03*
D20*
X181875Y90000D03*
D17*
X200625Y90000D03*
D15*
X210625Y90000D03*
D16*
X222500Y90000D03*
D17*
X245625Y90000D03*
D14*
X268750Y90000D03*
D17*
X284375Y90000D03*
D31*
X304375Y90000D03*
D19*
X314375Y90000D03*
D15*
X338125Y90000D03*
D19*
X355625Y90000D03*
D15*
X381875Y90000D03*
D16*
X157500Y91250D03*
X182500Y91250D03*
D17*
X200625Y91250D03*
D15*
X209375Y91250D03*
D16*
X222500Y91250D03*
D17*
X245625Y91250D03*
D30*
X275625Y91250D03*
D22*
X307500Y91250D03*
D15*
X336875Y91250D03*
D19*
X355625Y91250D03*
D15*
X381875Y91250D03*
D14*
X156250Y92500D03*
D17*
X183125Y92500D03*
X200625Y92500D03*
D14*
X208750Y92500D03*
D16*
X222500Y92500D03*
D17*
X245625Y92500D03*
D30*
X275625Y92500D03*
D22*
X308750Y92500D03*
D15*
X336875Y92500D03*
D23*
X355000Y92500D03*
D25*
X378750Y92500D03*
D14*
X155000Y93750D03*
D17*
X183125Y93750D03*
D21*
X205000Y93750D03*
D16*
X222500Y93750D03*
D17*
X245625Y93750D03*
D29*
X275000Y93750D03*
D22*
X308750Y93750D03*
D18*
X333125Y93750D03*
D23*
X355000Y93750D03*
D27*
X376875Y93750D03*
D15*
X154375Y95000D03*
D16*
X183750Y95000D03*
D31*
X204375Y95000D03*
D16*
X222500Y95000D03*
D17*
X245625Y95000D03*
D29*
X275000Y95000D03*
D22*
X308750Y95000D03*
D25*
X332500Y95000D03*
D19*
X354375Y95000D03*
D22*
X375000Y95000D03*
D15*
X153125Y96250D03*
D20*
X183125Y96250D03*
D24*
X203750Y96250D03*
D17*
X221875Y96250D03*
D16*
X245000Y96250D03*
D32*
X274375Y96250D03*
D22*
X308750Y96250D03*
D25*
X331250Y96250D03*
D19*
X354375Y96250D03*
D28*
X374375Y96250D03*
D31*
X151875Y97500D03*
D14*
X183750Y97500D03*
X202500Y97500D03*
D17*
X221875Y97500D03*
D16*
X245000Y97500D03*
X265000Y97500D03*
D27*
X278125Y97500D03*
D19*
X300625Y97500D03*
D13*
X306250Y97500D03*
D20*
X314375Y97500D03*
D25*
X330000Y97500D03*
D13*
X353750Y97500D03*
D22*
X373750Y97500D03*
D25*
X148750Y98750D03*
D14*
X183750Y98750D03*
X202500Y98750D03*
D17*
X221875Y98750D03*
D16*
X245000Y98750D03*
X265000Y98750D03*
D14*
X282500Y98750D03*
D13*
X300000Y98750D03*
D16*
X313750Y98750D03*
D18*
X329375Y98750D03*
D13*
X353750Y98750D03*
D22*
X372500Y98750D03*
D27*
X148125Y100000D03*
D15*
X183125Y100000D03*
D14*
X201250Y100000D03*
D13*
X221250Y100000D03*
D16*
X245000Y100000D03*
D14*
X265000Y100000D03*
X282500Y100000D03*
D13*
X300000Y100000D03*
X313750Y100000D03*
D18*
X328125Y100000D03*
D17*
X353125Y100000D03*
D27*
X371875Y100000D03*
D13*
X83750Y101250D03*
D27*
X146875Y101250D03*
D24*
X182500Y101250D03*
D15*
X200625Y101250D03*
D13*
X221250Y101250D03*
D20*
X244375Y101250D03*
D14*
X265000Y101250D03*
D20*
X283125Y101250D03*
D13*
X300000Y101250D03*
D21*
X327500Y101250D03*
D17*
X353125Y101250D03*
D31*
X368125Y101250D03*
D13*
X377500Y101250D03*
D16*
X83750Y102500D03*
D27*
X146875Y102500D03*
D24*
X181250Y102500D03*
D15*
X199375Y102500D03*
D13*
X221250Y102500D03*
D17*
X236875Y102500D03*
D20*
X244375Y102500D03*
D16*
X265000Y102500D03*
D17*
X284375Y102500D03*
X299375Y102500D03*
D24*
X326250Y102500D03*
D16*
X352500Y102500D03*
D24*
X367500Y102500D03*
D16*
X83750Y103750D03*
D25*
X146250Y103750D03*
D20*
X178125Y103750D03*
D19*
X184375Y103750D03*
D15*
X199375Y103750D03*
D17*
X220625Y103750D03*
D25*
X241250Y103750D03*
D20*
X263125Y103750D03*
D16*
X285000Y103750D03*
X300000Y103750D03*
D24*
X326250Y103750D03*
D20*
X353125Y103750D03*
D15*
X366875Y103750D03*
D16*
X83750Y105000D03*
D18*
X144375Y105000D03*
D14*
X176250Y105000D03*
D19*
X184375Y105000D03*
D15*
X199375Y105000D03*
D13*
X220000Y105000D03*
D25*
X241250Y105000D03*
D15*
X261875Y105000D03*
D16*
X285000Y105000D03*
X300000Y105000D03*
D13*
X316250Y105000D03*
D24*
X327500Y105000D03*
D20*
X353125Y105000D03*
D15*
X368125Y105000D03*
D13*
X83750Y106250D03*
D24*
X142500Y106250D03*
D14*
X175000Y106250D03*
D17*
X184375Y106250D03*
D15*
X199375Y106250D03*
D17*
X219375Y106250D03*
D28*
X243125Y106250D03*
D15*
X261875Y106250D03*
D16*
X285000Y106250D03*
D31*
X301875Y106250D03*
D17*
X316875Y106250D03*
D21*
X330000Y106250D03*
D20*
X353125Y106250D03*
D21*
X371250Y106250D03*
D19*
X83125Y107500D03*
D21*
X143750Y107500D03*
D14*
X173750Y107500D03*
D17*
X184375Y107500D03*
D16*
X200000Y107500D03*
D20*
X219375Y107500D03*
D33*
X250625Y107500D03*
D20*
X285625Y107500D03*
D25*
X303750Y107500D03*
D20*
X316875Y107500D03*
D21*
X331250Y107500D03*
D17*
X353125Y107500D03*
D21*
X372500Y107500D03*
D19*
X83125Y108750D03*
D18*
X145625Y108750D03*
D15*
X173125Y108750D03*
D16*
X185000Y108750D03*
D14*
X218750Y108750D03*
D34*
X251250Y108750D03*
D14*
X285000Y108750D03*
D32*
X308125Y108750D03*
D21*
X332500Y108750D03*
D31*
X373125Y108750D03*
D13*
X82500Y110000D03*
D21*
X147500Y110000D03*
D14*
X172500Y110000D03*
D16*
X185000Y110000D03*
D15*
X219375Y110000D03*
D30*
X255625Y110000D03*
D20*
X285625Y110000D03*
D32*
X308125Y110000D03*
D31*
X333125Y110000D03*
D24*
X373750Y110000D03*
D19*
X81875Y111250D03*
D24*
X148750Y111250D03*
D15*
X171875Y111250D03*
D16*
X185000Y111250D03*
D15*
X219375Y111250D03*
D22*
X256250Y111250D03*
D20*
X285625Y111250D03*
D32*
X308125Y111250D03*
D15*
X334375Y111250D03*
D24*
X373750Y111250D03*
D19*
X81875Y112500D03*
D14*
X150000Y112500D03*
X171250Y112500D03*
D16*
X185000Y112500D03*
D14*
X218750Y112500D03*
D20*
X261875Y112500D03*
X285625Y112500D03*
D29*
X308750Y112500D03*
D15*
X334375Y112500D03*
X374375Y112500D03*
D19*
X81875Y113750D03*
D20*
X150625Y113750D03*
D16*
X171250Y113750D03*
X185000Y113750D03*
D14*
X218750Y113750D03*
D23*
X263750Y113750D03*
D20*
X285625Y113750D03*
D28*
X309375Y113750D03*
D20*
X334375Y113750D03*
X374375Y113750D03*
D19*
X81875Y115000D03*
D16*
X150000Y115000D03*
D13*
X171250Y115000D03*
X185000Y115000D03*
D20*
X218125Y115000D03*
D23*
X282500Y115000D03*
D13*
X287500Y115000D03*
D14*
X305000Y115000D03*
D16*
X335000Y115000D03*
D13*
X375000Y115000D03*
D23*
X81250Y116250D03*
D20*
X218125Y116250D03*
D13*
X286250Y116250D03*
D23*
X81250Y117500D03*
D20*
X218125Y117500D03*
D13*
X286250Y117500D03*
D23*
X81250Y118750D03*
D16*
X217500Y118750D03*
D17*
X285625Y118750D03*
D19*
X80625Y120000D03*
D13*
X217500Y120000D03*
D19*
X80625Y121250D03*
X80625Y122500D03*
D23*
X80000Y123750D03*
X80000Y125000D03*
D19*
X79375Y126250D03*
X79375Y127500D03*
X79375Y128750D03*
X79375Y130000D03*
D23*
X78750Y131250D03*
X78750Y132500D03*
X290000Y132500D03*
D14*
X68750Y133750D03*
D19*
X78125Y133750D03*
D15*
X293125Y133750D03*
D24*
X68750Y135000D03*
D19*
X78125Y135000D03*
D14*
X293750Y135000D03*
D24*
X68750Y136250D03*
D19*
X78125Y136250D03*
D15*
X294375Y136250D03*
D18*
X68125Y137500D03*
D23*
X77500Y137500D03*
D16*
X202500Y137500D03*
D15*
X294375Y137500D03*
D13*
X390000Y137500D03*
D25*
X67500Y138750D03*
D23*
X77500Y138750D03*
D15*
X201875Y138750D03*
X294375Y138750D03*
D16*
X388750Y138750D03*
D27*
X66875Y140000D03*
D23*
X77500Y140000D03*
D31*
X201875Y140000D03*
X295625Y140000D03*
X388125Y140000D03*
D30*
X66875Y141250D03*
D25*
X203750Y141250D03*
D18*
X296875Y141250D03*
D23*
X352500Y141250D03*
D18*
X389375Y141250D03*
D19*
X446875Y141250D03*
D29*
X66250Y142500D03*
D19*
X145625Y142500D03*
D22*
X205000Y142500D03*
D27*
X299375Y142500D03*
D13*
X346250Y142500D03*
D19*
X351875Y142500D03*
D27*
X390625Y142500D03*
D13*
X447500Y142500D03*
D18*
X60625Y143750D03*
D17*
X75625Y143750D03*
D21*
X110000Y143750D03*
D14*
X143750Y143750D03*
D30*
X206875Y143750D03*
D14*
X248750Y143750D03*
D29*
X302500Y143750D03*
D15*
X348125Y143750D03*
D34*
X397500Y143750D03*
D16*
X448750Y143750D03*
D18*
X59375Y145000D03*
D17*
X76875Y145000D03*
D30*
X113125Y145000D03*
D18*
X140625Y145000D03*
D35*
X210000Y145000D03*
D15*
X248125Y145000D03*
D36*
X309375Y145000D03*
D15*
X348125Y145000D03*
D22*
X391250Y145000D03*
D37*
X421250Y145000D03*
D14*
X448750Y145000D03*
D23*
X457500Y145000D03*
D21*
X58750Y146250D03*
D13*
X77500Y146250D03*
D38*
X125000Y146250D03*
D39*
X213750Y146250D03*
D24*
X247500Y146250D03*
D19*
X293125Y146250D03*
D16*
X300000Y146250D03*
D22*
X330000Y146250D03*
D15*
X348125Y146250D03*
D31*
X389375Y146250D03*
D35*
X443750Y146250D03*
D31*
X58125Y147500D03*
D16*
X77500Y147500D03*
D31*
X108125Y147500D03*
D24*
X142500Y147500D03*
D15*
X201875Y147500D03*
D34*
X237500Y147500D03*
D19*
X293125Y147500D03*
D18*
X345625Y147500D03*
D14*
X387500Y147500D03*
D25*
X450000Y147500D03*
D16*
X55000Y148750D03*
D19*
X60625Y148750D03*
X75625Y148750D03*
D13*
X80000Y148750D03*
D15*
X106875Y148750D03*
D31*
X143125Y148750D03*
D14*
X202500Y148750D03*
D25*
X245000Y148750D03*
D19*
X293125Y148750D03*
D15*
X348125Y148750D03*
D20*
X386875Y148750D03*
D21*
X450000Y148750D03*
D13*
X55000Y150000D03*
D19*
X75625Y150000D03*
X80625Y150000D03*
D16*
X106250Y150000D03*
D21*
X142500Y150000D03*
D23*
X201250Y150000D03*
D24*
X247500Y150000D03*
D19*
X293125Y150000D03*
D15*
X348125Y150000D03*
D19*
X384375Y150000D03*
D31*
X449375Y150000D03*
D13*
X55000Y151250D03*
D23*
X75000Y151250D03*
D19*
X81875Y151250D03*
D21*
X142500Y151250D03*
D23*
X201250Y151250D03*
D15*
X248125Y151250D03*
D23*
X292500Y151250D03*
D15*
X348125Y151250D03*
D19*
X384375Y151250D03*
D24*
X448750Y151250D03*
D13*
X55000Y152500D03*
D23*
X75000Y152500D03*
D19*
X81875Y152500D03*
D14*
X141250Y152500D03*
D23*
X201250Y152500D03*
D15*
X248125Y152500D03*
D23*
X292500Y152500D03*
D14*
X348750Y152500D03*
D19*
X384375Y152500D03*
D20*
X448125Y152500D03*
D13*
X55000Y153750D03*
D19*
X74375Y153750D03*
X83125Y153750D03*
D14*
X141250Y153750D03*
D23*
X201250Y153750D03*
D20*
X248125Y153750D03*
D23*
X292500Y153750D03*
D20*
X348125Y153750D03*
D23*
X383750Y153750D03*
D13*
X55000Y155000D03*
D19*
X74375Y155000D03*
X84375Y155000D03*
D16*
X141250Y155000D03*
D23*
X201250Y155000D03*
D20*
X248125Y155000D03*
D19*
X291875Y155000D03*
D16*
X347500Y155000D03*
D23*
X383750Y155000D03*
D13*
X55000Y156250D03*
D19*
X74375Y156250D03*
D13*
X85000Y156250D03*
D16*
X141250Y156250D03*
D19*
X200625Y156250D03*
D16*
X247500Y156250D03*
D19*
X291875Y156250D03*
D16*
X347500Y156250D03*
D23*
X383750Y156250D03*
D19*
X55625Y157500D03*
X74375Y157500D03*
X85625Y157500D03*
D13*
X141250Y157500D03*
D19*
X200625Y157500D03*
D16*
X247500Y157500D03*
D19*
X291875Y157500D03*
D16*
X347500Y157500D03*
D23*
X383750Y157500D03*
D13*
X56250Y158750D03*
D23*
X73750Y158750D03*
D13*
X86250Y158750D03*
X141250Y158750D03*
D19*
X200625Y158750D03*
D16*
X247500Y158750D03*
D19*
X291875Y158750D03*
D16*
X347500Y158750D03*
D23*
X383750Y158750D03*
D13*
X56250Y160000D03*
D23*
X73750Y160000D03*
D13*
X86250Y160000D03*
X141250Y160000D03*
D19*
X200625Y160000D03*
D17*
X248125Y160000D03*
D23*
X291250Y160000D03*
D17*
X346875Y160000D03*
D23*
X383750Y160000D03*
D13*
X56250Y161250D03*
D19*
X73125Y161250D03*
D13*
X86250Y161250D03*
X141250Y161250D03*
D19*
X200625Y161250D03*
D13*
X247500Y161250D03*
D23*
X291250Y161250D03*
D14*
X313750Y161250D03*
D17*
X346875Y161250D03*
D23*
X383750Y161250D03*
D13*
X56250Y162500D03*
D19*
X73125Y162500D03*
D13*
X86250Y162500D03*
D19*
X141875Y162500D03*
X200625Y162500D03*
D13*
X247500Y162500D03*
D23*
X291250Y162500D03*
D15*
X314375Y162500D03*
D17*
X346875Y162500D03*
D23*
X383750Y162500D03*
D13*
X57500Y163750D03*
D19*
X73125Y163750D03*
D17*
X86875Y163750D03*
D23*
X141250Y163750D03*
D19*
X200625Y163750D03*
X248125Y163750D03*
D23*
X291250Y163750D03*
D31*
X314375Y163750D03*
D17*
X346875Y163750D03*
D23*
X383750Y163750D03*
D13*
X57500Y165000D03*
D23*
X72500Y165000D03*
D17*
X86875Y165000D03*
D20*
X116875Y165000D03*
D23*
X141250Y165000D03*
D19*
X200625Y165000D03*
D23*
X247500Y165000D03*
X291250Y165000D03*
D21*
X315000Y165000D03*
D13*
X346250Y165000D03*
D19*
X384375Y165000D03*
D13*
X57500Y166250D03*
D23*
X72500Y166250D03*
D17*
X86875Y166250D03*
D20*
X116875Y166250D03*
D23*
X141250Y166250D03*
X200000Y166250D03*
X247500Y166250D03*
X291250Y166250D03*
D21*
X315000Y166250D03*
D13*
X346250Y166250D03*
D19*
X384375Y166250D03*
D13*
X57500Y167500D03*
D23*
X72500Y167500D03*
D13*
X87500Y167500D03*
D14*
X116250Y167500D03*
D23*
X141250Y167500D03*
X200000Y167500D03*
D17*
X215625Y167500D03*
D23*
X222500Y167500D03*
X247500Y167500D03*
X291250Y167500D03*
D18*
X315625Y167500D03*
D13*
X346250Y167500D03*
D19*
X384375Y167500D03*
D20*
X408125Y167500D03*
D13*
X58750Y168750D03*
D19*
X71875Y168750D03*
X88125Y168750D03*
D15*
X116875Y168750D03*
D23*
X141250Y168750D03*
X200000Y168750D03*
D26*
X221250Y168750D03*
D23*
X247500Y168750D03*
X291250Y168750D03*
D17*
X310625Y168750D03*
D20*
X319375Y168750D03*
D19*
X345625Y168750D03*
X384375Y168750D03*
D15*
X408125Y168750D03*
D13*
X58750Y170000D03*
D19*
X71875Y170000D03*
D13*
X80000Y170000D03*
D19*
X88125Y170000D03*
D20*
X116875Y170000D03*
D23*
X141250Y170000D03*
X200000Y170000D03*
D29*
X221250Y170000D03*
D23*
X247500Y170000D03*
X291250Y170000D03*
D17*
X310625Y170000D03*
D20*
X320625Y170000D03*
D19*
X345625Y170000D03*
X384375Y170000D03*
D15*
X408125Y170000D03*
D19*
X59375Y171250D03*
D23*
X71250Y171250D03*
D16*
X80000Y171250D03*
D19*
X89375Y171250D03*
D20*
X116875Y171250D03*
D19*
X141875Y171250D03*
D23*
X200000Y171250D03*
D29*
X221250Y171250D03*
D19*
X246875Y171250D03*
D23*
X291250Y171250D03*
D13*
X310000Y171250D03*
D14*
X320000Y171250D03*
D19*
X345625Y171250D03*
X384375Y171250D03*
D24*
X408750Y171250D03*
D13*
X60000Y172500D03*
D23*
X71250Y172500D03*
D15*
X80625Y172500D03*
D13*
X90000Y172500D03*
D16*
X116250Y172500D03*
D19*
X141875Y172500D03*
X199375Y172500D03*
D29*
X221250Y172500D03*
D19*
X246875Y172500D03*
D23*
X291250Y172500D03*
D13*
X310000Y172500D03*
D14*
X320000Y172500D03*
D19*
X345625Y172500D03*
X384375Y172500D03*
D24*
X408750Y172500D03*
D19*
X60625Y173750D03*
D23*
X71250Y173750D03*
D24*
X80000Y173750D03*
D13*
X90000Y173750D03*
D17*
X110625Y173750D03*
X116875Y173750D03*
D19*
X141875Y173750D03*
X199375Y173750D03*
D29*
X221250Y173750D03*
D19*
X246875Y173750D03*
D23*
X291250Y173750D03*
D13*
X310000Y173750D03*
D14*
X320000Y173750D03*
D19*
X345625Y173750D03*
X384375Y173750D03*
D24*
X408750Y173750D03*
D19*
X60625Y175000D03*
D23*
X71250Y175000D03*
D24*
X80000Y175000D03*
D17*
X90625Y175000D03*
D24*
X112500Y175000D03*
D23*
X141250Y175000D03*
D19*
X199375Y175000D03*
D32*
X220625Y175000D03*
D23*
X246250Y175000D03*
X291250Y175000D03*
D13*
X310000Y175000D03*
D14*
X320000Y175000D03*
D23*
X345000Y175000D03*
D19*
X384375Y175000D03*
D15*
X408125Y175000D03*
D19*
X61875Y176250D03*
X70625Y176250D03*
D27*
X84375Y176250D03*
D31*
X111875Y176250D03*
D23*
X141250Y176250D03*
D19*
X199375Y176250D03*
D20*
X210625Y176250D03*
D31*
X221875Y176250D03*
D23*
X246250Y176250D03*
X291250Y176250D03*
D13*
X310000Y176250D03*
D20*
X319375Y176250D03*
D23*
X345000Y176250D03*
D19*
X384375Y176250D03*
D14*
X408750Y176250D03*
D19*
X61875Y177500D03*
X70625Y177500D03*
D27*
X84375Y177500D03*
D26*
X116250Y177500D03*
D23*
X141250Y177500D03*
D19*
X199375Y177500D03*
D28*
X216875Y177500D03*
D23*
X246250Y177500D03*
X291250Y177500D03*
D13*
X310000Y177500D03*
X320000Y177500D03*
D23*
X345000Y177500D03*
D19*
X384375Y177500D03*
D20*
X409375Y177500D03*
D19*
X63125Y178750D03*
D23*
X70000Y178750D03*
D27*
X84375Y178750D03*
D26*
X116250Y178750D03*
D23*
X141250Y178750D03*
D19*
X199375Y178750D03*
D14*
X211250Y178750D03*
D20*
X221875Y178750D03*
D23*
X246250Y178750D03*
X291250Y178750D03*
D17*
X309375Y178750D03*
D23*
X345000Y178750D03*
D19*
X384375Y178750D03*
D16*
X408750Y178750D03*
D23*
X63750Y180000D03*
X70000Y180000D03*
D18*
X84375Y180000D03*
D28*
X115625Y180000D03*
D23*
X141250Y180000D03*
D13*
X198750Y180000D03*
D14*
X211250Y180000D03*
D16*
X221250Y180000D03*
D19*
X245625Y180000D03*
X290625Y180000D03*
D17*
X309375Y180000D03*
D19*
X344375Y180000D03*
X384375Y180000D03*
D17*
X409375Y180000D03*
D19*
X64375Y181250D03*
D23*
X70000Y181250D03*
D31*
X84375Y181250D03*
D22*
X116250Y181250D03*
D23*
X141250Y181250D03*
D13*
X198750Y181250D03*
D27*
X215625Y181250D03*
D19*
X245625Y181250D03*
X290625Y181250D03*
D17*
X309375Y181250D03*
D19*
X344375Y181250D03*
X384375Y181250D03*
D17*
X409375Y181250D03*
D19*
X65625Y182500D03*
D23*
X70000Y182500D03*
D20*
X85625Y182500D03*
D21*
X118750Y182500D03*
D23*
X141250Y182500D03*
D19*
X198125Y182500D03*
D25*
X216250Y182500D03*
D23*
X245000Y182500D03*
D19*
X290625Y182500D03*
D17*
X309375Y182500D03*
D23*
X343750Y182500D03*
D19*
X384375Y182500D03*
D17*
X409375Y182500D03*
D19*
X65625Y183750D03*
X69375Y183750D03*
D13*
X86250Y183750D03*
D17*
X114375Y183750D03*
D16*
X121250Y183750D03*
D23*
X141250Y183750D03*
D19*
X198125Y183750D03*
D25*
X217500Y183750D03*
D23*
X245000Y183750D03*
D19*
X290625Y183750D03*
D17*
X309375Y183750D03*
D23*
X343750Y183750D03*
D19*
X384375Y183750D03*
D16*
X410000Y183750D03*
D17*
X66875Y185000D03*
X114375Y185000D03*
D16*
X121250Y185000D03*
D19*
X140625Y185000D03*
X198125Y185000D03*
D21*
X218750Y185000D03*
D23*
X245000Y185000D03*
D19*
X290625Y185000D03*
D17*
X309375Y185000D03*
D23*
X343750Y185000D03*
D19*
X384375Y185000D03*
D16*
X410000Y185000D03*
D13*
X67500Y186250D03*
D17*
X114375Y186250D03*
D13*
X122500Y186250D03*
D19*
X140625Y186250D03*
X198125Y186250D03*
D21*
X218750Y186250D03*
D23*
X245000Y186250D03*
X290000Y186250D03*
D20*
X309375Y186250D03*
D23*
X343750Y186250D03*
D19*
X384375Y186250D03*
D16*
X410000Y186250D03*
D19*
X68125Y187500D03*
D17*
X114375Y187500D03*
D19*
X140625Y187500D03*
X196875Y187500D03*
D31*
X219375Y187500D03*
D19*
X244375Y187500D03*
D23*
X290000Y187500D03*
D20*
X309375Y187500D03*
D23*
X343750Y187500D03*
D19*
X384375Y187500D03*
D16*
X410000Y187500D03*
D13*
X68750Y188750D03*
D17*
X114375Y188750D03*
D19*
X140625Y188750D03*
X196875Y188750D03*
D17*
X215625Y188750D03*
D20*
X223125Y188750D03*
D19*
X244375Y188750D03*
X289375Y188750D03*
D20*
X309375Y188750D03*
D23*
X343750Y188750D03*
D19*
X384375Y188750D03*
D16*
X410000Y188750D03*
D13*
X68750Y190000D03*
D16*
X113750Y190000D03*
D19*
X120625Y190000D03*
X140625Y190000D03*
X196875Y190000D03*
D14*
X222500Y190000D03*
D19*
X244375Y190000D03*
X289375Y190000D03*
D15*
X309375Y190000D03*
D23*
X343750Y190000D03*
D19*
X384375Y190000D03*
D16*
X410000Y190000D03*
D17*
X69375Y191250D03*
D16*
X113750Y191250D03*
X121250Y191250D03*
D19*
X139375Y191250D03*
D23*
X196250Y191250D03*
D20*
X223125Y191250D03*
D19*
X244375Y191250D03*
D23*
X288750Y191250D03*
D15*
X309375Y191250D03*
D23*
X343750Y191250D03*
D19*
X384375Y191250D03*
D16*
X410000Y191250D03*
D23*
X67500Y192500D03*
D19*
X70625Y192500D03*
D17*
X113125Y192500D03*
D20*
X120625Y192500D03*
D19*
X139375Y192500D03*
X195625Y192500D03*
D20*
X223125Y192500D03*
D19*
X244375Y192500D03*
D23*
X288750Y192500D03*
D15*
X309375Y192500D03*
D23*
X343750Y192500D03*
D19*
X384375Y192500D03*
D20*
X410625Y192500D03*
D23*
X67500Y193750D03*
D19*
X71875Y193750D03*
D18*
X118125Y193750D03*
D19*
X139375Y193750D03*
X195625Y193750D03*
D16*
X211250Y193750D03*
D14*
X222500Y193750D03*
D19*
X244375Y193750D03*
D23*
X288750Y193750D03*
D14*
X308750Y193750D03*
D19*
X343125Y193750D03*
X384375Y193750D03*
D20*
X410625Y193750D03*
D19*
X66875Y195000D03*
X73125Y195000D03*
D21*
X117500Y195000D03*
D19*
X139375Y195000D03*
X194375Y195000D03*
D20*
X210625Y195000D03*
D14*
X222500Y195000D03*
D13*
X243750Y195000D03*
D19*
X288125Y195000D03*
D20*
X309375Y195000D03*
D19*
X343125Y195000D03*
X384375Y195000D03*
D14*
X410000Y195000D03*
D19*
X66875Y196250D03*
X73125Y196250D03*
D21*
X117500Y196250D03*
D19*
X139375Y196250D03*
X194375Y196250D03*
D15*
X210625Y196250D03*
X221875Y196250D03*
D19*
X243125Y196250D03*
D23*
X287500Y196250D03*
D19*
X309375Y196250D03*
D23*
X342500Y196250D03*
D19*
X384375Y196250D03*
D15*
X410625Y196250D03*
D19*
X66875Y197500D03*
X74375Y197500D03*
D21*
X116250Y197500D03*
D19*
X139375Y197500D03*
D13*
X193750Y197500D03*
D28*
X215625Y197500D03*
D19*
X243125Y197500D03*
D23*
X287500Y197500D03*
X342500Y197500D03*
D19*
X384375Y197500D03*
D25*
X413750Y197500D03*
D17*
X425625Y197500D03*
D19*
X66875Y198750D03*
X74375Y198750D03*
D31*
X115625Y198750D03*
D19*
X139375Y198750D03*
D13*
X193750Y198750D03*
D22*
X215000Y198750D03*
D19*
X243125Y198750D03*
D23*
X287500Y198750D03*
X342500Y198750D03*
D19*
X384375Y198750D03*
D35*
X415000Y198750D03*
D23*
X66250Y200000D03*
D19*
X75625Y200000D03*
D31*
X115625Y200000D03*
D19*
X139375Y200000D03*
D13*
X192500Y200000D03*
D27*
X214375Y200000D03*
D19*
X243125Y200000D03*
X286875Y200000D03*
D16*
X310000Y200000D03*
D23*
X342500Y200000D03*
D13*
X383750Y200000D03*
D40*
X414375Y200000D03*
D19*
X65625Y201250D03*
X75625Y201250D03*
D23*
X110000Y201250D03*
D14*
X116250Y201250D03*
D19*
X139375Y201250D03*
D17*
X191875Y201250D03*
D25*
X215000Y201250D03*
D19*
X243125Y201250D03*
X286875Y201250D03*
D15*
X308125Y201250D03*
D23*
X342500Y201250D03*
D13*
X383750Y201250D03*
D34*
X415000Y201250D03*
D19*
X65625Y202500D03*
X76875Y202500D03*
D23*
X110000Y202500D03*
D14*
X116250Y202500D03*
D19*
X139375Y202500D03*
D17*
X191875Y202500D03*
D31*
X215625Y202500D03*
D19*
X243125Y202500D03*
X286875Y202500D03*
D15*
X308125Y202500D03*
D19*
X341875Y202500D03*
D13*
X383750Y202500D03*
D34*
X415000Y202500D03*
D19*
X65625Y203750D03*
X76875Y203750D03*
D23*
X110000Y203750D03*
D14*
X116250Y203750D03*
D19*
X139375Y203750D03*
D17*
X190625Y203750D03*
X219375Y203750D03*
D19*
X243125Y203750D03*
X286875Y203750D03*
D24*
X307500Y203750D03*
D19*
X341875Y203750D03*
D13*
X383750Y203750D03*
D40*
X414375Y203750D03*
D19*
X65625Y205000D03*
X78125Y205000D03*
D15*
X114375Y205000D03*
D19*
X139375Y205000D03*
D16*
X190000Y205000D03*
D19*
X243125Y205000D03*
D13*
X286250Y205000D03*
D24*
X307500Y205000D03*
D19*
X341875Y205000D03*
D13*
X383750Y205000D03*
D25*
X407500Y205000D03*
D31*
X423125Y205000D03*
D19*
X65625Y206250D03*
X78125Y206250D03*
D14*
X113750Y206250D03*
D19*
X139375Y206250D03*
D20*
X189375Y206250D03*
D19*
X243125Y206250D03*
D13*
X286250Y206250D03*
D24*
X307500Y206250D03*
D19*
X341875Y206250D03*
D17*
X383125Y206250D03*
D31*
X406875Y206250D03*
D14*
X423750Y206250D03*
D19*
X64375Y207500D03*
X78125Y207500D03*
D16*
X112500Y207500D03*
D23*
X140000Y207500D03*
D16*
X188750Y207500D03*
D19*
X243125Y207500D03*
D13*
X286250Y207500D03*
D15*
X306875Y207500D03*
D19*
X341875Y207500D03*
D17*
X383125Y207500D03*
D19*
X409375Y207500D03*
D13*
X423750Y207500D03*
D19*
X64375Y208750D03*
X79375Y208750D03*
X111875Y208750D03*
D23*
X140000Y208750D03*
D20*
X188125Y208750D03*
D19*
X243125Y208750D03*
D17*
X285625Y208750D03*
D20*
X306875Y208750D03*
D19*
X340625Y208750D03*
D17*
X383125Y208750D03*
D19*
X64375Y210000D03*
X80625Y210000D03*
D13*
X141250Y210000D03*
D14*
X187500Y210000D03*
D19*
X243125Y210000D03*
D17*
X285625Y210000D03*
D13*
X306250Y210000D03*
D19*
X340625Y210000D03*
D16*
X382500Y210000D03*
D19*
X64375Y211250D03*
D13*
X81250Y211250D03*
D24*
X142500Y211250D03*
D20*
X186875Y211250D03*
D19*
X243125Y211250D03*
D16*
X285000Y211250D03*
D19*
X340625Y211250D03*
D20*
X381875Y211250D03*
D19*
X64375Y212500D03*
D17*
X81875Y212500D03*
D41*
X148125Y212500D03*
D14*
X186250Y212500D03*
D16*
X241250Y212500D03*
X285000Y212500D03*
D13*
X341250Y212500D03*
D20*
X381875Y212500D03*
D13*
X63750Y213750D03*
D16*
X82500Y213750D03*
D36*
X151875Y213750D03*
D21*
X188750Y213750D03*
D19*
X198125Y213750D03*
D15*
X243125Y213750D03*
D31*
X286875Y213750D03*
D20*
X341875Y213750D03*
X381875Y213750D03*
D13*
X63750Y215000D03*
D20*
X83125Y215000D03*
D42*
X165000Y215000D03*
D23*
X197500Y215000D03*
D31*
X244375Y215000D03*
D21*
X286250Y215000D03*
D15*
X343125Y215000D03*
D14*
X381250Y215000D03*
D19*
X389375Y215000D03*
D13*
X63750Y216250D03*
D16*
X83750Y216250D03*
D28*
X144375Y216250D03*
X188125Y216250D03*
D21*
X245000Y216250D03*
X286250Y216250D03*
D17*
X340625Y216250D03*
D20*
X348125Y216250D03*
D18*
X383125Y216250D03*
D13*
X63750Y217500D03*
D20*
X84375Y217500D03*
D31*
X140625Y217500D03*
D18*
X189375Y217500D03*
D25*
X246250Y217500D03*
D21*
X286250Y217500D03*
D22*
X347500Y217500D03*
D25*
X383750Y217500D03*
D13*
X63750Y218750D03*
D20*
X84375Y218750D03*
D16*
X136250Y218750D03*
D14*
X192500Y218750D03*
D41*
X253125Y218750D03*
D31*
X286875Y218750D03*
D29*
X350000Y218750D03*
D35*
X377500Y218750D03*
D13*
X63750Y220000D03*
D20*
X84375Y220000D03*
D19*
X193125Y220000D03*
D23*
X196250Y220000D03*
D43*
X265000Y220000D03*
D44*
X356875Y220000D03*
D18*
X384375Y220000D03*
D17*
X63125Y221250D03*
D14*
X85000Y221250D03*
D23*
X196250Y221250D03*
D14*
X243750Y221250D03*
D13*
X277500Y221250D03*
D14*
X287500Y221250D03*
D18*
X345625Y221250D03*
D26*
X380000Y221250D03*
D13*
X62500Y222500D03*
D14*
X85000Y222500D03*
D23*
X196250Y222500D03*
X283750Y222500D03*
D15*
X343125Y222500D03*
D17*
X380625Y222500D03*
D16*
X387500Y222500D03*
D13*
X62500Y223750D03*
D20*
X85625Y223750D03*
D16*
X343750Y223750D03*
D17*
X388125Y223750D03*
D13*
X62500Y225000D03*
D15*
X84375Y225000D03*
D19*
X343125Y225000D03*
D23*
X387500Y225000D03*
D13*
X62500Y226250D03*
D24*
X83750Y226250D03*
D14*
X63750Y227500D03*
D24*
X82500Y227500D03*
D35*
X73750Y228750D03*
D41*
X73125Y230000D03*
D45*
X72500Y231250D03*
D18*
X68125Y232500D03*
D13*
X82500Y232500D03*
D20*
X65625Y233750D03*
D10*
X341143Y1071143D02*
X341143Y1094257D01*
X341143Y1071143D02*
X351416Y1071143D01*
X359238Y1071143D02*
X359238Y1094257D01*
X369511Y1094257D01*
X369511Y1083984D02*
X359238Y1083984D01*
X376609Y1087836D02*
X376609Y1077564D01*
X376608Y1087836D02*
X376610Y1087995D01*
X376616Y1088154D01*
X376626Y1088312D01*
X376639Y1088470D01*
X376657Y1088628D01*
X376679Y1088786D01*
X376704Y1088942D01*
X376733Y1089098D01*
X376766Y1089254D01*
X376803Y1089408D01*
X376844Y1089562D01*
X376889Y1089714D01*
X376937Y1089865D01*
X376989Y1090016D01*
X377045Y1090164D01*
X377104Y1090312D01*
X377167Y1090457D01*
X377234Y1090602D01*
X377304Y1090744D01*
X377378Y1090885D01*
X377455Y1091024D01*
X377536Y1091160D01*
X377620Y1091295D01*
X377707Y1091428D01*
X377797Y1091559D01*
X377891Y1091687D01*
X377988Y1091813D01*
X378088Y1091936D01*
X378191Y1092057D01*
X378296Y1092176D01*
X378405Y1092291D01*
X378517Y1092404D01*
X378631Y1092515D01*
X378748Y1092622D01*
X378868Y1092726D01*
X378990Y1092828D01*
X379115Y1092926D01*
X379242Y1093021D01*
X379371Y1093113D01*
X379503Y1093202D01*
X379637Y1093288D01*
X379773Y1093370D01*
X379911Y1093449D01*
X380050Y1093524D01*
X380192Y1093596D01*
X380335Y1093665D01*
X380480Y1093730D01*
X380627Y1093791D01*
X380775Y1093848D01*
X380924Y1093902D01*
X381075Y1093952D01*
X381227Y1093999D01*
X381380Y1094042D01*
X381534Y1094081D01*
X381689Y1094116D01*
X381845Y1094147D01*
X382001Y1094174D01*
X382158Y1094198D01*
X382316Y1094217D01*
X382474Y1094233D01*
X382632Y1094245D01*
X382791Y1094253D01*
X382950Y1094257D01*
X383108Y1094257D01*
X383267Y1094253D01*
X383426Y1094245D01*
X383584Y1094233D01*
X383742Y1094217D01*
X383900Y1094198D01*
X384057Y1094174D01*
X384213Y1094147D01*
X384369Y1094116D01*
X384524Y1094081D01*
X384678Y1094042D01*
X384831Y1093999D01*
X384983Y1093952D01*
X385134Y1093902D01*
X385283Y1093848D01*
X385431Y1093791D01*
X385578Y1093730D01*
X385723Y1093665D01*
X385866Y1093596D01*
X386008Y1093524D01*
X386147Y1093449D01*
X386285Y1093370D01*
X386421Y1093288D01*
X386555Y1093202D01*
X386687Y1093113D01*
X386816Y1093021D01*
X386943Y1092926D01*
X387068Y1092828D01*
X387190Y1092726D01*
X387310Y1092622D01*
X387427Y1092515D01*
X387541Y1092404D01*
X387653Y1092291D01*
X387762Y1092176D01*
X387867Y1092057D01*
X387970Y1091936D01*
X388070Y1091813D01*
X388167Y1091687D01*
X388261Y1091559D01*
X388351Y1091428D01*
X388438Y1091295D01*
X388522Y1091160D01*
X388603Y1091024D01*
X388680Y1090885D01*
X388754Y1090744D01*
X388824Y1090602D01*
X388891Y1090457D01*
X388954Y1090312D01*
X389013Y1090164D01*
X389069Y1090016D01*
X389121Y1089865D01*
X389169Y1089714D01*
X389214Y1089562D01*
X389255Y1089408D01*
X389292Y1089254D01*
X389325Y1089098D01*
X389354Y1088942D01*
X389379Y1088786D01*
X389401Y1088628D01*
X389419Y1088470D01*
X389432Y1088312D01*
X389442Y1088154D01*
X389448Y1087995D01*
X389450Y1087836D01*
X389450Y1077564D01*
X389448Y1077405D01*
X389442Y1077246D01*
X389432Y1077088D01*
X389419Y1076930D01*
X389401Y1076772D01*
X389379Y1076614D01*
X389354Y1076458D01*
X389325Y1076302D01*
X389292Y1076146D01*
X389255Y1075992D01*
X389214Y1075838D01*
X389169Y1075686D01*
X389121Y1075535D01*
X389069Y1075384D01*
X389013Y1075236D01*
X388954Y1075088D01*
X388891Y1074943D01*
X388824Y1074798D01*
X388754Y1074656D01*
X388680Y1074515D01*
X388603Y1074376D01*
X388522Y1074240D01*
X388438Y1074105D01*
X388351Y1073972D01*
X388261Y1073841D01*
X388167Y1073713D01*
X388070Y1073587D01*
X387970Y1073464D01*
X387867Y1073343D01*
X387762Y1073224D01*
X387653Y1073109D01*
X387541Y1072996D01*
X387427Y1072885D01*
X387310Y1072778D01*
X387190Y1072674D01*
X387068Y1072572D01*
X386943Y1072474D01*
X386816Y1072379D01*
X386687Y1072287D01*
X386555Y1072198D01*
X386421Y1072112D01*
X386285Y1072030D01*
X386147Y1071951D01*
X386008Y1071876D01*
X385866Y1071804D01*
X385723Y1071735D01*
X385578Y1071670D01*
X385431Y1071609D01*
X385283Y1071552D01*
X385134Y1071498D01*
X384983Y1071448D01*
X384831Y1071401D01*
X384678Y1071358D01*
X384524Y1071319D01*
X384369Y1071284D01*
X384213Y1071253D01*
X384057Y1071226D01*
X383900Y1071202D01*
X383742Y1071183D01*
X383584Y1071167D01*
X383426Y1071155D01*
X383267Y1071147D01*
X383108Y1071143D01*
X382950Y1071143D01*
X382791Y1071147D01*
X382632Y1071155D01*
X382474Y1071167D01*
X382316Y1071183D01*
X382158Y1071202D01*
X382001Y1071226D01*
X381845Y1071253D01*
X381689Y1071284D01*
X381534Y1071319D01*
X381380Y1071358D01*
X381227Y1071401D01*
X381075Y1071448D01*
X380924Y1071498D01*
X380775Y1071552D01*
X380627Y1071609D01*
X380480Y1071670D01*
X380335Y1071735D01*
X380192Y1071804D01*
X380050Y1071876D01*
X379911Y1071951D01*
X379773Y1072030D01*
X379637Y1072112D01*
X379503Y1072198D01*
X379371Y1072287D01*
X379242Y1072379D01*
X379115Y1072474D01*
X378990Y1072572D01*
X378868Y1072674D01*
X378748Y1072778D01*
X378631Y1072885D01*
X378517Y1072996D01*
X378405Y1073109D01*
X378296Y1073224D01*
X378191Y1073343D01*
X378088Y1073464D01*
X377988Y1073587D01*
X377891Y1073713D01*
X377797Y1073841D01*
X377707Y1073972D01*
X377620Y1074105D01*
X377536Y1074240D01*
X377455Y1074376D01*
X377378Y1074515D01*
X377304Y1074656D01*
X377234Y1074798D01*
X377167Y1074943D01*
X377104Y1075088D01*
X377045Y1075236D01*
X376989Y1075384D01*
X376937Y1075535D01*
X376889Y1075686D01*
X376844Y1075838D01*
X376803Y1075992D01*
X376766Y1076146D01*
X376733Y1076302D01*
X376704Y1076458D01*
X376679Y1076614D01*
X376657Y1076772D01*
X376639Y1076930D01*
X376626Y1077088D01*
X376616Y1077246D01*
X376610Y1077405D01*
X376608Y1077564D01*
X413732Y1071143D02*
X418869Y1071143D01*
X413732Y1071143D02*
X413590Y1071145D01*
X413449Y1071151D01*
X413308Y1071161D01*
X413167Y1071174D01*
X413027Y1071192D01*
X412887Y1071213D01*
X412747Y1071238D01*
X412609Y1071267D01*
X412471Y1071300D01*
X412334Y1071337D01*
X412199Y1071377D01*
X412064Y1071421D01*
X411931Y1071469D01*
X411799Y1071521D01*
X411669Y1071576D01*
X411540Y1071634D01*
X411413Y1071696D01*
X411288Y1071762D01*
X411164Y1071831D01*
X411042Y1071904D01*
X410923Y1071979D01*
X410805Y1072058D01*
X410690Y1072141D01*
X410577Y1072226D01*
X410467Y1072314D01*
X410359Y1072406D01*
X410253Y1072500D01*
X410151Y1072598D01*
X410051Y1072698D01*
X409953Y1072800D01*
X409859Y1072906D01*
X409767Y1073014D01*
X409679Y1073124D01*
X409594Y1073237D01*
X409511Y1073352D01*
X409432Y1073470D01*
X409357Y1073589D01*
X409284Y1073711D01*
X409215Y1073835D01*
X409149Y1073960D01*
X409087Y1074087D01*
X409029Y1074216D01*
X408974Y1074346D01*
X408922Y1074478D01*
X408874Y1074611D01*
X408830Y1074746D01*
X408790Y1074881D01*
X408753Y1075018D01*
X408720Y1075156D01*
X408691Y1075294D01*
X408666Y1075434D01*
X408645Y1075574D01*
X408627Y1075714D01*
X408614Y1075855D01*
X408604Y1075996D01*
X408598Y1076137D01*
X408596Y1076279D01*
X408596Y1089121D01*
X408598Y1089263D01*
X408604Y1089404D01*
X408614Y1089545D01*
X408627Y1089686D01*
X408645Y1089826D01*
X408666Y1089966D01*
X408691Y1090106D01*
X408720Y1090244D01*
X408753Y1090382D01*
X408790Y1090519D01*
X408830Y1090654D01*
X408874Y1090789D01*
X408922Y1090922D01*
X408974Y1091054D01*
X409029Y1091184D01*
X409087Y1091313D01*
X409149Y1091440D01*
X409215Y1091565D01*
X409284Y1091689D01*
X409357Y1091811D01*
X409432Y1091930D01*
X409511Y1092048D01*
X409594Y1092163D01*
X409679Y1092276D01*
X409767Y1092386D01*
X409859Y1092494D01*
X409953Y1092600D01*
X410051Y1092702D01*
X410151Y1092802D01*
X410253Y1092900D01*
X410359Y1092994D01*
X410467Y1093086D01*
X410577Y1093174D01*
X410690Y1093259D01*
X410805Y1093342D01*
X410923Y1093421D01*
X411042Y1093496D01*
X411164Y1093569D01*
X411288Y1093638D01*
X411413Y1093704D01*
X411540Y1093766D01*
X411669Y1093824D01*
X411799Y1093879D01*
X411931Y1093931D01*
X412064Y1093979D01*
X412199Y1094023D01*
X412334Y1094063D01*
X412471Y1094100D01*
X412609Y1094133D01*
X412747Y1094162D01*
X412887Y1094187D01*
X413027Y1094208D01*
X413167Y1094226D01*
X413308Y1094239D01*
X413449Y1094249D01*
X413590Y1094255D01*
X413732Y1094257D01*
X418869Y1094257D01*
X424738Y1094257D02*
X432442Y1071143D01*
X440147Y1094257D01*
X353984Y936279D02*
X353982Y936137D01*
X353976Y935996D01*
X353966Y935855D01*
X353953Y935714D01*
X353935Y935574D01*
X353914Y935434D01*
X353889Y935294D01*
X353860Y935156D01*
X353827Y935018D01*
X353790Y934881D01*
X353750Y934746D01*
X353706Y934611D01*
X353658Y934478D01*
X353606Y934346D01*
X353551Y934216D01*
X353493Y934087D01*
X353431Y933960D01*
X353365Y933835D01*
X353296Y933711D01*
X353223Y933589D01*
X353148Y933470D01*
X353069Y933352D01*
X352986Y933237D01*
X352901Y933124D01*
X352813Y933014D01*
X352721Y932906D01*
X352627Y932800D01*
X352529Y932698D01*
X352429Y932598D01*
X352327Y932500D01*
X352221Y932406D01*
X352113Y932314D01*
X352003Y932226D01*
X351890Y932141D01*
X351775Y932058D01*
X351657Y931979D01*
X351538Y931904D01*
X351416Y931831D01*
X351292Y931762D01*
X351167Y931696D01*
X351040Y931634D01*
X350911Y931576D01*
X350781Y931521D01*
X350649Y931469D01*
X350516Y931421D01*
X350381Y931377D01*
X350246Y931337D01*
X350109Y931300D01*
X349971Y931267D01*
X349833Y931238D01*
X349693Y931213D01*
X349553Y931192D01*
X349413Y931174D01*
X349272Y931161D01*
X349131Y931151D01*
X348990Y931145D01*
X348848Y931143D01*
X348588Y931146D01*
X348329Y931155D01*
X348070Y931171D01*
X347811Y931193D01*
X347553Y931221D01*
X347296Y931255D01*
X347039Y931295D01*
X346784Y931341D01*
X346529Y931394D01*
X346276Y931452D01*
X346025Y931517D01*
X345775Y931587D01*
X345527Y931664D01*
X345281Y931746D01*
X345037Y931834D01*
X344795Y931928D01*
X344555Y932028D01*
X344318Y932134D01*
X344083Y932245D01*
X343851Y932362D01*
X343622Y932484D01*
X343396Y932612D01*
X343173Y932745D01*
X342954Y932883D01*
X342738Y933027D01*
X342525Y933176D01*
X342316Y933330D01*
X342110Y933488D01*
X341909Y933652D01*
X341711Y933820D01*
X341518Y933993D01*
X341328Y934171D01*
X341143Y934353D01*
X341785Y949121D02*
X341787Y949263D01*
X341793Y949404D01*
X341803Y949545D01*
X341816Y949686D01*
X341834Y949826D01*
X341855Y949966D01*
X341880Y950106D01*
X341909Y950244D01*
X341942Y950382D01*
X341979Y950519D01*
X342019Y950654D01*
X342063Y950789D01*
X342111Y950922D01*
X342163Y951054D01*
X342218Y951184D01*
X342276Y951313D01*
X342338Y951440D01*
X342404Y951565D01*
X342473Y951689D01*
X342546Y951811D01*
X342621Y951930D01*
X342700Y952048D01*
X342783Y952163D01*
X342868Y952276D01*
X342956Y952386D01*
X343048Y952494D01*
X343142Y952600D01*
X343240Y952702D01*
X343340Y952802D01*
X343442Y952900D01*
X343548Y952994D01*
X343656Y953086D01*
X343766Y953174D01*
X343879Y953259D01*
X343994Y953342D01*
X344112Y953421D01*
X344231Y953496D01*
X344353Y953569D01*
X344477Y953638D01*
X344602Y953704D01*
X344729Y953766D01*
X344858Y953824D01*
X344988Y953879D01*
X345120Y953931D01*
X345253Y953979D01*
X345388Y954023D01*
X345524Y954063D01*
X345660Y954100D01*
X345798Y954133D01*
X345936Y954162D01*
X346076Y954187D01*
X346216Y954208D01*
X346356Y954226D01*
X346497Y954239D01*
X346638Y954249D01*
X346780Y954255D01*
X346921Y954257D01*
X347151Y954254D01*
X347380Y954246D01*
X347609Y954232D01*
X347838Y954213D01*
X348066Y954189D01*
X348294Y954159D01*
X348520Y954123D01*
X348746Y954082D01*
X348971Y954036D01*
X349195Y953985D01*
X349417Y953928D01*
X349638Y953866D01*
X349858Y953798D01*
X350075Y953726D01*
X350291Y953648D01*
X350505Y953565D01*
X350717Y953477D01*
X350927Y953384D01*
X351135Y953286D01*
X351340Y953183D01*
X351543Y953076D01*
X351743Y952963D01*
X351940Y952846D01*
X352134Y952724D01*
X352326Y952597D01*
X352514Y952466D01*
X352700Y952331D01*
X344353Y944626D02*
X344232Y944700D01*
X344112Y944778D01*
X343994Y944858D01*
X343879Y944942D01*
X343766Y945029D01*
X343655Y945119D01*
X343547Y945212D01*
X343442Y945308D01*
X343339Y945406D01*
X343239Y945508D01*
X343141Y945612D01*
X343047Y945719D01*
X342956Y945828D01*
X342867Y945940D01*
X342782Y946054D01*
X342700Y946170D01*
X342621Y946289D01*
X342545Y946410D01*
X342472Y946533D01*
X342403Y946657D01*
X342338Y946784D01*
X342276Y946912D01*
X342217Y947042D01*
X342162Y947174D01*
X342111Y947307D01*
X342063Y947441D01*
X342019Y947576D01*
X341979Y947713D01*
X341942Y947851D01*
X341909Y947990D01*
X341880Y948129D01*
X341855Y948270D01*
X341834Y948410D01*
X341816Y948552D01*
X341803Y948694D01*
X341793Y948836D01*
X341787Y948978D01*
X341785Y949121D01*
X351416Y940774D02*
X351537Y940700D01*
X351657Y940622D01*
X351775Y940542D01*
X351890Y940458D01*
X352003Y940371D01*
X352114Y940281D01*
X352222Y940188D01*
X352327Y940092D01*
X352430Y939994D01*
X352530Y939892D01*
X352628Y939788D01*
X352722Y939681D01*
X352813Y939572D01*
X352902Y939460D01*
X352987Y939346D01*
X353069Y939230D01*
X353148Y939111D01*
X353224Y938990D01*
X353297Y938867D01*
X353366Y938743D01*
X353431Y938616D01*
X353493Y938488D01*
X353552Y938358D01*
X353607Y938226D01*
X353658Y938093D01*
X353706Y937959D01*
X353750Y937824D01*
X353790Y937687D01*
X353827Y937549D01*
X353860Y937410D01*
X353889Y937271D01*
X353914Y937130D01*
X353935Y936990D01*
X353953Y936848D01*
X353966Y936706D01*
X353976Y936564D01*
X353982Y936422D01*
X353984Y936279D01*
X351416Y940774D02*
X344353Y944626D01*
X362022Y954257D02*
X362022Y931143D01*
X362022Y943984D02*
X374863Y943984D01*
X374863Y954257D02*
X374863Y931143D01*
X382312Y931143D02*
X390017Y954257D01*
X397722Y931143D01*
X395796Y936922D02*
X384239Y936922D01*
X405341Y931143D02*
X405341Y954257D01*
X411761Y954257D01*
X411920Y954255D01*
X412079Y954249D01*
X412237Y954239D01*
X412395Y954226D01*
X412553Y954208D01*
X412711Y954186D01*
X412867Y954161D01*
X413023Y954132D01*
X413179Y954099D01*
X413333Y954062D01*
X413487Y954021D01*
X413639Y953976D01*
X413790Y953928D01*
X413941Y953876D01*
X414089Y953820D01*
X414237Y953761D01*
X414382Y953698D01*
X414527Y953631D01*
X414669Y953561D01*
X414810Y953487D01*
X414949Y953410D01*
X415085Y953329D01*
X415220Y953245D01*
X415353Y953158D01*
X415484Y953068D01*
X415612Y952974D01*
X415738Y952877D01*
X415861Y952777D01*
X415982Y952674D01*
X416101Y952569D01*
X416216Y952460D01*
X416329Y952348D01*
X416440Y952234D01*
X416547Y952117D01*
X416651Y951997D01*
X416753Y951875D01*
X416851Y951750D01*
X416946Y951623D01*
X417038Y951494D01*
X417127Y951362D01*
X417213Y951228D01*
X417295Y951092D01*
X417374Y950954D01*
X417449Y950815D01*
X417521Y950673D01*
X417590Y950530D01*
X417655Y950385D01*
X417716Y950238D01*
X417773Y950090D01*
X417827Y949941D01*
X417877Y949790D01*
X417924Y949638D01*
X417967Y949485D01*
X418006Y949331D01*
X418041Y949176D01*
X418072Y949020D01*
X418099Y948864D01*
X418123Y948707D01*
X418142Y948549D01*
X418158Y948391D01*
X418170Y948233D01*
X418178Y948074D01*
X418182Y947915D01*
X418182Y947757D01*
X418178Y947598D01*
X418170Y947439D01*
X418158Y947281D01*
X418142Y947123D01*
X418123Y946965D01*
X418099Y946808D01*
X418072Y946652D01*
X418041Y946496D01*
X418006Y946341D01*
X417967Y946187D01*
X417924Y946034D01*
X417877Y945882D01*
X417827Y945731D01*
X417773Y945582D01*
X417716Y945434D01*
X417655Y945287D01*
X417590Y945142D01*
X417521Y944999D01*
X417449Y944857D01*
X417374Y944718D01*
X417295Y944580D01*
X417213Y944444D01*
X417127Y944310D01*
X417038Y944178D01*
X416946Y944049D01*
X416851Y943922D01*
X416753Y943797D01*
X416651Y943675D01*
X416547Y943555D01*
X416440Y943438D01*
X416329Y943324D01*
X416216Y943212D01*
X416101Y943103D01*
X415982Y942998D01*
X415861Y942895D01*
X415738Y942795D01*
X415612Y942698D01*
X415484Y942604D01*
X415353Y942514D01*
X415220Y942427D01*
X415085Y942343D01*
X414949Y942262D01*
X414810Y942185D01*
X414669Y942111D01*
X414527Y942041D01*
X414382Y941974D01*
X414237Y941911D01*
X414089Y941852D01*
X413941Y941796D01*
X413790Y941744D01*
X413639Y941696D01*
X413487Y941651D01*
X413333Y941610D01*
X413179Y941573D01*
X413023Y941540D01*
X412867Y941511D01*
X412711Y941486D01*
X412553Y941464D01*
X412395Y941446D01*
X412237Y941433D01*
X412079Y941423D01*
X411920Y941417D01*
X411761Y941415D01*
X411761Y941416D02*
X405341Y941416D01*
X426078Y931143D02*
X436351Y931143D01*
X426078Y931143D02*
X426078Y954257D01*
X436351Y954257D01*
X433783Y943984D02*
X426078Y943984D01*
X353984Y796279D02*
X353982Y796137D01*
X353976Y795996D01*
X353966Y795855D01*
X353953Y795714D01*
X353935Y795574D01*
X353914Y795434D01*
X353889Y795294D01*
X353860Y795156D01*
X353827Y795018D01*
X353790Y794881D01*
X353750Y794746D01*
X353706Y794611D01*
X353658Y794478D01*
X353606Y794346D01*
X353551Y794216D01*
X353493Y794087D01*
X353431Y793960D01*
X353365Y793835D01*
X353296Y793711D01*
X353223Y793589D01*
X353148Y793470D01*
X353069Y793352D01*
X352986Y793237D01*
X352901Y793124D01*
X352813Y793014D01*
X352721Y792906D01*
X352627Y792800D01*
X352529Y792698D01*
X352429Y792598D01*
X352327Y792500D01*
X352221Y792406D01*
X352113Y792314D01*
X352003Y792226D01*
X351890Y792141D01*
X351775Y792058D01*
X351657Y791979D01*
X351538Y791904D01*
X351416Y791831D01*
X351292Y791762D01*
X351167Y791696D01*
X351040Y791634D01*
X350911Y791576D01*
X350781Y791521D01*
X350649Y791469D01*
X350516Y791421D01*
X350381Y791377D01*
X350246Y791337D01*
X350109Y791300D01*
X349971Y791267D01*
X349833Y791238D01*
X349693Y791213D01*
X349553Y791192D01*
X349413Y791174D01*
X349272Y791161D01*
X349131Y791151D01*
X348990Y791145D01*
X348848Y791143D01*
X348588Y791146D01*
X348329Y791155D01*
X348070Y791171D01*
X347811Y791193D01*
X347553Y791221D01*
X347296Y791255D01*
X347039Y791295D01*
X346784Y791341D01*
X346529Y791394D01*
X346276Y791452D01*
X346025Y791517D01*
X345775Y791587D01*
X345527Y791664D01*
X345281Y791746D01*
X345037Y791834D01*
X344795Y791928D01*
X344555Y792028D01*
X344318Y792134D01*
X344083Y792245D01*
X343851Y792362D01*
X343622Y792484D01*
X343396Y792612D01*
X343173Y792745D01*
X342954Y792883D01*
X342738Y793027D01*
X342525Y793176D01*
X342316Y793330D01*
X342110Y793488D01*
X341909Y793652D01*
X341711Y793820D01*
X341518Y793993D01*
X341328Y794171D01*
X341143Y794353D01*
X341785Y809121D02*
X341787Y809263D01*
X341793Y809404D01*
X341803Y809545D01*
X341816Y809686D01*
X341834Y809826D01*
X341855Y809966D01*
X341880Y810106D01*
X341909Y810244D01*
X341942Y810382D01*
X341979Y810519D01*
X342019Y810654D01*
X342063Y810789D01*
X342111Y810922D01*
X342163Y811054D01*
X342218Y811184D01*
X342276Y811313D01*
X342338Y811440D01*
X342404Y811565D01*
X342473Y811689D01*
X342546Y811811D01*
X342621Y811930D01*
X342700Y812048D01*
X342783Y812163D01*
X342868Y812276D01*
X342956Y812386D01*
X343048Y812494D01*
X343142Y812600D01*
X343240Y812702D01*
X343340Y812802D01*
X343442Y812900D01*
X343548Y812994D01*
X343656Y813086D01*
X343766Y813174D01*
X343879Y813259D01*
X343994Y813342D01*
X344112Y813421D01*
X344231Y813496D01*
X344353Y813569D01*
X344477Y813638D01*
X344602Y813704D01*
X344729Y813766D01*
X344858Y813824D01*
X344988Y813879D01*
X345120Y813931D01*
X345253Y813979D01*
X345388Y814023D01*
X345524Y814063D01*
X345660Y814100D01*
X345798Y814133D01*
X345936Y814162D01*
X346076Y814187D01*
X346216Y814208D01*
X346356Y814226D01*
X346497Y814239D01*
X346638Y814249D01*
X346780Y814255D01*
X346921Y814257D01*
X347151Y814254D01*
X347380Y814246D01*
X347609Y814232D01*
X347838Y814213D01*
X348066Y814189D01*
X348294Y814159D01*
X348520Y814123D01*
X348746Y814082D01*
X348971Y814036D01*
X349195Y813985D01*
X349417Y813928D01*
X349638Y813866D01*
X349858Y813798D01*
X350075Y813726D01*
X350291Y813648D01*
X350505Y813565D01*
X350717Y813477D01*
X350927Y813384D01*
X351135Y813286D01*
X351340Y813183D01*
X351543Y813076D01*
X351743Y812963D01*
X351940Y812846D01*
X352134Y812724D01*
X352326Y812597D01*
X352514Y812466D01*
X352700Y812331D01*
X344353Y804626D02*
X344232Y804700D01*
X344112Y804778D01*
X343994Y804858D01*
X343879Y804942D01*
X343766Y805029D01*
X343655Y805119D01*
X343547Y805212D01*
X343442Y805308D01*
X343339Y805406D01*
X343239Y805508D01*
X343141Y805612D01*
X343047Y805719D01*
X342956Y805828D01*
X342867Y805940D01*
X342782Y806054D01*
X342700Y806170D01*
X342621Y806289D01*
X342545Y806410D01*
X342472Y806533D01*
X342403Y806657D01*
X342338Y806784D01*
X342276Y806912D01*
X342217Y807042D01*
X342162Y807174D01*
X342111Y807307D01*
X342063Y807441D01*
X342019Y807576D01*
X341979Y807713D01*
X341942Y807851D01*
X341909Y807990D01*
X341880Y808129D01*
X341855Y808270D01*
X341834Y808410D01*
X341816Y808552D01*
X341803Y808694D01*
X341793Y808836D01*
X341787Y808978D01*
X341785Y809121D01*
X351416Y800774D02*
X351537Y800700D01*
X351657Y800622D01*
X351775Y800542D01*
X351890Y800458D01*
X352003Y800371D01*
X352114Y800281D01*
X352222Y800188D01*
X352327Y800092D01*
X352430Y799994D01*
X352530Y799892D01*
X352628Y799788D01*
X352722Y799681D01*
X352813Y799572D01*
X352902Y799460D01*
X352987Y799346D01*
X353069Y799230D01*
X353148Y799111D01*
X353224Y798990D01*
X353297Y798867D01*
X353366Y798743D01*
X353431Y798616D01*
X353493Y798488D01*
X353552Y798358D01*
X353607Y798226D01*
X353658Y798093D01*
X353706Y797959D01*
X353750Y797824D01*
X353790Y797687D01*
X353827Y797549D01*
X353860Y797410D01*
X353889Y797271D01*
X353914Y797130D01*
X353935Y796990D01*
X353953Y796848D01*
X353966Y796706D01*
X353976Y796564D01*
X353982Y796422D01*
X353984Y796279D01*
X351416Y800774D02*
X344353Y804626D01*
X362192Y814257D02*
X362192Y791143D01*
X362192Y814257D02*
X368612Y814257D01*
X368771Y814255D01*
X368930Y814249D01*
X369088Y814239D01*
X369246Y814226D01*
X369404Y814208D01*
X369562Y814186D01*
X369718Y814161D01*
X369874Y814132D01*
X370030Y814099D01*
X370184Y814062D01*
X370338Y814021D01*
X370490Y813976D01*
X370641Y813928D01*
X370792Y813876D01*
X370940Y813820D01*
X371088Y813761D01*
X371233Y813698D01*
X371378Y813631D01*
X371520Y813561D01*
X371661Y813487D01*
X371800Y813410D01*
X371936Y813329D01*
X372071Y813245D01*
X372204Y813158D01*
X372335Y813068D01*
X372463Y812974D01*
X372589Y812877D01*
X372712Y812777D01*
X372833Y812674D01*
X372952Y812569D01*
X373067Y812460D01*
X373180Y812348D01*
X373291Y812234D01*
X373398Y812117D01*
X373502Y811997D01*
X373604Y811875D01*
X373702Y811750D01*
X373797Y811623D01*
X373889Y811494D01*
X373978Y811362D01*
X374064Y811228D01*
X374146Y811092D01*
X374225Y810954D01*
X374300Y810815D01*
X374372Y810673D01*
X374441Y810530D01*
X374506Y810385D01*
X374567Y810238D01*
X374624Y810090D01*
X374678Y809941D01*
X374728Y809790D01*
X374775Y809638D01*
X374818Y809485D01*
X374857Y809331D01*
X374892Y809176D01*
X374923Y809020D01*
X374950Y808864D01*
X374974Y808707D01*
X374993Y808549D01*
X375009Y808391D01*
X375021Y808233D01*
X375029Y808074D01*
X375033Y807915D01*
X375033Y807757D01*
X375029Y807598D01*
X375021Y807439D01*
X375009Y807281D01*
X374993Y807123D01*
X374974Y806965D01*
X374950Y806808D01*
X374923Y806652D01*
X374892Y806496D01*
X374857Y806341D01*
X374818Y806187D01*
X374775Y806034D01*
X374728Y805882D01*
X374678Y805731D01*
X374624Y805582D01*
X374567Y805434D01*
X374506Y805287D01*
X374441Y805142D01*
X374372Y804999D01*
X374300Y804857D01*
X374225Y804718D01*
X374146Y804580D01*
X374064Y804444D01*
X373978Y804310D01*
X373889Y804178D01*
X373797Y804049D01*
X373702Y803922D01*
X373604Y803797D01*
X373502Y803675D01*
X373398Y803555D01*
X373291Y803438D01*
X373180Y803324D01*
X373067Y803212D01*
X372952Y803103D01*
X372833Y802998D01*
X372712Y802895D01*
X372589Y802795D01*
X372463Y802698D01*
X372335Y802604D01*
X372204Y802514D01*
X372071Y802427D01*
X371936Y802343D01*
X371800Y802262D01*
X371661Y802185D01*
X371520Y802111D01*
X371378Y802041D01*
X371233Y801974D01*
X371088Y801911D01*
X370940Y801852D01*
X370792Y801796D01*
X370641Y801744D01*
X370490Y801696D01*
X370338Y801651D01*
X370184Y801610D01*
X370030Y801573D01*
X369874Y801540D01*
X369718Y801511D01*
X369562Y801486D01*
X369404Y801464D01*
X369246Y801446D01*
X369088Y801433D01*
X368930Y801423D01*
X368771Y801417D01*
X368612Y801415D01*
X368612Y801416D02*
X362192Y801416D01*
X382929Y791143D02*
X393201Y791143D01*
X382929Y791143D02*
X382929Y814257D01*
X393201Y814257D01*
X390633Y803984D02*
X382929Y803984D01*
X401023Y791143D02*
X411296Y791143D01*
X401023Y791143D02*
X401023Y814257D01*
X411296Y814257D01*
X408728Y803984D02*
X401023Y803984D01*
X419090Y814257D02*
X419090Y791143D01*
X419090Y814257D02*
X425511Y814257D01*
X425669Y814255D01*
X425826Y814249D01*
X425983Y814240D01*
X426140Y814226D01*
X426297Y814209D01*
X426453Y814188D01*
X426609Y814162D01*
X426764Y814134D01*
X426918Y814101D01*
X427071Y814065D01*
X427224Y814024D01*
X427375Y813981D01*
X427525Y813933D01*
X427674Y813882D01*
X427822Y813827D01*
X427968Y813768D01*
X428113Y813706D01*
X428256Y813641D01*
X428398Y813571D01*
X428538Y813499D01*
X428676Y813423D01*
X428812Y813343D01*
X428946Y813261D01*
X429078Y813175D01*
X429208Y813086D01*
X429336Y812993D01*
X429461Y812898D01*
X429584Y812800D01*
X429705Y812698D01*
X429823Y812594D01*
X429939Y812486D01*
X430051Y812376D01*
X430161Y812264D01*
X430269Y812148D01*
X430373Y812030D01*
X430475Y811909D01*
X430573Y811786D01*
X430668Y811661D01*
X430761Y811533D01*
X430850Y811403D01*
X430936Y811271D01*
X431018Y811137D01*
X431098Y811001D01*
X431174Y810863D01*
X431246Y810723D01*
X431316Y810581D01*
X431381Y810438D01*
X431443Y810293D01*
X431502Y810147D01*
X431557Y809999D01*
X431608Y809850D01*
X431656Y809700D01*
X431699Y809549D01*
X431740Y809396D01*
X431776Y809243D01*
X431809Y809089D01*
X431837Y808934D01*
X431863Y808778D01*
X431884Y808622D01*
X431901Y808465D01*
X431915Y808308D01*
X431924Y808151D01*
X431930Y807994D01*
X431932Y807836D01*
X431931Y807836D02*
X431931Y797564D01*
X431932Y797564D02*
X431930Y797406D01*
X431924Y797249D01*
X431915Y797092D01*
X431901Y796935D01*
X431884Y796778D01*
X431863Y796622D01*
X431837Y796466D01*
X431809Y796311D01*
X431776Y796157D01*
X431740Y796004D01*
X431699Y795851D01*
X431656Y795700D01*
X431608Y795550D01*
X431557Y795401D01*
X431502Y795253D01*
X431443Y795107D01*
X431381Y794962D01*
X431316Y794819D01*
X431246Y794677D01*
X431174Y794537D01*
X431098Y794399D01*
X431018Y794263D01*
X430936Y794129D01*
X430850Y793997D01*
X430761Y793867D01*
X430668Y793739D01*
X430573Y793614D01*
X430474Y793491D01*
X430373Y793370D01*
X430269Y793252D01*
X430161Y793136D01*
X430051Y793024D01*
X429939Y792914D01*
X429823Y792806D01*
X429705Y792702D01*
X429584Y792600D01*
X429461Y792502D01*
X429336Y792407D01*
X429208Y792314D01*
X429078Y792225D01*
X428946Y792139D01*
X428812Y792057D01*
X428676Y791977D01*
X428538Y791901D01*
X428398Y791829D01*
X428256Y791759D01*
X428113Y791694D01*
X427968Y791632D01*
X427822Y791573D01*
X427674Y791518D01*
X427525Y791467D01*
X427375Y791419D01*
X427224Y791376D01*
X427071Y791335D01*
X426918Y791299D01*
X426764Y791266D01*
X426609Y791238D01*
X426453Y791212D01*
X426297Y791191D01*
X426140Y791174D01*
X425983Y791160D01*
X425826Y791151D01*
X425669Y791145D01*
X425511Y791143D01*
X419090Y791143D01*
X341143Y672357D02*
X341143Y649243D01*
X341143Y672357D02*
X351416Y672357D01*
X351416Y662084D02*
X341143Y662084D01*
X359318Y672357D02*
X359318Y649243D01*
X367022Y659516D02*
X359318Y672357D01*
X367022Y659516D02*
X374727Y672357D01*
X374727Y649243D01*
X395570Y662084D02*
X401990Y662084D01*
X401990Y662085D02*
X402149Y662083D01*
X402308Y662077D01*
X402466Y662067D01*
X402624Y662054D01*
X402782Y662036D01*
X402940Y662014D01*
X403096Y661989D01*
X403252Y661960D01*
X403408Y661927D01*
X403562Y661890D01*
X403716Y661849D01*
X403868Y661804D01*
X404019Y661756D01*
X404170Y661704D01*
X404318Y661648D01*
X404466Y661589D01*
X404611Y661526D01*
X404756Y661459D01*
X404898Y661389D01*
X405039Y661315D01*
X405178Y661238D01*
X405314Y661157D01*
X405449Y661073D01*
X405582Y660986D01*
X405713Y660896D01*
X405841Y660802D01*
X405967Y660705D01*
X406090Y660605D01*
X406211Y660502D01*
X406330Y660397D01*
X406445Y660288D01*
X406558Y660176D01*
X406669Y660062D01*
X406776Y659945D01*
X406880Y659825D01*
X406982Y659703D01*
X407080Y659578D01*
X407175Y659451D01*
X407267Y659322D01*
X407356Y659190D01*
X407442Y659056D01*
X407524Y658920D01*
X407603Y658782D01*
X407678Y658643D01*
X407750Y658501D01*
X407819Y658358D01*
X407884Y658213D01*
X407945Y658066D01*
X408002Y657918D01*
X408056Y657769D01*
X408106Y657618D01*
X408153Y657466D01*
X408196Y657313D01*
X408235Y657159D01*
X408270Y657004D01*
X408301Y656848D01*
X408328Y656692D01*
X408352Y656535D01*
X408371Y656377D01*
X408387Y656219D01*
X408399Y656061D01*
X408407Y655902D01*
X408411Y655743D01*
X408411Y655585D01*
X408407Y655426D01*
X408399Y655267D01*
X408387Y655109D01*
X408371Y654951D01*
X408352Y654793D01*
X408328Y654636D01*
X408301Y654480D01*
X408270Y654324D01*
X408235Y654169D01*
X408196Y654015D01*
X408153Y653862D01*
X408106Y653710D01*
X408056Y653559D01*
X408002Y653410D01*
X407945Y653262D01*
X407884Y653115D01*
X407819Y652970D01*
X407750Y652827D01*
X407678Y652685D01*
X407603Y652546D01*
X407524Y652408D01*
X407442Y652272D01*
X407356Y652138D01*
X407267Y652006D01*
X407175Y651877D01*
X407080Y651750D01*
X406982Y651625D01*
X406880Y651503D01*
X406776Y651383D01*
X406669Y651266D01*
X406558Y651152D01*
X406445Y651040D01*
X406330Y650931D01*
X406211Y650826D01*
X406090Y650723D01*
X405967Y650623D01*
X405841Y650526D01*
X405713Y650432D01*
X405582Y650342D01*
X405449Y650255D01*
X405314Y650171D01*
X405178Y650090D01*
X405039Y650013D01*
X404898Y649939D01*
X404756Y649869D01*
X404611Y649802D01*
X404466Y649739D01*
X404318Y649680D01*
X404170Y649624D01*
X404019Y649572D01*
X403868Y649524D01*
X403716Y649479D01*
X403562Y649438D01*
X403408Y649401D01*
X403252Y649368D01*
X403096Y649339D01*
X402940Y649314D01*
X402782Y649292D01*
X402624Y649274D01*
X402466Y649261D01*
X402308Y649251D01*
X402149Y649245D01*
X401990Y649243D01*
X395570Y649243D01*
X395570Y672357D01*
X401990Y672357D01*
X402132Y672355D01*
X402273Y672349D01*
X402414Y672339D01*
X402555Y672326D01*
X402695Y672308D01*
X402835Y672287D01*
X402975Y672262D01*
X403113Y672233D01*
X403251Y672200D01*
X403388Y672163D01*
X403523Y672123D01*
X403658Y672079D01*
X403791Y672031D01*
X403923Y671979D01*
X404053Y671924D01*
X404182Y671866D01*
X404309Y671804D01*
X404434Y671738D01*
X404558Y671669D01*
X404680Y671596D01*
X404799Y671521D01*
X404917Y671442D01*
X405032Y671359D01*
X405145Y671274D01*
X405255Y671186D01*
X405363Y671094D01*
X405469Y671000D01*
X405571Y670902D01*
X405671Y670802D01*
X405769Y670700D01*
X405863Y670594D01*
X405955Y670486D01*
X406043Y670376D01*
X406128Y670263D01*
X406211Y670148D01*
X406290Y670030D01*
X406365Y669911D01*
X406438Y669789D01*
X406507Y669665D01*
X406573Y669540D01*
X406635Y669413D01*
X406693Y669284D01*
X406748Y669154D01*
X406800Y669022D01*
X406848Y668889D01*
X406892Y668754D01*
X406932Y668619D01*
X406969Y668482D01*
X407002Y668344D01*
X407031Y668206D01*
X407056Y668066D01*
X407077Y667926D01*
X407095Y667786D01*
X407108Y667645D01*
X407118Y667504D01*
X407124Y667363D01*
X407126Y667221D01*
X407124Y667079D01*
X407118Y666938D01*
X407108Y666797D01*
X407095Y666656D01*
X407077Y666516D01*
X407056Y666376D01*
X407031Y666236D01*
X407002Y666098D01*
X406969Y665960D01*
X406932Y665823D01*
X406892Y665688D01*
X406848Y665553D01*
X406800Y665420D01*
X406748Y665288D01*
X406693Y665158D01*
X406635Y665029D01*
X406573Y664902D01*
X406507Y664777D01*
X406438Y664653D01*
X406365Y664531D01*
X406290Y664412D01*
X406211Y664294D01*
X406128Y664179D01*
X406043Y664066D01*
X405955Y663956D01*
X405863Y663848D01*
X405769Y663742D01*
X405671Y663640D01*
X405571Y663540D01*
X405469Y663442D01*
X405363Y663348D01*
X405255Y663256D01*
X405145Y663168D01*
X405032Y663083D01*
X404917Y663000D01*
X404799Y662921D01*
X404680Y662846D01*
X404558Y662773D01*
X404434Y662704D01*
X404309Y662638D01*
X404182Y662576D01*
X404053Y662518D01*
X403923Y662463D01*
X403791Y662411D01*
X403658Y662363D01*
X403523Y662319D01*
X403388Y662279D01*
X403251Y662242D01*
X403113Y662209D01*
X402975Y662180D01*
X402835Y662155D01*
X402695Y662134D01*
X402555Y662116D01*
X402414Y662103D01*
X402273Y662093D01*
X402132Y662087D01*
X401990Y662085D01*
X414298Y672357D02*
X422003Y661442D01*
X429708Y672357D01*
X422003Y661442D02*
X422003Y649243D01*
X351416Y611143D02*
X341143Y611143D01*
X341143Y634257D01*
X351416Y634257D01*
X348848Y623984D02*
X341143Y623984D01*
X359210Y634257D02*
X359210Y611143D01*
X372051Y611143D02*
X359210Y634257D01*
X372051Y634257D02*
X372051Y611143D01*
X387205Y611143D02*
X379501Y634257D01*
X394910Y634257D02*
X387205Y611143D01*
X198857Y391416D02*
X198857Y381143D01*
X175743Y381143D01*
X175743Y391416D01*
X186016Y388848D02*
X186016Y381143D01*
X175743Y399210D02*
X198857Y399210D01*
X198857Y412051D02*
X175743Y399210D01*
X175743Y412051D02*
X198857Y412051D01*
X198857Y427205D02*
X175743Y419501D01*
X175743Y434910D02*
X198857Y427205D01*
X192436Y452799D02*
X182164Y452799D01*
X182164Y452798D02*
X182005Y452800D01*
X181846Y452806D01*
X181688Y452816D01*
X181530Y452829D01*
X181372Y452847D01*
X181214Y452869D01*
X181058Y452894D01*
X180902Y452923D01*
X180746Y452956D01*
X180592Y452993D01*
X180438Y453034D01*
X180286Y453079D01*
X180135Y453127D01*
X179984Y453179D01*
X179836Y453235D01*
X179688Y453294D01*
X179543Y453357D01*
X179398Y453424D01*
X179256Y453494D01*
X179115Y453568D01*
X178976Y453645D01*
X178840Y453726D01*
X178705Y453810D01*
X178572Y453897D01*
X178441Y453987D01*
X178313Y454081D01*
X178187Y454178D01*
X178064Y454278D01*
X177943Y454381D01*
X177824Y454486D01*
X177709Y454595D01*
X177596Y454707D01*
X177485Y454821D01*
X177378Y454938D01*
X177274Y455058D01*
X177172Y455180D01*
X177074Y455305D01*
X176979Y455432D01*
X176887Y455561D01*
X176798Y455693D01*
X176712Y455827D01*
X176630Y455963D01*
X176551Y456101D01*
X176476Y456240D01*
X176404Y456382D01*
X176335Y456525D01*
X176270Y456670D01*
X176209Y456817D01*
X176152Y456965D01*
X176098Y457114D01*
X176048Y457265D01*
X176001Y457417D01*
X175958Y457570D01*
X175919Y457724D01*
X175884Y457879D01*
X175853Y458035D01*
X175826Y458191D01*
X175802Y458348D01*
X175783Y458506D01*
X175767Y458664D01*
X175755Y458822D01*
X175747Y458981D01*
X175743Y459140D01*
X175743Y459298D01*
X175747Y459457D01*
X175755Y459616D01*
X175767Y459774D01*
X175783Y459932D01*
X175802Y460090D01*
X175826Y460247D01*
X175853Y460403D01*
X175884Y460559D01*
X175919Y460714D01*
X175958Y460868D01*
X176001Y461021D01*
X176048Y461173D01*
X176098Y461324D01*
X176152Y461473D01*
X176209Y461621D01*
X176270Y461768D01*
X176335Y461913D01*
X176404Y462056D01*
X176476Y462198D01*
X176551Y462337D01*
X176630Y462475D01*
X176712Y462611D01*
X176798Y462745D01*
X176887Y462877D01*
X176979Y463006D01*
X177074Y463133D01*
X177172Y463258D01*
X177274Y463380D01*
X177378Y463500D01*
X177485Y463617D01*
X177596Y463731D01*
X177709Y463843D01*
X177824Y463952D01*
X177943Y464057D01*
X178064Y464160D01*
X178187Y464260D01*
X178313Y464357D01*
X178441Y464451D01*
X178572Y464541D01*
X178705Y464628D01*
X178840Y464712D01*
X178976Y464793D01*
X179115Y464870D01*
X179256Y464944D01*
X179398Y465014D01*
X179543Y465081D01*
X179688Y465144D01*
X179836Y465203D01*
X179984Y465259D01*
X180135Y465311D01*
X180286Y465359D01*
X180438Y465404D01*
X180592Y465445D01*
X180746Y465482D01*
X180902Y465515D01*
X181058Y465544D01*
X181214Y465569D01*
X181372Y465591D01*
X181530Y465609D01*
X181688Y465622D01*
X181846Y465632D01*
X182005Y465638D01*
X182164Y465640D01*
X192436Y465640D01*
X192595Y465638D01*
X192754Y465632D01*
X192912Y465622D01*
X193070Y465609D01*
X193228Y465591D01*
X193386Y465569D01*
X193542Y465544D01*
X193698Y465515D01*
X193854Y465482D01*
X194008Y465445D01*
X194162Y465404D01*
X194314Y465359D01*
X194465Y465311D01*
X194616Y465259D01*
X194764Y465203D01*
X194912Y465144D01*
X195057Y465081D01*
X195202Y465014D01*
X195344Y464944D01*
X195485Y464870D01*
X195624Y464793D01*
X195760Y464712D01*
X195895Y464628D01*
X196028Y464541D01*
X196159Y464451D01*
X196287Y464357D01*
X196413Y464260D01*
X196536Y464160D01*
X196657Y464057D01*
X196776Y463952D01*
X196891Y463843D01*
X197004Y463731D01*
X197115Y463617D01*
X197222Y463500D01*
X197326Y463380D01*
X197428Y463258D01*
X197526Y463133D01*
X197621Y463006D01*
X197713Y462877D01*
X197802Y462745D01*
X197888Y462611D01*
X197970Y462475D01*
X198049Y462337D01*
X198124Y462198D01*
X198196Y462056D01*
X198265Y461913D01*
X198330Y461768D01*
X198391Y461621D01*
X198448Y461473D01*
X198502Y461324D01*
X198552Y461173D01*
X198599Y461021D01*
X198642Y460868D01*
X198681Y460714D01*
X198716Y460559D01*
X198747Y460403D01*
X198774Y460247D01*
X198798Y460090D01*
X198817Y459932D01*
X198833Y459774D01*
X198845Y459616D01*
X198853Y459457D01*
X198857Y459298D01*
X198857Y459140D01*
X198853Y458981D01*
X198845Y458822D01*
X198833Y458664D01*
X198817Y458506D01*
X198798Y458348D01*
X198774Y458191D01*
X198747Y458035D01*
X198716Y457879D01*
X198681Y457724D01*
X198642Y457570D01*
X198599Y457417D01*
X198552Y457265D01*
X198502Y457114D01*
X198448Y456965D01*
X198391Y456817D01*
X198330Y456670D01*
X198265Y456525D01*
X198196Y456382D01*
X198124Y456240D01*
X198049Y456101D01*
X197970Y455963D01*
X197888Y455827D01*
X197802Y455693D01*
X197713Y455561D01*
X197621Y455432D01*
X197526Y455305D01*
X197428Y455180D01*
X197326Y455058D01*
X197222Y454938D01*
X197115Y454821D01*
X197004Y454707D01*
X196891Y454595D01*
X196776Y454486D01*
X196657Y454381D01*
X196536Y454278D01*
X196413Y454178D01*
X196287Y454081D01*
X196159Y453987D01*
X196028Y453897D01*
X195895Y453810D01*
X195760Y453726D01*
X195624Y453645D01*
X195485Y453568D01*
X195344Y453494D01*
X195202Y453424D01*
X195057Y453357D01*
X194912Y453294D01*
X194764Y453235D01*
X194616Y453179D01*
X194465Y453127D01*
X194314Y453079D01*
X194162Y453034D01*
X194008Y452993D01*
X193854Y452956D01*
X193698Y452923D01*
X193542Y452894D01*
X193386Y452869D01*
X193228Y452847D01*
X193070Y452829D01*
X192912Y452816D01*
X192754Y452806D01*
X192595Y452800D01*
X192436Y452798D01*
X192436Y474373D02*
X175743Y474373D01*
X192436Y474373D02*
X192595Y474375D01*
X192754Y474381D01*
X192912Y474391D01*
X193070Y474404D01*
X193228Y474422D01*
X193386Y474444D01*
X193542Y474469D01*
X193698Y474498D01*
X193854Y474531D01*
X194008Y474568D01*
X194162Y474609D01*
X194314Y474654D01*
X194465Y474702D01*
X194616Y474754D01*
X194764Y474810D01*
X194912Y474869D01*
X195057Y474932D01*
X195202Y474999D01*
X195344Y475069D01*
X195485Y475143D01*
X195624Y475220D01*
X195760Y475301D01*
X195895Y475385D01*
X196028Y475472D01*
X196159Y475562D01*
X196287Y475656D01*
X196413Y475753D01*
X196536Y475853D01*
X196657Y475956D01*
X196776Y476061D01*
X196891Y476170D01*
X197004Y476282D01*
X197115Y476396D01*
X197222Y476513D01*
X197326Y476633D01*
X197428Y476755D01*
X197526Y476880D01*
X197621Y477007D01*
X197713Y477136D01*
X197802Y477268D01*
X197888Y477402D01*
X197970Y477538D01*
X198049Y477676D01*
X198124Y477815D01*
X198196Y477957D01*
X198265Y478100D01*
X198330Y478245D01*
X198391Y478392D01*
X198448Y478540D01*
X198502Y478689D01*
X198552Y478840D01*
X198599Y478992D01*
X198642Y479145D01*
X198681Y479299D01*
X198716Y479454D01*
X198747Y479610D01*
X198774Y479766D01*
X198798Y479923D01*
X198817Y480081D01*
X198833Y480239D01*
X198845Y480397D01*
X198853Y480556D01*
X198857Y480715D01*
X198857Y480873D01*
X198853Y481032D01*
X198845Y481191D01*
X198833Y481349D01*
X198817Y481507D01*
X198798Y481665D01*
X198774Y481822D01*
X198747Y481978D01*
X198716Y482134D01*
X198681Y482289D01*
X198642Y482443D01*
X198599Y482596D01*
X198552Y482748D01*
X198502Y482899D01*
X198448Y483048D01*
X198391Y483196D01*
X198330Y483343D01*
X198265Y483488D01*
X198196Y483631D01*
X198124Y483773D01*
X198049Y483912D01*
X197970Y484050D01*
X197888Y484186D01*
X197802Y484320D01*
X197713Y484452D01*
X197621Y484581D01*
X197526Y484708D01*
X197428Y484833D01*
X197326Y484955D01*
X197222Y485075D01*
X197115Y485192D01*
X197004Y485306D01*
X196891Y485418D01*
X196776Y485527D01*
X196657Y485632D01*
X196536Y485735D01*
X196413Y485835D01*
X196287Y485932D01*
X196159Y486026D01*
X196028Y486116D01*
X195895Y486203D01*
X195760Y486287D01*
X195624Y486368D01*
X195485Y486445D01*
X195344Y486519D01*
X195202Y486589D01*
X195057Y486656D01*
X194912Y486719D01*
X194764Y486778D01*
X194616Y486834D01*
X194465Y486886D01*
X194314Y486934D01*
X194162Y486979D01*
X194008Y487020D01*
X193854Y487057D01*
X193698Y487090D01*
X193542Y487119D01*
X193386Y487144D01*
X193228Y487166D01*
X193070Y487184D01*
X192912Y487197D01*
X192754Y487207D01*
X192595Y487213D01*
X192436Y487215D01*
X175743Y487215D01*
X175743Y500977D02*
X198857Y500977D01*
X175743Y494556D02*
X175743Y507397D01*
X305743Y381143D02*
X328857Y381143D01*
X328857Y391416D01*
X328857Y399238D02*
X305743Y399238D01*
X305743Y409511D01*
X316016Y409511D02*
X316016Y399238D01*
X312164Y416609D02*
X322436Y416609D01*
X312164Y416608D02*
X312005Y416610D01*
X311846Y416616D01*
X311688Y416626D01*
X311530Y416639D01*
X311372Y416657D01*
X311214Y416679D01*
X311058Y416704D01*
X310902Y416733D01*
X310746Y416766D01*
X310592Y416803D01*
X310438Y416844D01*
X310286Y416889D01*
X310135Y416937D01*
X309984Y416989D01*
X309836Y417045D01*
X309688Y417104D01*
X309543Y417167D01*
X309398Y417234D01*
X309256Y417304D01*
X309115Y417378D01*
X308976Y417455D01*
X308840Y417536D01*
X308705Y417620D01*
X308572Y417707D01*
X308441Y417797D01*
X308313Y417891D01*
X308187Y417988D01*
X308064Y418088D01*
X307943Y418191D01*
X307824Y418296D01*
X307709Y418405D01*
X307596Y418517D01*
X307485Y418631D01*
X307378Y418748D01*
X307274Y418868D01*
X307172Y418990D01*
X307074Y419115D01*
X306979Y419242D01*
X306887Y419371D01*
X306798Y419503D01*
X306712Y419637D01*
X306630Y419773D01*
X306551Y419911D01*
X306476Y420050D01*
X306404Y420192D01*
X306335Y420335D01*
X306270Y420480D01*
X306209Y420627D01*
X306152Y420775D01*
X306098Y420924D01*
X306048Y421075D01*
X306001Y421227D01*
X305958Y421380D01*
X305919Y421534D01*
X305884Y421689D01*
X305853Y421845D01*
X305826Y422001D01*
X305802Y422158D01*
X305783Y422316D01*
X305767Y422474D01*
X305755Y422632D01*
X305747Y422791D01*
X305743Y422950D01*
X305743Y423108D01*
X305747Y423267D01*
X305755Y423426D01*
X305767Y423584D01*
X305783Y423742D01*
X305802Y423900D01*
X305826Y424057D01*
X305853Y424213D01*
X305884Y424369D01*
X305919Y424524D01*
X305958Y424678D01*
X306001Y424831D01*
X306048Y424983D01*
X306098Y425134D01*
X306152Y425283D01*
X306209Y425431D01*
X306270Y425578D01*
X306335Y425723D01*
X306404Y425866D01*
X306476Y426008D01*
X306551Y426147D01*
X306630Y426285D01*
X306712Y426421D01*
X306798Y426555D01*
X306887Y426687D01*
X306979Y426816D01*
X307074Y426943D01*
X307172Y427068D01*
X307274Y427190D01*
X307378Y427310D01*
X307485Y427427D01*
X307596Y427541D01*
X307709Y427653D01*
X307824Y427762D01*
X307943Y427867D01*
X308064Y427970D01*
X308187Y428070D01*
X308313Y428167D01*
X308441Y428261D01*
X308572Y428351D01*
X308705Y428438D01*
X308840Y428522D01*
X308976Y428603D01*
X309115Y428680D01*
X309256Y428754D01*
X309398Y428824D01*
X309543Y428891D01*
X309688Y428954D01*
X309836Y429013D01*
X309984Y429069D01*
X310135Y429121D01*
X310286Y429169D01*
X310438Y429214D01*
X310592Y429255D01*
X310746Y429292D01*
X310902Y429325D01*
X311058Y429354D01*
X311214Y429379D01*
X311372Y429401D01*
X311530Y429419D01*
X311688Y429432D01*
X311846Y429442D01*
X312005Y429448D01*
X312164Y429450D01*
X322436Y429450D01*
X322595Y429448D01*
X322754Y429442D01*
X322912Y429432D01*
X323070Y429419D01*
X323228Y429401D01*
X323386Y429379D01*
X323542Y429354D01*
X323698Y429325D01*
X323854Y429292D01*
X324008Y429255D01*
X324162Y429214D01*
X324314Y429169D01*
X324465Y429121D01*
X324616Y429069D01*
X324764Y429013D01*
X324912Y428954D01*
X325057Y428891D01*
X325202Y428824D01*
X325344Y428754D01*
X325485Y428680D01*
X325624Y428603D01*
X325760Y428522D01*
X325895Y428438D01*
X326028Y428351D01*
X326159Y428261D01*
X326287Y428167D01*
X326413Y428070D01*
X326536Y427970D01*
X326657Y427867D01*
X326776Y427762D01*
X326891Y427653D01*
X327004Y427541D01*
X327115Y427427D01*
X327222Y427310D01*
X327326Y427190D01*
X327428Y427068D01*
X327526Y426943D01*
X327621Y426816D01*
X327713Y426687D01*
X327802Y426555D01*
X327888Y426421D01*
X327970Y426285D01*
X328049Y426147D01*
X328124Y426008D01*
X328196Y425866D01*
X328265Y425723D01*
X328330Y425578D01*
X328391Y425431D01*
X328448Y425283D01*
X328502Y425134D01*
X328552Y424983D01*
X328599Y424831D01*
X328642Y424678D01*
X328681Y424524D01*
X328716Y424369D01*
X328747Y424213D01*
X328774Y424057D01*
X328798Y423900D01*
X328817Y423742D01*
X328833Y423584D01*
X328845Y423426D01*
X328853Y423267D01*
X328857Y423108D01*
X328857Y422950D01*
X328853Y422791D01*
X328845Y422632D01*
X328833Y422474D01*
X328817Y422316D01*
X328798Y422158D01*
X328774Y422001D01*
X328747Y421845D01*
X328716Y421689D01*
X328681Y421534D01*
X328642Y421380D01*
X328599Y421227D01*
X328552Y421075D01*
X328502Y420924D01*
X328448Y420775D01*
X328391Y420627D01*
X328330Y420480D01*
X328265Y420335D01*
X328196Y420192D01*
X328124Y420050D01*
X328049Y419911D01*
X327970Y419773D01*
X327888Y419637D01*
X327802Y419503D01*
X327713Y419371D01*
X327621Y419242D01*
X327526Y419115D01*
X327428Y418990D01*
X327326Y418868D01*
X327222Y418748D01*
X327115Y418631D01*
X327004Y418517D01*
X326891Y418405D01*
X326776Y418296D01*
X326657Y418191D01*
X326536Y418088D01*
X326413Y417988D01*
X326287Y417891D01*
X326159Y417797D01*
X326028Y417707D01*
X325895Y417620D01*
X325760Y417536D01*
X325624Y417455D01*
X325485Y417378D01*
X325344Y417304D01*
X325202Y417234D01*
X325057Y417167D01*
X324912Y417104D01*
X324764Y417045D01*
X324616Y416989D01*
X324465Y416937D01*
X324314Y416889D01*
X324162Y416844D01*
X324008Y416803D01*
X323854Y416766D01*
X323698Y416733D01*
X323542Y416704D01*
X323386Y416679D01*
X323228Y416657D01*
X323070Y416639D01*
X322912Y416626D01*
X322754Y416616D01*
X322595Y416610D01*
X322436Y416608D01*
X322436Y448623D02*
X312164Y448623D01*
X312005Y448625D01*
X311846Y448631D01*
X311688Y448641D01*
X311530Y448654D01*
X311372Y448672D01*
X311214Y448694D01*
X311058Y448719D01*
X310902Y448748D01*
X310746Y448781D01*
X310592Y448818D01*
X310438Y448859D01*
X310286Y448904D01*
X310135Y448952D01*
X309984Y449004D01*
X309836Y449060D01*
X309688Y449119D01*
X309543Y449182D01*
X309398Y449249D01*
X309256Y449319D01*
X309115Y449393D01*
X308976Y449470D01*
X308840Y449551D01*
X308705Y449635D01*
X308572Y449722D01*
X308441Y449812D01*
X308313Y449906D01*
X308187Y450003D01*
X308064Y450103D01*
X307943Y450206D01*
X307824Y450311D01*
X307709Y450420D01*
X307596Y450532D01*
X307485Y450646D01*
X307378Y450763D01*
X307274Y450883D01*
X307172Y451005D01*
X307074Y451130D01*
X306979Y451257D01*
X306887Y451386D01*
X306798Y451518D01*
X306712Y451652D01*
X306630Y451788D01*
X306551Y451926D01*
X306476Y452065D01*
X306404Y452207D01*
X306335Y452350D01*
X306270Y452495D01*
X306209Y452642D01*
X306152Y452790D01*
X306098Y452939D01*
X306048Y453090D01*
X306001Y453242D01*
X305958Y453395D01*
X305919Y453549D01*
X305884Y453704D01*
X305853Y453860D01*
X305826Y454016D01*
X305802Y454173D01*
X305783Y454331D01*
X305767Y454489D01*
X305755Y454647D01*
X305747Y454806D01*
X305743Y454965D01*
X305743Y455123D01*
X305747Y455282D01*
X305755Y455441D01*
X305767Y455599D01*
X305783Y455757D01*
X305802Y455915D01*
X305826Y456072D01*
X305853Y456228D01*
X305884Y456384D01*
X305919Y456539D01*
X305958Y456693D01*
X306001Y456846D01*
X306048Y456998D01*
X306098Y457149D01*
X306152Y457298D01*
X306209Y457446D01*
X306270Y457593D01*
X306335Y457738D01*
X306404Y457881D01*
X306476Y458023D01*
X306551Y458162D01*
X306630Y458300D01*
X306712Y458436D01*
X306798Y458570D01*
X306887Y458702D01*
X306979Y458831D01*
X307074Y458958D01*
X307172Y459083D01*
X307274Y459205D01*
X307378Y459325D01*
X307485Y459442D01*
X307596Y459556D01*
X307709Y459668D01*
X307824Y459777D01*
X307943Y459882D01*
X308064Y459985D01*
X308187Y460085D01*
X308313Y460182D01*
X308441Y460276D01*
X308572Y460366D01*
X308705Y460453D01*
X308840Y460537D01*
X308976Y460618D01*
X309115Y460695D01*
X309256Y460769D01*
X309398Y460839D01*
X309543Y460906D01*
X309688Y460969D01*
X309836Y461028D01*
X309984Y461084D01*
X310135Y461136D01*
X310286Y461184D01*
X310438Y461229D01*
X310592Y461270D01*
X310746Y461307D01*
X310902Y461340D01*
X311058Y461369D01*
X311214Y461394D01*
X311372Y461416D01*
X311530Y461434D01*
X311688Y461447D01*
X311846Y461457D01*
X312005Y461463D01*
X312164Y461465D01*
X312164Y461464D02*
X322436Y461464D01*
X322436Y461465D02*
X322595Y461463D01*
X322754Y461457D01*
X322912Y461447D01*
X323070Y461434D01*
X323228Y461416D01*
X323386Y461394D01*
X323542Y461369D01*
X323698Y461340D01*
X323854Y461307D01*
X324008Y461270D01*
X324162Y461229D01*
X324314Y461184D01*
X324465Y461136D01*
X324616Y461084D01*
X324764Y461028D01*
X324912Y460969D01*
X325057Y460906D01*
X325202Y460839D01*
X325344Y460769D01*
X325485Y460695D01*
X325624Y460618D01*
X325760Y460537D01*
X325895Y460453D01*
X326028Y460366D01*
X326159Y460276D01*
X326287Y460182D01*
X326413Y460085D01*
X326536Y459985D01*
X326657Y459882D01*
X326776Y459777D01*
X326891Y459668D01*
X327004Y459556D01*
X327115Y459442D01*
X327222Y459325D01*
X327326Y459205D01*
X327428Y459083D01*
X327526Y458958D01*
X327621Y458831D01*
X327713Y458702D01*
X327802Y458570D01*
X327888Y458436D01*
X327970Y458300D01*
X328049Y458162D01*
X328124Y458023D01*
X328196Y457881D01*
X328265Y457738D01*
X328330Y457593D01*
X328391Y457446D01*
X328448Y457298D01*
X328502Y457149D01*
X328552Y456998D01*
X328599Y456846D01*
X328642Y456693D01*
X328681Y456539D01*
X328716Y456384D01*
X328747Y456228D01*
X328774Y456072D01*
X328798Y455915D01*
X328817Y455757D01*
X328833Y455599D01*
X328845Y455441D01*
X328853Y455282D01*
X328857Y455123D01*
X328857Y454965D01*
X328853Y454806D01*
X328845Y454647D01*
X328833Y454489D01*
X328817Y454331D01*
X328798Y454173D01*
X328774Y454016D01*
X328747Y453860D01*
X328716Y453704D01*
X328681Y453549D01*
X328642Y453395D01*
X328599Y453242D01*
X328552Y453090D01*
X328502Y452939D01*
X328448Y452790D01*
X328391Y452642D01*
X328330Y452495D01*
X328265Y452350D01*
X328196Y452207D01*
X328124Y452065D01*
X328049Y451926D01*
X327970Y451788D01*
X327888Y451652D01*
X327802Y451518D01*
X327713Y451386D01*
X327621Y451257D01*
X327526Y451130D01*
X327428Y451005D01*
X327326Y450883D01*
X327222Y450763D01*
X327115Y450646D01*
X327004Y450532D01*
X326891Y450420D01*
X326776Y450311D01*
X326657Y450206D01*
X326536Y450103D01*
X326413Y450003D01*
X326287Y449906D01*
X326159Y449812D01*
X326028Y449722D01*
X325895Y449635D01*
X325760Y449551D01*
X325624Y449470D01*
X325485Y449393D01*
X325344Y449319D01*
X325202Y449249D01*
X325057Y449182D01*
X324912Y449119D01*
X324764Y449060D01*
X324616Y449004D01*
X324465Y448952D01*
X324314Y448904D01*
X324162Y448859D01*
X324008Y448818D01*
X323854Y448781D01*
X323698Y448748D01*
X323542Y448719D01*
X323386Y448694D01*
X323228Y448672D01*
X323070Y448654D01*
X322912Y448641D01*
X322754Y448631D01*
X322595Y448625D01*
X322436Y448623D01*
X322436Y470198D02*
X305743Y470198D01*
X322436Y470197D02*
X322595Y470199D01*
X322754Y470205D01*
X322912Y470215D01*
X323070Y470228D01*
X323228Y470246D01*
X323386Y470268D01*
X323542Y470293D01*
X323698Y470322D01*
X323854Y470355D01*
X324008Y470392D01*
X324162Y470433D01*
X324314Y470478D01*
X324465Y470526D01*
X324616Y470578D01*
X324764Y470634D01*
X324912Y470693D01*
X325057Y470756D01*
X325202Y470823D01*
X325344Y470893D01*
X325485Y470967D01*
X325624Y471044D01*
X325760Y471125D01*
X325895Y471209D01*
X326028Y471296D01*
X326159Y471386D01*
X326287Y471480D01*
X326413Y471577D01*
X326536Y471677D01*
X326657Y471780D01*
X326776Y471885D01*
X326891Y471994D01*
X327004Y472106D01*
X327115Y472220D01*
X327222Y472337D01*
X327326Y472457D01*
X327428Y472579D01*
X327526Y472704D01*
X327621Y472831D01*
X327713Y472960D01*
X327802Y473092D01*
X327888Y473226D01*
X327970Y473362D01*
X328049Y473500D01*
X328124Y473639D01*
X328196Y473781D01*
X328265Y473924D01*
X328330Y474069D01*
X328391Y474216D01*
X328448Y474364D01*
X328502Y474513D01*
X328552Y474664D01*
X328599Y474816D01*
X328642Y474969D01*
X328681Y475123D01*
X328716Y475278D01*
X328747Y475434D01*
X328774Y475590D01*
X328798Y475747D01*
X328817Y475905D01*
X328833Y476063D01*
X328845Y476221D01*
X328853Y476380D01*
X328857Y476539D01*
X328857Y476697D01*
X328853Y476856D01*
X328845Y477015D01*
X328833Y477173D01*
X328817Y477331D01*
X328798Y477489D01*
X328774Y477646D01*
X328747Y477802D01*
X328716Y477958D01*
X328681Y478113D01*
X328642Y478267D01*
X328599Y478420D01*
X328552Y478572D01*
X328502Y478723D01*
X328448Y478872D01*
X328391Y479020D01*
X328330Y479167D01*
X328265Y479312D01*
X328196Y479455D01*
X328124Y479597D01*
X328049Y479736D01*
X327970Y479874D01*
X327888Y480010D01*
X327802Y480144D01*
X327713Y480276D01*
X327621Y480405D01*
X327526Y480532D01*
X327428Y480657D01*
X327326Y480779D01*
X327222Y480899D01*
X327115Y481016D01*
X327004Y481130D01*
X326891Y481242D01*
X326776Y481351D01*
X326657Y481456D01*
X326536Y481559D01*
X326413Y481659D01*
X326287Y481756D01*
X326159Y481850D01*
X326028Y481940D01*
X325895Y482027D01*
X325760Y482111D01*
X325624Y482192D01*
X325485Y482269D01*
X325344Y482343D01*
X325202Y482413D01*
X325057Y482480D01*
X324912Y482543D01*
X324764Y482602D01*
X324616Y482658D01*
X324465Y482710D01*
X324314Y482758D01*
X324162Y482803D01*
X324008Y482844D01*
X323854Y482881D01*
X323698Y482914D01*
X323542Y482943D01*
X323386Y482968D01*
X323228Y482990D01*
X323070Y483008D01*
X322912Y483021D01*
X322754Y483031D01*
X322595Y483037D01*
X322436Y483039D01*
X305743Y483039D01*
X305743Y496801D02*
X328857Y496801D01*
X305743Y490380D02*
X305743Y503222D01*
M02*
