G04 EAGLE Gerber RS-274X export*
G75*
%MOMM*%
%FSLAX34Y34*%
%LPD*%
%INSilkscreen Top*%
%IPPOS*%
%AMOC8*
5,1,8,0,0,1.08239X$1,22.5*%
G01*
%ADD10C,0.203200*%
%ADD11C,0.609600*%
%ADD12C,0.304800*%
%ADD13R,0.300000X0.100000*%
%ADD14R,0.700000X0.100000*%
%ADD15R,0.800000X0.100000*%
%ADD16R,0.500000X0.100000*%
%ADD17R,0.400000X0.100000*%
%ADD18R,1.200000X0.100000*%
%ADD19R,0.200000X0.100000*%
%ADD20R,0.600000X0.100000*%
%ADD21R,1.100000X0.100000*%
%ADD22R,1.500000X0.100000*%
%ADD23R,0.100000X0.100000*%
%ADD24R,0.900000X0.100000*%
%ADD25R,1.300000X0.100000*%
%ADD26R,1.700000X0.100000*%
%ADD27R,1.400000X0.100000*%
%ADD28R,1.600000X0.100000*%
%ADD29R,1.900000X0.100000*%
%ADD30R,1.800000X0.100000*%
%ADD31R,1.000000X0.100000*%
%ADD32R,2.000000X0.100000*%
%ADD33R,2.600000X0.100000*%
%ADD34R,2.500000X0.100000*%
%ADD35R,2.300000X0.100000*%
%ADD36R,2.800000X0.100000*%
%ADD37R,2.900000X0.100000*%
%ADD38R,3.700000X0.100000*%
%ADD39R,2.700000X0.100000*%
%ADD40R,2.400000X0.100000*%
%ADD41R,2.200000X0.100000*%
%ADD42R,4.900000X0.100000*%
%ADD43R,4.300000X0.100000*%
%ADD44R,3.000000X0.100000*%
%ADD45R,2.100000X0.100000*%


D10*
X281402Y1116016D02*
X276209Y1116016D01*
X276066Y1116018D01*
X275923Y1116024D01*
X275780Y1116034D01*
X275638Y1116048D01*
X275496Y1116065D01*
X275354Y1116087D01*
X275213Y1116112D01*
X275073Y1116142D01*
X274934Y1116175D01*
X274796Y1116212D01*
X274659Y1116253D01*
X274523Y1116297D01*
X274388Y1116346D01*
X274255Y1116398D01*
X274123Y1116453D01*
X273993Y1116513D01*
X273864Y1116576D01*
X273737Y1116642D01*
X273612Y1116712D01*
X273490Y1116785D01*
X273369Y1116862D01*
X273250Y1116942D01*
X273134Y1117025D01*
X273019Y1117111D01*
X272908Y1117200D01*
X272798Y1117293D01*
X272692Y1117388D01*
X272588Y1117487D01*
X272487Y1117588D01*
X272388Y1117692D01*
X272293Y1117798D01*
X272200Y1117908D01*
X272111Y1118019D01*
X272025Y1118134D01*
X271942Y1118250D01*
X271862Y1118369D01*
X271785Y1118490D01*
X271712Y1118613D01*
X271642Y1118737D01*
X271576Y1118864D01*
X271513Y1118993D01*
X271453Y1119123D01*
X271398Y1119255D01*
X271346Y1119388D01*
X271297Y1119523D01*
X271253Y1119659D01*
X271212Y1119796D01*
X271175Y1119934D01*
X271142Y1120073D01*
X271112Y1120213D01*
X271087Y1120354D01*
X271065Y1120496D01*
X271048Y1120638D01*
X271034Y1120780D01*
X271024Y1120923D01*
X271018Y1121066D01*
X271016Y1121209D01*
X271016Y1134191D01*
X271018Y1134334D01*
X271024Y1134477D01*
X271034Y1134620D01*
X271048Y1134762D01*
X271065Y1134904D01*
X271087Y1135046D01*
X271112Y1135187D01*
X271142Y1135327D01*
X271175Y1135466D01*
X271212Y1135604D01*
X271253Y1135741D01*
X271297Y1135877D01*
X271346Y1136012D01*
X271398Y1136145D01*
X271453Y1136277D01*
X271513Y1136407D01*
X271576Y1136536D01*
X271642Y1136663D01*
X271712Y1136787D01*
X271785Y1136910D01*
X271862Y1137031D01*
X271942Y1137150D01*
X272025Y1137266D01*
X272111Y1137381D01*
X272200Y1137492D01*
X272293Y1137602D01*
X272388Y1137708D01*
X272487Y1137812D01*
X272588Y1137913D01*
X272692Y1138012D01*
X272798Y1138107D01*
X272908Y1138200D01*
X273019Y1138289D01*
X273134Y1138375D01*
X273250Y1138458D01*
X273369Y1138538D01*
X273490Y1138615D01*
X273612Y1138688D01*
X273737Y1138758D01*
X273864Y1138824D01*
X273993Y1138887D01*
X274123Y1138947D01*
X274255Y1139002D01*
X274388Y1139054D01*
X274523Y1139103D01*
X274659Y1139147D01*
X274796Y1139188D01*
X274934Y1139225D01*
X275073Y1139258D01*
X275213Y1139288D01*
X275354Y1139313D01*
X275496Y1139335D01*
X275638Y1139352D01*
X275780Y1139366D01*
X275923Y1139376D01*
X276066Y1139382D01*
X276209Y1139384D01*
X281402Y1139384D01*
X287140Y1139384D02*
X294930Y1116016D01*
X302719Y1139384D01*
X322768Y1139384D02*
X322768Y1116016D01*
X320172Y1116016D02*
X325364Y1116016D01*
X325364Y1139384D02*
X320172Y1139384D01*
X333676Y1139384D02*
X333676Y1116016D01*
X346658Y1116016D02*
X333676Y1139384D01*
X346658Y1139384D02*
X346658Y1116016D01*
X277507Y1037484D02*
X277507Y1014116D01*
X271016Y1037484D02*
X283998Y1037484D01*
X291263Y1037484D02*
X291263Y1014116D01*
X291263Y1037484D02*
X297754Y1037484D01*
X297913Y1037482D01*
X298072Y1037476D01*
X298232Y1037466D01*
X298390Y1037453D01*
X298549Y1037435D01*
X298706Y1037414D01*
X298864Y1037388D01*
X299020Y1037359D01*
X299176Y1037326D01*
X299331Y1037289D01*
X299485Y1037249D01*
X299638Y1037204D01*
X299790Y1037156D01*
X299941Y1037105D01*
X300090Y1037049D01*
X300238Y1036990D01*
X300384Y1036927D01*
X300529Y1036861D01*
X300672Y1036791D01*
X300814Y1036718D01*
X300953Y1036641D01*
X301091Y1036561D01*
X301227Y1036477D01*
X301360Y1036390D01*
X301492Y1036300D01*
X301621Y1036207D01*
X301747Y1036110D01*
X301872Y1036011D01*
X301994Y1035908D01*
X302113Y1035803D01*
X302230Y1035694D01*
X302344Y1035583D01*
X302455Y1035469D01*
X302564Y1035352D01*
X302669Y1035233D01*
X302772Y1035111D01*
X302871Y1034986D01*
X302968Y1034860D01*
X303061Y1034731D01*
X303151Y1034599D01*
X303238Y1034466D01*
X303322Y1034330D01*
X303402Y1034192D01*
X303479Y1034053D01*
X303552Y1033911D01*
X303622Y1033768D01*
X303688Y1033623D01*
X303751Y1033477D01*
X303810Y1033329D01*
X303866Y1033180D01*
X303917Y1033029D01*
X303965Y1032877D01*
X304010Y1032724D01*
X304050Y1032570D01*
X304087Y1032415D01*
X304120Y1032259D01*
X304149Y1032103D01*
X304175Y1031945D01*
X304196Y1031788D01*
X304214Y1031629D01*
X304227Y1031471D01*
X304237Y1031311D01*
X304243Y1031152D01*
X304245Y1030993D01*
X304243Y1030834D01*
X304237Y1030675D01*
X304227Y1030515D01*
X304214Y1030357D01*
X304196Y1030198D01*
X304175Y1030041D01*
X304149Y1029883D01*
X304120Y1029727D01*
X304087Y1029571D01*
X304050Y1029416D01*
X304010Y1029262D01*
X303965Y1029109D01*
X303917Y1028957D01*
X303866Y1028806D01*
X303810Y1028657D01*
X303751Y1028509D01*
X303688Y1028363D01*
X303622Y1028218D01*
X303552Y1028075D01*
X303479Y1027933D01*
X303402Y1027794D01*
X303322Y1027656D01*
X303238Y1027520D01*
X303151Y1027387D01*
X303061Y1027255D01*
X302968Y1027126D01*
X302871Y1027000D01*
X302772Y1026875D01*
X302669Y1026753D01*
X302564Y1026634D01*
X302455Y1026517D01*
X302344Y1026403D01*
X302230Y1026292D01*
X302113Y1026183D01*
X301994Y1026078D01*
X301872Y1025975D01*
X301747Y1025876D01*
X301621Y1025779D01*
X301492Y1025686D01*
X301360Y1025596D01*
X301227Y1025509D01*
X301091Y1025425D01*
X300953Y1025345D01*
X300814Y1025268D01*
X300672Y1025195D01*
X300529Y1025125D01*
X300384Y1025059D01*
X300238Y1024996D01*
X300090Y1024937D01*
X299941Y1024881D01*
X299790Y1024830D01*
X299638Y1024782D01*
X299485Y1024737D01*
X299331Y1024697D01*
X299176Y1024660D01*
X299020Y1024627D01*
X298864Y1024598D01*
X298706Y1024572D01*
X298549Y1024551D01*
X298390Y1024533D01*
X298232Y1024520D01*
X298072Y1024510D01*
X297913Y1024504D01*
X297754Y1024502D01*
X291263Y1024502D01*
X299052Y1024502D02*
X304245Y1014116D01*
X310779Y1014116D02*
X318569Y1037484D01*
X326358Y1014116D01*
X324411Y1019958D02*
X312727Y1019958D01*
X333652Y1014116D02*
X333652Y1037484D01*
X346635Y1014116D01*
X346635Y1037484D01*
X367513Y1019309D02*
X367511Y1019166D01*
X367505Y1019023D01*
X367495Y1018880D01*
X367481Y1018738D01*
X367464Y1018596D01*
X367442Y1018454D01*
X367417Y1018313D01*
X367387Y1018173D01*
X367354Y1018034D01*
X367317Y1017896D01*
X367276Y1017759D01*
X367232Y1017623D01*
X367183Y1017488D01*
X367131Y1017355D01*
X367076Y1017223D01*
X367016Y1017093D01*
X366953Y1016964D01*
X366887Y1016837D01*
X366817Y1016713D01*
X366744Y1016590D01*
X366667Y1016469D01*
X366587Y1016350D01*
X366504Y1016234D01*
X366418Y1016119D01*
X366329Y1016008D01*
X366236Y1015898D01*
X366141Y1015792D01*
X366042Y1015688D01*
X365941Y1015587D01*
X365837Y1015488D01*
X365731Y1015393D01*
X365621Y1015300D01*
X365510Y1015211D01*
X365395Y1015125D01*
X365279Y1015042D01*
X365160Y1014962D01*
X365039Y1014885D01*
X364917Y1014812D01*
X364792Y1014742D01*
X364665Y1014676D01*
X364536Y1014613D01*
X364406Y1014553D01*
X364274Y1014498D01*
X364141Y1014446D01*
X364006Y1014397D01*
X363870Y1014353D01*
X363733Y1014312D01*
X363595Y1014275D01*
X363456Y1014242D01*
X363316Y1014212D01*
X363175Y1014187D01*
X363033Y1014165D01*
X362891Y1014148D01*
X362749Y1014134D01*
X362606Y1014124D01*
X362463Y1014118D01*
X362320Y1014116D01*
X362058Y1014119D01*
X361795Y1014129D01*
X361533Y1014144D01*
X361272Y1014166D01*
X361011Y1014194D01*
X360751Y1014229D01*
X360491Y1014270D01*
X360233Y1014316D01*
X359976Y1014369D01*
X359720Y1014429D01*
X359466Y1014494D01*
X359213Y1014565D01*
X358963Y1014642D01*
X358714Y1014726D01*
X358467Y1014815D01*
X358222Y1014910D01*
X357980Y1015011D01*
X357740Y1015118D01*
X357503Y1015230D01*
X357269Y1015348D01*
X357037Y1015472D01*
X356809Y1015601D01*
X356583Y1015736D01*
X356361Y1015876D01*
X356142Y1016021D01*
X355927Y1016171D01*
X355716Y1016327D01*
X355508Y1016487D01*
X355304Y1016653D01*
X355105Y1016823D01*
X354909Y1016998D01*
X354718Y1017177D01*
X354531Y1017362D01*
X355180Y1032291D02*
X355182Y1032434D01*
X355188Y1032577D01*
X355198Y1032720D01*
X355212Y1032862D01*
X355229Y1033004D01*
X355251Y1033146D01*
X355276Y1033287D01*
X355306Y1033427D01*
X355339Y1033566D01*
X355376Y1033704D01*
X355417Y1033841D01*
X355461Y1033977D01*
X355510Y1034112D01*
X355562Y1034245D01*
X355617Y1034377D01*
X355677Y1034507D01*
X355740Y1034636D01*
X355806Y1034763D01*
X355876Y1034888D01*
X355949Y1035010D01*
X356026Y1035131D01*
X356106Y1035250D01*
X356189Y1035366D01*
X356275Y1035481D01*
X356364Y1035592D01*
X356457Y1035702D01*
X356552Y1035808D01*
X356651Y1035912D01*
X356752Y1036013D01*
X356856Y1036112D01*
X356962Y1036207D01*
X357072Y1036300D01*
X357183Y1036389D01*
X357298Y1036475D01*
X357414Y1036559D01*
X357533Y1036638D01*
X357654Y1036715D01*
X357777Y1036788D01*
X357901Y1036858D01*
X358028Y1036924D01*
X358157Y1036987D01*
X358287Y1037047D01*
X358419Y1037102D01*
X358552Y1037154D01*
X358687Y1037203D01*
X358823Y1037247D01*
X358960Y1037288D01*
X359098Y1037325D01*
X359237Y1037358D01*
X359377Y1037388D01*
X359518Y1037413D01*
X359660Y1037435D01*
X359802Y1037452D01*
X359944Y1037466D01*
X360087Y1037476D01*
X360230Y1037482D01*
X360373Y1037484D01*
X360605Y1037481D01*
X360837Y1037473D01*
X361069Y1037459D01*
X361300Y1037440D01*
X361531Y1037415D01*
X361761Y1037385D01*
X361990Y1037349D01*
X362218Y1037308D01*
X362446Y1037261D01*
X362672Y1037209D01*
X362897Y1037151D01*
X363120Y1037088D01*
X363342Y1037020D01*
X363562Y1036947D01*
X363780Y1036868D01*
X363997Y1036785D01*
X364211Y1036696D01*
X364423Y1036602D01*
X364633Y1036503D01*
X364841Y1036399D01*
X365045Y1036290D01*
X365248Y1036176D01*
X365447Y1036057D01*
X365644Y1035934D01*
X365837Y1035806D01*
X366028Y1035674D01*
X366215Y1035537D01*
X357776Y1027747D02*
X357653Y1027822D01*
X357532Y1027900D01*
X357413Y1027982D01*
X357297Y1028066D01*
X357183Y1028154D01*
X357071Y1028245D01*
X356961Y1028339D01*
X356855Y1028436D01*
X356751Y1028536D01*
X356650Y1028638D01*
X356551Y1028744D01*
X356456Y1028852D01*
X356363Y1028962D01*
X356274Y1029075D01*
X356188Y1029191D01*
X356104Y1029308D01*
X356025Y1029428D01*
X355948Y1029550D01*
X355875Y1029674D01*
X355805Y1029800D01*
X355739Y1029928D01*
X355676Y1030058D01*
X355617Y1030189D01*
X355561Y1030322D01*
X355509Y1030457D01*
X355461Y1030593D01*
X355416Y1030730D01*
X355376Y1030868D01*
X355339Y1031007D01*
X355305Y1031147D01*
X355276Y1031288D01*
X355251Y1031430D01*
X355229Y1031573D01*
X355211Y1031716D01*
X355198Y1031859D01*
X355188Y1032003D01*
X355182Y1032147D01*
X355180Y1032291D01*
X364917Y1023853D02*
X365040Y1023778D01*
X365161Y1023700D01*
X365280Y1023618D01*
X365396Y1023534D01*
X365510Y1023446D01*
X365622Y1023355D01*
X365731Y1023261D01*
X365838Y1023164D01*
X365942Y1023064D01*
X366043Y1022962D01*
X366142Y1022856D01*
X366237Y1022748D01*
X366330Y1022638D01*
X366419Y1022525D01*
X366505Y1022410D01*
X366588Y1022292D01*
X366668Y1022172D01*
X366745Y1022050D01*
X366818Y1021926D01*
X366888Y1021800D01*
X366954Y1021672D01*
X367017Y1021542D01*
X367076Y1021411D01*
X367132Y1021278D01*
X367184Y1021143D01*
X367232Y1021007D01*
X367277Y1020870D01*
X367317Y1020732D01*
X367354Y1020593D01*
X367388Y1020453D01*
X367417Y1020312D01*
X367442Y1020170D01*
X367464Y1020027D01*
X367482Y1019884D01*
X367495Y1019741D01*
X367505Y1019597D01*
X367511Y1019453D01*
X367513Y1019309D01*
X364917Y1023853D02*
X357777Y1027747D01*
X374808Y1023204D02*
X390386Y1023204D01*
X271016Y999384D02*
X271016Y976016D01*
X271016Y999384D02*
X277507Y999384D01*
X277666Y999382D01*
X277825Y999376D01*
X277985Y999366D01*
X278143Y999353D01*
X278302Y999335D01*
X278459Y999314D01*
X278617Y999288D01*
X278773Y999259D01*
X278929Y999226D01*
X279084Y999189D01*
X279238Y999149D01*
X279391Y999104D01*
X279543Y999056D01*
X279694Y999005D01*
X279843Y998949D01*
X279991Y998890D01*
X280137Y998827D01*
X280282Y998761D01*
X280425Y998691D01*
X280567Y998618D01*
X280706Y998541D01*
X280844Y998461D01*
X280980Y998377D01*
X281113Y998290D01*
X281245Y998200D01*
X281374Y998107D01*
X281500Y998010D01*
X281625Y997911D01*
X281747Y997808D01*
X281866Y997703D01*
X281983Y997594D01*
X282097Y997483D01*
X282208Y997369D01*
X282317Y997252D01*
X282422Y997133D01*
X282525Y997011D01*
X282624Y996886D01*
X282721Y996760D01*
X282814Y996631D01*
X282904Y996499D01*
X282991Y996366D01*
X283075Y996230D01*
X283155Y996092D01*
X283232Y995953D01*
X283305Y995811D01*
X283375Y995668D01*
X283441Y995523D01*
X283504Y995377D01*
X283563Y995229D01*
X283619Y995080D01*
X283670Y994929D01*
X283718Y994777D01*
X283763Y994624D01*
X283803Y994470D01*
X283840Y994315D01*
X283873Y994159D01*
X283902Y994003D01*
X283928Y993845D01*
X283949Y993688D01*
X283967Y993529D01*
X283980Y993371D01*
X283990Y993211D01*
X283996Y993052D01*
X283998Y992893D01*
X283996Y992734D01*
X283990Y992575D01*
X283980Y992415D01*
X283967Y992257D01*
X283949Y992098D01*
X283928Y991941D01*
X283902Y991783D01*
X283873Y991627D01*
X283840Y991471D01*
X283803Y991316D01*
X283763Y991162D01*
X283718Y991009D01*
X283670Y990857D01*
X283619Y990706D01*
X283563Y990557D01*
X283504Y990409D01*
X283441Y990263D01*
X283375Y990118D01*
X283305Y989975D01*
X283232Y989833D01*
X283155Y989694D01*
X283075Y989556D01*
X282991Y989420D01*
X282904Y989287D01*
X282814Y989155D01*
X282721Y989026D01*
X282624Y988900D01*
X282525Y988775D01*
X282422Y988653D01*
X282317Y988534D01*
X282208Y988417D01*
X282097Y988303D01*
X281983Y988192D01*
X281866Y988083D01*
X281747Y987978D01*
X281625Y987875D01*
X281500Y987776D01*
X281374Y987679D01*
X281245Y987586D01*
X281113Y987496D01*
X280980Y987409D01*
X280844Y987325D01*
X280706Y987245D01*
X280567Y987168D01*
X280425Y987095D01*
X280282Y987025D01*
X280137Y986959D01*
X279991Y986896D01*
X279843Y986837D01*
X279694Y986781D01*
X279543Y986730D01*
X279391Y986682D01*
X279238Y986637D01*
X279084Y986597D01*
X278929Y986560D01*
X278773Y986527D01*
X278617Y986498D01*
X278459Y986472D01*
X278302Y986451D01*
X278143Y986433D01*
X277985Y986420D01*
X277825Y986410D01*
X277666Y986404D01*
X277507Y986402D01*
X271016Y986402D01*
X291051Y982507D02*
X291051Y992893D01*
X291053Y993052D01*
X291059Y993211D01*
X291069Y993371D01*
X291082Y993529D01*
X291100Y993688D01*
X291121Y993845D01*
X291147Y994003D01*
X291176Y994159D01*
X291209Y994315D01*
X291246Y994470D01*
X291286Y994624D01*
X291331Y994777D01*
X291379Y994929D01*
X291430Y995080D01*
X291486Y995229D01*
X291545Y995377D01*
X291608Y995523D01*
X291674Y995668D01*
X291744Y995811D01*
X291817Y995953D01*
X291894Y996092D01*
X291974Y996230D01*
X292058Y996366D01*
X292145Y996499D01*
X292235Y996631D01*
X292328Y996760D01*
X292425Y996886D01*
X292524Y997011D01*
X292627Y997133D01*
X292732Y997252D01*
X292841Y997369D01*
X292952Y997483D01*
X293066Y997594D01*
X293183Y997703D01*
X293302Y997808D01*
X293424Y997911D01*
X293549Y998010D01*
X293675Y998107D01*
X293804Y998200D01*
X293936Y998290D01*
X294069Y998377D01*
X294205Y998461D01*
X294343Y998541D01*
X294482Y998618D01*
X294624Y998691D01*
X294767Y998761D01*
X294912Y998827D01*
X295058Y998890D01*
X295206Y998949D01*
X295355Y999005D01*
X295506Y999056D01*
X295658Y999104D01*
X295811Y999149D01*
X295965Y999189D01*
X296120Y999226D01*
X296276Y999259D01*
X296432Y999288D01*
X296590Y999314D01*
X296747Y999335D01*
X296906Y999353D01*
X297064Y999366D01*
X297224Y999376D01*
X297383Y999382D01*
X297542Y999384D01*
X297701Y999382D01*
X297860Y999376D01*
X298020Y999366D01*
X298178Y999353D01*
X298337Y999335D01*
X298494Y999314D01*
X298652Y999288D01*
X298808Y999259D01*
X298964Y999226D01*
X299119Y999189D01*
X299273Y999149D01*
X299426Y999104D01*
X299578Y999056D01*
X299729Y999005D01*
X299878Y998949D01*
X300026Y998890D01*
X300172Y998827D01*
X300317Y998761D01*
X300460Y998691D01*
X300602Y998618D01*
X300741Y998541D01*
X300879Y998461D01*
X301015Y998377D01*
X301148Y998290D01*
X301280Y998200D01*
X301409Y998107D01*
X301535Y998010D01*
X301660Y997911D01*
X301782Y997808D01*
X301901Y997703D01*
X302018Y997594D01*
X302132Y997483D01*
X302243Y997369D01*
X302352Y997252D01*
X302457Y997133D01*
X302560Y997011D01*
X302659Y996886D01*
X302756Y996760D01*
X302849Y996631D01*
X302939Y996499D01*
X303026Y996366D01*
X303110Y996230D01*
X303190Y996092D01*
X303267Y995953D01*
X303340Y995811D01*
X303410Y995668D01*
X303476Y995523D01*
X303539Y995377D01*
X303598Y995229D01*
X303654Y995080D01*
X303705Y994929D01*
X303753Y994777D01*
X303798Y994624D01*
X303838Y994470D01*
X303875Y994315D01*
X303908Y994159D01*
X303937Y994003D01*
X303963Y993845D01*
X303984Y993688D01*
X304002Y993529D01*
X304015Y993371D01*
X304025Y993211D01*
X304031Y993052D01*
X304033Y992893D01*
X304033Y982507D01*
X304031Y982348D01*
X304025Y982189D01*
X304015Y982029D01*
X304002Y981871D01*
X303984Y981712D01*
X303963Y981555D01*
X303937Y981397D01*
X303908Y981241D01*
X303875Y981085D01*
X303838Y980930D01*
X303798Y980776D01*
X303753Y980623D01*
X303705Y980471D01*
X303654Y980320D01*
X303598Y980171D01*
X303539Y980023D01*
X303476Y979877D01*
X303410Y979732D01*
X303340Y979589D01*
X303267Y979447D01*
X303190Y979308D01*
X303110Y979170D01*
X303026Y979034D01*
X302939Y978901D01*
X302849Y978769D01*
X302756Y978640D01*
X302659Y978514D01*
X302560Y978389D01*
X302457Y978267D01*
X302352Y978148D01*
X302243Y978031D01*
X302132Y977917D01*
X302018Y977806D01*
X301901Y977697D01*
X301782Y977592D01*
X301660Y977489D01*
X301535Y977390D01*
X301409Y977293D01*
X301280Y977200D01*
X301148Y977110D01*
X301015Y977023D01*
X300879Y976939D01*
X300741Y976859D01*
X300602Y976782D01*
X300460Y976709D01*
X300317Y976639D01*
X300172Y976573D01*
X300026Y976510D01*
X299878Y976451D01*
X299729Y976395D01*
X299578Y976344D01*
X299426Y976296D01*
X299273Y976251D01*
X299119Y976211D01*
X298964Y976174D01*
X298808Y976141D01*
X298652Y976112D01*
X298494Y976086D01*
X298337Y976065D01*
X298178Y976047D01*
X298020Y976034D01*
X297860Y976024D01*
X297701Y976018D01*
X297542Y976016D01*
X297383Y976018D01*
X297224Y976024D01*
X297064Y976034D01*
X296906Y976047D01*
X296747Y976065D01*
X296590Y976086D01*
X296432Y976112D01*
X296276Y976141D01*
X296120Y976174D01*
X295965Y976211D01*
X295811Y976251D01*
X295658Y976296D01*
X295506Y976344D01*
X295355Y976395D01*
X295206Y976451D01*
X295058Y976510D01*
X294912Y976573D01*
X294767Y976639D01*
X294624Y976709D01*
X294482Y976782D01*
X294343Y976859D01*
X294205Y976939D01*
X294069Y977023D01*
X293936Y977110D01*
X293804Y977200D01*
X293675Y977293D01*
X293549Y977390D01*
X293424Y977489D01*
X293302Y977592D01*
X293183Y977697D01*
X293066Y977806D01*
X292952Y977917D01*
X292841Y978031D01*
X292732Y978148D01*
X292627Y978267D01*
X292524Y978389D01*
X292425Y978514D01*
X292328Y978640D01*
X292235Y978769D01*
X292145Y978901D01*
X292058Y979034D01*
X291974Y979170D01*
X291894Y979308D01*
X291817Y979447D01*
X291744Y979589D01*
X291674Y979732D01*
X291608Y979877D01*
X291545Y980023D01*
X291486Y980171D01*
X291430Y980320D01*
X291379Y980471D01*
X291331Y980623D01*
X291286Y980776D01*
X291246Y980930D01*
X291209Y981085D01*
X291176Y981241D01*
X291147Y981397D01*
X291121Y981555D01*
X291100Y981712D01*
X291082Y981871D01*
X291069Y982029D01*
X291059Y982189D01*
X291053Y982348D01*
X291051Y982507D01*
X319023Y976016D02*
X319166Y976018D01*
X319309Y976024D01*
X319452Y976034D01*
X319594Y976048D01*
X319736Y976065D01*
X319878Y976087D01*
X320019Y976112D01*
X320159Y976142D01*
X320298Y976175D01*
X320436Y976212D01*
X320573Y976253D01*
X320709Y976297D01*
X320844Y976346D01*
X320977Y976398D01*
X321109Y976453D01*
X321239Y976513D01*
X321368Y976576D01*
X321495Y976642D01*
X321620Y976712D01*
X321742Y976785D01*
X321863Y976862D01*
X321982Y976942D01*
X322098Y977025D01*
X322213Y977111D01*
X322324Y977200D01*
X322434Y977293D01*
X322540Y977388D01*
X322644Y977487D01*
X322745Y977588D01*
X322844Y977692D01*
X322939Y977798D01*
X323032Y977908D01*
X323121Y978019D01*
X323207Y978134D01*
X323290Y978250D01*
X323370Y978369D01*
X323447Y978490D01*
X323520Y978613D01*
X323590Y978737D01*
X323656Y978864D01*
X323719Y978993D01*
X323779Y979123D01*
X323834Y979255D01*
X323886Y979388D01*
X323935Y979523D01*
X323979Y979659D01*
X324020Y979796D01*
X324057Y979934D01*
X324090Y980073D01*
X324120Y980213D01*
X324145Y980354D01*
X324167Y980496D01*
X324184Y980638D01*
X324198Y980780D01*
X324208Y980923D01*
X324214Y981066D01*
X324216Y981209D01*
X319023Y976016D02*
X318761Y976019D01*
X318498Y976029D01*
X318236Y976044D01*
X317975Y976066D01*
X317714Y976094D01*
X317454Y976129D01*
X317194Y976170D01*
X316936Y976216D01*
X316679Y976269D01*
X316423Y976329D01*
X316169Y976394D01*
X315916Y976465D01*
X315666Y976542D01*
X315417Y976626D01*
X315170Y976715D01*
X314925Y976810D01*
X314683Y976911D01*
X314443Y977018D01*
X314206Y977130D01*
X313972Y977248D01*
X313740Y977372D01*
X313512Y977501D01*
X313286Y977636D01*
X313064Y977776D01*
X312845Y977921D01*
X312630Y978071D01*
X312419Y978227D01*
X312211Y978387D01*
X312007Y978553D01*
X311808Y978723D01*
X311612Y978898D01*
X311421Y979077D01*
X311234Y979262D01*
X311883Y994191D02*
X311885Y994334D01*
X311891Y994477D01*
X311901Y994620D01*
X311915Y994762D01*
X311932Y994904D01*
X311954Y995046D01*
X311979Y995187D01*
X312009Y995327D01*
X312042Y995466D01*
X312079Y995604D01*
X312120Y995741D01*
X312164Y995877D01*
X312213Y996012D01*
X312265Y996145D01*
X312320Y996277D01*
X312380Y996407D01*
X312443Y996536D01*
X312509Y996663D01*
X312579Y996788D01*
X312652Y996910D01*
X312729Y997031D01*
X312809Y997150D01*
X312892Y997266D01*
X312978Y997381D01*
X313067Y997492D01*
X313160Y997602D01*
X313255Y997708D01*
X313354Y997812D01*
X313455Y997913D01*
X313559Y998012D01*
X313665Y998107D01*
X313775Y998200D01*
X313886Y998289D01*
X314001Y998375D01*
X314117Y998459D01*
X314236Y998538D01*
X314357Y998615D01*
X314480Y998688D01*
X314604Y998758D01*
X314731Y998824D01*
X314860Y998887D01*
X314990Y998947D01*
X315122Y999002D01*
X315255Y999054D01*
X315390Y999103D01*
X315526Y999147D01*
X315663Y999188D01*
X315801Y999225D01*
X315940Y999258D01*
X316080Y999288D01*
X316221Y999313D01*
X316363Y999335D01*
X316505Y999352D01*
X316647Y999366D01*
X316790Y999376D01*
X316933Y999382D01*
X317076Y999384D01*
X317308Y999381D01*
X317540Y999373D01*
X317772Y999359D01*
X318003Y999340D01*
X318234Y999315D01*
X318464Y999285D01*
X318693Y999249D01*
X318921Y999208D01*
X319149Y999161D01*
X319375Y999109D01*
X319600Y999051D01*
X319823Y998988D01*
X320045Y998920D01*
X320265Y998847D01*
X320483Y998768D01*
X320700Y998685D01*
X320914Y998596D01*
X321126Y998502D01*
X321336Y998403D01*
X321544Y998299D01*
X321748Y998190D01*
X321951Y998076D01*
X322150Y997957D01*
X322347Y997834D01*
X322540Y997706D01*
X322731Y997574D01*
X322918Y997437D01*
X314479Y989647D02*
X314356Y989722D01*
X314235Y989800D01*
X314116Y989882D01*
X314000Y989966D01*
X313886Y990054D01*
X313774Y990145D01*
X313664Y990239D01*
X313558Y990336D01*
X313454Y990436D01*
X313353Y990538D01*
X313254Y990644D01*
X313159Y990752D01*
X313066Y990862D01*
X312977Y990975D01*
X312891Y991091D01*
X312807Y991208D01*
X312728Y991328D01*
X312651Y991450D01*
X312578Y991574D01*
X312508Y991700D01*
X312442Y991828D01*
X312379Y991958D01*
X312320Y992089D01*
X312264Y992222D01*
X312212Y992357D01*
X312164Y992493D01*
X312119Y992630D01*
X312079Y992768D01*
X312042Y992907D01*
X312008Y993047D01*
X311979Y993188D01*
X311954Y993330D01*
X311932Y993473D01*
X311914Y993616D01*
X311901Y993759D01*
X311891Y993903D01*
X311885Y994047D01*
X311883Y994191D01*
X321620Y985753D02*
X321743Y985678D01*
X321864Y985600D01*
X321983Y985518D01*
X322099Y985434D01*
X322213Y985346D01*
X322325Y985255D01*
X322434Y985161D01*
X322541Y985064D01*
X322645Y984964D01*
X322746Y984862D01*
X322845Y984756D01*
X322940Y984648D01*
X323033Y984538D01*
X323122Y984425D01*
X323208Y984310D01*
X323291Y984192D01*
X323371Y984072D01*
X323448Y983950D01*
X323521Y983826D01*
X323591Y983700D01*
X323657Y983572D01*
X323720Y983442D01*
X323779Y983311D01*
X323835Y983178D01*
X323887Y983043D01*
X323935Y982907D01*
X323980Y982770D01*
X324020Y982632D01*
X324057Y982493D01*
X324091Y982353D01*
X324120Y982212D01*
X324145Y982070D01*
X324167Y981927D01*
X324185Y981784D01*
X324198Y981641D01*
X324208Y981497D01*
X324214Y981353D01*
X324216Y981209D01*
X321620Y985753D02*
X314480Y989647D01*
X332137Y976016D02*
X342523Y976016D01*
X332137Y976016D02*
X332137Y999384D01*
X342523Y999384D01*
X339927Y988998D02*
X332137Y988998D01*
X306402Y381016D02*
X301209Y381016D01*
X301066Y381018D01*
X300923Y381024D01*
X300780Y381034D01*
X300638Y381048D01*
X300496Y381065D01*
X300354Y381087D01*
X300213Y381112D01*
X300073Y381142D01*
X299934Y381175D01*
X299796Y381212D01*
X299659Y381253D01*
X299523Y381297D01*
X299388Y381346D01*
X299255Y381398D01*
X299123Y381453D01*
X298993Y381513D01*
X298864Y381576D01*
X298737Y381642D01*
X298612Y381712D01*
X298490Y381785D01*
X298369Y381862D01*
X298250Y381942D01*
X298134Y382025D01*
X298019Y382111D01*
X297908Y382200D01*
X297798Y382293D01*
X297692Y382388D01*
X297588Y382487D01*
X297487Y382588D01*
X297388Y382692D01*
X297293Y382798D01*
X297200Y382908D01*
X297111Y383019D01*
X297025Y383134D01*
X296942Y383250D01*
X296862Y383369D01*
X296785Y383490D01*
X296712Y383613D01*
X296642Y383737D01*
X296576Y383864D01*
X296513Y383993D01*
X296453Y384123D01*
X296398Y384255D01*
X296346Y384388D01*
X296297Y384523D01*
X296253Y384659D01*
X296212Y384796D01*
X296175Y384934D01*
X296142Y385073D01*
X296112Y385213D01*
X296087Y385354D01*
X296065Y385496D01*
X296048Y385638D01*
X296034Y385780D01*
X296024Y385923D01*
X296018Y386066D01*
X296016Y386209D01*
X296016Y399191D01*
X296018Y399334D01*
X296024Y399477D01*
X296034Y399620D01*
X296048Y399762D01*
X296065Y399904D01*
X296087Y400046D01*
X296112Y400187D01*
X296142Y400327D01*
X296175Y400466D01*
X296212Y400604D01*
X296253Y400741D01*
X296297Y400877D01*
X296346Y401012D01*
X296398Y401145D01*
X296453Y401277D01*
X296513Y401407D01*
X296576Y401536D01*
X296642Y401663D01*
X296712Y401787D01*
X296785Y401910D01*
X296862Y402031D01*
X296942Y402150D01*
X297025Y402266D01*
X297111Y402381D01*
X297200Y402492D01*
X297293Y402602D01*
X297388Y402708D01*
X297487Y402812D01*
X297588Y402913D01*
X297692Y403012D01*
X297798Y403107D01*
X297908Y403200D01*
X298019Y403289D01*
X298134Y403375D01*
X298250Y403458D01*
X298369Y403538D01*
X298490Y403615D01*
X298612Y403688D01*
X298737Y403758D01*
X298864Y403824D01*
X298993Y403887D01*
X299123Y403947D01*
X299255Y404002D01*
X299388Y404054D01*
X299523Y404103D01*
X299659Y404147D01*
X299796Y404188D01*
X299934Y404225D01*
X300073Y404258D01*
X300213Y404288D01*
X300354Y404313D01*
X300496Y404335D01*
X300638Y404352D01*
X300780Y404366D01*
X300923Y404376D01*
X301066Y404382D01*
X301209Y404384D01*
X306402Y404384D01*
X296016Y461016D02*
X296016Y484384D01*
X302507Y484384D01*
X302666Y484382D01*
X302825Y484376D01*
X302985Y484366D01*
X303143Y484353D01*
X303302Y484335D01*
X303459Y484314D01*
X303617Y484288D01*
X303773Y484259D01*
X303929Y484226D01*
X304084Y484189D01*
X304238Y484149D01*
X304391Y484104D01*
X304543Y484056D01*
X304694Y484005D01*
X304843Y483949D01*
X304991Y483890D01*
X305137Y483827D01*
X305282Y483761D01*
X305425Y483691D01*
X305567Y483618D01*
X305706Y483541D01*
X305844Y483461D01*
X305980Y483377D01*
X306113Y483290D01*
X306245Y483200D01*
X306374Y483107D01*
X306500Y483010D01*
X306625Y482911D01*
X306747Y482808D01*
X306866Y482703D01*
X306983Y482594D01*
X307097Y482483D01*
X307208Y482369D01*
X307317Y482252D01*
X307422Y482133D01*
X307525Y482011D01*
X307624Y481886D01*
X307721Y481760D01*
X307814Y481631D01*
X307904Y481499D01*
X307991Y481366D01*
X308075Y481230D01*
X308155Y481092D01*
X308232Y480953D01*
X308305Y480811D01*
X308375Y480668D01*
X308441Y480523D01*
X308504Y480377D01*
X308563Y480229D01*
X308619Y480080D01*
X308670Y479929D01*
X308718Y479777D01*
X308763Y479624D01*
X308803Y479470D01*
X308840Y479315D01*
X308873Y479159D01*
X308902Y479003D01*
X308928Y478845D01*
X308949Y478688D01*
X308967Y478529D01*
X308980Y478371D01*
X308990Y478211D01*
X308996Y478052D01*
X308998Y477893D01*
X308998Y467507D01*
X308996Y467348D01*
X308990Y467189D01*
X308980Y467029D01*
X308967Y466871D01*
X308949Y466712D01*
X308928Y466555D01*
X308902Y466397D01*
X308873Y466241D01*
X308840Y466085D01*
X308803Y465930D01*
X308763Y465776D01*
X308718Y465623D01*
X308670Y465471D01*
X308619Y465320D01*
X308563Y465171D01*
X308504Y465023D01*
X308441Y464877D01*
X308375Y464732D01*
X308305Y464589D01*
X308232Y464447D01*
X308155Y464308D01*
X308075Y464170D01*
X307991Y464034D01*
X307904Y463901D01*
X307814Y463769D01*
X307721Y463640D01*
X307624Y463514D01*
X307525Y463389D01*
X307422Y463267D01*
X307317Y463148D01*
X307208Y463031D01*
X307097Y462917D01*
X306983Y462806D01*
X306866Y462697D01*
X306747Y462592D01*
X306625Y462489D01*
X306500Y462390D01*
X306374Y462293D01*
X306245Y462200D01*
X306113Y462110D01*
X305980Y462023D01*
X305844Y461939D01*
X305706Y461859D01*
X305567Y461782D01*
X305425Y461709D01*
X305282Y461639D01*
X305137Y461573D01*
X304991Y461510D01*
X304843Y461451D01*
X304694Y461395D01*
X304543Y461344D01*
X304391Y461295D01*
X304238Y461251D01*
X304084Y461211D01*
X303929Y461174D01*
X303773Y461141D01*
X303617Y461112D01*
X303459Y461086D01*
X303302Y461065D01*
X303143Y461047D01*
X302984Y461034D01*
X302825Y461024D01*
X302666Y461018D01*
X302507Y461016D01*
X296016Y461016D01*
X296016Y541016D02*
X306402Y541016D01*
X296016Y541016D02*
X296016Y564384D01*
X306402Y564384D01*
X303805Y553998D02*
X296016Y553998D01*
X296016Y621016D02*
X296016Y644384D01*
X306402Y644384D01*
X306402Y633998D02*
X296016Y633998D01*
X305104Y713998D02*
X308998Y713998D01*
X308998Y701016D01*
X301209Y701016D01*
X301066Y701018D01*
X300923Y701024D01*
X300780Y701034D01*
X300638Y701048D01*
X300496Y701065D01*
X300354Y701087D01*
X300213Y701112D01*
X300073Y701142D01*
X299934Y701175D01*
X299796Y701212D01*
X299659Y701253D01*
X299523Y701297D01*
X299388Y701346D01*
X299255Y701398D01*
X299123Y701453D01*
X298993Y701513D01*
X298864Y701576D01*
X298737Y701642D01*
X298612Y701712D01*
X298490Y701785D01*
X298369Y701862D01*
X298250Y701942D01*
X298134Y702025D01*
X298019Y702111D01*
X297908Y702200D01*
X297798Y702293D01*
X297692Y702388D01*
X297588Y702487D01*
X297487Y702588D01*
X297388Y702692D01*
X297293Y702798D01*
X297200Y702908D01*
X297111Y703019D01*
X297025Y703134D01*
X296942Y703250D01*
X296862Y703369D01*
X296785Y703490D01*
X296712Y703613D01*
X296642Y703737D01*
X296576Y703864D01*
X296513Y703993D01*
X296453Y704123D01*
X296398Y704255D01*
X296346Y704388D01*
X296297Y704523D01*
X296253Y704659D01*
X296212Y704796D01*
X296175Y704934D01*
X296142Y705073D01*
X296112Y705213D01*
X296087Y705354D01*
X296065Y705496D01*
X296048Y705638D01*
X296034Y705780D01*
X296024Y705923D01*
X296018Y706066D01*
X296016Y706209D01*
X296016Y719191D01*
X296018Y719334D01*
X296024Y719477D01*
X296034Y719620D01*
X296048Y719762D01*
X296065Y719904D01*
X296087Y720046D01*
X296112Y720187D01*
X296142Y720327D01*
X296175Y720466D01*
X296212Y720604D01*
X296253Y720741D01*
X296297Y720877D01*
X296346Y721012D01*
X296398Y721145D01*
X296453Y721277D01*
X296513Y721407D01*
X296576Y721536D01*
X296642Y721663D01*
X296712Y721787D01*
X296785Y721910D01*
X296862Y722031D01*
X296942Y722150D01*
X297025Y722266D01*
X297111Y722381D01*
X297200Y722492D01*
X297293Y722602D01*
X297388Y722708D01*
X297487Y722812D01*
X297588Y722913D01*
X297692Y723012D01*
X297798Y723107D01*
X297908Y723200D01*
X298019Y723289D01*
X298134Y723375D01*
X298250Y723458D01*
X298369Y723538D01*
X298490Y723615D01*
X298612Y723688D01*
X298737Y723758D01*
X298864Y723824D01*
X298993Y723887D01*
X299123Y723947D01*
X299255Y724002D01*
X299388Y724054D01*
X299523Y724103D01*
X299659Y724147D01*
X299796Y724188D01*
X299934Y724225D01*
X300073Y724258D01*
X300213Y724288D01*
X300354Y724313D01*
X300496Y724335D01*
X300638Y724352D01*
X300780Y724366D01*
X300923Y724376D01*
X301066Y724382D01*
X301209Y724384D01*
X308998Y724384D01*
X296016Y781016D02*
X303805Y804384D01*
X311595Y781016D01*
X309647Y786858D02*
X297963Y786858D01*
X296016Y873998D02*
X302507Y873998D01*
X302666Y873996D01*
X302825Y873990D01*
X302985Y873980D01*
X303143Y873967D01*
X303302Y873949D01*
X303459Y873928D01*
X303617Y873902D01*
X303773Y873873D01*
X303929Y873840D01*
X304084Y873803D01*
X304238Y873763D01*
X304391Y873718D01*
X304543Y873670D01*
X304694Y873619D01*
X304843Y873563D01*
X304991Y873504D01*
X305137Y873441D01*
X305282Y873375D01*
X305425Y873305D01*
X305567Y873232D01*
X305706Y873155D01*
X305844Y873075D01*
X305980Y872991D01*
X306113Y872904D01*
X306245Y872814D01*
X306374Y872721D01*
X306500Y872624D01*
X306625Y872525D01*
X306747Y872422D01*
X306866Y872317D01*
X306983Y872208D01*
X307097Y872097D01*
X307208Y871983D01*
X307317Y871866D01*
X307422Y871747D01*
X307525Y871625D01*
X307624Y871500D01*
X307721Y871374D01*
X307814Y871245D01*
X307904Y871113D01*
X307991Y870980D01*
X308075Y870844D01*
X308155Y870706D01*
X308232Y870567D01*
X308305Y870425D01*
X308375Y870282D01*
X308441Y870137D01*
X308504Y869991D01*
X308563Y869843D01*
X308619Y869694D01*
X308670Y869543D01*
X308718Y869391D01*
X308763Y869238D01*
X308803Y869084D01*
X308840Y868929D01*
X308873Y868773D01*
X308902Y868617D01*
X308928Y868459D01*
X308949Y868302D01*
X308967Y868143D01*
X308980Y867985D01*
X308990Y867825D01*
X308996Y867666D01*
X308998Y867507D01*
X308996Y867348D01*
X308990Y867189D01*
X308980Y867029D01*
X308967Y866871D01*
X308949Y866712D01*
X308928Y866555D01*
X308902Y866397D01*
X308873Y866241D01*
X308840Y866085D01*
X308803Y865930D01*
X308763Y865776D01*
X308718Y865623D01*
X308670Y865471D01*
X308619Y865320D01*
X308563Y865171D01*
X308504Y865023D01*
X308441Y864877D01*
X308375Y864732D01*
X308305Y864589D01*
X308232Y864447D01*
X308155Y864308D01*
X308075Y864170D01*
X307991Y864034D01*
X307904Y863901D01*
X307814Y863769D01*
X307721Y863640D01*
X307624Y863514D01*
X307525Y863389D01*
X307422Y863267D01*
X307317Y863148D01*
X307208Y863031D01*
X307097Y862917D01*
X306983Y862806D01*
X306866Y862697D01*
X306747Y862592D01*
X306625Y862489D01*
X306500Y862390D01*
X306374Y862293D01*
X306245Y862200D01*
X306113Y862110D01*
X305980Y862023D01*
X305844Y861939D01*
X305706Y861859D01*
X305567Y861782D01*
X305425Y861709D01*
X305282Y861639D01*
X305137Y861573D01*
X304991Y861510D01*
X304843Y861451D01*
X304694Y861395D01*
X304543Y861344D01*
X304391Y861296D01*
X304238Y861251D01*
X304084Y861211D01*
X303929Y861174D01*
X303773Y861141D01*
X303617Y861112D01*
X303459Y861086D01*
X303302Y861065D01*
X303143Y861047D01*
X302985Y861034D01*
X302825Y861024D01*
X302666Y861018D01*
X302507Y861016D01*
X296016Y861016D01*
X296016Y884384D01*
X302507Y884384D01*
X302650Y884382D01*
X302793Y884376D01*
X302936Y884366D01*
X303078Y884352D01*
X303220Y884335D01*
X303362Y884313D01*
X303503Y884288D01*
X303643Y884258D01*
X303782Y884225D01*
X303920Y884188D01*
X304057Y884147D01*
X304193Y884103D01*
X304328Y884054D01*
X304461Y884002D01*
X304593Y883947D01*
X304723Y883887D01*
X304852Y883824D01*
X304979Y883758D01*
X305104Y883688D01*
X305226Y883615D01*
X305347Y883538D01*
X305466Y883458D01*
X305582Y883375D01*
X305697Y883289D01*
X305808Y883200D01*
X305918Y883107D01*
X306024Y883012D01*
X306128Y882913D01*
X306229Y882812D01*
X306328Y882708D01*
X306423Y882602D01*
X306516Y882492D01*
X306605Y882381D01*
X306691Y882266D01*
X306774Y882150D01*
X306854Y882031D01*
X306931Y881910D01*
X307004Y881787D01*
X307074Y881663D01*
X307140Y881536D01*
X307203Y881407D01*
X307263Y881277D01*
X307318Y881145D01*
X307370Y881012D01*
X307419Y880877D01*
X307463Y880741D01*
X307504Y880604D01*
X307541Y880466D01*
X307574Y880327D01*
X307604Y880187D01*
X307629Y880046D01*
X307651Y879904D01*
X307668Y879762D01*
X307682Y879620D01*
X307692Y879477D01*
X307698Y879334D01*
X307700Y879191D01*
X307698Y879048D01*
X307692Y878905D01*
X307682Y878762D01*
X307668Y878620D01*
X307651Y878478D01*
X307629Y878336D01*
X307604Y878195D01*
X307574Y878055D01*
X307541Y877916D01*
X307504Y877778D01*
X307463Y877641D01*
X307419Y877505D01*
X307370Y877370D01*
X307318Y877237D01*
X307263Y877105D01*
X307203Y876975D01*
X307140Y876846D01*
X307074Y876719D01*
X307004Y876595D01*
X306931Y876472D01*
X306854Y876351D01*
X306774Y876232D01*
X306691Y876116D01*
X306605Y876001D01*
X306516Y875890D01*
X306423Y875780D01*
X306328Y875674D01*
X306229Y875570D01*
X306128Y875469D01*
X306024Y875370D01*
X305918Y875275D01*
X305808Y875182D01*
X305697Y875093D01*
X305582Y875007D01*
X305466Y874924D01*
X305347Y874844D01*
X305226Y874767D01*
X305104Y874694D01*
X304979Y874624D01*
X304852Y874558D01*
X304723Y874495D01*
X304593Y874435D01*
X304461Y874380D01*
X304328Y874328D01*
X304193Y874279D01*
X304057Y874235D01*
X303920Y874194D01*
X303782Y874157D01*
X303643Y874124D01*
X303503Y874094D01*
X303362Y874069D01*
X303220Y874047D01*
X303078Y874030D01*
X302936Y874016D01*
X302793Y874006D01*
X302650Y874000D01*
X302507Y873998D01*
X188805Y844384D02*
X181016Y821016D01*
X196595Y821016D02*
X188805Y844384D01*
X194647Y826858D02*
X182963Y826858D01*
X202591Y828805D02*
X218169Y828805D01*
X218169Y836595D02*
X202591Y836595D01*
X206485Y844384D02*
X206485Y821016D01*
X214275Y821016D02*
X214275Y844384D01*
X193998Y753998D02*
X190104Y753998D01*
X193998Y753998D02*
X193998Y741016D01*
X186209Y741016D01*
X186066Y741018D01*
X185923Y741024D01*
X185780Y741034D01*
X185638Y741048D01*
X185496Y741065D01*
X185354Y741087D01*
X185213Y741112D01*
X185073Y741142D01*
X184934Y741175D01*
X184796Y741212D01*
X184659Y741253D01*
X184523Y741297D01*
X184388Y741346D01*
X184255Y741398D01*
X184123Y741453D01*
X183993Y741513D01*
X183864Y741576D01*
X183737Y741642D01*
X183612Y741712D01*
X183490Y741785D01*
X183369Y741862D01*
X183250Y741942D01*
X183134Y742025D01*
X183019Y742111D01*
X182908Y742200D01*
X182798Y742293D01*
X182692Y742388D01*
X182588Y742487D01*
X182487Y742588D01*
X182388Y742692D01*
X182293Y742798D01*
X182200Y742908D01*
X182111Y743019D01*
X182025Y743134D01*
X181942Y743250D01*
X181862Y743369D01*
X181785Y743490D01*
X181712Y743613D01*
X181642Y743737D01*
X181576Y743864D01*
X181513Y743993D01*
X181453Y744123D01*
X181398Y744255D01*
X181346Y744388D01*
X181297Y744523D01*
X181253Y744659D01*
X181212Y744796D01*
X181175Y744934D01*
X181142Y745073D01*
X181112Y745213D01*
X181087Y745354D01*
X181065Y745496D01*
X181048Y745638D01*
X181034Y745780D01*
X181024Y745923D01*
X181018Y746066D01*
X181016Y746209D01*
X181016Y759191D01*
X181018Y759334D01*
X181024Y759477D01*
X181034Y759620D01*
X181048Y759762D01*
X181065Y759904D01*
X181087Y760046D01*
X181112Y760187D01*
X181142Y760327D01*
X181175Y760466D01*
X181212Y760604D01*
X181253Y760741D01*
X181297Y760877D01*
X181346Y761012D01*
X181398Y761145D01*
X181453Y761277D01*
X181513Y761407D01*
X181576Y761536D01*
X181642Y761663D01*
X181712Y761787D01*
X181785Y761910D01*
X181862Y762031D01*
X181942Y762150D01*
X182025Y762266D01*
X182111Y762381D01*
X182200Y762492D01*
X182293Y762602D01*
X182388Y762708D01*
X182487Y762812D01*
X182588Y762913D01*
X182692Y763012D01*
X182798Y763107D01*
X182908Y763200D01*
X183019Y763289D01*
X183134Y763375D01*
X183250Y763458D01*
X183369Y763538D01*
X183490Y763615D01*
X183612Y763688D01*
X183737Y763758D01*
X183864Y763824D01*
X183993Y763887D01*
X184123Y763947D01*
X184255Y764002D01*
X184388Y764054D01*
X184523Y764103D01*
X184659Y764147D01*
X184796Y764188D01*
X184934Y764225D01*
X185073Y764258D01*
X185213Y764288D01*
X185354Y764313D01*
X185496Y764335D01*
X185638Y764352D01*
X185780Y764366D01*
X185923Y764376D01*
X186066Y764382D01*
X186209Y764384D01*
X193998Y764384D01*
X201988Y748805D02*
X217567Y748805D01*
X217567Y756595D02*
X201988Y756595D01*
X205883Y764384D02*
X205883Y741016D01*
X213672Y741016D02*
X213672Y764384D01*
X191402Y421016D02*
X186209Y421016D01*
X186066Y421018D01*
X185923Y421024D01*
X185780Y421034D01*
X185638Y421048D01*
X185496Y421065D01*
X185354Y421087D01*
X185213Y421112D01*
X185073Y421142D01*
X184934Y421175D01*
X184796Y421212D01*
X184659Y421253D01*
X184523Y421297D01*
X184388Y421346D01*
X184255Y421398D01*
X184123Y421453D01*
X183993Y421513D01*
X183864Y421576D01*
X183737Y421642D01*
X183612Y421712D01*
X183490Y421785D01*
X183369Y421862D01*
X183250Y421942D01*
X183134Y422025D01*
X183019Y422111D01*
X182908Y422200D01*
X182798Y422293D01*
X182692Y422388D01*
X182588Y422487D01*
X182487Y422588D01*
X182388Y422692D01*
X182293Y422798D01*
X182200Y422908D01*
X182111Y423019D01*
X182025Y423134D01*
X181942Y423250D01*
X181862Y423369D01*
X181785Y423490D01*
X181712Y423613D01*
X181642Y423737D01*
X181576Y423864D01*
X181513Y423993D01*
X181453Y424123D01*
X181398Y424255D01*
X181346Y424388D01*
X181297Y424523D01*
X181253Y424659D01*
X181212Y424796D01*
X181175Y424934D01*
X181142Y425073D01*
X181112Y425213D01*
X181087Y425354D01*
X181065Y425496D01*
X181048Y425638D01*
X181034Y425780D01*
X181024Y425923D01*
X181018Y426066D01*
X181016Y426209D01*
X181016Y439191D01*
X181018Y439334D01*
X181024Y439477D01*
X181034Y439620D01*
X181048Y439762D01*
X181065Y439904D01*
X181087Y440046D01*
X181112Y440187D01*
X181142Y440327D01*
X181175Y440466D01*
X181212Y440604D01*
X181253Y440741D01*
X181297Y440877D01*
X181346Y441012D01*
X181398Y441145D01*
X181453Y441277D01*
X181513Y441407D01*
X181576Y441536D01*
X181642Y441663D01*
X181712Y441787D01*
X181785Y441910D01*
X181862Y442031D01*
X181942Y442150D01*
X182025Y442266D01*
X182111Y442381D01*
X182200Y442492D01*
X182293Y442602D01*
X182388Y442708D01*
X182487Y442812D01*
X182588Y442913D01*
X182692Y443012D01*
X182798Y443107D01*
X182908Y443200D01*
X183019Y443289D01*
X183134Y443375D01*
X183250Y443458D01*
X183369Y443538D01*
X183490Y443615D01*
X183612Y443688D01*
X183737Y443758D01*
X183864Y443824D01*
X183993Y443887D01*
X184123Y443947D01*
X184255Y444002D01*
X184388Y444054D01*
X184523Y444103D01*
X184659Y444147D01*
X184796Y444188D01*
X184934Y444225D01*
X185073Y444258D01*
X185213Y444288D01*
X185354Y444313D01*
X185496Y444335D01*
X185638Y444352D01*
X185780Y444366D01*
X185923Y444376D01*
X186066Y444382D01*
X186209Y444384D01*
X191402Y444384D01*
X197836Y428805D02*
X213415Y428805D01*
X213415Y436595D02*
X197836Y436595D01*
X201731Y444384D02*
X201731Y421016D01*
X209520Y421016D02*
X209520Y444384D01*
X181016Y501016D02*
X181016Y524384D01*
X187507Y524384D01*
X187666Y524382D01*
X187825Y524376D01*
X187985Y524366D01*
X188143Y524353D01*
X188302Y524335D01*
X188459Y524314D01*
X188617Y524288D01*
X188773Y524259D01*
X188929Y524226D01*
X189084Y524189D01*
X189238Y524149D01*
X189391Y524104D01*
X189543Y524056D01*
X189694Y524005D01*
X189843Y523949D01*
X189991Y523890D01*
X190137Y523827D01*
X190282Y523761D01*
X190425Y523691D01*
X190567Y523618D01*
X190706Y523541D01*
X190844Y523461D01*
X190980Y523377D01*
X191113Y523290D01*
X191245Y523200D01*
X191374Y523107D01*
X191500Y523010D01*
X191625Y522911D01*
X191747Y522808D01*
X191866Y522703D01*
X191983Y522594D01*
X192097Y522483D01*
X192208Y522369D01*
X192317Y522252D01*
X192422Y522133D01*
X192525Y522011D01*
X192624Y521886D01*
X192721Y521760D01*
X192814Y521631D01*
X192904Y521499D01*
X192991Y521366D01*
X193075Y521230D01*
X193155Y521092D01*
X193232Y520953D01*
X193305Y520811D01*
X193375Y520668D01*
X193441Y520523D01*
X193504Y520377D01*
X193563Y520229D01*
X193619Y520080D01*
X193670Y519929D01*
X193718Y519777D01*
X193763Y519624D01*
X193803Y519470D01*
X193840Y519315D01*
X193873Y519159D01*
X193902Y519003D01*
X193928Y518845D01*
X193949Y518688D01*
X193967Y518529D01*
X193980Y518371D01*
X193990Y518211D01*
X193996Y518052D01*
X193998Y517893D01*
X193998Y507507D01*
X193996Y507348D01*
X193990Y507189D01*
X193980Y507029D01*
X193967Y506871D01*
X193949Y506712D01*
X193928Y506555D01*
X193902Y506397D01*
X193873Y506241D01*
X193840Y506085D01*
X193803Y505930D01*
X193763Y505776D01*
X193718Y505623D01*
X193670Y505471D01*
X193619Y505320D01*
X193563Y505171D01*
X193504Y505023D01*
X193441Y504877D01*
X193375Y504732D01*
X193305Y504589D01*
X193232Y504447D01*
X193155Y504308D01*
X193075Y504170D01*
X192991Y504034D01*
X192904Y503901D01*
X192814Y503769D01*
X192721Y503640D01*
X192624Y503514D01*
X192525Y503389D01*
X192422Y503267D01*
X192317Y503148D01*
X192208Y503031D01*
X192097Y502917D01*
X191983Y502806D01*
X191866Y502697D01*
X191747Y502592D01*
X191625Y502489D01*
X191500Y502390D01*
X191374Y502293D01*
X191245Y502200D01*
X191113Y502110D01*
X190980Y502023D01*
X190844Y501939D01*
X190706Y501859D01*
X190567Y501782D01*
X190425Y501709D01*
X190282Y501639D01*
X190137Y501573D01*
X189991Y501510D01*
X189843Y501451D01*
X189694Y501395D01*
X189543Y501344D01*
X189391Y501295D01*
X189238Y501251D01*
X189084Y501211D01*
X188929Y501174D01*
X188773Y501141D01*
X188617Y501112D01*
X188459Y501086D01*
X188302Y501065D01*
X188143Y501047D01*
X187984Y501034D01*
X187825Y501024D01*
X187666Y501018D01*
X187507Y501016D01*
X181016Y501016D01*
X201988Y508805D02*
X217567Y508805D01*
X217567Y516595D02*
X201988Y516595D01*
X205883Y524384D02*
X205883Y501016D01*
X213672Y501016D02*
X213672Y524384D01*
X181016Y661016D02*
X181016Y684384D01*
X191402Y684384D01*
X191402Y673998D02*
X181016Y673998D01*
X197788Y668805D02*
X213367Y668805D01*
X213367Y676595D02*
X197788Y676595D01*
X201683Y684384D02*
X201683Y661016D01*
X209472Y661016D02*
X209472Y684384D01*
D11*
X250000Y930000D02*
X273904Y930000D01*
X286096Y930000D02*
X310000Y930000D01*
X310000Y938904D01*
X310000Y951096D02*
X310000Y960000D01*
X273904Y1070000D02*
X250000Y1070000D01*
X286096Y1070000D02*
X310000Y1070000D01*
X310000Y1078904D01*
X310000Y1091096D02*
X310000Y1100000D01*
X128904Y1070000D02*
X110000Y1070000D01*
X141096Y1070000D02*
X160000Y1070000D01*
X128904Y930000D02*
X110000Y930000D01*
X141096Y930000D02*
X160000Y930000D01*
D10*
X276209Y266016D02*
X281402Y266016D01*
X276209Y266016D02*
X276066Y266018D01*
X275923Y266024D01*
X275780Y266034D01*
X275638Y266048D01*
X275496Y266065D01*
X275354Y266087D01*
X275213Y266112D01*
X275073Y266142D01*
X274934Y266175D01*
X274796Y266212D01*
X274659Y266253D01*
X274523Y266297D01*
X274388Y266346D01*
X274255Y266398D01*
X274123Y266453D01*
X273993Y266513D01*
X273864Y266576D01*
X273737Y266642D01*
X273612Y266712D01*
X273490Y266785D01*
X273369Y266862D01*
X273250Y266942D01*
X273134Y267025D01*
X273019Y267111D01*
X272908Y267200D01*
X272798Y267293D01*
X272692Y267388D01*
X272588Y267487D01*
X272487Y267588D01*
X272388Y267692D01*
X272293Y267798D01*
X272200Y267908D01*
X272111Y268019D01*
X272025Y268134D01*
X271942Y268250D01*
X271862Y268369D01*
X271785Y268490D01*
X271712Y268613D01*
X271642Y268737D01*
X271576Y268864D01*
X271513Y268993D01*
X271453Y269123D01*
X271398Y269255D01*
X271346Y269388D01*
X271297Y269523D01*
X271253Y269659D01*
X271212Y269796D01*
X271175Y269934D01*
X271142Y270073D01*
X271112Y270213D01*
X271087Y270354D01*
X271065Y270496D01*
X271048Y270638D01*
X271034Y270780D01*
X271024Y270923D01*
X271018Y271066D01*
X271016Y271209D01*
X271016Y284191D01*
X271018Y284334D01*
X271024Y284477D01*
X271034Y284620D01*
X271048Y284762D01*
X271065Y284904D01*
X271087Y285046D01*
X271112Y285187D01*
X271142Y285327D01*
X271175Y285466D01*
X271212Y285604D01*
X271253Y285741D01*
X271297Y285877D01*
X271346Y286012D01*
X271398Y286145D01*
X271453Y286277D01*
X271513Y286407D01*
X271576Y286536D01*
X271642Y286663D01*
X271712Y286787D01*
X271785Y286910D01*
X271862Y287031D01*
X271942Y287150D01*
X272025Y287266D01*
X272111Y287381D01*
X272200Y287492D01*
X272293Y287602D01*
X272388Y287708D01*
X272487Y287812D01*
X272588Y287913D01*
X272692Y288012D01*
X272798Y288107D01*
X272908Y288200D01*
X273019Y288289D01*
X273134Y288375D01*
X273250Y288458D01*
X273369Y288538D01*
X273490Y288615D01*
X273612Y288688D01*
X273737Y288758D01*
X273864Y288824D01*
X273993Y288887D01*
X274123Y288947D01*
X274255Y289002D01*
X274388Y289054D01*
X274523Y289103D01*
X274659Y289147D01*
X274796Y289188D01*
X274934Y289225D01*
X275073Y289258D01*
X275213Y289288D01*
X275354Y289313D01*
X275496Y289335D01*
X275638Y289352D01*
X275780Y289366D01*
X275923Y289376D01*
X276066Y289382D01*
X276209Y289384D01*
X281402Y289384D01*
X287140Y289384D02*
X294930Y266016D01*
X302719Y289384D01*
X320453Y282893D02*
X320453Y272507D01*
X320453Y282893D02*
X320455Y283052D01*
X320461Y283211D01*
X320471Y283371D01*
X320484Y283529D01*
X320502Y283688D01*
X320523Y283845D01*
X320549Y284003D01*
X320578Y284159D01*
X320611Y284315D01*
X320648Y284470D01*
X320688Y284624D01*
X320733Y284777D01*
X320781Y284929D01*
X320832Y285080D01*
X320888Y285229D01*
X320947Y285377D01*
X321010Y285523D01*
X321076Y285668D01*
X321146Y285811D01*
X321219Y285953D01*
X321296Y286092D01*
X321376Y286230D01*
X321460Y286366D01*
X321547Y286499D01*
X321637Y286631D01*
X321730Y286760D01*
X321827Y286886D01*
X321926Y287011D01*
X322029Y287133D01*
X322134Y287252D01*
X322243Y287369D01*
X322354Y287483D01*
X322468Y287594D01*
X322585Y287703D01*
X322704Y287808D01*
X322826Y287911D01*
X322951Y288010D01*
X323077Y288107D01*
X323206Y288200D01*
X323338Y288290D01*
X323471Y288377D01*
X323607Y288461D01*
X323745Y288541D01*
X323884Y288618D01*
X324026Y288691D01*
X324169Y288761D01*
X324314Y288827D01*
X324460Y288890D01*
X324608Y288949D01*
X324757Y289005D01*
X324908Y289056D01*
X325060Y289104D01*
X325213Y289149D01*
X325367Y289189D01*
X325522Y289226D01*
X325678Y289259D01*
X325834Y289288D01*
X325992Y289314D01*
X326149Y289335D01*
X326308Y289353D01*
X326466Y289366D01*
X326626Y289376D01*
X326785Y289382D01*
X326944Y289384D01*
X327103Y289382D01*
X327262Y289376D01*
X327422Y289366D01*
X327580Y289353D01*
X327739Y289335D01*
X327896Y289314D01*
X328054Y289288D01*
X328210Y289259D01*
X328366Y289226D01*
X328521Y289189D01*
X328675Y289149D01*
X328828Y289104D01*
X328980Y289056D01*
X329131Y289005D01*
X329280Y288949D01*
X329428Y288890D01*
X329574Y288827D01*
X329719Y288761D01*
X329862Y288691D01*
X330004Y288618D01*
X330143Y288541D01*
X330281Y288461D01*
X330417Y288377D01*
X330550Y288290D01*
X330682Y288200D01*
X330811Y288107D01*
X330937Y288010D01*
X331062Y287911D01*
X331184Y287808D01*
X331303Y287703D01*
X331420Y287594D01*
X331534Y287483D01*
X331645Y287369D01*
X331754Y287252D01*
X331859Y287133D01*
X331962Y287011D01*
X332061Y286886D01*
X332158Y286760D01*
X332251Y286631D01*
X332341Y286499D01*
X332428Y286366D01*
X332512Y286230D01*
X332592Y286092D01*
X332669Y285953D01*
X332742Y285811D01*
X332812Y285668D01*
X332878Y285523D01*
X332941Y285377D01*
X333000Y285229D01*
X333056Y285080D01*
X333107Y284929D01*
X333155Y284777D01*
X333200Y284624D01*
X333240Y284470D01*
X333277Y284315D01*
X333310Y284159D01*
X333339Y284003D01*
X333365Y283845D01*
X333386Y283688D01*
X333404Y283529D01*
X333417Y283371D01*
X333427Y283211D01*
X333433Y283052D01*
X333435Y282893D01*
X333435Y272507D01*
X333433Y272348D01*
X333427Y272189D01*
X333417Y272029D01*
X333404Y271871D01*
X333386Y271712D01*
X333365Y271555D01*
X333339Y271397D01*
X333310Y271241D01*
X333277Y271085D01*
X333240Y270930D01*
X333200Y270776D01*
X333155Y270623D01*
X333107Y270471D01*
X333056Y270320D01*
X333000Y270171D01*
X332941Y270023D01*
X332878Y269877D01*
X332812Y269732D01*
X332742Y269589D01*
X332669Y269447D01*
X332592Y269308D01*
X332512Y269170D01*
X332428Y269034D01*
X332341Y268901D01*
X332251Y268769D01*
X332158Y268640D01*
X332061Y268514D01*
X331962Y268389D01*
X331859Y268267D01*
X331754Y268148D01*
X331645Y268031D01*
X331534Y267917D01*
X331420Y267806D01*
X331303Y267697D01*
X331184Y267592D01*
X331062Y267489D01*
X330937Y267390D01*
X330811Y267293D01*
X330682Y267200D01*
X330550Y267110D01*
X330417Y267023D01*
X330281Y266939D01*
X330143Y266859D01*
X330004Y266782D01*
X329862Y266709D01*
X329719Y266639D01*
X329574Y266573D01*
X329428Y266510D01*
X329280Y266451D01*
X329131Y266395D01*
X328980Y266344D01*
X328828Y266296D01*
X328675Y266251D01*
X328521Y266211D01*
X328366Y266174D01*
X328210Y266141D01*
X328054Y266112D01*
X327896Y266086D01*
X327739Y266065D01*
X327580Y266047D01*
X327422Y266034D01*
X327262Y266024D01*
X327103Y266018D01*
X326944Y266016D01*
X326785Y266018D01*
X326626Y266024D01*
X326466Y266034D01*
X326308Y266047D01*
X326149Y266065D01*
X325992Y266086D01*
X325834Y266112D01*
X325678Y266141D01*
X325522Y266174D01*
X325367Y266211D01*
X325213Y266251D01*
X325060Y266296D01*
X324908Y266344D01*
X324757Y266395D01*
X324608Y266451D01*
X324460Y266510D01*
X324314Y266573D01*
X324169Y266639D01*
X324026Y266709D01*
X323884Y266782D01*
X323745Y266859D01*
X323607Y266939D01*
X323471Y267023D01*
X323338Y267110D01*
X323206Y267200D01*
X323077Y267293D01*
X322951Y267390D01*
X322826Y267489D01*
X322704Y267592D01*
X322585Y267697D01*
X322468Y267806D01*
X322354Y267917D01*
X322243Y268031D01*
X322134Y268148D01*
X322029Y268267D01*
X321926Y268389D01*
X321827Y268514D01*
X321730Y268640D01*
X321637Y268769D01*
X321547Y268901D01*
X321460Y269034D01*
X321376Y269170D01*
X321296Y269308D01*
X321219Y269447D01*
X321146Y269589D01*
X321076Y269732D01*
X321010Y269877D01*
X320947Y270023D01*
X320888Y270171D01*
X320832Y270320D01*
X320781Y270471D01*
X320733Y270623D01*
X320688Y270776D01*
X320648Y270930D01*
X320611Y271085D01*
X320578Y271241D01*
X320549Y271397D01*
X320523Y271555D01*
X320502Y271712D01*
X320484Y271871D01*
X320471Y272029D01*
X320461Y272189D01*
X320455Y272348D01*
X320453Y272507D01*
X342027Y272507D02*
X342027Y289384D01*
X342028Y272507D02*
X342030Y272348D01*
X342036Y272189D01*
X342046Y272029D01*
X342059Y271871D01*
X342077Y271712D01*
X342098Y271555D01*
X342124Y271397D01*
X342153Y271241D01*
X342186Y271085D01*
X342223Y270930D01*
X342263Y270776D01*
X342308Y270623D01*
X342356Y270471D01*
X342407Y270320D01*
X342463Y270171D01*
X342522Y270023D01*
X342585Y269877D01*
X342651Y269732D01*
X342721Y269589D01*
X342794Y269447D01*
X342871Y269308D01*
X342951Y269170D01*
X343035Y269034D01*
X343122Y268901D01*
X343212Y268769D01*
X343305Y268640D01*
X343402Y268514D01*
X343501Y268389D01*
X343604Y268267D01*
X343709Y268148D01*
X343818Y268031D01*
X343929Y267917D01*
X344043Y267806D01*
X344160Y267697D01*
X344279Y267592D01*
X344401Y267489D01*
X344526Y267390D01*
X344652Y267293D01*
X344781Y267200D01*
X344913Y267110D01*
X345046Y267023D01*
X345182Y266939D01*
X345320Y266859D01*
X345459Y266782D01*
X345601Y266709D01*
X345744Y266639D01*
X345889Y266573D01*
X346035Y266510D01*
X346183Y266451D01*
X346332Y266395D01*
X346483Y266344D01*
X346635Y266296D01*
X346788Y266251D01*
X346942Y266211D01*
X347097Y266174D01*
X347253Y266141D01*
X347409Y266112D01*
X347567Y266086D01*
X347724Y266065D01*
X347883Y266047D01*
X348041Y266034D01*
X348201Y266024D01*
X348360Y266018D01*
X348519Y266016D01*
X348678Y266018D01*
X348837Y266024D01*
X348997Y266034D01*
X349155Y266047D01*
X349314Y266065D01*
X349471Y266086D01*
X349629Y266112D01*
X349785Y266141D01*
X349941Y266174D01*
X350096Y266211D01*
X350250Y266251D01*
X350403Y266296D01*
X350555Y266344D01*
X350706Y266395D01*
X350855Y266451D01*
X351003Y266510D01*
X351149Y266573D01*
X351294Y266639D01*
X351437Y266709D01*
X351579Y266782D01*
X351718Y266859D01*
X351856Y266939D01*
X351992Y267023D01*
X352125Y267110D01*
X352257Y267200D01*
X352386Y267293D01*
X352512Y267390D01*
X352637Y267489D01*
X352759Y267592D01*
X352878Y267697D01*
X352995Y267806D01*
X353109Y267917D01*
X353220Y268031D01*
X353329Y268148D01*
X353434Y268267D01*
X353537Y268389D01*
X353636Y268514D01*
X353733Y268640D01*
X353826Y268769D01*
X353916Y268901D01*
X354003Y269034D01*
X354087Y269170D01*
X354167Y269308D01*
X354244Y269447D01*
X354317Y269589D01*
X354387Y269732D01*
X354453Y269877D01*
X354516Y270023D01*
X354575Y270171D01*
X354631Y270320D01*
X354682Y270471D01*
X354730Y270623D01*
X354775Y270776D01*
X354815Y270930D01*
X354852Y271085D01*
X354885Y271241D01*
X354914Y271397D01*
X354940Y271555D01*
X354961Y271712D01*
X354979Y271871D01*
X354992Y272029D01*
X355002Y272189D01*
X355008Y272348D01*
X355010Y272507D01*
X355010Y289384D01*
X368701Y289384D02*
X368701Y266016D01*
X362210Y289384D02*
X375192Y289384D01*
D11*
X273904Y220000D02*
X250000Y220000D01*
X286096Y220000D02*
X310000Y220000D01*
X310000Y228904D01*
X310000Y241096D02*
X310000Y250000D01*
X128904Y220000D02*
X110000Y220000D01*
X141096Y220000D02*
X160000Y220000D01*
D12*
X129524Y1225261D02*
X129524Y1240839D01*
X129527Y1241076D01*
X129536Y1241313D01*
X129550Y1241550D01*
X129570Y1241786D01*
X129596Y1242022D01*
X129628Y1242257D01*
X129665Y1242491D01*
X129708Y1242724D01*
X129757Y1242956D01*
X129811Y1243187D01*
X129871Y1243416D01*
X129937Y1243644D01*
X130008Y1243870D01*
X130084Y1244095D01*
X130166Y1244317D01*
X130254Y1244538D01*
X130347Y1244756D01*
X130445Y1244972D01*
X130548Y1245185D01*
X130656Y1245396D01*
X130770Y1245604D01*
X130888Y1245810D01*
X131012Y1246012D01*
X131140Y1246212D01*
X131274Y1246408D01*
X131412Y1246601D01*
X131554Y1246790D01*
X131701Y1246976D01*
X131853Y1247158D01*
X132009Y1247337D01*
X132170Y1247511D01*
X132334Y1247682D01*
X132503Y1247849D01*
X132675Y1248011D01*
X132852Y1248169D01*
X133033Y1248323D01*
X133217Y1248473D01*
X133404Y1248618D01*
X133595Y1248758D01*
X133790Y1248894D01*
X133988Y1249024D01*
X134189Y1249150D01*
X134393Y1249271D01*
X134599Y1249388D01*
X134809Y1249499D01*
X135021Y1249604D01*
X135236Y1249705D01*
X135453Y1249800D01*
X135672Y1249890D01*
X135894Y1249975D01*
X136117Y1250054D01*
X136342Y1250128D01*
X136570Y1250197D01*
X136798Y1250259D01*
X137028Y1250317D01*
X137260Y1250368D01*
X137492Y1250414D01*
X137726Y1250454D01*
X137961Y1250489D01*
X138196Y1250518D01*
X138432Y1250541D01*
X138669Y1250558D01*
X138905Y1250570D01*
X139142Y1250575D01*
X139380Y1250575D01*
X139617Y1250570D01*
X139853Y1250558D01*
X140090Y1250541D01*
X140326Y1250518D01*
X140561Y1250489D01*
X140796Y1250454D01*
X141030Y1250414D01*
X141262Y1250368D01*
X141494Y1250317D01*
X141724Y1250259D01*
X141952Y1250197D01*
X142180Y1250128D01*
X142405Y1250054D01*
X142628Y1249975D01*
X142850Y1249890D01*
X143069Y1249800D01*
X143286Y1249705D01*
X143501Y1249604D01*
X143713Y1249499D01*
X143923Y1249388D01*
X144130Y1249271D01*
X144333Y1249150D01*
X144534Y1249024D01*
X144732Y1248894D01*
X144927Y1248758D01*
X145118Y1248618D01*
X145305Y1248473D01*
X145489Y1248323D01*
X145670Y1248169D01*
X145847Y1248011D01*
X146019Y1247849D01*
X146188Y1247682D01*
X146352Y1247511D01*
X146513Y1247337D01*
X146669Y1247158D01*
X146821Y1246976D01*
X146968Y1246790D01*
X147110Y1246601D01*
X147248Y1246408D01*
X147382Y1246212D01*
X147510Y1246012D01*
X147634Y1245810D01*
X147752Y1245604D01*
X147866Y1245396D01*
X147974Y1245185D01*
X148077Y1244972D01*
X148175Y1244756D01*
X148268Y1244538D01*
X148356Y1244317D01*
X148438Y1244095D01*
X148514Y1243870D01*
X148585Y1243644D01*
X148651Y1243416D01*
X148711Y1243187D01*
X148765Y1242956D01*
X148814Y1242724D01*
X148857Y1242491D01*
X148894Y1242257D01*
X148926Y1242022D01*
X148952Y1241786D01*
X148972Y1241550D01*
X148986Y1241313D01*
X148995Y1241076D01*
X148998Y1240839D01*
X148997Y1240839D02*
X148997Y1225261D01*
X148998Y1225261D02*
X148995Y1225024D01*
X148986Y1224787D01*
X148972Y1224550D01*
X148952Y1224314D01*
X148926Y1224078D01*
X148894Y1223843D01*
X148857Y1223609D01*
X148814Y1223376D01*
X148765Y1223144D01*
X148711Y1222913D01*
X148651Y1222684D01*
X148585Y1222456D01*
X148514Y1222230D01*
X148438Y1222005D01*
X148356Y1221783D01*
X148268Y1221562D01*
X148175Y1221344D01*
X148077Y1221128D01*
X147974Y1220915D01*
X147866Y1220704D01*
X147752Y1220496D01*
X147634Y1220290D01*
X147510Y1220088D01*
X147382Y1219888D01*
X147248Y1219692D01*
X147110Y1219499D01*
X146968Y1219310D01*
X146821Y1219124D01*
X146669Y1218942D01*
X146513Y1218763D01*
X146352Y1218589D01*
X146188Y1218418D01*
X146019Y1218251D01*
X145847Y1218089D01*
X145670Y1217931D01*
X145489Y1217777D01*
X145305Y1217627D01*
X145118Y1217482D01*
X144927Y1217342D01*
X144732Y1217206D01*
X144534Y1217076D01*
X144333Y1216950D01*
X144130Y1216829D01*
X143923Y1216712D01*
X143713Y1216601D01*
X143501Y1216496D01*
X143286Y1216395D01*
X143069Y1216300D01*
X142850Y1216210D01*
X142628Y1216125D01*
X142405Y1216046D01*
X142180Y1215972D01*
X141952Y1215903D01*
X141724Y1215841D01*
X141494Y1215783D01*
X141262Y1215732D01*
X141030Y1215686D01*
X140796Y1215646D01*
X140561Y1215611D01*
X140326Y1215582D01*
X140090Y1215559D01*
X139853Y1215542D01*
X139617Y1215530D01*
X139380Y1215525D01*
X139142Y1215525D01*
X138905Y1215530D01*
X138669Y1215542D01*
X138432Y1215559D01*
X138196Y1215582D01*
X137961Y1215611D01*
X137726Y1215646D01*
X137492Y1215686D01*
X137260Y1215732D01*
X137028Y1215783D01*
X136798Y1215841D01*
X136570Y1215903D01*
X136342Y1215972D01*
X136117Y1216046D01*
X135894Y1216125D01*
X135672Y1216210D01*
X135453Y1216300D01*
X135236Y1216395D01*
X135021Y1216496D01*
X134809Y1216601D01*
X134599Y1216712D01*
X134393Y1216829D01*
X134189Y1216950D01*
X133988Y1217076D01*
X133790Y1217206D01*
X133595Y1217342D01*
X133404Y1217482D01*
X133217Y1217627D01*
X133033Y1217777D01*
X132852Y1217931D01*
X132675Y1218089D01*
X132503Y1218251D01*
X132334Y1218418D01*
X132170Y1218589D01*
X132009Y1218763D01*
X131853Y1218942D01*
X131701Y1219124D01*
X131554Y1219310D01*
X131412Y1219499D01*
X131274Y1219692D01*
X131140Y1219888D01*
X131012Y1220088D01*
X130888Y1220290D01*
X130770Y1220496D01*
X130656Y1220704D01*
X130548Y1220915D01*
X130445Y1221128D01*
X130347Y1221344D01*
X130254Y1221562D01*
X130166Y1221783D01*
X130084Y1222005D01*
X130008Y1222230D01*
X129937Y1222456D01*
X129871Y1222684D01*
X129811Y1222913D01*
X129757Y1223144D01*
X129708Y1223376D01*
X129665Y1223609D01*
X129628Y1223843D01*
X129596Y1224078D01*
X129570Y1224314D01*
X129550Y1224550D01*
X129536Y1224787D01*
X129527Y1225024D01*
X129524Y1225261D01*
X145103Y1223313D02*
X152892Y1215524D01*
X160300Y1225261D02*
X160300Y1250576D01*
X160300Y1225261D02*
X160303Y1225024D01*
X160312Y1224787D01*
X160326Y1224550D01*
X160346Y1224314D01*
X160372Y1224078D01*
X160404Y1223843D01*
X160441Y1223609D01*
X160484Y1223376D01*
X160533Y1223144D01*
X160587Y1222913D01*
X160647Y1222684D01*
X160713Y1222456D01*
X160784Y1222230D01*
X160860Y1222005D01*
X160942Y1221783D01*
X161030Y1221562D01*
X161123Y1221344D01*
X161221Y1221128D01*
X161324Y1220915D01*
X161432Y1220704D01*
X161546Y1220496D01*
X161664Y1220290D01*
X161788Y1220088D01*
X161916Y1219888D01*
X162050Y1219692D01*
X162188Y1219499D01*
X162330Y1219310D01*
X162477Y1219124D01*
X162629Y1218942D01*
X162785Y1218763D01*
X162946Y1218589D01*
X163110Y1218418D01*
X163279Y1218251D01*
X163451Y1218089D01*
X163628Y1217931D01*
X163809Y1217777D01*
X163993Y1217627D01*
X164180Y1217482D01*
X164371Y1217342D01*
X164566Y1217206D01*
X164764Y1217076D01*
X164965Y1216950D01*
X165169Y1216829D01*
X165375Y1216712D01*
X165585Y1216601D01*
X165797Y1216496D01*
X166012Y1216395D01*
X166229Y1216300D01*
X166448Y1216210D01*
X166670Y1216125D01*
X166893Y1216046D01*
X167118Y1215972D01*
X167346Y1215903D01*
X167574Y1215841D01*
X167804Y1215783D01*
X168036Y1215732D01*
X168268Y1215686D01*
X168502Y1215646D01*
X168737Y1215611D01*
X168972Y1215582D01*
X169208Y1215559D01*
X169445Y1215542D01*
X169681Y1215530D01*
X169918Y1215525D01*
X170156Y1215525D01*
X170393Y1215530D01*
X170629Y1215542D01*
X170866Y1215559D01*
X171102Y1215582D01*
X171337Y1215611D01*
X171572Y1215646D01*
X171806Y1215686D01*
X172038Y1215732D01*
X172270Y1215783D01*
X172500Y1215841D01*
X172728Y1215903D01*
X172956Y1215972D01*
X173181Y1216046D01*
X173404Y1216125D01*
X173626Y1216210D01*
X173845Y1216300D01*
X174062Y1216395D01*
X174277Y1216496D01*
X174489Y1216601D01*
X174699Y1216712D01*
X174906Y1216829D01*
X175109Y1216950D01*
X175310Y1217076D01*
X175508Y1217206D01*
X175703Y1217342D01*
X175894Y1217482D01*
X176081Y1217627D01*
X176265Y1217777D01*
X176446Y1217931D01*
X176623Y1218089D01*
X176795Y1218251D01*
X176964Y1218418D01*
X177128Y1218589D01*
X177289Y1218763D01*
X177445Y1218942D01*
X177597Y1219124D01*
X177744Y1219310D01*
X177886Y1219499D01*
X178024Y1219692D01*
X178158Y1219888D01*
X178286Y1220088D01*
X178410Y1220290D01*
X178528Y1220496D01*
X178642Y1220704D01*
X178750Y1220915D01*
X178853Y1221128D01*
X178951Y1221344D01*
X179044Y1221562D01*
X179132Y1221783D01*
X179214Y1222005D01*
X179290Y1222230D01*
X179361Y1222456D01*
X179427Y1222684D01*
X179487Y1222913D01*
X179541Y1223144D01*
X179590Y1223376D01*
X179633Y1223609D01*
X179670Y1223843D01*
X179702Y1224078D01*
X179728Y1224314D01*
X179748Y1224550D01*
X179762Y1224787D01*
X179771Y1225024D01*
X179774Y1225261D01*
X179774Y1250576D01*
X199565Y1250576D02*
X187881Y1215524D01*
X211249Y1215524D02*
X199565Y1250576D01*
X208328Y1224287D02*
X190802Y1224287D01*
X219355Y1215524D02*
X219355Y1250576D01*
X238829Y1215524D01*
X238829Y1250576D01*
X256715Y1250576D02*
X256715Y1215524D01*
X246978Y1250576D02*
X266451Y1250576D01*
X277670Y1250576D02*
X277670Y1215524D01*
X281564Y1215524D02*
X273775Y1215524D01*
X273775Y1250576D02*
X281564Y1250576D01*
X309313Y1223313D02*
X309311Y1223125D01*
X309304Y1222937D01*
X309293Y1222749D01*
X309277Y1222561D01*
X309256Y1222374D01*
X309231Y1222188D01*
X309202Y1222002D01*
X309168Y1221817D01*
X309129Y1221632D01*
X309087Y1221449D01*
X309039Y1221267D01*
X308988Y1221086D01*
X308932Y1220906D01*
X308871Y1220728D01*
X308807Y1220551D01*
X308738Y1220376D01*
X308665Y1220202D01*
X308588Y1220031D01*
X308506Y1219861D01*
X308421Y1219693D01*
X308331Y1219528D01*
X308238Y1219364D01*
X308141Y1219203D01*
X308039Y1219045D01*
X307934Y1218888D01*
X307825Y1218735D01*
X307713Y1218584D01*
X307597Y1218436D01*
X307477Y1218290D01*
X307354Y1218148D01*
X307228Y1218009D01*
X307098Y1217872D01*
X306965Y1217739D01*
X306828Y1217609D01*
X306689Y1217483D01*
X306547Y1217360D01*
X306401Y1217240D01*
X306253Y1217124D01*
X306102Y1217012D01*
X305949Y1216903D01*
X305792Y1216798D01*
X305634Y1216696D01*
X305473Y1216599D01*
X305309Y1216506D01*
X305144Y1216416D01*
X304976Y1216331D01*
X304806Y1216249D01*
X304635Y1216172D01*
X304461Y1216099D01*
X304286Y1216030D01*
X304109Y1215966D01*
X303931Y1215905D01*
X303751Y1215849D01*
X303570Y1215798D01*
X303388Y1215750D01*
X303205Y1215708D01*
X303020Y1215669D01*
X302835Y1215635D01*
X302649Y1215606D01*
X302463Y1215581D01*
X302276Y1215560D01*
X302088Y1215544D01*
X301900Y1215533D01*
X301712Y1215526D01*
X301524Y1215524D01*
X301130Y1215529D01*
X300737Y1215543D01*
X300344Y1215566D01*
X299952Y1215599D01*
X299560Y1215642D01*
X299170Y1215693D01*
X298781Y1215754D01*
X298393Y1215825D01*
X298008Y1215904D01*
X297624Y1215993D01*
X297243Y1216091D01*
X296864Y1216198D01*
X296488Y1216314D01*
X296115Y1216439D01*
X295744Y1216572D01*
X295377Y1216715D01*
X295014Y1216867D01*
X294654Y1217027D01*
X294298Y1217195D01*
X293947Y1217372D01*
X293600Y1217558D01*
X293257Y1217752D01*
X292919Y1217953D01*
X292586Y1218163D01*
X292258Y1218381D01*
X291935Y1218607D01*
X291618Y1218840D01*
X291306Y1219081D01*
X291001Y1219329D01*
X290701Y1219584D01*
X290408Y1219847D01*
X290121Y1220116D01*
X289840Y1220392D01*
X290814Y1242787D02*
X290816Y1242975D01*
X290823Y1243163D01*
X290834Y1243351D01*
X290850Y1243539D01*
X290871Y1243726D01*
X290896Y1243912D01*
X290925Y1244098D01*
X290959Y1244283D01*
X290998Y1244468D01*
X291040Y1244651D01*
X291088Y1244833D01*
X291139Y1245014D01*
X291195Y1245194D01*
X291256Y1245372D01*
X291320Y1245549D01*
X291389Y1245724D01*
X291462Y1245898D01*
X291539Y1246069D01*
X291621Y1246239D01*
X291706Y1246407D01*
X291796Y1246572D01*
X291889Y1246736D01*
X291987Y1246897D01*
X292088Y1247055D01*
X292193Y1247212D01*
X292302Y1247365D01*
X292414Y1247516D01*
X292530Y1247664D01*
X292650Y1247810D01*
X292773Y1247952D01*
X292899Y1248091D01*
X293029Y1248228D01*
X293162Y1248361D01*
X293299Y1248491D01*
X293438Y1248617D01*
X293580Y1248740D01*
X293726Y1248860D01*
X293874Y1248976D01*
X294025Y1249088D01*
X294178Y1249197D01*
X294335Y1249302D01*
X294493Y1249404D01*
X294654Y1249501D01*
X294818Y1249594D01*
X294983Y1249684D01*
X295151Y1249769D01*
X295321Y1249851D01*
X295492Y1249928D01*
X295666Y1250001D01*
X295841Y1250070D01*
X296018Y1250134D01*
X296196Y1250195D01*
X296376Y1250251D01*
X296557Y1250302D01*
X296739Y1250350D01*
X296922Y1250393D01*
X297107Y1250431D01*
X297292Y1250465D01*
X297478Y1250494D01*
X297664Y1250519D01*
X297851Y1250540D01*
X298039Y1250556D01*
X298227Y1250567D01*
X298415Y1250574D01*
X298603Y1250576D01*
X298951Y1250572D01*
X299299Y1250559D01*
X299646Y1250539D01*
X299993Y1250510D01*
X300339Y1250472D01*
X300684Y1250427D01*
X301028Y1250373D01*
X301371Y1250311D01*
X301712Y1250241D01*
X302051Y1250163D01*
X302388Y1250077D01*
X302723Y1249983D01*
X303056Y1249881D01*
X303386Y1249771D01*
X303714Y1249653D01*
X304038Y1249527D01*
X304360Y1249394D01*
X304678Y1249253D01*
X304993Y1249104D01*
X305304Y1248948D01*
X305611Y1248785D01*
X305915Y1248614D01*
X306214Y1248436D01*
X306509Y1248251D01*
X306799Y1248059D01*
X307085Y1247861D01*
X307366Y1247655D01*
X294709Y1235971D02*
X294545Y1236070D01*
X294384Y1236173D01*
X294226Y1236280D01*
X294070Y1236390D01*
X293917Y1236505D01*
X293767Y1236623D01*
X293619Y1236744D01*
X293475Y1236869D01*
X293334Y1236998D01*
X293195Y1237130D01*
X293060Y1237265D01*
X292929Y1237403D01*
X292800Y1237545D01*
X292676Y1237689D01*
X292554Y1237837D01*
X292437Y1237987D01*
X292322Y1238140D01*
X292212Y1238296D01*
X292106Y1238455D01*
X292003Y1238616D01*
X291904Y1238779D01*
X291809Y1238945D01*
X291719Y1239113D01*
X291632Y1239284D01*
X291550Y1239456D01*
X291471Y1239630D01*
X291397Y1239806D01*
X291327Y1239984D01*
X291262Y1240163D01*
X291201Y1240344D01*
X291144Y1240527D01*
X291091Y1240710D01*
X291044Y1240895D01*
X291000Y1241081D01*
X290961Y1241268D01*
X290927Y1241456D01*
X290897Y1241645D01*
X290872Y1241834D01*
X290851Y1242024D01*
X290835Y1242214D01*
X290823Y1242405D01*
X290816Y1242596D01*
X290814Y1242787D01*
X305419Y1230129D02*
X305583Y1230030D01*
X305744Y1229927D01*
X305902Y1229820D01*
X306058Y1229710D01*
X306211Y1229595D01*
X306361Y1229477D01*
X306509Y1229356D01*
X306653Y1229231D01*
X306794Y1229102D01*
X306933Y1228970D01*
X307068Y1228835D01*
X307199Y1228697D01*
X307328Y1228555D01*
X307452Y1228411D01*
X307574Y1228263D01*
X307691Y1228113D01*
X307806Y1227960D01*
X307916Y1227804D01*
X308022Y1227645D01*
X308125Y1227484D01*
X308224Y1227321D01*
X308319Y1227155D01*
X308409Y1226987D01*
X308496Y1226816D01*
X308578Y1226644D01*
X308657Y1226470D01*
X308731Y1226294D01*
X308801Y1226116D01*
X308866Y1225937D01*
X308927Y1225756D01*
X308984Y1225573D01*
X309037Y1225390D01*
X309084Y1225205D01*
X309128Y1225019D01*
X309167Y1224832D01*
X309201Y1224644D01*
X309231Y1224455D01*
X309256Y1224266D01*
X309277Y1224076D01*
X309293Y1223886D01*
X309305Y1223695D01*
X309312Y1223504D01*
X309314Y1223313D01*
X305419Y1230129D02*
X294709Y1235971D01*
X318401Y1215524D02*
X333980Y1215524D01*
X318401Y1215524D02*
X318401Y1250576D01*
X333980Y1250576D01*
X330085Y1234997D02*
X318401Y1234997D01*
X343150Y1250576D02*
X343150Y1215524D01*
X343150Y1250576D02*
X352887Y1250576D01*
X353124Y1250573D01*
X353361Y1250564D01*
X353598Y1250550D01*
X353834Y1250530D01*
X354070Y1250504D01*
X354305Y1250472D01*
X354539Y1250435D01*
X354772Y1250392D01*
X355004Y1250343D01*
X355235Y1250289D01*
X355464Y1250229D01*
X355692Y1250163D01*
X355918Y1250092D01*
X356143Y1250016D01*
X356365Y1249934D01*
X356586Y1249846D01*
X356804Y1249753D01*
X357020Y1249655D01*
X357233Y1249552D01*
X357444Y1249444D01*
X357652Y1249330D01*
X357858Y1249212D01*
X358060Y1249088D01*
X358260Y1248960D01*
X358456Y1248826D01*
X358649Y1248688D01*
X358838Y1248546D01*
X359024Y1248399D01*
X359206Y1248247D01*
X359385Y1248091D01*
X359559Y1247930D01*
X359730Y1247766D01*
X359897Y1247597D01*
X360059Y1247425D01*
X360217Y1247248D01*
X360371Y1247067D01*
X360521Y1246883D01*
X360666Y1246696D01*
X360806Y1246505D01*
X360942Y1246310D01*
X361072Y1246112D01*
X361198Y1245911D01*
X361319Y1245708D01*
X361436Y1245501D01*
X361547Y1245291D01*
X361652Y1245079D01*
X361753Y1244864D01*
X361848Y1244647D01*
X361938Y1244428D01*
X362023Y1244206D01*
X362102Y1243983D01*
X362176Y1243758D01*
X362245Y1243530D01*
X362307Y1243302D01*
X362365Y1243072D01*
X362416Y1242840D01*
X362462Y1242608D01*
X362502Y1242374D01*
X362537Y1242139D01*
X362566Y1241904D01*
X362589Y1241668D01*
X362606Y1241431D01*
X362618Y1241195D01*
X362623Y1240958D01*
X362623Y1240720D01*
X362618Y1240483D01*
X362606Y1240247D01*
X362589Y1240010D01*
X362566Y1239774D01*
X362537Y1239539D01*
X362502Y1239304D01*
X362462Y1239070D01*
X362416Y1238838D01*
X362365Y1238606D01*
X362307Y1238376D01*
X362245Y1238148D01*
X362176Y1237920D01*
X362102Y1237695D01*
X362023Y1237472D01*
X361938Y1237250D01*
X361848Y1237031D01*
X361753Y1236814D01*
X361652Y1236599D01*
X361547Y1236387D01*
X361436Y1236177D01*
X361319Y1235971D01*
X361198Y1235767D01*
X361072Y1235566D01*
X360942Y1235368D01*
X360806Y1235173D01*
X360666Y1234982D01*
X360521Y1234795D01*
X360371Y1234611D01*
X360217Y1234430D01*
X360059Y1234253D01*
X359897Y1234081D01*
X359730Y1233912D01*
X359559Y1233748D01*
X359385Y1233587D01*
X359206Y1233431D01*
X359024Y1233279D01*
X358838Y1233132D01*
X358649Y1232990D01*
X358456Y1232852D01*
X358260Y1232718D01*
X358060Y1232590D01*
X357858Y1232466D01*
X357652Y1232348D01*
X357444Y1232234D01*
X357233Y1232126D01*
X357020Y1232023D01*
X356804Y1231925D01*
X356586Y1231832D01*
X356365Y1231744D01*
X356143Y1231662D01*
X355918Y1231586D01*
X355692Y1231515D01*
X355464Y1231449D01*
X355235Y1231389D01*
X355004Y1231335D01*
X354772Y1231286D01*
X354539Y1231243D01*
X354305Y1231206D01*
X354070Y1231174D01*
X353834Y1231148D01*
X353598Y1231128D01*
X353361Y1231114D01*
X353124Y1231105D01*
X352887Y1231102D01*
X352887Y1231103D02*
X343150Y1231103D01*
X354834Y1231103D02*
X362623Y1215524D01*
X66261Y1166576D02*
X56524Y1158787D01*
X66261Y1166576D02*
X66261Y1131524D01*
X75997Y1131524D02*
X56524Y1131524D01*
X207234Y1166576D02*
X207446Y1166573D01*
X207657Y1166566D01*
X207869Y1166553D01*
X208080Y1166535D01*
X208290Y1166512D01*
X208500Y1166484D01*
X208709Y1166451D01*
X208918Y1166413D01*
X209125Y1166370D01*
X209331Y1166321D01*
X209536Y1166268D01*
X209740Y1166210D01*
X209942Y1166147D01*
X210143Y1166079D01*
X210341Y1166007D01*
X210538Y1165929D01*
X210734Y1165847D01*
X210927Y1165760D01*
X211118Y1165668D01*
X211306Y1165572D01*
X211493Y1165472D01*
X211676Y1165366D01*
X211858Y1165257D01*
X212036Y1165143D01*
X212212Y1165025D01*
X212385Y1164902D01*
X212555Y1164776D01*
X212721Y1164645D01*
X212885Y1164511D01*
X213045Y1164372D01*
X213202Y1164230D01*
X213355Y1164084D01*
X213505Y1163934D01*
X213651Y1163781D01*
X213793Y1163624D01*
X213932Y1163464D01*
X214066Y1163300D01*
X214197Y1163134D01*
X214323Y1162964D01*
X214446Y1162791D01*
X214564Y1162615D01*
X214678Y1162437D01*
X214787Y1162255D01*
X214893Y1162072D01*
X214993Y1161885D01*
X215089Y1161697D01*
X215181Y1161506D01*
X215268Y1161313D01*
X215350Y1161117D01*
X215428Y1160920D01*
X215500Y1160722D01*
X215568Y1160521D01*
X215631Y1160319D01*
X215689Y1160115D01*
X215742Y1159910D01*
X215791Y1159704D01*
X215834Y1159497D01*
X215872Y1159288D01*
X215905Y1159079D01*
X215933Y1158869D01*
X215956Y1158659D01*
X215974Y1158448D01*
X215987Y1158236D01*
X215994Y1158025D01*
X215997Y1157813D01*
X207234Y1166576D02*
X206962Y1166573D01*
X206690Y1166563D01*
X206418Y1166546D01*
X206147Y1166523D01*
X205876Y1166494D01*
X205606Y1166458D01*
X205337Y1166415D01*
X205069Y1166366D01*
X204803Y1166310D01*
X204538Y1166248D01*
X204274Y1166180D01*
X204012Y1166105D01*
X203753Y1166024D01*
X203495Y1165937D01*
X203239Y1165843D01*
X202986Y1165744D01*
X202735Y1165638D01*
X202486Y1165526D01*
X202241Y1165408D01*
X201998Y1165285D01*
X201759Y1165155D01*
X201523Y1165020D01*
X201290Y1164879D01*
X201060Y1164732D01*
X200834Y1164580D01*
X200612Y1164423D01*
X200394Y1164260D01*
X200180Y1164092D01*
X199970Y1163919D01*
X199764Y1163741D01*
X199562Y1163558D01*
X199365Y1163370D01*
X199173Y1163177D01*
X198985Y1162980D01*
X198802Y1162778D01*
X198625Y1162572D01*
X198452Y1162362D01*
X198284Y1162147D01*
X198121Y1161929D01*
X197964Y1161706D01*
X197812Y1161480D01*
X197666Y1161251D01*
X197525Y1161018D01*
X197390Y1160781D01*
X197261Y1160542D01*
X197138Y1160299D01*
X197020Y1160053D01*
X196909Y1159805D01*
X196803Y1159554D01*
X196704Y1159300D01*
X196611Y1159045D01*
X196524Y1158787D01*
X213076Y1150997D02*
X213241Y1151159D01*
X213403Y1151324D01*
X213560Y1151493D01*
X213713Y1151666D01*
X213861Y1151843D01*
X214006Y1152023D01*
X214145Y1152207D01*
X214281Y1152394D01*
X214411Y1152585D01*
X214537Y1152778D01*
X214658Y1152975D01*
X214775Y1153175D01*
X214886Y1153377D01*
X214992Y1153582D01*
X215094Y1153790D01*
X215190Y1154000D01*
X215281Y1154212D01*
X215367Y1154426D01*
X215447Y1154643D01*
X215522Y1154861D01*
X215592Y1155081D01*
X215656Y1155303D01*
X215715Y1155527D01*
X215768Y1155751D01*
X215816Y1155977D01*
X215858Y1156204D01*
X215895Y1156432D01*
X215926Y1156661D01*
X215952Y1156891D01*
X215972Y1157121D01*
X215986Y1157351D01*
X215994Y1157582D01*
X215997Y1157813D01*
X213076Y1150997D02*
X196524Y1131524D01*
X215997Y1131524D01*
X66261Y316576D02*
X56524Y308787D01*
X66261Y316576D02*
X66261Y281524D01*
X75997Y281524D02*
X56524Y281524D01*
X207234Y316576D02*
X207446Y316573D01*
X207657Y316566D01*
X207869Y316553D01*
X208080Y316535D01*
X208290Y316512D01*
X208500Y316484D01*
X208709Y316451D01*
X208918Y316413D01*
X209125Y316370D01*
X209331Y316321D01*
X209536Y316268D01*
X209740Y316210D01*
X209942Y316147D01*
X210143Y316079D01*
X210341Y316007D01*
X210538Y315929D01*
X210734Y315847D01*
X210927Y315760D01*
X211118Y315668D01*
X211306Y315572D01*
X211493Y315472D01*
X211676Y315366D01*
X211858Y315257D01*
X212036Y315143D01*
X212212Y315025D01*
X212385Y314902D01*
X212555Y314776D01*
X212721Y314645D01*
X212885Y314511D01*
X213045Y314372D01*
X213202Y314230D01*
X213355Y314084D01*
X213505Y313934D01*
X213651Y313781D01*
X213793Y313624D01*
X213932Y313464D01*
X214066Y313300D01*
X214197Y313134D01*
X214323Y312964D01*
X214446Y312791D01*
X214564Y312615D01*
X214678Y312437D01*
X214787Y312255D01*
X214893Y312072D01*
X214993Y311885D01*
X215089Y311697D01*
X215181Y311506D01*
X215268Y311313D01*
X215350Y311117D01*
X215428Y310920D01*
X215500Y310722D01*
X215568Y310521D01*
X215631Y310319D01*
X215689Y310115D01*
X215742Y309910D01*
X215791Y309704D01*
X215834Y309497D01*
X215872Y309288D01*
X215905Y309079D01*
X215933Y308869D01*
X215956Y308659D01*
X215974Y308448D01*
X215987Y308236D01*
X215994Y308025D01*
X215997Y307813D01*
X207234Y316576D02*
X206962Y316573D01*
X206690Y316563D01*
X206418Y316546D01*
X206147Y316523D01*
X205876Y316494D01*
X205606Y316458D01*
X205337Y316415D01*
X205069Y316366D01*
X204803Y316310D01*
X204538Y316248D01*
X204274Y316180D01*
X204012Y316105D01*
X203753Y316024D01*
X203495Y315937D01*
X203239Y315843D01*
X202986Y315744D01*
X202735Y315638D01*
X202486Y315526D01*
X202241Y315408D01*
X201998Y315285D01*
X201759Y315155D01*
X201523Y315020D01*
X201290Y314879D01*
X201060Y314732D01*
X200834Y314580D01*
X200612Y314423D01*
X200394Y314260D01*
X200180Y314092D01*
X199970Y313919D01*
X199764Y313741D01*
X199562Y313558D01*
X199365Y313370D01*
X199173Y313177D01*
X198985Y312980D01*
X198802Y312778D01*
X198625Y312572D01*
X198452Y312362D01*
X198284Y312147D01*
X198121Y311929D01*
X197964Y311706D01*
X197812Y311480D01*
X197666Y311251D01*
X197525Y311018D01*
X197390Y310781D01*
X197261Y310542D01*
X197138Y310299D01*
X197020Y310053D01*
X196909Y309805D01*
X196803Y309554D01*
X196704Y309300D01*
X196611Y309045D01*
X196524Y308787D01*
X213076Y300997D02*
X213241Y301159D01*
X213403Y301324D01*
X213560Y301493D01*
X213713Y301666D01*
X213861Y301843D01*
X214006Y302023D01*
X214145Y302207D01*
X214281Y302394D01*
X214411Y302585D01*
X214537Y302778D01*
X214658Y302975D01*
X214775Y303175D01*
X214886Y303377D01*
X214992Y303582D01*
X215094Y303790D01*
X215190Y304000D01*
X215281Y304212D01*
X215367Y304426D01*
X215447Y304643D01*
X215522Y304861D01*
X215592Y305081D01*
X215656Y305303D01*
X215715Y305527D01*
X215768Y305751D01*
X215816Y305977D01*
X215858Y306204D01*
X215895Y306432D01*
X215926Y306661D01*
X215952Y306891D01*
X215972Y307121D01*
X215986Y307351D01*
X215994Y307582D01*
X215997Y307813D01*
X213076Y300997D02*
X196524Y281524D01*
X215997Y281524D01*
D13*
X296000Y38000D03*
D14*
X296000Y39000D03*
D15*
X158500Y40000D03*
D13*
X207000Y40000D03*
D14*
X296000Y40000D03*
D15*
X159500Y41000D03*
D16*
X207000Y41000D03*
D17*
X251500Y41000D03*
D15*
X296500Y41000D03*
D17*
X308500Y41000D03*
D18*
X132500Y42000D03*
D15*
X159500Y42000D03*
D17*
X171500Y42000D03*
D19*
X189500Y42000D03*
D16*
X207000Y42000D03*
D20*
X225500Y42000D03*
X251500Y42000D03*
D17*
X277500Y42000D03*
D15*
X296500Y42000D03*
D21*
X310000Y42000D03*
D22*
X132000Y43000D03*
D15*
X159500Y43000D03*
D20*
X171500Y43000D03*
D17*
X189500Y43000D03*
D16*
X207000Y43000D03*
D15*
X225500Y43000D03*
D23*
X240000Y43000D03*
D24*
X252000Y43000D03*
D15*
X277500Y43000D03*
X296500Y43000D03*
D25*
X311000Y43000D03*
D26*
X132000Y44000D03*
D15*
X159500Y44000D03*
D14*
X171000Y44000D03*
D20*
X189500Y44000D03*
D16*
X207000Y44000D03*
D15*
X225500Y44000D03*
D14*
X237000Y44000D03*
D18*
X253500Y44000D03*
X277500Y44000D03*
D15*
X296500Y44000D03*
D27*
X310500Y44000D03*
D26*
X132000Y45000D03*
D20*
X159500Y45000D03*
D14*
X171000Y45000D03*
X189000Y45000D03*
D16*
X207000Y45000D03*
D15*
X225500Y45000D03*
D14*
X237000Y45000D03*
D28*
X256500Y45000D03*
D27*
X277500Y45000D03*
D16*
X296000Y45000D03*
D22*
X311000Y45000D03*
D29*
X132000Y46000D03*
D16*
X159000Y46000D03*
D14*
X171000Y46000D03*
D24*
X189000Y46000D03*
D13*
X207000Y46000D03*
D20*
X225500Y46000D03*
D14*
X237000Y46000D03*
D30*
X256500Y46000D03*
D22*
X278000Y46000D03*
D16*
X296000Y46000D03*
D27*
X311500Y46000D03*
D15*
X126500Y47000D03*
D14*
X138000Y47000D03*
D13*
X158000Y47000D03*
D14*
X171000Y47000D03*
D21*
X188000Y47000D03*
D13*
X207000Y47000D03*
X225000Y47000D03*
D14*
X237000Y47000D03*
D30*
X257500Y47000D03*
D22*
X278000Y47000D03*
D17*
X295500Y47000D03*
D22*
X312000Y47000D03*
D15*
X125500Y48000D03*
D16*
X139000Y48000D03*
D13*
X158000Y48000D03*
D20*
X170500Y48000D03*
D18*
X187500Y48000D03*
D13*
X207000Y48000D03*
X225000Y48000D03*
D20*
X237500Y48000D03*
D30*
X257500Y48000D03*
D22*
X278000Y48000D03*
D17*
X295500Y48000D03*
D25*
X313000Y48000D03*
D14*
X125000Y49000D03*
D17*
X138500Y49000D03*
D19*
X157500Y49000D03*
D16*
X171000Y49000D03*
D21*
X187000Y49000D03*
D13*
X207000Y49000D03*
D19*
X224500Y49000D03*
D16*
X237000Y49000D03*
D30*
X257500Y49000D03*
D16*
X274000Y49000D03*
D24*
X282000Y49000D03*
D17*
X295500Y49000D03*
D31*
X314500Y49000D03*
D14*
X125000Y50000D03*
D17*
X138500Y50000D03*
D19*
X157500Y50000D03*
D16*
X171000Y50000D03*
D31*
X186500Y50000D03*
D13*
X207000Y50000D03*
D19*
X224500Y50000D03*
D16*
X237000Y50000D03*
D30*
X257500Y50000D03*
D15*
X282500Y50000D03*
D13*
X295000Y50000D03*
D24*
X315000Y50000D03*
D16*
X125000Y51000D03*
D17*
X138500Y51000D03*
D20*
X155500Y51000D03*
D17*
X170500Y51000D03*
D18*
X185500Y51000D03*
D13*
X207000Y51000D03*
D19*
X224500Y51000D03*
D16*
X237000Y51000D03*
D13*
X250000Y51000D03*
D14*
X262000Y51000D03*
X283000Y51000D03*
D13*
X295000Y51000D03*
D14*
X316000Y51000D03*
D13*
X125000Y52000D03*
D17*
X138500Y52000D03*
D15*
X155500Y52000D03*
D17*
X170500Y52000D03*
D25*
X185000Y52000D03*
D13*
X207000Y52000D03*
X224000Y52000D03*
D16*
X237000Y52000D03*
D13*
X250000Y52000D03*
D20*
X262500Y52000D03*
D14*
X283000Y52000D03*
D13*
X295000Y52000D03*
D15*
X316500Y52000D03*
D17*
X138500Y53000D03*
D15*
X155500Y53000D03*
D17*
X170500Y53000D03*
D22*
X184000Y53000D03*
D13*
X207000Y53000D03*
D19*
X223500Y53000D03*
D16*
X237000Y53000D03*
D13*
X250000Y53000D03*
D15*
X282500Y53000D03*
D13*
X295000Y53000D03*
D15*
X316500Y53000D03*
D13*
X138000Y54000D03*
D15*
X155500Y54000D03*
D17*
X170500Y54000D03*
D28*
X183500Y54000D03*
D13*
X207000Y54000D03*
D19*
X223500Y54000D03*
D17*
X237500Y54000D03*
D13*
X250000Y54000D03*
D15*
X281500Y54000D03*
D19*
X294500Y54000D03*
D15*
X316500Y54000D03*
D17*
X137500Y55000D03*
D14*
X155000Y55000D03*
D17*
X170500Y55000D03*
D24*
X179000Y55000D03*
D16*
X188000Y55000D03*
D17*
X206500Y55000D03*
X224500Y55000D03*
X237500Y55000D03*
D15*
X252500Y55000D03*
X281500Y55000D03*
D19*
X294500Y55000D03*
D14*
X316000Y55000D03*
D16*
X137000Y56000D03*
D20*
X155500Y56000D03*
D17*
X170500Y56000D03*
D15*
X178500Y56000D03*
D16*
X188000Y56000D03*
D17*
X206500Y56000D03*
D14*
X225000Y56000D03*
D17*
X237500Y56000D03*
D31*
X253500Y56000D03*
D19*
X261500Y56000D03*
D15*
X280500Y56000D03*
D19*
X294500Y56000D03*
D15*
X315500Y56000D03*
D16*
X136000Y57000D03*
X156000Y57000D03*
D17*
X170500Y57000D03*
D15*
X177500Y57000D03*
D16*
X188000Y57000D03*
D17*
X206500Y57000D03*
D30*
X230500Y57000D03*
D22*
X256000Y57000D03*
D15*
X279500Y57000D03*
D19*
X294500Y57000D03*
D15*
X315500Y57000D03*
D14*
X135000Y58000D03*
D17*
X156500Y58000D03*
X170500Y58000D03*
D14*
X177000Y58000D03*
D16*
X188000Y58000D03*
D17*
X206500Y58000D03*
D30*
X230500Y58000D03*
D22*
X257000Y58000D03*
D15*
X279500Y58000D03*
D23*
X294000Y58000D03*
D25*
X313000Y58000D03*
D14*
X134000Y59000D03*
D17*
X156500Y59000D03*
D21*
X174000Y59000D03*
D16*
X188000Y59000D03*
D17*
X206500Y59000D03*
D29*
X230000Y59000D03*
D22*
X257000Y59000D03*
D18*
X276500Y59000D03*
D23*
X294000Y59000D03*
D27*
X311500Y59000D03*
D15*
X133500Y60000D03*
D16*
X157000Y60000D03*
D31*
X173500Y60000D03*
D16*
X188000Y60000D03*
D17*
X206500Y60000D03*
D29*
X230000Y60000D03*
D22*
X257000Y60000D03*
D25*
X276000Y60000D03*
D19*
X293500Y60000D03*
D22*
X310000Y60000D03*
D15*
X132500Y61000D03*
D20*
X156500Y61000D03*
D24*
X173000Y61000D03*
D17*
X187500Y61000D03*
D16*
X206000Y61000D03*
D32*
X229500Y61000D03*
D22*
X257000Y61000D03*
D25*
X275000Y61000D03*
D19*
X293500Y61000D03*
D28*
X309500Y61000D03*
D31*
X131500Y62000D03*
D14*
X157000Y62000D03*
X172000Y62000D03*
D17*
X187500Y62000D03*
D16*
X206000Y62000D03*
X222000Y62000D03*
D27*
X232500Y62000D03*
D19*
X250500Y62000D03*
D13*
X255000Y62000D03*
D20*
X261500Y62000D03*
D25*
X274000Y62000D03*
D13*
X293000Y62000D03*
D22*
X309000Y62000D03*
D25*
X129000Y63000D03*
D14*
X157000Y63000D03*
X172000Y63000D03*
D17*
X187500Y63000D03*
D16*
X206000Y63000D03*
X222000Y63000D03*
D14*
X236000Y63000D03*
D13*
X250000Y63000D03*
D16*
X261000Y63000D03*
D18*
X273500Y63000D03*
D13*
X293000Y63000D03*
D22*
X308000Y63000D03*
D27*
X128500Y64000D03*
D15*
X156500Y64000D03*
D14*
X171000Y64000D03*
D13*
X187000Y64000D03*
D16*
X206000Y64000D03*
D14*
X222000Y64000D03*
X236000Y64000D03*
D13*
X250000Y64000D03*
X261000Y64000D03*
D18*
X272500Y64000D03*
D17*
X292500Y64000D03*
D27*
X307500Y64000D03*
D13*
X77000Y65000D03*
D27*
X127500Y65000D03*
D24*
X156000Y65000D03*
D15*
X170500Y65000D03*
D13*
X187000Y65000D03*
D20*
X205500Y65000D03*
D14*
X222000Y65000D03*
D20*
X236500Y65000D03*
D13*
X250000Y65000D03*
D21*
X272000Y65000D03*
D17*
X292500Y65000D03*
D31*
X304500Y65000D03*
D13*
X312000Y65000D03*
D16*
X77000Y66000D03*
D27*
X127500Y66000D03*
D24*
X155000Y66000D03*
D15*
X169500Y66000D03*
D13*
X187000Y66000D03*
D17*
X199500Y66000D03*
D20*
X205500Y66000D03*
D16*
X222000Y66000D03*
D17*
X237500Y66000D03*
X249500Y66000D03*
D24*
X271000Y66000D03*
D16*
X292000Y66000D03*
D24*
X304000Y66000D03*
D16*
X77000Y67000D03*
D25*
X127000Y67000D03*
D20*
X152500Y67000D03*
D19*
X157500Y67000D03*
D15*
X169500Y67000D03*
D17*
X186500Y67000D03*
D25*
X203000Y67000D03*
D20*
X220500Y67000D03*
D16*
X238000Y67000D03*
X250000Y67000D03*
D24*
X271000Y67000D03*
D20*
X292500Y67000D03*
D15*
X303500Y67000D03*
D16*
X77000Y68000D03*
D18*
X125500Y68000D03*
D14*
X151000Y68000D03*
D19*
X157500Y68000D03*
D15*
X169500Y68000D03*
D13*
X186000Y68000D03*
D25*
X203000Y68000D03*
D15*
X219500Y68000D03*
D16*
X238000Y68000D03*
X250000Y68000D03*
D13*
X263000Y68000D03*
D24*
X272000Y68000D03*
D20*
X292500Y68000D03*
D15*
X304500Y68000D03*
D13*
X77000Y69000D03*
D24*
X124000Y69000D03*
D14*
X150000Y69000D03*
D17*
X157500Y69000D03*
D15*
X169500Y69000D03*
D17*
X185500Y69000D03*
D28*
X204500Y69000D03*
D15*
X219500Y69000D03*
D16*
X238000Y69000D03*
D31*
X251500Y69000D03*
D17*
X263500Y69000D03*
D21*
X274000Y69000D03*
D20*
X292500Y69000D03*
D21*
X307000Y69000D03*
D19*
X76500Y70000D03*
D21*
X125000Y70000D03*
D14*
X149000Y70000D03*
D17*
X157500Y70000D03*
D16*
X170000Y70000D03*
D20*
X185500Y70000D03*
D33*
X210500Y70000D03*
D20*
X238500Y70000D03*
D25*
X253000Y70000D03*
D20*
X263500Y70000D03*
D21*
X275000Y70000D03*
D17*
X292500Y70000D03*
D21*
X308000Y70000D03*
D19*
X76500Y71000D03*
D18*
X126500Y71000D03*
D15*
X148500Y71000D03*
D16*
X158000Y71000D03*
D14*
X185000Y71000D03*
D34*
X211000Y71000D03*
D14*
X238000Y71000D03*
D32*
X256500Y71000D03*
D21*
X276000Y71000D03*
D31*
X308500Y71000D03*
D13*
X76000Y72000D03*
D21*
X128000Y72000D03*
D14*
X148000Y72000D03*
D16*
X158000Y72000D03*
D15*
X185500Y72000D03*
D30*
X214500Y72000D03*
D20*
X238500Y72000D03*
D32*
X256500Y72000D03*
D31*
X276500Y72000D03*
D24*
X309000Y72000D03*
D19*
X75500Y73000D03*
D24*
X129000Y73000D03*
D15*
X147500Y73000D03*
D16*
X158000Y73000D03*
D15*
X185500Y73000D03*
D22*
X215000Y73000D03*
D20*
X238500Y73000D03*
D32*
X256500Y73000D03*
D15*
X277500Y73000D03*
D24*
X309000Y73000D03*
D19*
X75500Y74000D03*
D14*
X130000Y74000D03*
X147000Y74000D03*
D16*
X158000Y74000D03*
D14*
X185000Y74000D03*
D20*
X219500Y74000D03*
X238500Y74000D03*
D29*
X257000Y74000D03*
D15*
X277500Y74000D03*
X309500Y74000D03*
D19*
X75500Y75000D03*
D20*
X130500Y75000D03*
D16*
X147000Y75000D03*
X158000Y75000D03*
D14*
X185000Y75000D03*
D23*
X221000Y75000D03*
D20*
X238500Y75000D03*
D28*
X257500Y75000D03*
D20*
X277500Y75000D03*
X309500Y75000D03*
D19*
X75500Y76000D03*
D16*
X130000Y76000D03*
D13*
X147000Y76000D03*
X158000Y76000D03*
D20*
X184500Y76000D03*
D23*
X236000Y76000D03*
D13*
X240000Y76000D03*
D14*
X254000Y76000D03*
D16*
X278000Y76000D03*
D13*
X310000Y76000D03*
D23*
X75000Y77000D03*
D20*
X184500Y77000D03*
D13*
X239000Y77000D03*
D23*
X75000Y78000D03*
D20*
X184500Y78000D03*
D13*
X239000Y78000D03*
D23*
X75000Y79000D03*
D16*
X184000Y79000D03*
D17*
X238500Y79000D03*
D19*
X74500Y80000D03*
D13*
X184000Y80000D03*
D19*
X74500Y81000D03*
X74500Y82000D03*
D23*
X74000Y83000D03*
X74000Y84000D03*
D19*
X73500Y85000D03*
X73500Y86000D03*
X73500Y87000D03*
X73500Y88000D03*
D23*
X73000Y89000D03*
X73000Y90000D03*
X242000Y90000D03*
D14*
X65000Y91000D03*
D19*
X72500Y91000D03*
D15*
X244500Y91000D03*
D24*
X65000Y92000D03*
D19*
X72500Y92000D03*
D14*
X245000Y92000D03*
D24*
X65000Y93000D03*
D19*
X72500Y93000D03*
D15*
X245500Y93000D03*
D18*
X64500Y94000D03*
D23*
X72000Y94000D03*
D16*
X172000Y94000D03*
D15*
X245500Y94000D03*
D13*
X322000Y94000D03*
D25*
X64000Y95000D03*
D23*
X72000Y95000D03*
D15*
X171500Y95000D03*
X245500Y95000D03*
D16*
X321000Y95000D03*
D27*
X63500Y96000D03*
D23*
X72000Y96000D03*
D31*
X171500Y96000D03*
X246500Y96000D03*
X320500Y96000D03*
D30*
X63500Y97000D03*
D25*
X173000Y97000D03*
D18*
X247500Y97000D03*
D23*
X292000Y97000D03*
D18*
X321500Y97000D03*
D19*
X367500Y97000D03*
D29*
X63000Y98000D03*
D19*
X126500Y98000D03*
D22*
X174000Y98000D03*
D27*
X249500Y98000D03*
D13*
X287000Y98000D03*
D19*
X291500Y98000D03*
D27*
X322500Y98000D03*
D13*
X368000Y98000D03*
D18*
X58500Y99000D03*
D17*
X70500Y99000D03*
D21*
X98000Y99000D03*
D14*
X125000Y99000D03*
D30*
X175500Y99000D03*
D14*
X209000Y99000D03*
D29*
X252000Y99000D03*
D15*
X288500Y99000D03*
D34*
X328000Y99000D03*
D16*
X369000Y99000D03*
D18*
X57500Y100000D03*
D17*
X71500Y100000D03*
D30*
X100500Y100000D03*
D18*
X122500Y100000D03*
D35*
X178000Y100000D03*
D15*
X208500Y100000D03*
D36*
X257500Y100000D03*
D15*
X288500Y100000D03*
D22*
X323000Y100000D03*
D37*
X347000Y100000D03*
D14*
X369000Y100000D03*
D23*
X376000Y100000D03*
D21*
X57000Y101000D03*
D13*
X72000Y101000D03*
D38*
X110000Y101000D03*
D39*
X181000Y101000D03*
D24*
X208000Y101000D03*
D19*
X244500Y101000D03*
D16*
X250000Y101000D03*
D22*
X274000Y101000D03*
D15*
X288500Y101000D03*
D31*
X321500Y101000D03*
D35*
X365000Y101000D03*
D31*
X56500Y102000D03*
D16*
X72000Y102000D03*
D31*
X96500Y102000D03*
D24*
X124000Y102000D03*
D15*
X171500Y102000D03*
D34*
X200000Y102000D03*
D19*
X244500Y102000D03*
D18*
X286500Y102000D03*
D14*
X320000Y102000D03*
D25*
X370000Y102000D03*
D16*
X54000Y103000D03*
D19*
X58500Y103000D03*
X70500Y103000D03*
D13*
X74000Y103000D03*
D15*
X95500Y103000D03*
D31*
X124500Y103000D03*
D14*
X172000Y103000D03*
D25*
X206000Y103000D03*
D19*
X244500Y103000D03*
D15*
X288500Y103000D03*
D20*
X319500Y103000D03*
D21*
X370000Y103000D03*
D13*
X54000Y104000D03*
D19*
X70500Y104000D03*
X74500Y104000D03*
D16*
X95000Y104000D03*
D21*
X124000Y104000D03*
D23*
X171000Y104000D03*
D24*
X208000Y104000D03*
D19*
X244500Y104000D03*
D15*
X288500Y104000D03*
D19*
X317500Y104000D03*
D31*
X369500Y104000D03*
D13*
X54000Y105000D03*
D23*
X70000Y105000D03*
D19*
X75500Y105000D03*
D21*
X124000Y105000D03*
D23*
X171000Y105000D03*
D15*
X208500Y105000D03*
D23*
X244000Y105000D03*
D15*
X288500Y105000D03*
D19*
X317500Y105000D03*
D24*
X369000Y105000D03*
D13*
X54000Y106000D03*
D23*
X70000Y106000D03*
D19*
X75500Y106000D03*
D14*
X123000Y106000D03*
D23*
X171000Y106000D03*
D15*
X208500Y106000D03*
D23*
X244000Y106000D03*
D14*
X289000Y106000D03*
D19*
X317500Y106000D03*
D20*
X368500Y106000D03*
D13*
X54000Y107000D03*
D19*
X69500Y107000D03*
X76500Y107000D03*
D14*
X123000Y107000D03*
D23*
X171000Y107000D03*
D20*
X208500Y107000D03*
D23*
X244000Y107000D03*
D20*
X288500Y107000D03*
D23*
X317000Y107000D03*
D13*
X54000Y108000D03*
D19*
X69500Y108000D03*
X77500Y108000D03*
D16*
X123000Y108000D03*
D23*
X171000Y108000D03*
D20*
X208500Y108000D03*
D19*
X243500Y108000D03*
D16*
X288000Y108000D03*
D23*
X317000Y108000D03*
D13*
X54000Y109000D03*
D19*
X69500Y109000D03*
D13*
X78000Y109000D03*
D16*
X123000Y109000D03*
D19*
X170500Y109000D03*
D16*
X208000Y109000D03*
D19*
X243500Y109000D03*
D16*
X288000Y109000D03*
D23*
X317000Y109000D03*
D19*
X54500Y110000D03*
X69500Y110000D03*
X78500Y110000D03*
D13*
X123000Y110000D03*
D19*
X170500Y110000D03*
D16*
X208000Y110000D03*
D19*
X243500Y110000D03*
D16*
X288000Y110000D03*
D23*
X317000Y110000D03*
D13*
X55000Y111000D03*
D23*
X69000Y111000D03*
D13*
X79000Y111000D03*
X123000Y111000D03*
D19*
X170500Y111000D03*
D16*
X208000Y111000D03*
D19*
X243500Y111000D03*
D16*
X288000Y111000D03*
D23*
X317000Y111000D03*
D13*
X55000Y112000D03*
D23*
X69000Y112000D03*
D13*
X79000Y112000D03*
X123000Y112000D03*
D19*
X170500Y112000D03*
D17*
X208500Y112000D03*
D23*
X243000Y112000D03*
D17*
X287500Y112000D03*
D23*
X317000Y112000D03*
D13*
X55000Y113000D03*
D19*
X68500Y113000D03*
D13*
X79000Y113000D03*
X123000Y113000D03*
D19*
X170500Y113000D03*
D13*
X208000Y113000D03*
D23*
X243000Y113000D03*
D14*
X261000Y113000D03*
D17*
X287500Y113000D03*
D23*
X317000Y113000D03*
D13*
X55000Y114000D03*
D19*
X68500Y114000D03*
D13*
X79000Y114000D03*
D19*
X123500Y114000D03*
X170500Y114000D03*
D13*
X208000Y114000D03*
D23*
X243000Y114000D03*
D15*
X261500Y114000D03*
D17*
X287500Y114000D03*
D23*
X317000Y114000D03*
D13*
X56000Y115000D03*
D19*
X68500Y115000D03*
D17*
X79500Y115000D03*
D23*
X123000Y115000D03*
D19*
X170500Y115000D03*
X208500Y115000D03*
D23*
X243000Y115000D03*
D31*
X261500Y115000D03*
D17*
X287500Y115000D03*
D23*
X317000Y115000D03*
D13*
X56000Y116000D03*
D23*
X68000Y116000D03*
D17*
X79500Y116000D03*
D20*
X103500Y116000D03*
D23*
X123000Y116000D03*
D19*
X170500Y116000D03*
D23*
X208000Y116000D03*
X243000Y116000D03*
D21*
X262000Y116000D03*
D13*
X287000Y116000D03*
D19*
X317500Y116000D03*
D13*
X56000Y117000D03*
D23*
X68000Y117000D03*
D17*
X79500Y117000D03*
D20*
X103500Y117000D03*
D23*
X123000Y117000D03*
X170000Y117000D03*
X208000Y117000D03*
X243000Y117000D03*
D21*
X262000Y117000D03*
D13*
X287000Y117000D03*
D19*
X317500Y117000D03*
D13*
X56000Y118000D03*
D23*
X68000Y118000D03*
D13*
X80000Y118000D03*
D14*
X103000Y118000D03*
D23*
X123000Y118000D03*
X170000Y118000D03*
D17*
X182500Y118000D03*
D23*
X188000Y118000D03*
X208000Y118000D03*
X243000Y118000D03*
D18*
X262500Y118000D03*
D13*
X287000Y118000D03*
D19*
X317500Y118000D03*
D20*
X336500Y118000D03*
D13*
X57000Y119000D03*
D19*
X67500Y119000D03*
X80500Y119000D03*
D15*
X103500Y119000D03*
D23*
X123000Y119000D03*
X170000Y119000D03*
D26*
X187000Y119000D03*
D23*
X208000Y119000D03*
X243000Y119000D03*
D17*
X258500Y119000D03*
D20*
X265500Y119000D03*
D19*
X286500Y119000D03*
X317500Y119000D03*
D15*
X336500Y119000D03*
D13*
X57000Y120000D03*
D19*
X67500Y120000D03*
D13*
X74000Y120000D03*
D19*
X80500Y120000D03*
D20*
X103500Y120000D03*
D23*
X123000Y120000D03*
X170000Y120000D03*
D29*
X187000Y120000D03*
D23*
X208000Y120000D03*
X243000Y120000D03*
D17*
X258500Y120000D03*
D20*
X266500Y120000D03*
D19*
X286500Y120000D03*
X317500Y120000D03*
D15*
X336500Y120000D03*
D19*
X57500Y121000D03*
D23*
X67000Y121000D03*
D16*
X74000Y121000D03*
D19*
X81500Y121000D03*
D20*
X103500Y121000D03*
D19*
X123500Y121000D03*
D23*
X170000Y121000D03*
D29*
X187000Y121000D03*
D19*
X207500Y121000D03*
D23*
X243000Y121000D03*
D13*
X258000Y121000D03*
D14*
X266000Y121000D03*
D19*
X286500Y121000D03*
X317500Y121000D03*
D24*
X337000Y121000D03*
D13*
X58000Y122000D03*
D23*
X67000Y122000D03*
D15*
X74500Y122000D03*
D13*
X82000Y122000D03*
D16*
X103000Y122000D03*
D19*
X123500Y122000D03*
X169500Y122000D03*
D29*
X187000Y122000D03*
D19*
X207500Y122000D03*
D23*
X243000Y122000D03*
D13*
X258000Y122000D03*
D14*
X266000Y122000D03*
D19*
X286500Y122000D03*
X317500Y122000D03*
D24*
X337000Y122000D03*
D19*
X58500Y123000D03*
D23*
X67000Y123000D03*
D24*
X74000Y123000D03*
D13*
X82000Y123000D03*
D17*
X98500Y123000D03*
X103500Y123000D03*
D19*
X123500Y123000D03*
X169500Y123000D03*
D29*
X187000Y123000D03*
D19*
X207500Y123000D03*
D23*
X243000Y123000D03*
D13*
X258000Y123000D03*
D14*
X266000Y123000D03*
D19*
X286500Y123000D03*
X317500Y123000D03*
D24*
X337000Y123000D03*
D19*
X58500Y124000D03*
D23*
X67000Y124000D03*
D24*
X74000Y124000D03*
D17*
X82500Y124000D03*
D24*
X100000Y124000D03*
D23*
X123000Y124000D03*
D19*
X169500Y124000D03*
D32*
X186500Y124000D03*
D23*
X207000Y124000D03*
X243000Y124000D03*
D13*
X258000Y124000D03*
D14*
X266000Y124000D03*
D23*
X286000Y124000D03*
D19*
X317500Y124000D03*
D15*
X336500Y124000D03*
D19*
X59500Y125000D03*
X66500Y125000D03*
D27*
X77500Y125000D03*
D31*
X99500Y125000D03*
D23*
X123000Y125000D03*
D19*
X169500Y125000D03*
D20*
X178500Y125000D03*
D31*
X187500Y125000D03*
D23*
X207000Y125000D03*
X243000Y125000D03*
D13*
X258000Y125000D03*
D20*
X265500Y125000D03*
D23*
X286000Y125000D03*
D19*
X317500Y125000D03*
D14*
X337000Y125000D03*
D19*
X59500Y126000D03*
X66500Y126000D03*
D27*
X77500Y126000D03*
D26*
X103000Y126000D03*
D23*
X123000Y126000D03*
D19*
X169500Y126000D03*
D28*
X183500Y126000D03*
D23*
X207000Y126000D03*
X243000Y126000D03*
D13*
X258000Y126000D03*
X266000Y126000D03*
D23*
X286000Y126000D03*
D19*
X317500Y126000D03*
D20*
X337500Y126000D03*
D19*
X60500Y127000D03*
D23*
X66000Y127000D03*
D27*
X77500Y127000D03*
D26*
X103000Y127000D03*
D23*
X123000Y127000D03*
D19*
X169500Y127000D03*
D14*
X179000Y127000D03*
D20*
X187500Y127000D03*
D23*
X207000Y127000D03*
X243000Y127000D03*
D17*
X257500Y127000D03*
D23*
X286000Y127000D03*
D19*
X317500Y127000D03*
D16*
X337000Y127000D03*
D23*
X61000Y128000D03*
X66000Y128000D03*
D18*
X77500Y128000D03*
D28*
X102500Y128000D03*
D23*
X123000Y128000D03*
D13*
X169000Y128000D03*
D14*
X179000Y128000D03*
D16*
X187000Y128000D03*
D19*
X206500Y128000D03*
X242500Y128000D03*
D17*
X257500Y128000D03*
D19*
X285500Y128000D03*
X317500Y128000D03*
D17*
X337500Y128000D03*
D19*
X61500Y129000D03*
D23*
X66000Y129000D03*
D31*
X77500Y129000D03*
D22*
X103000Y129000D03*
D23*
X123000Y129000D03*
D13*
X169000Y129000D03*
D27*
X182500Y129000D03*
D19*
X206500Y129000D03*
X242500Y129000D03*
D17*
X257500Y129000D03*
D19*
X285500Y129000D03*
X317500Y129000D03*
D17*
X337500Y129000D03*
D19*
X62500Y130000D03*
D23*
X66000Y130000D03*
D20*
X78500Y130000D03*
D21*
X105000Y130000D03*
D23*
X123000Y130000D03*
D19*
X168500Y130000D03*
D25*
X183000Y130000D03*
D23*
X206000Y130000D03*
D19*
X242500Y130000D03*
D17*
X257500Y130000D03*
D23*
X285000Y130000D03*
D19*
X317500Y130000D03*
D17*
X337500Y130000D03*
D19*
X62500Y131000D03*
X65500Y131000D03*
D13*
X79000Y131000D03*
D17*
X101500Y131000D03*
D16*
X107000Y131000D03*
D23*
X123000Y131000D03*
D19*
X168500Y131000D03*
D25*
X184000Y131000D03*
D23*
X206000Y131000D03*
D19*
X242500Y131000D03*
D17*
X257500Y131000D03*
D23*
X285000Y131000D03*
D19*
X317500Y131000D03*
D16*
X338000Y131000D03*
D17*
X63500Y132000D03*
X101500Y132000D03*
D16*
X107000Y132000D03*
D19*
X122500Y132000D03*
X168500Y132000D03*
D21*
X185000Y132000D03*
D23*
X206000Y132000D03*
D19*
X242500Y132000D03*
D17*
X257500Y132000D03*
D23*
X285000Y132000D03*
D19*
X317500Y132000D03*
D16*
X338000Y132000D03*
D13*
X64000Y133000D03*
D17*
X101500Y133000D03*
D13*
X108000Y133000D03*
D19*
X122500Y133000D03*
X168500Y133000D03*
D21*
X185000Y133000D03*
D23*
X206000Y133000D03*
X242000Y133000D03*
D20*
X257500Y133000D03*
D23*
X285000Y133000D03*
D19*
X317500Y133000D03*
D16*
X338000Y133000D03*
D19*
X64500Y134000D03*
D17*
X101500Y134000D03*
D19*
X122500Y134000D03*
X167500Y134000D03*
D31*
X185500Y134000D03*
D19*
X205500Y134000D03*
D23*
X242000Y134000D03*
D20*
X257500Y134000D03*
D23*
X285000Y134000D03*
D19*
X317500Y134000D03*
D16*
X338000Y134000D03*
D13*
X65000Y135000D03*
D17*
X101500Y135000D03*
D19*
X122500Y135000D03*
X167500Y135000D03*
D17*
X182500Y135000D03*
D20*
X188500Y135000D03*
D19*
X205500Y135000D03*
X241500Y135000D03*
D20*
X257500Y135000D03*
D23*
X285000Y135000D03*
D19*
X317500Y135000D03*
D16*
X338000Y135000D03*
D13*
X65000Y136000D03*
D16*
X101000Y136000D03*
D19*
X106500Y136000D03*
X122500Y136000D03*
X167500Y136000D03*
D14*
X188000Y136000D03*
D19*
X205500Y136000D03*
X241500Y136000D03*
D15*
X257500Y136000D03*
D23*
X285000Y136000D03*
D19*
X317500Y136000D03*
D16*
X338000Y136000D03*
D17*
X65500Y137000D03*
D16*
X101000Y137000D03*
X107000Y137000D03*
D19*
X121500Y137000D03*
D23*
X167000Y137000D03*
D20*
X188500Y137000D03*
D19*
X205500Y137000D03*
D23*
X241000Y137000D03*
D15*
X257500Y137000D03*
D23*
X285000Y137000D03*
D19*
X317500Y137000D03*
D16*
X338000Y137000D03*
D23*
X64000Y138000D03*
D19*
X66500Y138000D03*
D17*
X100500Y138000D03*
D20*
X106500Y138000D03*
D19*
X121500Y138000D03*
X166500Y138000D03*
D20*
X188500Y138000D03*
D19*
X205500Y138000D03*
D23*
X241000Y138000D03*
D15*
X257500Y138000D03*
D23*
X285000Y138000D03*
D19*
X317500Y138000D03*
D20*
X338500Y138000D03*
D23*
X64000Y139000D03*
D19*
X67500Y139000D03*
D18*
X104500Y139000D03*
D19*
X121500Y139000D03*
X166500Y139000D03*
D16*
X179000Y139000D03*
D14*
X188000Y139000D03*
D19*
X205500Y139000D03*
D23*
X241000Y139000D03*
D14*
X257000Y139000D03*
D19*
X284500Y139000D03*
X317500Y139000D03*
D20*
X338500Y139000D03*
D19*
X63500Y140000D03*
X68500Y140000D03*
D21*
X104000Y140000D03*
D19*
X121500Y140000D03*
X165500Y140000D03*
D20*
X178500Y140000D03*
D14*
X188000Y140000D03*
D13*
X205000Y140000D03*
D19*
X240500Y140000D03*
D20*
X257500Y140000D03*
D19*
X284500Y140000D03*
X317500Y140000D03*
D14*
X338000Y140000D03*
D19*
X63500Y141000D03*
X68500Y141000D03*
D21*
X104000Y141000D03*
D19*
X121500Y141000D03*
X165500Y141000D03*
D15*
X178500Y141000D03*
X187500Y141000D03*
D19*
X204500Y141000D03*
D23*
X240000Y141000D03*
D19*
X257500Y141000D03*
D23*
X284000Y141000D03*
D19*
X317500Y141000D03*
D15*
X338500Y141000D03*
D19*
X63500Y142000D03*
X69500Y142000D03*
D21*
X103000Y142000D03*
D19*
X121500Y142000D03*
D13*
X165000Y142000D03*
D28*
X182500Y142000D03*
D19*
X204500Y142000D03*
D23*
X240000Y142000D03*
X284000Y142000D03*
D19*
X317500Y142000D03*
D25*
X341000Y142000D03*
D17*
X350500Y142000D03*
D19*
X63500Y143000D03*
X69500Y143000D03*
D31*
X102500Y143000D03*
D19*
X121500Y143000D03*
D13*
X165000Y143000D03*
D22*
X182000Y143000D03*
D19*
X204500Y143000D03*
D23*
X240000Y143000D03*
X284000Y143000D03*
D19*
X317500Y143000D03*
D35*
X342000Y143000D03*
D23*
X63000Y144000D03*
D19*
X70500Y144000D03*
D31*
X102500Y144000D03*
D19*
X121500Y144000D03*
D13*
X164000Y144000D03*
D27*
X181500Y144000D03*
D19*
X204500Y144000D03*
X239500Y144000D03*
D16*
X258000Y144000D03*
D23*
X284000Y144000D03*
D13*
X317000Y144000D03*
D40*
X341500Y144000D03*
D19*
X62500Y145000D03*
X70500Y145000D03*
D23*
X98000Y145000D03*
D14*
X103000Y145000D03*
D19*
X121500Y145000D03*
D17*
X163500Y145000D03*
D25*
X182000Y145000D03*
D19*
X204500Y145000D03*
X239500Y145000D03*
D15*
X256500Y145000D03*
D23*
X284000Y145000D03*
D13*
X317000Y145000D03*
D34*
X342000Y145000D03*
D19*
X62500Y146000D03*
X71500Y146000D03*
D23*
X98000Y146000D03*
D14*
X103000Y146000D03*
D19*
X121500Y146000D03*
D17*
X163500Y146000D03*
D31*
X182500Y146000D03*
D19*
X204500Y146000D03*
X239500Y146000D03*
D15*
X256500Y146000D03*
D19*
X283500Y146000D03*
D13*
X317000Y146000D03*
D34*
X342000Y146000D03*
D19*
X62500Y147000D03*
X71500Y147000D03*
D23*
X98000Y147000D03*
D14*
X103000Y147000D03*
D19*
X121500Y147000D03*
D17*
X162500Y147000D03*
X185500Y147000D03*
D19*
X204500Y147000D03*
X239500Y147000D03*
D24*
X256000Y147000D03*
D19*
X283500Y147000D03*
D13*
X317000Y147000D03*
D40*
X341500Y147000D03*
D19*
X62500Y148000D03*
X72500Y148000D03*
D15*
X101500Y148000D03*
D19*
X121500Y148000D03*
D16*
X162000Y148000D03*
D19*
X204500Y148000D03*
D13*
X239000Y148000D03*
D24*
X256000Y148000D03*
D19*
X283500Y148000D03*
D13*
X317000Y148000D03*
D25*
X336000Y148000D03*
D31*
X348500Y148000D03*
D19*
X62500Y149000D03*
X72500Y149000D03*
D14*
X101000Y149000D03*
D19*
X121500Y149000D03*
D20*
X161500Y149000D03*
D19*
X204500Y149000D03*
D13*
X239000Y149000D03*
D24*
X256000Y149000D03*
D19*
X283500Y149000D03*
D17*
X316500Y149000D03*
D31*
X335500Y149000D03*
D14*
X349000Y149000D03*
D19*
X61500Y150000D03*
X72500Y150000D03*
D16*
X100000Y150000D03*
D23*
X122000Y150000D03*
D16*
X161000Y150000D03*
D19*
X204500Y150000D03*
D13*
X239000Y150000D03*
D15*
X255500Y150000D03*
D19*
X283500Y150000D03*
D17*
X316500Y150000D03*
D19*
X337500Y150000D03*
D13*
X349000Y150000D03*
D19*
X61500Y151000D03*
X73500Y151000D03*
X99500Y151000D03*
D23*
X122000Y151000D03*
D20*
X160500Y151000D03*
D19*
X204500Y151000D03*
D17*
X238500Y151000D03*
D20*
X255500Y151000D03*
D19*
X282500Y151000D03*
D17*
X316500Y151000D03*
D19*
X61500Y152000D03*
X74500Y152000D03*
D13*
X123000Y152000D03*
D14*
X160000Y152000D03*
D19*
X204500Y152000D03*
D17*
X238500Y152000D03*
D13*
X255000Y152000D03*
D19*
X282500Y152000D03*
D16*
X316000Y152000D03*
D19*
X61500Y153000D03*
D13*
X75000Y153000D03*
D24*
X124000Y153000D03*
D20*
X159500Y153000D03*
D19*
X204500Y153000D03*
D16*
X238000Y153000D03*
D19*
X282500Y153000D03*
D20*
X315500Y153000D03*
D19*
X61500Y154000D03*
D17*
X75500Y154000D03*
D41*
X128500Y154000D03*
D14*
X159000Y154000D03*
D16*
X203000Y154000D03*
X238000Y154000D03*
D13*
X283000Y154000D03*
D20*
X315500Y154000D03*
D13*
X61000Y155000D03*
D16*
X76000Y155000D03*
D36*
X131500Y155000D03*
D21*
X161000Y155000D03*
D19*
X168500Y155000D03*
D15*
X204500Y155000D03*
D31*
X239500Y155000D03*
D20*
X283500Y155000D03*
X315500Y155000D03*
D13*
X61000Y156000D03*
D20*
X76500Y156000D03*
D42*
X142000Y156000D03*
D23*
X168000Y156000D03*
D31*
X205500Y156000D03*
D21*
X239000Y156000D03*
D15*
X284500Y156000D03*
D14*
X315000Y156000D03*
D19*
X321500Y156000D03*
D13*
X61000Y157000D03*
D16*
X77000Y157000D03*
D28*
X125500Y157000D03*
X160500Y157000D03*
D21*
X206000Y157000D03*
X239000Y157000D03*
D17*
X282500Y157000D03*
D20*
X288500Y157000D03*
D18*
X316500Y157000D03*
D13*
X61000Y158000D03*
D20*
X77500Y158000D03*
D31*
X122500Y158000D03*
D18*
X161500Y158000D03*
D25*
X207000Y158000D03*
D21*
X239000Y158000D03*
D22*
X288000Y158000D03*
D25*
X317000Y158000D03*
D13*
X61000Y159000D03*
D20*
X77500Y159000D03*
D16*
X119000Y159000D03*
D14*
X164000Y159000D03*
D41*
X212500Y159000D03*
D31*
X239500Y159000D03*
D29*
X290000Y159000D03*
D35*
X312000Y159000D03*
D13*
X61000Y160000D03*
D20*
X77500Y160000D03*
D19*
X164500Y160000D03*
D23*
X167000Y160000D03*
D43*
X222000Y160000D03*
D44*
X295500Y160000D03*
D18*
X317500Y160000D03*
D17*
X60500Y161000D03*
D14*
X78000Y161000D03*
D23*
X167000Y161000D03*
D14*
X205000Y161000D03*
D13*
X232000Y161000D03*
D14*
X240000Y161000D03*
D18*
X286500Y161000D03*
D26*
X314000Y161000D03*
D13*
X60000Y162000D03*
D14*
X78000Y162000D03*
D23*
X167000Y162000D03*
X237000Y162000D03*
D15*
X284500Y162000D03*
D17*
X314500Y162000D03*
D16*
X320000Y162000D03*
D13*
X60000Y163000D03*
D20*
X78500Y163000D03*
D16*
X285000Y163000D03*
D17*
X320500Y163000D03*
D13*
X60000Y164000D03*
D15*
X77500Y164000D03*
D19*
X284500Y164000D03*
D23*
X320000Y164000D03*
D13*
X60000Y165000D03*
D24*
X77000Y165000D03*
D14*
X61000Y166000D03*
D24*
X76000Y166000D03*
D35*
X69000Y167000D03*
D41*
X68500Y168000D03*
D45*
X68000Y169000D03*
D18*
X64500Y170000D03*
D13*
X76000Y170000D03*
D20*
X62500Y171000D03*
M02*
