G04 EAGLE Gerber RS-274X export*
G75*
%MOMM*%
%FSLAX34Y34*%
%LPD*%
%IN*%
%IPPOS*%
%AMOC8*
5,1,8,0,0,1.08239X$1,22.5*%
G01*
%ADD10C,3.200000*%
%ADD11C,6.000000*%
%ADD12C,3.400000*%
%ADD13C,0.254000*%


D10*
X75000Y1255000D03*
X75000Y30000D03*
D11*
X83458Y1056875D03*
X83458Y917175D03*
X83458Y574275D03*
X83458Y434575D03*
X83458Y294875D03*
X324758Y294875D03*
X324758Y434575D03*
X324758Y574275D03*
X324758Y917175D03*
X324758Y1056875D03*
D12*
X159658Y294875D03*
X248558Y294875D03*
X159658Y434575D03*
X248558Y434575D03*
X159658Y574275D03*
X248558Y574275D03*
D13*
X0Y0D02*
X403000Y0D01*
X403000Y1285000D01*
X0Y1285000D01*
X0Y0D01*
X91000Y1254476D02*
X91000Y1255524D01*
X90932Y1256569D01*
X90795Y1257608D01*
X90590Y1258635D01*
X90319Y1259647D01*
X89983Y1260639D01*
X89582Y1261607D01*
X89118Y1262546D01*
X88595Y1263454D01*
X88013Y1264325D01*
X87375Y1265156D01*
X86684Y1265943D01*
X85943Y1266684D01*
X85156Y1267375D01*
X84325Y1268013D01*
X83454Y1268595D01*
X82546Y1269118D01*
X81607Y1269582D01*
X80639Y1269983D01*
X79647Y1270319D01*
X78635Y1270590D01*
X77608Y1270795D01*
X76569Y1270932D01*
X75524Y1271000D01*
X74476Y1271000D01*
X73431Y1270932D01*
X72392Y1270795D01*
X71365Y1270590D01*
X70353Y1270319D01*
X69361Y1269983D01*
X68393Y1269582D01*
X67454Y1269118D01*
X66546Y1268595D01*
X65675Y1268013D01*
X64844Y1267375D01*
X64057Y1266684D01*
X63316Y1265943D01*
X62625Y1265156D01*
X61988Y1264325D01*
X61406Y1263454D01*
X60882Y1262546D01*
X60418Y1261607D01*
X60017Y1260639D01*
X59681Y1259647D01*
X59410Y1258635D01*
X59205Y1257608D01*
X59069Y1256569D01*
X59000Y1255524D01*
X59000Y1254476D01*
X59069Y1253431D01*
X59205Y1252392D01*
X59410Y1251365D01*
X59681Y1250353D01*
X60017Y1249361D01*
X60418Y1248393D01*
X60882Y1247454D01*
X61406Y1246546D01*
X61988Y1245675D01*
X62625Y1244844D01*
X63316Y1244057D01*
X64057Y1243316D01*
X64844Y1242625D01*
X65675Y1241988D01*
X66546Y1241406D01*
X67454Y1240882D01*
X68393Y1240418D01*
X69361Y1240017D01*
X70353Y1239681D01*
X71365Y1239410D01*
X72392Y1239205D01*
X73431Y1239069D01*
X74476Y1239000D01*
X75524Y1239000D01*
X76569Y1239069D01*
X77608Y1239205D01*
X78635Y1239410D01*
X79647Y1239681D01*
X80639Y1240017D01*
X81607Y1240418D01*
X82546Y1240882D01*
X83454Y1241406D01*
X84325Y1241988D01*
X85156Y1242625D01*
X85943Y1243316D01*
X86684Y1244057D01*
X87375Y1244844D01*
X88013Y1245675D01*
X88595Y1246546D01*
X89118Y1247454D01*
X89582Y1248393D01*
X89983Y1249361D01*
X90319Y1250353D01*
X90590Y1251365D01*
X90795Y1252392D01*
X90932Y1253431D01*
X91000Y1254476D01*
X91000Y29476D02*
X91000Y30524D01*
X90932Y31569D01*
X90795Y32608D01*
X90590Y33635D01*
X90319Y34647D01*
X89983Y35639D01*
X89582Y36607D01*
X89118Y37546D01*
X88595Y38454D01*
X88013Y39325D01*
X87375Y40156D01*
X86684Y40943D01*
X85943Y41684D01*
X85156Y42375D01*
X84325Y43013D01*
X83454Y43595D01*
X82546Y44118D01*
X81607Y44582D01*
X80639Y44983D01*
X79647Y45319D01*
X78635Y45590D01*
X77608Y45795D01*
X76569Y45932D01*
X75524Y46000D01*
X74476Y46000D01*
X73431Y45932D01*
X72392Y45795D01*
X71365Y45590D01*
X70353Y45319D01*
X69361Y44983D01*
X68393Y44582D01*
X67454Y44118D01*
X66546Y43595D01*
X65675Y43013D01*
X64844Y42375D01*
X64057Y41684D01*
X63316Y40943D01*
X62625Y40156D01*
X61988Y39325D01*
X61406Y38454D01*
X60882Y37546D01*
X60418Y36607D01*
X60017Y35639D01*
X59681Y34647D01*
X59410Y33635D01*
X59205Y32608D01*
X59069Y31569D01*
X59000Y30524D01*
X59000Y29476D01*
X59069Y28431D01*
X59205Y27392D01*
X59410Y26365D01*
X59681Y25353D01*
X60017Y24361D01*
X60418Y23393D01*
X60882Y22454D01*
X61406Y21546D01*
X61988Y20675D01*
X62625Y19844D01*
X63316Y19057D01*
X64057Y18316D01*
X64844Y17625D01*
X65675Y16988D01*
X66546Y16406D01*
X67454Y15882D01*
X68393Y15418D01*
X69361Y15017D01*
X70353Y14681D01*
X71365Y14410D01*
X72392Y14205D01*
X73431Y14069D01*
X74476Y14000D01*
X75524Y14000D01*
X76569Y14069D01*
X77608Y14205D01*
X78635Y14410D01*
X79647Y14681D01*
X80639Y15017D01*
X81607Y15418D01*
X82546Y15882D01*
X83454Y16406D01*
X84325Y16988D01*
X85156Y17625D01*
X85943Y18316D01*
X86684Y19057D01*
X87375Y19844D01*
X88013Y20675D01*
X88595Y21546D01*
X89118Y22454D01*
X89582Y23393D01*
X89983Y24361D01*
X90319Y25353D01*
X90590Y26365D01*
X90795Y27392D01*
X90932Y28431D01*
X91000Y29476D01*
X113458Y1056139D02*
X113458Y1057612D01*
X113385Y1059083D01*
X113241Y1060549D01*
X113025Y1062006D01*
X112738Y1063450D01*
X112380Y1064879D01*
X111952Y1066288D01*
X111456Y1067675D01*
X110892Y1069036D01*
X110263Y1070368D01*
X109568Y1071667D01*
X108811Y1072930D01*
X107993Y1074155D01*
X107115Y1075338D01*
X106181Y1076476D01*
X105192Y1077568D01*
X104150Y1078609D01*
X103059Y1079598D01*
X101920Y1080533D01*
X100737Y1081410D01*
X99512Y1082228D01*
X98249Y1082986D01*
X96950Y1083680D01*
X95619Y1084310D01*
X94258Y1084873D01*
X92871Y1085370D01*
X91461Y1085797D01*
X90033Y1086155D01*
X88588Y1086442D01*
X87131Y1086659D01*
X85665Y1086803D01*
X84194Y1086875D01*
X82721Y1086875D01*
X81250Y1086803D01*
X79784Y1086659D01*
X78327Y1086442D01*
X76883Y1086155D01*
X75454Y1085797D01*
X74044Y1085370D01*
X72658Y1084873D01*
X71297Y1084310D01*
X69965Y1083680D01*
X68666Y1082986D01*
X67403Y1082228D01*
X66178Y1081410D01*
X64995Y1080533D01*
X63857Y1079598D01*
X62765Y1078609D01*
X61724Y1077568D01*
X60735Y1076476D01*
X59800Y1075338D01*
X58923Y1074155D01*
X58104Y1072930D01*
X57347Y1071667D01*
X56653Y1070368D01*
X56023Y1069036D01*
X55459Y1067675D01*
X54963Y1066288D01*
X54536Y1064879D01*
X54178Y1063450D01*
X53890Y1062006D01*
X53674Y1060549D01*
X53530Y1059083D01*
X53458Y1057612D01*
X53458Y1056139D01*
X53530Y1054668D01*
X53674Y1053202D01*
X53890Y1051745D01*
X54178Y1050300D01*
X54536Y1048871D01*
X54963Y1047462D01*
X55459Y1046075D01*
X56023Y1044714D01*
X56653Y1043383D01*
X57347Y1042084D01*
X58104Y1040820D01*
X58923Y1039596D01*
X59800Y1038413D01*
X60735Y1037274D01*
X61724Y1036183D01*
X62765Y1035141D01*
X63857Y1034152D01*
X64995Y1033218D01*
X66178Y1032340D01*
X67403Y1031522D01*
X68666Y1030765D01*
X69965Y1030070D01*
X71297Y1029441D01*
X72658Y1028877D01*
X74044Y1028381D01*
X75454Y1027953D01*
X76883Y1027595D01*
X78327Y1027308D01*
X79784Y1027092D01*
X81250Y1026947D01*
X82721Y1026875D01*
X84194Y1026875D01*
X85665Y1026947D01*
X87131Y1027092D01*
X88588Y1027308D01*
X90033Y1027595D01*
X91461Y1027953D01*
X92871Y1028381D01*
X94258Y1028877D01*
X95619Y1029441D01*
X96950Y1030070D01*
X98249Y1030765D01*
X99512Y1031522D01*
X100737Y1032340D01*
X101920Y1033218D01*
X103059Y1034152D01*
X104150Y1035141D01*
X105192Y1036183D01*
X106181Y1037274D01*
X107115Y1038413D01*
X107993Y1039596D01*
X108811Y1040820D01*
X109568Y1042084D01*
X110263Y1043383D01*
X110892Y1044714D01*
X111456Y1046075D01*
X111952Y1047462D01*
X112380Y1048871D01*
X112738Y1050300D01*
X113025Y1051745D01*
X113241Y1053202D01*
X113385Y1054668D01*
X113458Y1056139D01*
X113458Y916439D02*
X113458Y917912D01*
X113385Y919383D01*
X113241Y920849D01*
X113025Y922306D01*
X112738Y923750D01*
X112380Y925179D01*
X111952Y926588D01*
X111456Y927975D01*
X110892Y929336D01*
X110263Y930668D01*
X109568Y931967D01*
X108811Y933230D01*
X107993Y934455D01*
X107115Y935638D01*
X106181Y936776D01*
X105192Y937868D01*
X104150Y938909D01*
X103059Y939898D01*
X101920Y940833D01*
X100737Y941710D01*
X99512Y942528D01*
X98249Y943286D01*
X96950Y943980D01*
X95619Y944610D01*
X94258Y945173D01*
X92871Y945670D01*
X91461Y946097D01*
X90033Y946455D01*
X88588Y946742D01*
X87131Y946959D01*
X85665Y947103D01*
X84194Y947175D01*
X82721Y947175D01*
X81250Y947103D01*
X79784Y946959D01*
X78327Y946742D01*
X76883Y946455D01*
X75454Y946097D01*
X74044Y945670D01*
X72658Y945173D01*
X71297Y944610D01*
X69965Y943980D01*
X68666Y943286D01*
X67403Y942528D01*
X66178Y941710D01*
X64995Y940833D01*
X63857Y939898D01*
X62765Y938909D01*
X61724Y937868D01*
X60735Y936776D01*
X59800Y935638D01*
X58923Y934455D01*
X58104Y933230D01*
X57347Y931967D01*
X56653Y930668D01*
X56023Y929336D01*
X55459Y927975D01*
X54963Y926588D01*
X54536Y925179D01*
X54178Y923750D01*
X53890Y922306D01*
X53674Y920849D01*
X53530Y919383D01*
X53458Y917912D01*
X53458Y916439D01*
X53530Y914968D01*
X53674Y913502D01*
X53890Y912045D01*
X54178Y910600D01*
X54536Y909171D01*
X54963Y907762D01*
X55459Y906375D01*
X56023Y905014D01*
X56653Y903683D01*
X57347Y902384D01*
X58104Y901120D01*
X58923Y899896D01*
X59800Y898713D01*
X60735Y897574D01*
X61724Y896483D01*
X62765Y895441D01*
X63857Y894452D01*
X64995Y893518D01*
X66178Y892640D01*
X67403Y891822D01*
X68666Y891065D01*
X69965Y890370D01*
X71297Y889741D01*
X72658Y889177D01*
X74044Y888681D01*
X75454Y888253D01*
X76883Y887895D01*
X78327Y887608D01*
X79784Y887392D01*
X81250Y887247D01*
X82721Y887175D01*
X84194Y887175D01*
X85665Y887247D01*
X87131Y887392D01*
X88588Y887608D01*
X90033Y887895D01*
X91461Y888253D01*
X92871Y888681D01*
X94258Y889177D01*
X95619Y889741D01*
X96950Y890370D01*
X98249Y891065D01*
X99512Y891822D01*
X100737Y892640D01*
X101920Y893518D01*
X103059Y894452D01*
X104150Y895441D01*
X105192Y896483D01*
X106181Y897574D01*
X107115Y898713D01*
X107993Y899896D01*
X108811Y901120D01*
X109568Y902384D01*
X110263Y903683D01*
X110892Y905014D01*
X111456Y906375D01*
X111952Y907762D01*
X112380Y909171D01*
X112738Y910600D01*
X113025Y912045D01*
X113241Y913502D01*
X113385Y914968D01*
X113458Y916439D01*
X113458Y573539D02*
X113458Y575012D01*
X113385Y576483D01*
X113241Y577949D01*
X113025Y579406D01*
X112738Y580850D01*
X112380Y582279D01*
X111952Y583688D01*
X111456Y585075D01*
X110892Y586436D01*
X110263Y587768D01*
X109568Y589067D01*
X108811Y590330D01*
X107993Y591555D01*
X107115Y592738D01*
X106181Y593876D01*
X105192Y594968D01*
X104150Y596009D01*
X103059Y596998D01*
X101920Y597933D01*
X100737Y598810D01*
X99512Y599628D01*
X98249Y600386D01*
X96950Y601080D01*
X95619Y601710D01*
X94258Y602273D01*
X92871Y602770D01*
X91461Y603197D01*
X90033Y603555D01*
X88588Y603842D01*
X87131Y604059D01*
X85665Y604203D01*
X84194Y604275D01*
X82721Y604275D01*
X81250Y604203D01*
X79784Y604059D01*
X78327Y603842D01*
X76883Y603555D01*
X75454Y603197D01*
X74044Y602770D01*
X72658Y602273D01*
X71297Y601710D01*
X69965Y601080D01*
X68666Y600386D01*
X67403Y599628D01*
X66178Y598810D01*
X64995Y597933D01*
X63857Y596998D01*
X62765Y596009D01*
X61724Y594968D01*
X60735Y593876D01*
X59800Y592738D01*
X58923Y591555D01*
X58104Y590330D01*
X57347Y589067D01*
X56653Y587768D01*
X56023Y586436D01*
X55459Y585075D01*
X54963Y583688D01*
X54536Y582279D01*
X54178Y580850D01*
X53890Y579406D01*
X53674Y577949D01*
X53530Y576483D01*
X53458Y575012D01*
X53458Y573539D01*
X53530Y572068D01*
X53674Y570602D01*
X53890Y569145D01*
X54178Y567700D01*
X54536Y566271D01*
X54963Y564862D01*
X55459Y563475D01*
X56023Y562114D01*
X56653Y560783D01*
X57347Y559484D01*
X58104Y558220D01*
X58923Y556996D01*
X59800Y555813D01*
X60735Y554674D01*
X61724Y553583D01*
X62765Y552541D01*
X63857Y551552D01*
X64995Y550618D01*
X66178Y549740D01*
X67403Y548922D01*
X68666Y548165D01*
X69965Y547470D01*
X71297Y546841D01*
X72658Y546277D01*
X74044Y545781D01*
X75454Y545353D01*
X76883Y544995D01*
X78327Y544708D01*
X79784Y544492D01*
X81250Y544347D01*
X82721Y544275D01*
X84194Y544275D01*
X85665Y544347D01*
X87131Y544492D01*
X88588Y544708D01*
X90033Y544995D01*
X91461Y545353D01*
X92871Y545781D01*
X94258Y546277D01*
X95619Y546841D01*
X96950Y547470D01*
X98249Y548165D01*
X99512Y548922D01*
X100737Y549740D01*
X101920Y550618D01*
X103059Y551552D01*
X104150Y552541D01*
X105192Y553583D01*
X106181Y554674D01*
X107115Y555813D01*
X107993Y556996D01*
X108811Y558220D01*
X109568Y559484D01*
X110263Y560783D01*
X110892Y562114D01*
X111456Y563475D01*
X111952Y564862D01*
X112380Y566271D01*
X112738Y567700D01*
X113025Y569145D01*
X113241Y570602D01*
X113385Y572068D01*
X113458Y573539D01*
X113458Y433839D02*
X113458Y435312D01*
X113385Y436783D01*
X113241Y438249D01*
X113025Y439706D01*
X112738Y441150D01*
X112380Y442579D01*
X111952Y443988D01*
X111456Y445375D01*
X110892Y446736D01*
X110263Y448068D01*
X109568Y449367D01*
X108811Y450630D01*
X107993Y451855D01*
X107115Y453038D01*
X106181Y454176D01*
X105192Y455268D01*
X104150Y456309D01*
X103059Y457298D01*
X101920Y458233D01*
X100737Y459110D01*
X99512Y459928D01*
X98249Y460686D01*
X96950Y461380D01*
X95619Y462010D01*
X94258Y462573D01*
X92871Y463070D01*
X91461Y463497D01*
X90033Y463855D01*
X88588Y464142D01*
X87131Y464359D01*
X85665Y464503D01*
X84194Y464575D01*
X82721Y464575D01*
X81250Y464503D01*
X79784Y464359D01*
X78327Y464142D01*
X76883Y463855D01*
X75454Y463497D01*
X74044Y463070D01*
X72658Y462573D01*
X71297Y462010D01*
X69965Y461380D01*
X68666Y460686D01*
X67403Y459928D01*
X66178Y459110D01*
X64995Y458233D01*
X63857Y457298D01*
X62765Y456309D01*
X61724Y455268D01*
X60735Y454176D01*
X59800Y453038D01*
X58923Y451855D01*
X58104Y450630D01*
X57347Y449367D01*
X56653Y448068D01*
X56023Y446736D01*
X55459Y445375D01*
X54963Y443988D01*
X54536Y442579D01*
X54178Y441150D01*
X53890Y439706D01*
X53674Y438249D01*
X53530Y436783D01*
X53458Y435312D01*
X53458Y433839D01*
X53530Y432368D01*
X53674Y430902D01*
X53890Y429445D01*
X54178Y428000D01*
X54536Y426571D01*
X54963Y425162D01*
X55459Y423775D01*
X56023Y422414D01*
X56653Y421083D01*
X57347Y419784D01*
X58104Y418520D01*
X58923Y417296D01*
X59800Y416113D01*
X60735Y414974D01*
X61724Y413883D01*
X62765Y412841D01*
X63857Y411852D01*
X64995Y410918D01*
X66178Y410040D01*
X67403Y409222D01*
X68666Y408465D01*
X69965Y407770D01*
X71297Y407141D01*
X72658Y406577D01*
X74044Y406081D01*
X75454Y405653D01*
X76883Y405295D01*
X78327Y405008D01*
X79784Y404792D01*
X81250Y404647D01*
X82721Y404575D01*
X84194Y404575D01*
X85665Y404647D01*
X87131Y404792D01*
X88588Y405008D01*
X90033Y405295D01*
X91461Y405653D01*
X92871Y406081D01*
X94258Y406577D01*
X95619Y407141D01*
X96950Y407770D01*
X98249Y408465D01*
X99512Y409222D01*
X100737Y410040D01*
X101920Y410918D01*
X103059Y411852D01*
X104150Y412841D01*
X105192Y413883D01*
X106181Y414974D01*
X107115Y416113D01*
X107993Y417296D01*
X108811Y418520D01*
X109568Y419784D01*
X110263Y421083D01*
X110892Y422414D01*
X111456Y423775D01*
X111952Y425162D01*
X112380Y426571D01*
X112738Y428000D01*
X113025Y429445D01*
X113241Y430902D01*
X113385Y432368D01*
X113458Y433839D01*
X113458Y294139D02*
X113458Y295612D01*
X113385Y297083D01*
X113241Y298549D01*
X113025Y300006D01*
X112738Y301450D01*
X112380Y302879D01*
X111952Y304288D01*
X111456Y305675D01*
X110892Y307036D01*
X110263Y308368D01*
X109568Y309667D01*
X108811Y310930D01*
X107993Y312155D01*
X107115Y313338D01*
X106181Y314476D01*
X105192Y315568D01*
X104150Y316609D01*
X103059Y317598D01*
X101920Y318533D01*
X100737Y319410D01*
X99512Y320228D01*
X98249Y320986D01*
X96950Y321680D01*
X95619Y322310D01*
X94258Y322873D01*
X92871Y323370D01*
X91461Y323797D01*
X90033Y324155D01*
X88588Y324442D01*
X87131Y324659D01*
X85665Y324803D01*
X84194Y324875D01*
X82721Y324875D01*
X81250Y324803D01*
X79784Y324659D01*
X78327Y324442D01*
X76883Y324155D01*
X75454Y323797D01*
X74044Y323370D01*
X72658Y322873D01*
X71297Y322310D01*
X69965Y321680D01*
X68666Y320986D01*
X67403Y320228D01*
X66178Y319410D01*
X64995Y318533D01*
X63857Y317598D01*
X62765Y316609D01*
X61724Y315568D01*
X60735Y314476D01*
X59800Y313338D01*
X58923Y312155D01*
X58104Y310930D01*
X57347Y309667D01*
X56653Y308368D01*
X56023Y307036D01*
X55459Y305675D01*
X54963Y304288D01*
X54536Y302879D01*
X54178Y301450D01*
X53890Y300006D01*
X53674Y298549D01*
X53530Y297083D01*
X53458Y295612D01*
X53458Y294139D01*
X53530Y292668D01*
X53674Y291202D01*
X53890Y289745D01*
X54178Y288300D01*
X54536Y286871D01*
X54963Y285462D01*
X55459Y284075D01*
X56023Y282714D01*
X56653Y281383D01*
X57347Y280084D01*
X58104Y278820D01*
X58923Y277596D01*
X59800Y276413D01*
X60735Y275274D01*
X61724Y274183D01*
X62765Y273141D01*
X63857Y272152D01*
X64995Y271218D01*
X66178Y270340D01*
X67403Y269522D01*
X68666Y268765D01*
X69965Y268070D01*
X71297Y267441D01*
X72658Y266877D01*
X74044Y266381D01*
X75454Y265953D01*
X76883Y265595D01*
X78327Y265308D01*
X79784Y265092D01*
X81250Y264947D01*
X82721Y264875D01*
X84194Y264875D01*
X85665Y264947D01*
X87131Y265092D01*
X88588Y265308D01*
X90033Y265595D01*
X91461Y265953D01*
X92871Y266381D01*
X94258Y266877D01*
X95619Y267441D01*
X96950Y268070D01*
X98249Y268765D01*
X99512Y269522D01*
X100737Y270340D01*
X101920Y271218D01*
X103059Y272152D01*
X104150Y273141D01*
X105192Y274183D01*
X106181Y275274D01*
X107115Y276413D01*
X107993Y277596D01*
X108811Y278820D01*
X109568Y280084D01*
X110263Y281383D01*
X110892Y282714D01*
X111456Y284075D01*
X111952Y285462D01*
X112380Y286871D01*
X112738Y288300D01*
X113025Y289745D01*
X113241Y291202D01*
X113385Y292668D01*
X113458Y294139D01*
X354758Y294139D02*
X354758Y295612D01*
X354685Y297083D01*
X354541Y298549D01*
X354325Y300006D01*
X354038Y301450D01*
X353680Y302879D01*
X353252Y304288D01*
X352756Y305675D01*
X352192Y307036D01*
X351563Y308368D01*
X350868Y309667D01*
X350111Y310930D01*
X349293Y312155D01*
X348415Y313338D01*
X347481Y314476D01*
X346492Y315568D01*
X345450Y316609D01*
X344359Y317598D01*
X343220Y318533D01*
X342037Y319410D01*
X340812Y320228D01*
X339549Y320986D01*
X338250Y321680D01*
X336919Y322310D01*
X335558Y322873D01*
X334171Y323370D01*
X332761Y323797D01*
X331333Y324155D01*
X329888Y324442D01*
X328431Y324659D01*
X326965Y324803D01*
X325494Y324875D01*
X324021Y324875D01*
X322550Y324803D01*
X321084Y324659D01*
X319627Y324442D01*
X318183Y324155D01*
X316754Y323797D01*
X315344Y323370D01*
X313958Y322873D01*
X312597Y322310D01*
X311265Y321680D01*
X309966Y320986D01*
X308703Y320228D01*
X307478Y319410D01*
X306295Y318533D01*
X305157Y317598D01*
X304065Y316609D01*
X303024Y315568D01*
X302035Y314476D01*
X301100Y313338D01*
X300223Y312155D01*
X299404Y310930D01*
X298647Y309667D01*
X297953Y308368D01*
X297323Y307036D01*
X296759Y305675D01*
X296263Y304288D01*
X295836Y302879D01*
X295478Y301450D01*
X295190Y300006D01*
X294974Y298549D01*
X294830Y297083D01*
X294758Y295612D01*
X294758Y294139D01*
X294830Y292668D01*
X294974Y291202D01*
X295190Y289745D01*
X295478Y288300D01*
X295836Y286871D01*
X296263Y285462D01*
X296759Y284075D01*
X297323Y282714D01*
X297953Y281383D01*
X298647Y280084D01*
X299404Y278820D01*
X300223Y277596D01*
X301100Y276413D01*
X302035Y275274D01*
X303024Y274183D01*
X304065Y273141D01*
X305157Y272152D01*
X306295Y271218D01*
X307478Y270340D01*
X308703Y269522D01*
X309966Y268765D01*
X311265Y268070D01*
X312597Y267441D01*
X313958Y266877D01*
X315344Y266381D01*
X316754Y265953D01*
X318183Y265595D01*
X319627Y265308D01*
X321084Y265092D01*
X322550Y264947D01*
X324021Y264875D01*
X325494Y264875D01*
X326965Y264947D01*
X328431Y265092D01*
X329888Y265308D01*
X331333Y265595D01*
X332761Y265953D01*
X334171Y266381D01*
X335558Y266877D01*
X336919Y267441D01*
X338250Y268070D01*
X339549Y268765D01*
X340812Y269522D01*
X342037Y270340D01*
X343220Y271218D01*
X344359Y272152D01*
X345450Y273141D01*
X346492Y274183D01*
X347481Y275274D01*
X348415Y276413D01*
X349293Y277596D01*
X350111Y278820D01*
X350868Y280084D01*
X351563Y281383D01*
X352192Y282714D01*
X352756Y284075D01*
X353252Y285462D01*
X353680Y286871D01*
X354038Y288300D01*
X354325Y289745D01*
X354541Y291202D01*
X354685Y292668D01*
X354758Y294139D01*
X354758Y433839D02*
X354758Y435312D01*
X354685Y436783D01*
X354541Y438249D01*
X354325Y439706D01*
X354038Y441150D01*
X353680Y442579D01*
X353252Y443988D01*
X352756Y445375D01*
X352192Y446736D01*
X351563Y448068D01*
X350868Y449367D01*
X350111Y450630D01*
X349293Y451855D01*
X348415Y453038D01*
X347481Y454176D01*
X346492Y455268D01*
X345450Y456309D01*
X344359Y457298D01*
X343220Y458233D01*
X342037Y459110D01*
X340812Y459928D01*
X339549Y460686D01*
X338250Y461380D01*
X336919Y462010D01*
X335558Y462573D01*
X334171Y463070D01*
X332761Y463497D01*
X331333Y463855D01*
X329888Y464142D01*
X328431Y464359D01*
X326965Y464503D01*
X325494Y464575D01*
X324021Y464575D01*
X322550Y464503D01*
X321084Y464359D01*
X319627Y464142D01*
X318183Y463855D01*
X316754Y463497D01*
X315344Y463070D01*
X313958Y462573D01*
X312597Y462010D01*
X311265Y461380D01*
X309966Y460686D01*
X308703Y459928D01*
X307478Y459110D01*
X306295Y458233D01*
X305157Y457298D01*
X304065Y456309D01*
X303024Y455268D01*
X302035Y454176D01*
X301100Y453038D01*
X300223Y451855D01*
X299404Y450630D01*
X298647Y449367D01*
X297953Y448068D01*
X297323Y446736D01*
X296759Y445375D01*
X296263Y443988D01*
X295836Y442579D01*
X295478Y441150D01*
X295190Y439706D01*
X294974Y438249D01*
X294830Y436783D01*
X294758Y435312D01*
X294758Y433839D01*
X294830Y432368D01*
X294974Y430902D01*
X295190Y429445D01*
X295478Y428000D01*
X295836Y426571D01*
X296263Y425162D01*
X296759Y423775D01*
X297323Y422414D01*
X297953Y421083D01*
X298647Y419784D01*
X299404Y418520D01*
X300223Y417296D01*
X301100Y416113D01*
X302035Y414974D01*
X303024Y413883D01*
X304065Y412841D01*
X305157Y411852D01*
X306295Y410918D01*
X307478Y410040D01*
X308703Y409222D01*
X309966Y408465D01*
X311265Y407770D01*
X312597Y407141D01*
X313958Y406577D01*
X315344Y406081D01*
X316754Y405653D01*
X318183Y405295D01*
X319627Y405008D01*
X321084Y404792D01*
X322550Y404647D01*
X324021Y404575D01*
X325494Y404575D01*
X326965Y404647D01*
X328431Y404792D01*
X329888Y405008D01*
X331333Y405295D01*
X332761Y405653D01*
X334171Y406081D01*
X335558Y406577D01*
X336919Y407141D01*
X338250Y407770D01*
X339549Y408465D01*
X340812Y409222D01*
X342037Y410040D01*
X343220Y410918D01*
X344359Y411852D01*
X345450Y412841D01*
X346492Y413883D01*
X347481Y414974D01*
X348415Y416113D01*
X349293Y417296D01*
X350111Y418520D01*
X350868Y419784D01*
X351563Y421083D01*
X352192Y422414D01*
X352756Y423775D01*
X353252Y425162D01*
X353680Y426571D01*
X354038Y428000D01*
X354325Y429445D01*
X354541Y430902D01*
X354685Y432368D01*
X354758Y433839D01*
X354758Y573539D02*
X354758Y575012D01*
X354685Y576483D01*
X354541Y577949D01*
X354325Y579406D01*
X354038Y580850D01*
X353680Y582279D01*
X353252Y583688D01*
X352756Y585075D01*
X352192Y586436D01*
X351563Y587768D01*
X350868Y589067D01*
X350111Y590330D01*
X349293Y591555D01*
X348415Y592738D01*
X347481Y593876D01*
X346492Y594968D01*
X345450Y596009D01*
X344359Y596998D01*
X343220Y597933D01*
X342037Y598810D01*
X340812Y599628D01*
X339549Y600386D01*
X338250Y601080D01*
X336919Y601710D01*
X335558Y602273D01*
X334171Y602770D01*
X332761Y603197D01*
X331333Y603555D01*
X329888Y603842D01*
X328431Y604059D01*
X326965Y604203D01*
X325494Y604275D01*
X324021Y604275D01*
X322550Y604203D01*
X321084Y604059D01*
X319627Y603842D01*
X318183Y603555D01*
X316754Y603197D01*
X315344Y602770D01*
X313958Y602273D01*
X312597Y601710D01*
X311265Y601080D01*
X309966Y600386D01*
X308703Y599628D01*
X307478Y598810D01*
X306295Y597933D01*
X305157Y596998D01*
X304065Y596009D01*
X303024Y594968D01*
X302035Y593876D01*
X301100Y592738D01*
X300223Y591555D01*
X299404Y590330D01*
X298647Y589067D01*
X297953Y587768D01*
X297323Y586436D01*
X296759Y585075D01*
X296263Y583688D01*
X295836Y582279D01*
X295478Y580850D01*
X295190Y579406D01*
X294974Y577949D01*
X294830Y576483D01*
X294758Y575012D01*
X294758Y573539D01*
X294830Y572068D01*
X294974Y570602D01*
X295190Y569145D01*
X295478Y567700D01*
X295836Y566271D01*
X296263Y564862D01*
X296759Y563475D01*
X297323Y562114D01*
X297953Y560783D01*
X298647Y559484D01*
X299404Y558220D01*
X300223Y556996D01*
X301100Y555813D01*
X302035Y554674D01*
X303024Y553583D01*
X304065Y552541D01*
X305157Y551552D01*
X306295Y550618D01*
X307478Y549740D01*
X308703Y548922D01*
X309966Y548165D01*
X311265Y547470D01*
X312597Y546841D01*
X313958Y546277D01*
X315344Y545781D01*
X316754Y545353D01*
X318183Y544995D01*
X319627Y544708D01*
X321084Y544492D01*
X322550Y544347D01*
X324021Y544275D01*
X325494Y544275D01*
X326965Y544347D01*
X328431Y544492D01*
X329888Y544708D01*
X331333Y544995D01*
X332761Y545353D01*
X334171Y545781D01*
X335558Y546277D01*
X336919Y546841D01*
X338250Y547470D01*
X339549Y548165D01*
X340812Y548922D01*
X342037Y549740D01*
X343220Y550618D01*
X344359Y551552D01*
X345450Y552541D01*
X346492Y553583D01*
X347481Y554674D01*
X348415Y555813D01*
X349293Y556996D01*
X350111Y558220D01*
X350868Y559484D01*
X351563Y560783D01*
X352192Y562114D01*
X352756Y563475D01*
X353252Y564862D01*
X353680Y566271D01*
X354038Y567700D01*
X354325Y569145D01*
X354541Y570602D01*
X354685Y572068D01*
X354758Y573539D01*
X354758Y916439D02*
X354758Y917912D01*
X354685Y919383D01*
X354541Y920849D01*
X354325Y922306D01*
X354038Y923750D01*
X353680Y925179D01*
X353252Y926588D01*
X352756Y927975D01*
X352192Y929336D01*
X351563Y930668D01*
X350868Y931967D01*
X350111Y933230D01*
X349293Y934455D01*
X348415Y935638D01*
X347481Y936776D01*
X346492Y937868D01*
X345450Y938909D01*
X344359Y939898D01*
X343220Y940833D01*
X342037Y941710D01*
X340812Y942528D01*
X339549Y943286D01*
X338250Y943980D01*
X336919Y944610D01*
X335558Y945173D01*
X334171Y945670D01*
X332761Y946097D01*
X331333Y946455D01*
X329888Y946742D01*
X328431Y946959D01*
X326965Y947103D01*
X325494Y947175D01*
X324021Y947175D01*
X322550Y947103D01*
X321084Y946959D01*
X319627Y946742D01*
X318183Y946455D01*
X316754Y946097D01*
X315344Y945670D01*
X313958Y945173D01*
X312597Y944610D01*
X311265Y943980D01*
X309966Y943286D01*
X308703Y942528D01*
X307478Y941710D01*
X306295Y940833D01*
X305157Y939898D01*
X304065Y938909D01*
X303024Y937868D01*
X302035Y936776D01*
X301100Y935638D01*
X300223Y934455D01*
X299404Y933230D01*
X298647Y931967D01*
X297953Y930668D01*
X297323Y929336D01*
X296759Y927975D01*
X296263Y926588D01*
X295836Y925179D01*
X295478Y923750D01*
X295190Y922306D01*
X294974Y920849D01*
X294830Y919383D01*
X294758Y917912D01*
X294758Y916439D01*
X294830Y914968D01*
X294974Y913502D01*
X295190Y912045D01*
X295478Y910600D01*
X295836Y909171D01*
X296263Y907762D01*
X296759Y906375D01*
X297323Y905014D01*
X297953Y903683D01*
X298647Y902384D01*
X299404Y901120D01*
X300223Y899896D01*
X301100Y898713D01*
X302035Y897574D01*
X303024Y896483D01*
X304065Y895441D01*
X305157Y894452D01*
X306295Y893518D01*
X307478Y892640D01*
X308703Y891822D01*
X309966Y891065D01*
X311265Y890370D01*
X312597Y889741D01*
X313958Y889177D01*
X315344Y888681D01*
X316754Y888253D01*
X318183Y887895D01*
X319627Y887608D01*
X321084Y887392D01*
X322550Y887247D01*
X324021Y887175D01*
X325494Y887175D01*
X326965Y887247D01*
X328431Y887392D01*
X329888Y887608D01*
X331333Y887895D01*
X332761Y888253D01*
X334171Y888681D01*
X335558Y889177D01*
X336919Y889741D01*
X338250Y890370D01*
X339549Y891065D01*
X340812Y891822D01*
X342037Y892640D01*
X343220Y893518D01*
X344359Y894452D01*
X345450Y895441D01*
X346492Y896483D01*
X347481Y897574D01*
X348415Y898713D01*
X349293Y899896D01*
X350111Y901120D01*
X350868Y902384D01*
X351563Y903683D01*
X352192Y905014D01*
X352756Y906375D01*
X353252Y907762D01*
X353680Y909171D01*
X354038Y910600D01*
X354325Y912045D01*
X354541Y913502D01*
X354685Y914968D01*
X354758Y916439D01*
X354758Y1056139D02*
X354758Y1057612D01*
X354685Y1059083D01*
X354541Y1060549D01*
X354325Y1062006D01*
X354038Y1063450D01*
X353680Y1064879D01*
X353252Y1066288D01*
X352756Y1067675D01*
X352192Y1069036D01*
X351563Y1070368D01*
X350868Y1071667D01*
X350111Y1072930D01*
X349293Y1074155D01*
X348415Y1075338D01*
X347481Y1076476D01*
X346492Y1077568D01*
X345450Y1078609D01*
X344359Y1079598D01*
X343220Y1080533D01*
X342037Y1081410D01*
X340812Y1082228D01*
X339549Y1082986D01*
X338250Y1083680D01*
X336919Y1084310D01*
X335558Y1084873D01*
X334171Y1085370D01*
X332761Y1085797D01*
X331333Y1086155D01*
X329888Y1086442D01*
X328431Y1086659D01*
X326965Y1086803D01*
X325494Y1086875D01*
X324021Y1086875D01*
X322550Y1086803D01*
X321084Y1086659D01*
X319627Y1086442D01*
X318183Y1086155D01*
X316754Y1085797D01*
X315344Y1085370D01*
X313958Y1084873D01*
X312597Y1084310D01*
X311265Y1083680D01*
X309966Y1082986D01*
X308703Y1082228D01*
X307478Y1081410D01*
X306295Y1080533D01*
X305157Y1079598D01*
X304065Y1078609D01*
X303024Y1077568D01*
X302035Y1076476D01*
X301100Y1075338D01*
X300223Y1074155D01*
X299404Y1072930D01*
X298647Y1071667D01*
X297953Y1070368D01*
X297323Y1069036D01*
X296759Y1067675D01*
X296263Y1066288D01*
X295836Y1064879D01*
X295478Y1063450D01*
X295190Y1062006D01*
X294974Y1060549D01*
X294830Y1059083D01*
X294758Y1057612D01*
X294758Y1056139D01*
X294830Y1054668D01*
X294974Y1053202D01*
X295190Y1051745D01*
X295478Y1050300D01*
X295836Y1048871D01*
X296263Y1047462D01*
X296759Y1046075D01*
X297323Y1044714D01*
X297953Y1043383D01*
X298647Y1042084D01*
X299404Y1040820D01*
X300223Y1039596D01*
X301100Y1038413D01*
X302035Y1037274D01*
X303024Y1036183D01*
X304065Y1035141D01*
X305157Y1034152D01*
X306295Y1033218D01*
X307478Y1032340D01*
X308703Y1031522D01*
X309966Y1030765D01*
X311265Y1030070D01*
X312597Y1029441D01*
X313958Y1028877D01*
X315344Y1028381D01*
X316754Y1027953D01*
X318183Y1027595D01*
X319627Y1027308D01*
X321084Y1027092D01*
X322550Y1026947D01*
X324021Y1026875D01*
X325494Y1026875D01*
X326965Y1026947D01*
X328431Y1027092D01*
X329888Y1027308D01*
X331333Y1027595D01*
X332761Y1027953D01*
X334171Y1028381D01*
X335558Y1028877D01*
X336919Y1029441D01*
X338250Y1030070D01*
X339549Y1030765D01*
X340812Y1031522D01*
X342037Y1032340D01*
X343220Y1033218D01*
X344359Y1034152D01*
X345450Y1035141D01*
X346492Y1036183D01*
X347481Y1037274D01*
X348415Y1038413D01*
X349293Y1039596D01*
X350111Y1040820D01*
X350868Y1042084D01*
X351563Y1043383D01*
X352192Y1044714D01*
X352756Y1046075D01*
X353252Y1047462D01*
X353680Y1048871D01*
X354038Y1050300D01*
X354325Y1051745D01*
X354541Y1053202D01*
X354685Y1054668D01*
X354758Y1056139D01*
X176658Y294319D02*
X176658Y295432D01*
X176585Y296542D01*
X176440Y297646D01*
X176222Y298738D01*
X175934Y299813D01*
X175577Y300867D01*
X175151Y301895D01*
X174658Y302893D01*
X174102Y303857D01*
X173483Y304783D01*
X172806Y305666D01*
X172072Y306502D01*
X171285Y307290D01*
X170448Y308023D01*
X169565Y308701D01*
X168640Y309319D01*
X167676Y309876D01*
X166677Y310368D01*
X165649Y310794D01*
X164595Y311152D01*
X163520Y311440D01*
X162428Y311657D01*
X161325Y311802D01*
X160214Y311875D01*
X159101Y311875D01*
X157991Y311802D01*
X156887Y311657D01*
X155795Y311440D01*
X154720Y311152D01*
X153666Y310794D01*
X152638Y310368D01*
X151640Y309876D01*
X150676Y309319D01*
X149750Y308701D01*
X148867Y308023D01*
X148030Y307290D01*
X147243Y306502D01*
X146509Y305666D01*
X145832Y304783D01*
X145214Y303857D01*
X144657Y302893D01*
X144165Y301895D01*
X143739Y300867D01*
X143381Y299813D01*
X143093Y298738D01*
X142876Y297646D01*
X142730Y296542D01*
X142658Y295432D01*
X142658Y294319D01*
X142730Y293208D01*
X142876Y292104D01*
X143093Y291013D01*
X143381Y289938D01*
X143739Y288884D01*
X144165Y287855D01*
X144657Y286857D01*
X145214Y285893D01*
X145832Y284968D01*
X146509Y284085D01*
X147243Y283248D01*
X148030Y282461D01*
X148867Y281727D01*
X149750Y281049D01*
X150676Y280431D01*
X151640Y279875D01*
X152638Y279382D01*
X153666Y278956D01*
X154720Y278599D01*
X155795Y278310D01*
X156887Y278093D01*
X157991Y277948D01*
X159101Y277875D01*
X160214Y277875D01*
X161325Y277948D01*
X162428Y278093D01*
X163520Y278310D01*
X164595Y278599D01*
X165649Y278956D01*
X166677Y279382D01*
X167676Y279875D01*
X168640Y280431D01*
X169565Y281049D01*
X170448Y281727D01*
X171285Y282461D01*
X172072Y283248D01*
X172806Y284085D01*
X173483Y284968D01*
X174102Y285893D01*
X174658Y286857D01*
X175151Y287855D01*
X175577Y288884D01*
X175934Y289938D01*
X176222Y291013D01*
X176440Y292104D01*
X176585Y293208D01*
X176658Y294319D01*
X265558Y294319D02*
X265558Y295432D01*
X265485Y296542D01*
X265340Y297646D01*
X265122Y298738D01*
X264834Y299813D01*
X264477Y300867D01*
X264051Y301895D01*
X263558Y302893D01*
X263002Y303857D01*
X262383Y304783D01*
X261706Y305666D01*
X260972Y306502D01*
X260185Y307290D01*
X259348Y308023D01*
X258465Y308701D01*
X257540Y309319D01*
X256576Y309876D01*
X255577Y310368D01*
X254549Y310794D01*
X253495Y311152D01*
X252420Y311440D01*
X251328Y311657D01*
X250225Y311802D01*
X249114Y311875D01*
X248001Y311875D01*
X246891Y311802D01*
X245787Y311657D01*
X244695Y311440D01*
X243620Y311152D01*
X242566Y310794D01*
X241538Y310368D01*
X240540Y309876D01*
X239576Y309319D01*
X238650Y308701D01*
X237767Y308023D01*
X236930Y307290D01*
X236143Y306502D01*
X235409Y305666D01*
X234732Y304783D01*
X234114Y303857D01*
X233557Y302893D01*
X233065Y301895D01*
X232639Y300867D01*
X232281Y299813D01*
X231993Y298738D01*
X231776Y297646D01*
X231630Y296542D01*
X231558Y295432D01*
X231558Y294319D01*
X231630Y293208D01*
X231776Y292104D01*
X231993Y291013D01*
X232281Y289938D01*
X232639Y288884D01*
X233065Y287855D01*
X233557Y286857D01*
X234114Y285893D01*
X234732Y284968D01*
X235409Y284085D01*
X236143Y283248D01*
X236930Y282461D01*
X237767Y281727D01*
X238650Y281049D01*
X239576Y280431D01*
X240540Y279875D01*
X241538Y279382D01*
X242566Y278956D01*
X243620Y278599D01*
X244695Y278310D01*
X245787Y278093D01*
X246891Y277948D01*
X248001Y277875D01*
X249114Y277875D01*
X250225Y277948D01*
X251328Y278093D01*
X252420Y278310D01*
X253495Y278599D01*
X254549Y278956D01*
X255577Y279382D01*
X256576Y279875D01*
X257540Y280431D01*
X258465Y281049D01*
X259348Y281727D01*
X260185Y282461D01*
X260972Y283248D01*
X261706Y284085D01*
X262383Y284968D01*
X263002Y285893D01*
X263558Y286857D01*
X264051Y287855D01*
X264477Y288884D01*
X264834Y289938D01*
X265122Y291013D01*
X265340Y292104D01*
X265485Y293208D01*
X265558Y294319D01*
X176658Y434019D02*
X176658Y435132D01*
X176585Y436242D01*
X176440Y437346D01*
X176222Y438438D01*
X175934Y439513D01*
X175577Y440567D01*
X175151Y441595D01*
X174658Y442593D01*
X174102Y443557D01*
X173483Y444483D01*
X172806Y445366D01*
X172072Y446202D01*
X171285Y446990D01*
X170448Y447723D01*
X169565Y448401D01*
X168640Y449019D01*
X167676Y449576D01*
X166677Y450068D01*
X165649Y450494D01*
X164595Y450852D01*
X163520Y451140D01*
X162428Y451357D01*
X161325Y451502D01*
X160214Y451575D01*
X159101Y451575D01*
X157991Y451502D01*
X156887Y451357D01*
X155795Y451140D01*
X154720Y450852D01*
X153666Y450494D01*
X152638Y450068D01*
X151640Y449576D01*
X150676Y449019D01*
X149750Y448401D01*
X148867Y447723D01*
X148030Y446990D01*
X147243Y446202D01*
X146509Y445366D01*
X145832Y444483D01*
X145214Y443557D01*
X144657Y442593D01*
X144165Y441595D01*
X143739Y440567D01*
X143381Y439513D01*
X143093Y438438D01*
X142876Y437346D01*
X142730Y436242D01*
X142658Y435132D01*
X142658Y434019D01*
X142730Y432908D01*
X142876Y431804D01*
X143093Y430713D01*
X143381Y429638D01*
X143739Y428584D01*
X144165Y427555D01*
X144657Y426557D01*
X145214Y425593D01*
X145832Y424668D01*
X146509Y423785D01*
X147243Y422948D01*
X148030Y422161D01*
X148867Y421427D01*
X149750Y420749D01*
X150676Y420131D01*
X151640Y419575D01*
X152638Y419082D01*
X153666Y418656D01*
X154720Y418299D01*
X155795Y418010D01*
X156887Y417793D01*
X157991Y417648D01*
X159101Y417575D01*
X160214Y417575D01*
X161325Y417648D01*
X162428Y417793D01*
X163520Y418010D01*
X164595Y418299D01*
X165649Y418656D01*
X166677Y419082D01*
X167676Y419575D01*
X168640Y420131D01*
X169565Y420749D01*
X170448Y421427D01*
X171285Y422161D01*
X172072Y422948D01*
X172806Y423785D01*
X173483Y424668D01*
X174102Y425593D01*
X174658Y426557D01*
X175151Y427555D01*
X175577Y428584D01*
X175934Y429638D01*
X176222Y430713D01*
X176440Y431804D01*
X176585Y432908D01*
X176658Y434019D01*
X265558Y434019D02*
X265558Y435132D01*
X265485Y436242D01*
X265340Y437346D01*
X265122Y438438D01*
X264834Y439513D01*
X264477Y440567D01*
X264051Y441595D01*
X263558Y442593D01*
X263002Y443557D01*
X262383Y444483D01*
X261706Y445366D01*
X260972Y446202D01*
X260185Y446990D01*
X259348Y447723D01*
X258465Y448401D01*
X257540Y449019D01*
X256576Y449576D01*
X255577Y450068D01*
X254549Y450494D01*
X253495Y450852D01*
X252420Y451140D01*
X251328Y451357D01*
X250225Y451502D01*
X249114Y451575D01*
X248001Y451575D01*
X246891Y451502D01*
X245787Y451357D01*
X244695Y451140D01*
X243620Y450852D01*
X242566Y450494D01*
X241538Y450068D01*
X240540Y449576D01*
X239576Y449019D01*
X238650Y448401D01*
X237767Y447723D01*
X236930Y446990D01*
X236143Y446202D01*
X235409Y445366D01*
X234732Y444483D01*
X234114Y443557D01*
X233557Y442593D01*
X233065Y441595D01*
X232639Y440567D01*
X232281Y439513D01*
X231993Y438438D01*
X231776Y437346D01*
X231630Y436242D01*
X231558Y435132D01*
X231558Y434019D01*
X231630Y432908D01*
X231776Y431804D01*
X231993Y430713D01*
X232281Y429638D01*
X232639Y428584D01*
X233065Y427555D01*
X233557Y426557D01*
X234114Y425593D01*
X234732Y424668D01*
X235409Y423785D01*
X236143Y422948D01*
X236930Y422161D01*
X237767Y421427D01*
X238650Y420749D01*
X239576Y420131D01*
X240540Y419575D01*
X241538Y419082D01*
X242566Y418656D01*
X243620Y418299D01*
X244695Y418010D01*
X245787Y417793D01*
X246891Y417648D01*
X248001Y417575D01*
X249114Y417575D01*
X250225Y417648D01*
X251328Y417793D01*
X252420Y418010D01*
X253495Y418299D01*
X254549Y418656D01*
X255577Y419082D01*
X256576Y419575D01*
X257540Y420131D01*
X258465Y420749D01*
X259348Y421427D01*
X260185Y422161D01*
X260972Y422948D01*
X261706Y423785D01*
X262383Y424668D01*
X263002Y425593D01*
X263558Y426557D01*
X264051Y427555D01*
X264477Y428584D01*
X264834Y429638D01*
X265122Y430713D01*
X265340Y431804D01*
X265485Y432908D01*
X265558Y434019D01*
X176658Y573719D02*
X176658Y574832D01*
X176585Y575942D01*
X176440Y577046D01*
X176222Y578138D01*
X175934Y579213D01*
X175577Y580267D01*
X175151Y581295D01*
X174658Y582293D01*
X174102Y583257D01*
X173483Y584183D01*
X172806Y585066D01*
X172072Y585902D01*
X171285Y586690D01*
X170448Y587423D01*
X169565Y588101D01*
X168640Y588719D01*
X167676Y589276D01*
X166677Y589768D01*
X165649Y590194D01*
X164595Y590552D01*
X163520Y590840D01*
X162428Y591057D01*
X161325Y591202D01*
X160214Y591275D01*
X159101Y591275D01*
X157991Y591202D01*
X156887Y591057D01*
X155795Y590840D01*
X154720Y590552D01*
X153666Y590194D01*
X152638Y589768D01*
X151640Y589276D01*
X150676Y588719D01*
X149750Y588101D01*
X148867Y587423D01*
X148030Y586690D01*
X147243Y585902D01*
X146509Y585066D01*
X145832Y584183D01*
X145214Y583257D01*
X144657Y582293D01*
X144165Y581295D01*
X143739Y580267D01*
X143381Y579213D01*
X143093Y578138D01*
X142876Y577046D01*
X142730Y575942D01*
X142658Y574832D01*
X142658Y573719D01*
X142730Y572608D01*
X142876Y571504D01*
X143093Y570413D01*
X143381Y569338D01*
X143739Y568284D01*
X144165Y567255D01*
X144657Y566257D01*
X145214Y565293D01*
X145832Y564368D01*
X146509Y563485D01*
X147243Y562648D01*
X148030Y561861D01*
X148867Y561127D01*
X149750Y560449D01*
X150676Y559831D01*
X151640Y559275D01*
X152638Y558782D01*
X153666Y558356D01*
X154720Y557999D01*
X155795Y557710D01*
X156887Y557493D01*
X157991Y557348D01*
X159101Y557275D01*
X160214Y557275D01*
X161325Y557348D01*
X162428Y557493D01*
X163520Y557710D01*
X164595Y557999D01*
X165649Y558356D01*
X166677Y558782D01*
X167676Y559275D01*
X168640Y559831D01*
X169565Y560449D01*
X170448Y561127D01*
X171285Y561861D01*
X172072Y562648D01*
X172806Y563485D01*
X173483Y564368D01*
X174102Y565293D01*
X174658Y566257D01*
X175151Y567255D01*
X175577Y568284D01*
X175934Y569338D01*
X176222Y570413D01*
X176440Y571504D01*
X176585Y572608D01*
X176658Y573719D01*
X265558Y573719D02*
X265558Y574832D01*
X265485Y575942D01*
X265340Y577046D01*
X265122Y578138D01*
X264834Y579213D01*
X264477Y580267D01*
X264051Y581295D01*
X263558Y582293D01*
X263002Y583257D01*
X262383Y584183D01*
X261706Y585066D01*
X260972Y585902D01*
X260185Y586690D01*
X259348Y587423D01*
X258465Y588101D01*
X257540Y588719D01*
X256576Y589276D01*
X255577Y589768D01*
X254549Y590194D01*
X253495Y590552D01*
X252420Y590840D01*
X251328Y591057D01*
X250225Y591202D01*
X249114Y591275D01*
X248001Y591275D01*
X246891Y591202D01*
X245787Y591057D01*
X244695Y590840D01*
X243620Y590552D01*
X242566Y590194D01*
X241538Y589768D01*
X240540Y589276D01*
X239576Y588719D01*
X238650Y588101D01*
X237767Y587423D01*
X236930Y586690D01*
X236143Y585902D01*
X235409Y585066D01*
X234732Y584183D01*
X234114Y583257D01*
X233557Y582293D01*
X233065Y581295D01*
X232639Y580267D01*
X232281Y579213D01*
X231993Y578138D01*
X231776Y577046D01*
X231630Y575942D01*
X231558Y574832D01*
X231558Y573719D01*
X231630Y572608D01*
X231776Y571504D01*
X231993Y570413D01*
X232281Y569338D01*
X232639Y568284D01*
X233065Y567255D01*
X233557Y566257D01*
X234114Y565293D01*
X234732Y564368D01*
X235409Y563485D01*
X236143Y562648D01*
X236930Y561861D01*
X237767Y561127D01*
X238650Y560449D01*
X239576Y559831D01*
X240540Y559275D01*
X241538Y558782D01*
X242566Y558356D01*
X243620Y557999D01*
X244695Y557710D01*
X245787Y557493D01*
X246891Y557348D01*
X248001Y557275D01*
X249114Y557275D01*
X250225Y557348D01*
X251328Y557493D01*
X252420Y557710D01*
X253495Y557999D01*
X254549Y558356D01*
X255577Y558782D01*
X256576Y559275D01*
X257540Y559831D01*
X258465Y560449D01*
X259348Y561127D01*
X260185Y561861D01*
X260972Y562648D01*
X261706Y563485D01*
X262383Y564368D01*
X263002Y565293D01*
X263558Y566257D01*
X264051Y567255D01*
X264477Y568284D01*
X264834Y569338D01*
X265122Y570413D01*
X265340Y571504D01*
X265485Y572608D01*
X265558Y573719D01*
M02*
